<svg width="1163" height="306" viewBox="0 0 1163 306" fill="none" xmlns="http://www.w3.org/2000/svg">
<g id="neon-heading">
<g id="neon-sign">
<g id="neon-h1-f">
<g id="Group 92" filter="url(#filter0_f)">
<rect id="Rectangle 2" opacity="0.3" x="71.4795" y="71.4102" width="522.693" height="146.344" rx="71.5978" fill="#6DFC3C"/>
<rect id="Rectangle 3" opacity="0.3" x="585.268" y="71.4102" width="506.382" height="146.344" rx="50.1185" fill="#6DFC3C"/>
</g>
<g id="blur 15 px" filter="url(#filter1_b)">
<g id="Dieter Kaupp" filter="url(#filter2_f)">
<path d="M135.291 176.138V122.338C135.291 119.505 137.588 117.208 140.421 117.208H156.196C162.508 117.208 168.042 118.436 172.796 120.891C177.633 123.265 181.322 126.702 183.863 131.204C186.487 135.624 187.798 140.78 187.798 146.673C187.798 152.566 186.487 157.764 183.863 162.265C181.322 166.685 177.633 170.123 172.796 172.578C168.042 174.952 162.508 176.138 156.196 176.138H148.852M857.889 151.584C857.889 168.445 850.634 176.875 836.124 176.875C821.532 176.875 814.236 168.445 814.236 151.584V108.833C814.236 106 811.939 103.703 809.106 103.703H803.38C800.547 103.703 798.25 106 798.25 108.833V152.198C798.25 164.639 801.57 174.215 808.21 180.927C814.851 187.556 824.114 190.871 836.001 190.871C847.888 190.871 857.11 187.556 863.669 180.927C870.309 174.215 873.629 164.639 873.629 152.198V108.833C873.629 106 871.332 103.703 868.499 103.703H863.019C860.186 103.703 857.889 106 857.889 108.833V121.628V127.644M1051.67 117.945C1053.07 120.11 1054.13 122.468 1054.87 125.018M1051.67 117.945L1054.87 125.018M1051.67 117.945C1050.95 116.829 1050.16 115.776 1049.28 114.787C1046.57 111.711 1043.1 109.244 1038.88 107.386C1033.39 104.931 1026.91 103.703 1019.45 103.703H989.169C986.336 103.703 984.039 106 984.039 108.833V184.513C984.039 187.347 986.336 189.643 989.169 189.643H994.895C997.728 189.643 1000.02 187.347 1000.02 184.513V179.583M662.426 123.312L647.629 138.64C644.425 141.96 638.809 139.692 638.809 135.078V108.833C638.809 106 636.512 103.703 633.679 103.703H627.953C625.12 103.703 622.823 106 622.823 108.833V184.513C622.823 187.347 625.12 189.643 627.953 189.643H633.679C636.512 189.643 638.809 187.347 638.809 184.513V179.792V177.476M669.01 116.492L671.479 113.934L679.842 105.27C680.809 104.269 682.141 103.703 683.533 103.703H687.439C691.934 103.703 694.255 109.074 691.175 112.348L666.221 138.873C664.465 140.74 664.356 143.617 665.966 145.611L694.777 181.29C697.486 184.646 695.098 189.643 690.786 189.643H685.213C683.703 189.643 682.268 188.977 681.294 187.823L656.104 157.99C654.15 155.675 650.627 155.549 648.512 157.717L640.266 166.173C639.332 167.131 638.809 168.416 638.809 169.754V170.653M719.462 174.467L720.143 172.871C720.949 170.981 722.806 169.754 724.861 169.754H761.141C763.187 169.754 765.037 170.969 765.849 172.847L771.78 186.551C772.593 188.428 774.443 189.643 776.488 189.643H781.893C785.619 189.643 788.102 185.795 786.567 182.4L752.348 106.72C751.518 104.883 749.689 103.703 747.674 103.703H738.559C736.542 103.703 734.712 104.886 733.883 106.725L699.772 182.405C698.242 185.8 700.725 189.643 704.449 189.643H709.599C711.654 189.643 713.511 188.417 714.317 186.526L715.825 182.993M751.107 138.448L752.699 142.131L756.128 150.067C757.591 153.454 755.108 157.232 751.419 157.232H734.664C730.981 157.232 728.498 153.465 729.949 150.08L739.229 128.438C740.65 125.123 745.348 125.117 746.778 128.428V128.428M857.889 146.919V150.602V142.131M896.017 121.628V113.934V108.833C896.017 106 898.313 103.703 901.147 103.703H931.431C938.891 103.703 945.367 104.931 950.86 107.386C956.435 109.842 960.697 113.361 963.649 117.945C966.6 122.528 968.075 127.971 968.075 134.273C968.075 140.494 966.6 145.937 963.649 150.602C960.697 155.185 956.435 158.705 950.86 161.16C945.367 163.616 938.891 164.843 931.431 164.843H917.132C914.299 164.843 912.002 167.14 912.002 169.973V184.513C912.002 187.347 909.706 189.643 906.872 189.643H901.147C898.313 189.643 896.017 187.347 896.017 184.513V146.919M896.017 128.428V123.312M941.649 149.665C943.533 148.967 945.169 148.052 946.556 146.919C950.163 143.972 951.967 139.757 951.967 134.273C951.967 128.789 950.163 124.574 946.556 121.628C942.949 118.681 937.662 117.208 930.693 117.208H917.132C914.299 117.208 912.002 119.505 912.002 122.338V146.209C912.002 149.042 914.299 151.339 917.132 151.339H924.57H931.431M1054.87 125.018C1055.69 127.864 1056.1 130.949 1056.1 134.273C1056.1 140.494 1054.62 145.937 1051.67 150.602C1048.72 155.185 1044.46 158.705 1038.88 161.16C1033.39 163.616 1026.91 164.843 1019.45 164.843H1003.98C1001.8 164.843 1000.02 166.616 1000.02 168.803V168.803V171.057M236.883 136.101V108.833C236.883 106 234.587 103.703 231.753 103.703H226.028C223.194 103.703 220.898 106 220.898 108.833V184.513C220.898 187.347 223.194 189.643 226.028 189.643H231.753C234.587 189.643 236.883 187.347 236.883 184.513V155.711V145.48M288.386 139.43H284.116H281.281C278.448 139.43 276.151 137.133 276.151 134.3V122.215C276.151 119.382 278.448 117.085 281.281 117.085H317.872C320.705 117.085 323.002 114.788 323.002 111.955V108.833C323.002 106 320.705 103.703 317.872 103.703H265.296C262.462 103.703 260.166 106 260.166 108.833V184.513C260.166 187.347 262.462 189.643 265.296 189.643H296.071H300.341M306.318 139.43H307.172M300.341 139.43H307.172M307.172 139.43H312.584C315.417 139.43 317.714 141.726 317.714 144.56V147.436C317.714 150.269 315.417 152.566 312.584 152.566H281.281C278.448 152.566 276.151 154.863 276.151 157.696V171.131C276.151 173.964 278.448 176.261 281.281 176.261H294.363H298.633M300.437 176.261H298.633M312.296 176.261H314.004M298.633 176.261H314.004M314.004 176.261H318.652H319.593C322.427 176.261 324.723 178.558 324.723 181.391V184.513C324.723 187.347 322.427 189.643 319.593 189.643H318.628H309.734M353.285 117.208H354.875C357.709 117.208 360.005 119.505 360.005 122.338V184.513C360.005 187.347 362.302 189.643 365.135 189.643H370.861C373.694 189.643 375.991 187.347 375.991 184.513V122.338C375.991 119.505 378.288 117.208 381.121 117.208H399.39C402.223 117.208 404.52 114.911 404.52 112.078V108.833C404.52 106 402.223 103.703 399.39 103.703H336.607C333.774 103.703 331.477 106 331.477 108.833V112.078C331.477 114.911 333.774 117.208 336.607 117.208H341.33M416.516 117.085V114.787V108.833C416.516 106 418.813 103.703 421.646 103.703H474.223C477.056 103.703 479.353 106 479.353 108.833V111.955C479.353 114.788 477.056 117.085 474.223 117.085H437.632C434.799 117.085 432.502 119.382 432.502 122.215V134.3C432.502 137.133 434.799 139.43 437.632 139.43H468.935C471.768 139.43 474.065 141.726 474.065 144.56V147.436C474.065 150.269 471.768 152.566 468.935 152.566H437.632C434.799 152.566 432.502 154.863 432.502 157.696V171.131C432.502 173.964 434.799 176.261 437.632 176.261H448.072H453.196M416.516 132.691V184.513C416.516 187.347 418.813 189.643 421.646 189.643H475.944C478.778 189.643 481.074 187.347 481.074 184.513V181.391C481.074 178.558 478.778 176.261 475.944 176.261H469.421M514.881 126.723V123.312V122.338C514.881 119.505 517.177 117.208 520.011 117.208H533.572C540.54 117.208 545.827 118.681 549.434 121.628C553.041 124.574 554.845 128.789 554.845 134.273C554.845 139.757 553.041 144.013 549.434 147.042C545.827 149.988 540.54 151.461 533.572 151.461H520.011C517.177 151.461 514.881 149.165 514.881 146.331V142.131M558.203 169.352L557.376 168.173L556.389 166.764C554.477 164.038 555.666 160.267 558.467 158.467C561.601 156.454 564.165 153.955 566.158 150.97C569.355 146.305 570.954 140.739 570.954 134.273C570.954 127.971 569.478 122.528 566.527 117.945C563.576 113.361 559.313 109.842 553.738 107.386C548.246 104.931 541.77 103.703 534.309 103.703H504.025C501.192 103.703 498.895 106 498.895 108.833V184.513C498.895 187.347 501.192 189.643 504.025 189.643H509.751C512.584 189.643 514.881 187.347 514.881 184.513V169.728C514.881 166.895 517.177 164.598 520.011 164.598H534.309C534.404 164.598 534.497 164.598 534.588 164.597C536.465 164.59 538.299 165.433 539.374 166.971L553.682 187.451C554.642 188.825 556.212 189.643 557.888 189.643H562.567C566.719 189.643 569.151 184.968 566.768 181.568L563.583 177.025M156.934 103.703C166.115 103.703 174.272 105.504 181.404 109.105C188.536 112.625 194.07 117.658 198.005 124.206C201.94 130.672 203.907 138.161 203.907 146.673C203.907 155.185 201.94 162.715 198.005 169.263C194.07 175.729 188.536 180.763 181.404 184.364C174.272 187.884 166.115 189.643 156.934 189.643H124.436C121.602 189.643 119.306 187.347 119.306 184.513V108.833C119.306 106 121.602 103.703 124.436 103.703L138.12 103.703L147.527 103.703L156.934 103.703ZM1018.72 151.339C1025.68 151.339 1030.97 149.865 1034.58 146.919C1038.19 143.972 1039.99 139.757 1039.99 134.273C1039.99 128.789 1038.19 124.574 1034.58 121.628C1030.97 118.681 1025.68 117.208 1018.72 117.208H1005.15C1002.32 117.208 1000.02 119.505 1000.02 122.338V146.209C1000.02 149.042 1002.32 151.339 1005.15 151.339H1018.72Z" stroke="#6DFC3C" stroke-width="5.12997" stroke-linecap="round" stroke-linejoin="round"/>
</g>
</g>
<g id="blur 7 px" filter="url(#filter3_b)">
<g id="Dieter Kaupp_2" filter="url(#filter4_f)">
<path d="M135.291 176.138V122.338C135.291 119.505 137.588 117.208 140.421 117.208H156.196C162.508 117.208 168.042 118.436 172.796 120.891C177.633 123.265 181.322 126.702 183.863 131.204C186.487 135.624 187.798 140.78 187.798 146.673C187.798 152.566 186.487 157.764 183.863 162.265C181.322 166.685 177.633 170.123 172.796 172.578C168.042 174.952 162.508 176.138 156.196 176.138H148.852M857.889 151.584C857.889 168.445 850.634 176.875 836.124 176.875C821.532 176.875 814.236 168.445 814.236 151.584V108.833C814.236 106 811.939 103.703 809.106 103.703H803.38C800.547 103.703 798.25 106 798.25 108.833V152.198C798.25 164.639 801.57 174.215 808.21 180.927C814.851 187.556 824.114 190.871 836.001 190.871C847.888 190.871 857.11 187.556 863.669 180.927C870.309 174.215 873.629 164.639 873.629 152.198V108.833C873.629 106 871.332 103.703 868.499 103.703H863.019C860.186 103.703 857.889 106 857.889 108.833V121.628V127.644M1051.67 117.945C1053.07 120.11 1054.13 122.468 1054.87 125.018M1051.67 117.945L1054.87 125.018M1051.67 117.945C1050.95 116.829 1050.16 115.776 1049.28 114.787C1046.57 111.711 1043.1 109.244 1038.88 107.386C1033.39 104.931 1026.91 103.703 1019.45 103.703H989.169C986.336 103.703 984.039 106 984.039 108.833V184.513C984.039 187.347 986.336 189.643 989.169 189.643H994.895C997.728 189.643 1000.02 187.347 1000.02 184.513V179.583M662.426 123.312L647.629 138.64C644.425 141.96 638.809 139.692 638.809 135.078V108.833C638.809 106 636.512 103.703 633.679 103.703H627.953C625.12 103.703 622.823 106 622.823 108.833V184.513C622.823 187.347 625.12 189.643 627.953 189.643H633.679C636.512 189.643 638.809 187.347 638.809 184.513V179.792V177.476M669.01 116.492L671.479 113.934L679.842 105.27C680.809 104.269 682.141 103.703 683.533 103.703H687.439C691.934 103.703 694.255 109.074 691.175 112.348L666.221 138.873C664.465 140.74 664.356 143.617 665.966 145.611L694.777 181.29C697.486 184.646 695.098 189.643 690.786 189.643H685.213C683.703 189.643 682.268 188.977 681.294 187.823L656.104 157.99C654.15 155.675 650.627 155.549 648.512 157.717L640.266 166.173C639.332 167.131 638.809 168.416 638.809 169.754V170.653M719.462 174.467L720.143 172.871C720.949 170.981 722.806 169.754 724.861 169.754H761.141C763.187 169.754 765.037 170.969 765.849 172.847L771.78 186.551C772.593 188.428 774.443 189.643 776.488 189.643H781.893C785.619 189.643 788.102 185.795 786.567 182.4L752.348 106.72C751.518 104.883 749.689 103.703 747.674 103.703H738.559C736.542 103.703 734.712 104.886 733.883 106.725L699.772 182.405C698.242 185.8 700.725 189.643 704.449 189.643H709.599C711.654 189.643 713.511 188.417 714.317 186.526L715.825 182.993M751.107 138.448L752.699 142.131L756.128 150.067C757.591 153.454 755.108 157.232 751.419 157.232H734.664C730.981 157.232 728.498 153.465 729.949 150.08L739.229 128.438C740.65 125.123 745.348 125.117 746.778 128.428V128.428M857.889 146.919V150.602V142.131M896.017 121.628V113.934V108.833C896.017 106 898.313 103.703 901.147 103.703H931.431C938.891 103.703 945.367 104.931 950.86 107.386C956.435 109.842 960.697 113.361 963.649 117.945C966.6 122.528 968.075 127.971 968.075 134.273C968.075 140.494 966.6 145.937 963.649 150.602C960.697 155.185 956.435 158.705 950.86 161.16C945.367 163.616 938.891 164.843 931.431 164.843H917.132C914.299 164.843 912.002 167.14 912.002 169.973V184.513C912.002 187.347 909.706 189.643 906.872 189.643H901.147C898.313 189.643 896.017 187.347 896.017 184.513V146.919M896.017 128.428V123.312M941.649 149.665C943.533 148.967 945.169 148.052 946.556 146.919C950.163 143.972 951.967 139.757 951.967 134.273C951.967 128.789 950.163 124.574 946.556 121.628C942.949 118.681 937.662 117.208 930.693 117.208H917.132C914.299 117.208 912.002 119.505 912.002 122.338V146.209C912.002 149.042 914.299 151.339 917.132 151.339H924.57H931.431M1054.87 125.018C1055.69 127.864 1056.1 130.949 1056.1 134.273C1056.1 140.494 1054.62 145.937 1051.67 150.602C1048.72 155.185 1044.46 158.705 1038.88 161.16C1033.39 163.616 1026.91 164.843 1019.45 164.843H1003.98C1001.8 164.843 1000.02 166.616 1000.02 168.803V168.803V171.057M236.883 136.101V108.833C236.883 106 234.587 103.703 231.753 103.703H226.028C223.194 103.703 220.898 106 220.898 108.833V184.513C220.898 187.347 223.194 189.643 226.028 189.643H231.753C234.587 189.643 236.883 187.347 236.883 184.513V155.711V145.48M288.386 139.43H284.116H281.281C278.448 139.43 276.151 137.133 276.151 134.3V122.215C276.151 119.382 278.448 117.085 281.281 117.085H317.872C320.705 117.085 323.002 114.788 323.002 111.955V108.833C323.002 106 320.705 103.703 317.872 103.703H265.296C262.462 103.703 260.166 106 260.166 108.833V184.513C260.166 187.347 262.462 189.643 265.296 189.643H296.071H300.341M306.318 139.43H307.172M300.341 139.43H307.172M307.172 139.43H312.584C315.417 139.43 317.714 141.726 317.714 144.56V147.436C317.714 150.269 315.417 152.566 312.584 152.566H281.281C278.448 152.566 276.151 154.863 276.151 157.696V171.131C276.151 173.964 278.448 176.261 281.281 176.261H294.363H298.633M300.437 176.261H298.633M312.296 176.261H314.004M298.633 176.261H314.004M314.004 176.261H318.652H319.593C322.427 176.261 324.723 178.558 324.723 181.391V184.513C324.723 187.347 322.427 189.643 319.593 189.643H318.628H309.734M353.285 117.208H354.875C357.709 117.208 360.005 119.505 360.005 122.338V184.513C360.005 187.347 362.302 189.643 365.135 189.643H370.861C373.694 189.643 375.991 187.347 375.991 184.513V122.338C375.991 119.505 378.288 117.208 381.121 117.208H399.39C402.223 117.208 404.52 114.911 404.52 112.078V108.833C404.52 106 402.223 103.703 399.39 103.703H336.607C333.774 103.703 331.477 106 331.477 108.833V112.078C331.477 114.911 333.774 117.208 336.607 117.208H341.33M416.516 117.085V114.787V108.833C416.516 106 418.813 103.703 421.646 103.703H474.223C477.056 103.703 479.353 106 479.353 108.833V111.955C479.353 114.788 477.056 117.085 474.223 117.085H437.632C434.799 117.085 432.502 119.382 432.502 122.215V134.3C432.502 137.133 434.799 139.43 437.632 139.43H468.935C471.768 139.43 474.065 141.726 474.065 144.56V147.436C474.065 150.269 471.768 152.566 468.935 152.566H437.632C434.799 152.566 432.502 154.863 432.502 157.696V171.131C432.502 173.964 434.799 176.261 437.632 176.261H448.072H453.196M416.516 132.691V184.513C416.516 187.347 418.813 189.643 421.646 189.643H475.944C478.778 189.643 481.074 187.347 481.074 184.513V181.391C481.074 178.558 478.778 176.261 475.944 176.261H469.421M514.881 126.723V123.312V122.338C514.881 119.505 517.177 117.208 520.011 117.208H533.572C540.54 117.208 545.827 118.681 549.434 121.628C553.041 124.574 554.845 128.789 554.845 134.273C554.845 139.757 553.041 144.013 549.434 147.042C545.827 149.988 540.54 151.461 533.572 151.461H520.011C517.177 151.461 514.881 149.165 514.881 146.331V142.131M558.203 169.352L557.376 168.173L556.389 166.764C554.477 164.038 555.666 160.267 558.467 158.467C561.601 156.454 564.165 153.955 566.158 150.97C569.355 146.305 570.954 140.739 570.954 134.273C570.954 127.971 569.478 122.528 566.527 117.945C563.576 113.361 559.313 109.842 553.738 107.386C548.246 104.931 541.77 103.703 534.309 103.703H504.025C501.192 103.703 498.895 106 498.895 108.833V184.513C498.895 187.347 501.192 189.643 504.025 189.643H509.751C512.584 189.643 514.881 187.347 514.881 184.513V169.728C514.881 166.895 517.177 164.598 520.011 164.598H534.309C534.404 164.598 534.497 164.598 534.588 164.597C536.465 164.59 538.299 165.433 539.374 166.971L553.682 187.451C554.642 188.825 556.212 189.643 557.888 189.643H562.567C566.719 189.643 569.151 184.968 566.768 181.568L563.583 177.025M156.934 103.703C166.115 103.703 174.272 105.504 181.404 109.105C188.536 112.625 194.07 117.658 198.005 124.206C201.94 130.672 203.907 138.161 203.907 146.673C203.907 155.185 201.94 162.715 198.005 169.263C194.07 175.729 188.536 180.763 181.404 184.364C174.272 187.884 166.115 189.643 156.934 189.643H124.436C121.602 189.643 119.306 187.347 119.306 184.513V108.833C119.306 106 121.602 103.703 124.436 103.703L138.12 103.703L147.527 103.703L156.934 103.703ZM1018.72 151.339C1025.68 151.339 1030.97 149.865 1034.58 146.919C1038.19 143.972 1039.99 139.757 1039.99 134.273C1039.99 128.789 1038.19 124.574 1034.58 121.628C1030.97 118.681 1025.68 117.208 1018.72 117.208H1005.15C1002.32 117.208 1000.02 119.505 1000.02 122.338V146.209C1000.02 149.042 1002.32 151.339 1005.15 151.339H1018.72Z" stroke="#6DFC3C" stroke-width="5.12997" stroke-linecap="round" stroke-linejoin="round"/>
</g>
</g>
<g id="neon shadow" filter="url(#filter5_d)">
<path id="Dieter Kaupp_3" d="M135.291 176.138V122.338C135.291 119.505 137.588 117.208 140.421 117.208H156.196C162.508 117.208 168.042 118.436 172.796 120.891C177.633 123.265 181.322 126.702 183.863 131.204C186.487 135.624 187.798 140.78 187.798 146.673C187.798 152.566 186.487 157.764 183.863 162.265C181.322 166.685 177.633 170.123 172.796 172.578C168.042 174.952 162.508 176.138 156.196 176.138H148.852M857.889 151.584C857.889 168.445 850.634 176.875 836.124 176.875C821.532 176.875 814.236 168.445 814.236 151.584V108.833C814.236 106 811.939 103.703 809.106 103.703H803.38C800.547 103.703 798.25 106 798.25 108.833V152.198C798.25 164.639 801.57 174.215 808.21 180.927C814.851 187.556 824.114 190.871 836.001 190.871C847.888 190.871 857.11 187.556 863.669 180.927C870.309 174.215 873.629 164.639 873.629 152.198V108.833C873.629 106 871.332 103.703 868.499 103.703H863.019C860.186 103.703 857.889 106 857.889 108.833V121.628V127.644M1051.67 117.945C1053.07 120.11 1054.13 122.468 1054.87 125.018M1051.67 117.945L1054.87 125.018M1051.67 117.945C1050.95 116.829 1050.16 115.776 1049.28 114.787C1046.57 111.711 1043.1 109.244 1038.88 107.386C1033.39 104.931 1026.91 103.703 1019.45 103.703H989.169C986.336 103.703 984.039 106 984.039 108.833V184.513C984.039 187.347 986.336 189.643 989.169 189.643H994.895C997.728 189.643 1000.02 187.347 1000.02 184.513V179.583M662.426 123.312L647.629 138.64C644.425 141.96 638.809 139.692 638.809 135.078V108.833C638.809 106 636.512 103.703 633.679 103.703H627.953C625.12 103.703 622.823 106 622.823 108.833V184.513C622.823 187.347 625.12 189.643 627.953 189.643H633.679C636.512 189.643 638.809 187.347 638.809 184.513V179.792V177.476M669.01 116.492L671.479 113.934L679.842 105.27C680.809 104.269 682.141 103.703 683.533 103.703H687.439C691.934 103.703 694.255 109.074 691.175 112.348L666.221 138.873C664.465 140.74 664.356 143.617 665.966 145.611L694.777 181.29C697.486 184.646 695.098 189.643 690.786 189.643H685.213C683.703 189.643 682.268 188.977 681.294 187.823L656.104 157.99C654.15 155.675 650.627 155.549 648.512 157.717L640.266 166.173C639.332 167.131 638.809 168.416 638.809 169.754V170.653M719.462 174.467L720.143 172.871C720.949 170.981 722.806 169.754 724.861 169.754H761.141C763.187 169.754 765.037 170.969 765.849 172.847L771.78 186.551C772.593 188.428 774.443 189.643 776.488 189.643H781.893C785.619 189.643 788.102 185.795 786.567 182.4L752.348 106.72C751.518 104.883 749.689 103.703 747.674 103.703H738.559C736.542 103.703 734.712 104.886 733.883 106.725L699.772 182.405C698.242 185.8 700.725 189.643 704.449 189.643H709.599C711.654 189.643 713.511 188.417 714.317 186.526L715.825 182.993M751.107 138.448L752.699 142.131L756.128 150.067C757.591 153.454 755.108 157.232 751.419 157.232H734.664C730.981 157.232 728.498 153.465 729.949 150.08L739.229 128.438C740.65 125.123 745.348 125.117 746.778 128.428V128.428M857.889 146.919V150.602V142.131M896.017 121.628V113.934V108.833C896.017 106 898.313 103.703 901.147 103.703H931.431C938.891 103.703 945.367 104.931 950.86 107.386C956.435 109.842 960.697 113.361 963.649 117.945C966.6 122.528 968.075 127.971 968.075 134.273C968.075 140.494 966.6 145.937 963.649 150.602C960.697 155.185 956.435 158.705 950.86 161.16C945.367 163.616 938.891 164.843 931.431 164.843H917.132C914.299 164.843 912.002 167.14 912.002 169.973V184.513C912.002 187.347 909.706 189.643 906.872 189.643H901.147C898.313 189.643 896.017 187.347 896.017 184.513V146.919M896.017 128.428V123.312M941.649 149.665C943.533 148.967 945.169 148.052 946.556 146.919C950.163 143.972 951.967 139.757 951.967 134.273C951.967 128.789 950.163 124.574 946.556 121.628C942.949 118.681 937.662 117.208 930.693 117.208H917.132C914.299 117.208 912.002 119.505 912.002 122.338V146.209C912.002 149.042 914.299 151.339 917.132 151.339H924.57H931.431M1054.87 125.018C1055.69 127.864 1056.1 130.949 1056.1 134.273C1056.1 140.494 1054.62 145.937 1051.67 150.602C1048.72 155.185 1044.46 158.705 1038.88 161.16C1033.39 163.616 1026.91 164.843 1019.45 164.843H1003.98C1001.8 164.843 1000.02 166.616 1000.02 168.803V168.803V171.057M236.883 136.101V108.833C236.883 106 234.587 103.703 231.753 103.703H226.028C223.194 103.703 220.898 106 220.898 108.833V184.513C220.898 187.347 223.194 189.643 226.028 189.643H231.753C234.587 189.643 236.883 187.347 236.883 184.513V155.711V145.48M288.386 139.43H284.116H281.281C278.448 139.43 276.151 137.133 276.151 134.3V122.215C276.151 119.382 278.448 117.085 281.281 117.085H317.872C320.705 117.085 323.002 114.788 323.002 111.955V108.833C323.002 106 320.705 103.703 317.872 103.703H265.296C262.462 103.703 260.166 106 260.166 108.833V184.513C260.166 187.347 262.462 189.643 265.296 189.643H296.071H300.341M306.318 139.43H307.172M300.341 139.43H307.172M307.172 139.43H312.584C315.417 139.43 317.714 141.726 317.714 144.56V147.436C317.714 150.269 315.417 152.566 312.584 152.566H281.281C278.448 152.566 276.151 154.863 276.151 157.696V171.131C276.151 173.964 278.448 176.261 281.281 176.261H294.363H298.633M300.437 176.261H298.633M312.296 176.261H314.004M298.633 176.261H314.004M314.004 176.261H318.652H319.593C322.427 176.261 324.723 178.558 324.723 181.391V184.513C324.723 187.347 322.427 189.643 319.593 189.643H318.628H309.734M353.285 117.208H354.875C357.709 117.208 360.005 119.505 360.005 122.338V184.513C360.005 187.347 362.302 189.643 365.135 189.643H370.861C373.694 189.643 375.991 187.347 375.991 184.513V122.338C375.991 119.505 378.288 117.208 381.121 117.208H399.39C402.223 117.208 404.52 114.911 404.52 112.078V108.833C404.52 106 402.223 103.703 399.39 103.703H336.607C333.774 103.703 331.477 106 331.477 108.833V112.078C331.477 114.911 333.774 117.208 336.607 117.208H341.33M416.516 117.085V114.787V108.833C416.516 106 418.813 103.703 421.646 103.703H474.223C477.056 103.703 479.353 106 479.353 108.833V111.955C479.353 114.788 477.056 117.085 474.223 117.085H437.632C434.799 117.085 432.502 119.382 432.502 122.215V134.3C432.502 137.133 434.799 139.43 437.632 139.43H468.935C471.768 139.43 474.065 141.726 474.065 144.56V147.436C474.065 150.269 471.768 152.566 468.935 152.566H437.632C434.799 152.566 432.502 154.863 432.502 157.696V171.131C432.502 173.964 434.799 176.261 437.632 176.261H448.072H453.196M416.516 132.691V184.513C416.516 187.347 418.813 189.643 421.646 189.643H475.944C478.778 189.643 481.074 187.347 481.074 184.513V181.391C481.074 178.558 478.778 176.261 475.944 176.261H469.421M514.881 126.723V123.312V122.338C514.881 119.505 517.177 117.208 520.011 117.208H533.572C540.54 117.208 545.827 118.681 549.434 121.628C553.041 124.574 554.845 128.789 554.845 134.273C554.845 139.757 553.041 144.013 549.434 147.042C545.827 149.988 540.54 151.461 533.572 151.461H520.011C517.177 151.461 514.881 149.165 514.881 146.331V142.131M558.203 169.352L557.376 168.173L556.389 166.764C554.477 164.038 555.666 160.267 558.467 158.467C561.601 156.454 564.165 153.955 566.158 150.97C569.355 146.305 570.954 140.739 570.954 134.273C570.954 127.971 569.478 122.528 566.527 117.945C563.576 113.361 559.313 109.842 553.738 107.386C548.246 104.931 541.77 103.703 534.309 103.703H504.025C501.192 103.703 498.895 106 498.895 108.833V184.513C498.895 187.347 501.192 189.643 504.025 189.643H509.751C512.584 189.643 514.881 187.347 514.881 184.513V169.728C514.881 166.895 517.177 164.598 520.011 164.598H534.309C534.404 164.598 534.497 164.598 534.588 164.597C536.465 164.59 538.299 165.433 539.374 166.971L553.682 187.451C554.642 188.825 556.212 189.643 557.888 189.643H562.567C566.719 189.643 569.151 184.968 566.768 181.568L563.583 177.025M156.934 103.703C166.115 103.703 174.272 105.504 181.404 109.105C188.536 112.625 194.07 117.658 198.005 124.206C201.94 130.672 203.907 138.161 203.907 146.673C203.907 155.185 201.94 162.715 198.005 169.263C194.07 175.729 188.536 180.763 181.404 184.364C174.272 187.884 166.115 189.643 156.934 189.643H124.436C121.602 189.643 119.306 187.347 119.306 184.513V108.833C119.306 106 121.602 103.703 124.436 103.703L138.12 103.703L147.527 103.703L156.934 103.703ZM1018.72 151.339C1025.68 151.339 1030.97 149.865 1034.58 146.919C1038.19 143.972 1039.99 139.757 1039.99 134.273C1039.99 128.789 1038.19 124.574 1034.58 121.628C1030.97 118.681 1025.68 117.208 1018.72 117.208H1005.15C1002.32 117.208 1000.02 119.505 1000.02 122.338V146.209C1000.02 149.042 1002.32 151.339 1005.15 151.339H1018.72Z" stroke="#6DFC3C" stroke-width="5.12997" stroke-linecap="round" stroke-linejoin="round"/>
</g>
<g id="neon">
<path id="Dieter Kaupp_4" d="M135.291 176.138V122.338C135.291 119.505 137.588 117.208 140.421 117.208H156.196C162.508 117.208 168.042 118.436 172.796 120.891C177.633 123.265 181.322 126.702 183.863 131.204C186.487 135.624 187.798 140.78 187.798 146.673C187.798 152.566 186.487 157.764 183.863 162.265C181.322 166.685 177.633 170.123 172.796 172.578C168.042 174.952 162.508 176.138 156.196 176.138H148.852M857.889 151.584C857.889 168.445 850.634 176.875 836.124 176.875C821.532 176.875 814.236 168.445 814.236 151.584V108.833C814.236 106 811.939 103.703 809.106 103.703H803.38C800.547 103.703 798.25 106 798.25 108.833V152.198C798.25 164.639 801.57 174.215 808.21 180.927C814.851 187.556 824.114 190.871 836.001 190.871C847.888 190.871 857.11 187.556 863.669 180.927C870.309 174.215 873.629 164.639 873.629 152.198V108.833C873.629 106 871.332 103.703 868.499 103.703H863.019C860.186 103.703 857.889 106 857.889 108.833V121.628V127.644M1051.67 117.945C1053.07 120.11 1054.13 122.468 1054.87 125.018M1051.67 117.945L1054.87 125.018M1051.67 117.945C1050.95 116.829 1050.16 115.776 1049.28 114.787C1046.57 111.711 1043.1 109.244 1038.88 107.386C1033.39 104.931 1026.91 103.703 1019.45 103.703H989.169C986.336 103.703 984.039 106 984.039 108.833V184.513C984.039 187.347 986.336 189.643 989.169 189.643H994.895C997.728 189.643 1000.02 187.347 1000.02 184.513V179.583M662.426 123.312L647.629 138.64C644.425 141.96 638.809 139.692 638.809 135.078V108.833C638.809 106 636.512 103.703 633.679 103.703H627.953C625.12 103.703 622.823 106 622.823 108.833V184.513C622.823 187.347 625.12 189.643 627.953 189.643H633.679C636.512 189.643 638.809 187.347 638.809 184.513V179.792V177.476M669.01 116.492L671.479 113.934L679.842 105.27C680.809 104.269 682.141 103.703 683.533 103.703H687.439C691.934 103.703 694.255 109.074 691.175 112.348L666.221 138.873C664.465 140.74 664.356 143.617 665.966 145.611L694.777 181.29C697.486 184.646 695.098 189.643 690.786 189.643H685.213C683.703 189.643 682.268 188.977 681.294 187.823L656.104 157.99C654.15 155.675 650.627 155.549 648.512 157.717L640.266 166.173C639.332 167.131 638.809 168.416 638.809 169.754V170.653M719.462 174.467L720.143 172.871C720.949 170.981 722.806 169.754 724.861 169.754H761.141C763.187 169.754 765.037 170.969 765.849 172.847L771.78 186.551C772.593 188.428 774.443 189.643 776.488 189.643H781.893C785.619 189.643 788.102 185.795 786.567 182.4L752.348 106.72C751.518 104.883 749.689 103.703 747.674 103.703H738.559C736.542 103.703 734.712 104.886 733.883 106.725L699.772 182.405C698.242 185.8 700.725 189.643 704.449 189.643H709.599C711.654 189.643 713.511 188.417 714.317 186.526L715.825 182.993M751.107 138.448L752.699 142.131L756.128 150.067C757.591 153.454 755.108 157.232 751.419 157.232H734.664C730.981 157.232 728.498 153.465 729.949 150.08L739.229 128.438C740.65 125.123 745.348 125.117 746.778 128.428V128.428M857.889 146.919V150.602V142.131M896.017 121.628V113.934V108.833C896.017 106 898.313 103.703 901.147 103.703H931.431C938.891 103.703 945.367 104.931 950.86 107.386C956.435 109.842 960.697 113.361 963.649 117.945C966.6 122.528 968.075 127.971 968.075 134.273C968.075 140.494 966.6 145.937 963.649 150.602C960.697 155.185 956.435 158.705 950.86 161.16C945.367 163.616 938.891 164.843 931.431 164.843H917.132C914.299 164.843 912.002 167.14 912.002 169.973V184.513C912.002 187.347 909.706 189.643 906.872 189.643H901.147C898.313 189.643 896.017 187.347 896.017 184.513V146.919M896.017 128.428V123.312M941.649 149.665C943.533 148.967 945.169 148.052 946.556 146.919C950.163 143.972 951.967 139.757 951.967 134.273C951.967 128.789 950.163 124.574 946.556 121.628C942.949 118.681 937.662 117.208 930.693 117.208H917.132C914.299 117.208 912.002 119.505 912.002 122.338V146.209C912.002 149.042 914.299 151.339 917.132 151.339H924.57H931.431M1054.87 125.018C1055.69 127.864 1056.1 130.949 1056.1 134.273C1056.1 140.494 1054.62 145.937 1051.67 150.602C1048.72 155.185 1044.46 158.705 1038.88 161.16C1033.39 163.616 1026.91 164.843 1019.45 164.843H1003.98C1001.8 164.843 1000.02 166.616 1000.02 168.803V168.803V171.057M236.883 136.101V108.833C236.883 106 234.587 103.703 231.753 103.703H226.028C223.194 103.703 220.898 106 220.898 108.833V184.513C220.898 187.347 223.194 189.643 226.028 189.643H231.753C234.587 189.643 236.883 187.347 236.883 184.513V155.711V145.48M288.386 139.43H284.116H281.281C278.448 139.43 276.151 137.133 276.151 134.3V122.215C276.151 119.382 278.448 117.085 281.281 117.085H317.872C320.705 117.085 323.002 114.788 323.002 111.955V108.833C323.002 106 320.705 103.703 317.872 103.703H265.296C262.462 103.703 260.166 106 260.166 108.833V184.513C260.166 187.347 262.462 189.643 265.296 189.643H296.071H300.341M306.318 139.43H307.172M300.341 139.43H307.172M307.172 139.43H312.584C315.417 139.43 317.714 141.726 317.714 144.56V147.436C317.714 150.269 315.417 152.566 312.584 152.566H281.281C278.448 152.566 276.151 154.863 276.151 157.696V171.131C276.151 173.964 278.448 176.261 281.281 176.261H294.363H298.633M300.437 176.261H298.633M312.296 176.261H314.004M298.633 176.261H314.004M314.004 176.261H318.652H319.593C322.427 176.261 324.723 178.558 324.723 181.391V184.513C324.723 187.347 322.427 189.643 319.593 189.643H318.628H309.734M353.285 117.208H354.875C357.709 117.208 360.005 119.505 360.005 122.338V184.513C360.005 187.347 362.302 189.643 365.135 189.643H370.861C373.694 189.643 375.991 187.347 375.991 184.513V122.338C375.991 119.505 378.288 117.208 381.121 117.208H399.39C402.223 117.208 404.52 114.911 404.52 112.078V108.833C404.52 106 402.223 103.703 399.39 103.703H336.607C333.774 103.703 331.477 106 331.477 108.833V112.078C331.477 114.911 333.774 117.208 336.607 117.208H341.33M416.516 117.085V114.787V108.833C416.516 106 418.813 103.703 421.646 103.703H474.223C477.056 103.703 479.353 106 479.353 108.833V111.955C479.353 114.788 477.056 117.085 474.223 117.085H437.632C434.799 117.085 432.502 119.382 432.502 122.215V134.3C432.502 137.133 434.799 139.43 437.632 139.43H468.935C471.768 139.43 474.065 141.726 474.065 144.56V147.436C474.065 150.269 471.768 152.566 468.935 152.566H437.632C434.799 152.566 432.502 154.863 432.502 157.696V171.131C432.502 173.964 434.799 176.261 437.632 176.261H448.072H453.196M416.516 132.691V184.513C416.516 187.347 418.813 189.643 421.646 189.643H475.944C478.778 189.643 481.074 187.347 481.074 184.513V181.391C481.074 178.558 478.778 176.261 475.944 176.261H469.421M514.881 126.723V123.312V122.338C514.881 119.505 517.177 117.208 520.011 117.208H533.572C540.54 117.208 545.827 118.681 549.434 121.628C553.041 124.574 554.845 128.789 554.845 134.273C554.845 139.757 553.041 144.013 549.434 147.042C545.827 149.988 540.54 151.461 533.572 151.461H520.011C517.177 151.461 514.881 149.165 514.881 146.331V142.131M558.203 169.352L557.376 168.173L556.389 166.764C554.477 164.038 555.666 160.267 558.467 158.467C561.601 156.454 564.165 153.955 566.158 150.97C569.355 146.305 570.954 140.739 570.954 134.273C570.954 127.971 569.478 122.528 566.527 117.945C563.576 113.361 559.313 109.842 553.738 107.386C548.246 104.931 541.77 103.703 534.309 103.703H504.025C501.192 103.703 498.895 106 498.895 108.833V184.513C498.895 187.347 501.192 189.643 504.025 189.643H509.751C512.584 189.643 514.881 187.347 514.881 184.513V169.728C514.881 166.895 517.177 164.598 520.011 164.598H534.309C534.404 164.598 534.497 164.598 534.588 164.597C536.465 164.59 538.299 165.433 539.374 166.971L553.682 187.451C554.642 188.825 556.212 189.643 557.888 189.643H562.567C566.719 189.643 569.151 184.968 566.768 181.568L563.583 177.025M156.934 103.703C166.115 103.703 174.272 105.504 181.404 109.105C188.536 112.625 194.07 117.658 198.005 124.206C201.94 130.672 203.907 138.161 203.907 146.673C203.907 155.185 201.94 162.715 198.005 169.263C194.07 175.729 188.536 180.763 181.404 184.364C174.272 187.884 166.115 189.643 156.934 189.643H124.436C121.602 189.643 119.306 187.347 119.306 184.513V108.833C119.306 106 121.602 103.703 124.436 103.703L138.12 103.703L147.527 103.703L156.934 103.703ZM1018.72 151.339C1025.68 151.339 1030.97 149.865 1034.58 146.919C1038.19 143.972 1039.99 139.757 1039.99 134.273C1039.99 128.789 1038.19 124.574 1034.58 121.628C1030.97 118.681 1025.68 117.208 1018.72 117.208H1005.15C1002.32 117.208 1000.02 119.505 1000.02 122.338V146.209C1000.02 149.042 1002.32 151.339 1005.15 151.339H1018.72Z" stroke="#6DFC3C" stroke-width="5.12997" stroke-linecap="round" stroke-linejoin="round"/>
</g>
<g id="outline">
<path id="Dieter Kaupp_5" d="M135.291 175.088V121.287C135.291 118.454 137.588 116.157 140.421 116.157H156.196C162.508 116.157 168.042 117.385 172.796 119.84C177.633 122.214 181.322 125.652 183.863 130.153C186.487 134.573 187.798 139.729 187.798 145.622C187.798 151.515 186.487 156.713 183.863 161.214C181.322 165.634 177.633 169.072 172.796 171.527C168.042 173.901 162.508 175.088 156.196 175.088H148.852M857.889 150.533C857.889 167.394 850.634 175.824 836.124 175.824C821.532 175.824 814.236 167.394 814.236 150.533V107.782C814.236 104.949 811.939 102.652 809.106 102.652H803.38C800.547 102.652 798.25 104.949 798.25 107.782V151.147C798.25 163.588 801.57 173.164 808.21 179.876C814.851 186.505 824.114 189.82 836.001 189.82C847.888 189.82 857.11 186.505 863.669 179.876C870.309 173.164 873.629 163.588 873.629 151.147V107.782C873.629 104.949 871.332 102.652 868.499 102.652H863.019C860.186 102.652 857.889 104.949 857.889 107.782V120.577V126.593M1051.67 116.894C1053.07 119.06 1054.13 121.417 1054.87 123.967M1051.67 116.894L1054.87 123.967M1051.67 116.894C1050.95 115.778 1050.16 114.726 1049.28 113.736C1046.57 110.66 1043.1 108.193 1038.88 106.335C1033.39 103.88 1026.91 102.652 1019.45 102.652H989.169C986.336 102.652 984.039 104.949 984.039 107.782V183.463C984.039 186.296 986.336 188.593 989.169 188.593H994.895C997.728 188.593 1000.02 186.296 1000.02 183.463V178.532M662.426 122.262L647.629 137.59C644.425 140.909 638.809 138.641 638.809 134.027V107.782C638.809 104.949 636.512 102.652 633.679 102.652H627.953C625.12 102.652 622.823 104.949 622.823 107.782V183.463C622.823 186.296 625.12 188.593 627.953 188.593H633.679C636.512 188.593 638.809 186.296 638.809 183.463V178.741V176.426M669.01 115.441L671.479 112.883L679.842 104.219C680.809 103.218 682.141 102.652 683.533 102.652H687.439C691.934 102.652 694.255 108.023 691.175 111.297L666.221 137.822C664.465 139.689 664.356 142.566 665.966 144.56L694.777 180.24C697.486 183.595 695.098 188.593 690.786 188.593H685.213C683.703 188.593 682.268 187.926 681.294 186.772L656.104 156.939C654.15 154.624 650.627 154.498 648.512 156.667L640.266 165.122C639.332 166.08 638.809 167.365 638.809 168.704V169.603M719.462 173.417L720.143 171.821C720.949 169.93 722.806 168.704 724.861 168.704H761.141C763.187 168.704 765.037 169.919 765.849 171.796L771.78 185.5C772.593 187.377 774.443 188.593 776.488 188.593H781.893C785.619 188.593 788.102 184.745 786.567 181.349L752.348 105.669C751.518 103.832 749.689 102.652 747.674 102.652H738.559C736.542 102.652 734.712 103.835 733.883 105.674L699.772 181.355C698.242 184.75 700.725 188.593 704.449 188.593H709.599C711.654 188.593 713.511 187.366 714.317 185.475L715.825 181.942M751.107 137.397L752.699 141.08L756.128 149.016C757.591 152.403 755.108 156.181 751.419 156.181H734.664C730.981 156.181 728.498 152.414 729.949 149.029L739.229 127.388C740.65 124.073 745.348 124.066 746.778 127.377V127.377M857.889 145.868V149.551V141.08M896.017 120.577V112.883V107.782C896.017 104.949 898.313 102.652 901.147 102.652H931.431C938.891 102.652 945.367 103.88 950.86 106.335C956.435 108.791 960.697 112.31 963.649 116.894C966.6 121.477 968.075 126.92 968.075 133.222C968.075 139.443 966.6 144.886 963.649 149.551C960.697 154.135 956.435 157.654 950.86 160.109C945.367 162.565 938.891 163.793 931.431 163.793H917.132C914.299 163.793 912.002 166.089 912.002 168.923V183.463C912.002 186.296 909.706 188.593 906.872 188.593H901.147C898.313 188.593 896.017 186.296 896.017 183.463V145.868M896.017 127.377V122.262M941.649 148.614C943.533 147.916 945.169 147.001 946.556 145.868C950.163 142.921 951.967 138.706 951.967 133.222C951.967 127.739 950.163 123.524 946.556 120.577C942.949 117.63 937.662 116.157 930.693 116.157H917.132C914.299 116.157 912.002 118.454 912.002 121.287V145.158C912.002 147.991 914.299 150.288 917.132 150.288H924.57H931.431M1054.87 123.967C1055.69 126.813 1056.1 129.898 1056.1 133.222C1056.1 139.443 1054.62 144.886 1051.67 149.551C1048.72 154.135 1044.46 157.654 1038.88 160.109C1033.39 162.565 1026.91 163.793 1019.45 163.793H1003.98C1001.8 163.793 1000.02 165.566 1000.02 167.753V167.753V170.006M236.883 135.05V107.782C236.883 104.949 234.587 102.652 231.753 102.652H226.028C223.194 102.652 220.898 104.949 220.898 107.782V183.463C220.898 186.296 223.194 188.593 226.028 188.593H231.753C234.587 188.593 236.883 186.296 236.883 183.463V154.66V144.429M288.386 138.379H284.116H281.281C278.448 138.379 276.151 136.082 276.151 133.249V121.164C276.151 118.331 278.448 116.034 281.281 116.034H317.872C320.705 116.034 323.002 113.738 323.002 110.904V107.782C323.002 104.949 320.705 102.652 317.872 102.652H265.296C262.462 102.652 260.166 104.949 260.166 107.782V183.463C260.166 186.296 262.462 188.593 265.296 188.593H296.071H300.341M306.318 138.379H307.172M300.341 138.379H307.172M307.172 138.379H312.584C315.417 138.379 317.714 140.676 317.714 143.509V146.386C317.714 149.219 315.417 151.515 312.584 151.515H281.281C278.448 151.515 276.151 153.812 276.151 156.645V170.08C276.151 172.914 278.448 175.21 281.281 175.21H294.363H298.633M300.437 175.21H298.633M312.296 175.21H314.004M298.633 175.21H314.004M314.004 175.21H318.652H319.593C322.427 175.21 324.723 177.507 324.723 180.34V183.463C324.723 186.296 322.427 188.593 319.593 188.593H318.628H309.734M353.285 116.157H354.875C357.709 116.157 360.005 118.454 360.005 121.287V183.463C360.005 186.296 362.302 188.593 365.135 188.593H370.861C373.694 188.593 375.991 186.296 375.991 183.463V121.287C375.991 118.454 378.288 116.157 381.121 116.157H399.39C402.223 116.157 404.52 113.86 404.52 111.027V107.782C404.52 104.949 402.223 102.652 399.39 102.652H336.607C333.774 102.652 331.477 104.949 331.477 107.782V111.027C331.477 113.86 333.774 116.157 336.607 116.157H341.33M416.516 116.034V113.736V107.782C416.516 104.949 418.813 102.652 421.646 102.652H474.223C477.056 102.652 479.353 104.949 479.353 107.782V110.904C479.353 113.738 477.056 116.034 474.223 116.034H437.632C434.799 116.034 432.502 118.331 432.502 121.164V133.249C432.502 136.082 434.799 138.379 437.632 138.379H468.935C471.768 138.379 474.065 140.676 474.065 143.509V146.386C474.065 149.219 471.768 151.515 468.935 151.515H437.632C434.799 151.515 432.502 153.812 432.502 156.645V170.08C432.502 172.914 434.799 175.21 437.632 175.21H448.072H453.196M416.516 131.64V183.463C416.516 186.296 418.813 188.593 421.646 188.593H475.944C478.778 188.593 481.074 186.296 481.074 183.463V180.34C481.074 177.507 478.778 175.21 475.944 175.21H469.421M514.881 125.672V122.262V121.287C514.881 118.454 517.177 116.157 520.011 116.157H533.572C540.54 116.157 545.827 117.63 549.434 120.577C553.041 123.524 554.845 127.739 554.845 133.222C554.845 138.706 553.041 142.962 549.434 145.991C545.827 148.937 540.54 150.411 533.572 150.411H520.011C517.177 150.411 514.881 148.114 514.881 145.281V141.08M558.203 168.301L557.376 167.123L556.389 165.714C554.477 162.988 555.666 159.216 558.467 157.417C561.601 155.403 564.165 152.904 566.158 149.919C569.355 145.254 570.954 139.688 570.954 133.222C570.954 126.92 569.478 121.477 566.527 116.894C563.576 112.31 559.313 108.791 553.738 106.335C548.246 103.88 541.77 102.652 534.309 102.652H504.025C501.192 102.652 498.895 104.949 498.895 107.782V183.463C498.895 186.296 501.192 188.593 504.025 188.593H509.751C512.584 188.593 514.881 186.296 514.881 183.463V168.677C514.881 165.844 517.177 163.547 520.011 163.547H534.309C534.404 163.547 534.497 163.547 534.588 163.547C536.465 163.54 538.299 164.382 539.374 165.921L553.682 186.401C554.642 187.774 556.212 188.593 557.888 188.593H562.567C566.719 188.593 569.151 183.917 566.768 180.518L563.583 175.974M156.934 102.652C166.115 102.652 174.272 104.453 181.404 108.054C188.536 111.574 194.07 116.607 198.005 123.155C201.94 129.621 203.907 137.11 203.907 145.622C203.907 154.135 201.94 161.665 198.005 168.212C194.07 174.678 188.536 179.712 181.404 183.313C174.272 186.833 166.115 188.593 156.934 188.593H124.436C121.602 188.593 119.306 186.296 119.306 183.463V107.782C119.306 104.949 121.602 102.652 124.436 102.652L138.12 102.652L147.527 102.652L156.934 102.652ZM1018.72 150.288C1025.68 150.288 1030.97 148.814 1034.58 145.868C1038.19 142.921 1039.99 138.706 1039.99 133.222C1039.99 127.739 1038.19 123.524 1034.58 120.577C1030.97 117.63 1025.68 116.157 1018.72 116.157H1005.15C1002.32 116.157 1000.02 118.454 1000.02 121.287V145.158C1000.02 147.991 1002.32 150.288 1005.15 150.288H1018.72Z" stroke="#B6FE9E" stroke-width="2.56499" stroke-linecap="round" stroke-linejoin="round"/>
</g>
</g>
<g id="neon-h2">
<g id="overlay" filter="url(#filter6_f)">
<rect x="165.912" y="202.65" width="833" height="57" rx="28.5" fill="#EAEAEA" fill-opacity="0.3"/>
</g>
<g id="h2-neon-blur-15" filter="url(#filter7_f)">
<path d="M210.208 230.479H190.912M190.912 230.479V248.283V213.123M190.912 230.479V213.123M190.912 213.123H212.694M247.898 213.123V237.126C247.881 239.493 247.358 241.553 246.328 243.308C245.298 245.063 243.841 246.415 241.957 247.365C240.09 248.299 237.94 248.766 235.509 248.766C231.807 248.766 228.836 247.76 226.599 245.747C224.377 243.719 223.226 240.917 223.145 237.343V213.123M281.483 248.283H261.126V213.123M312.509 248.283H292.152V213.123M362.825 223.144C362.825 221.164 362.318 219.369 361.303 217.759C360.289 216.149 358.856 214.894 357.005 213.992C355.17 213.09 353.085 212.64 350.751 212.64C347.305 212.64 344.472 213.485 342.25 215.175C340.045 216.85 338.942 219.031 338.942 221.719C338.942 224.488 340.133 226.726 342.516 228.433C344.19 229.64 346.706 229.489 350.168 229.984C353.63 230.479 356.623 230.98 358.576 231.468C360.554 231.962 361.216 232.653 362.038 233.94C362.859 235.228 363.042 237.835 363.042 239.589C363.042 242.358 361.931 244.58 359.71 246.254C357.504 247.929 354.59 248.766 350.968 248.766C348.489 248.766 346.211 248.323 344.134 247.438C342.073 246.552 340.504 245.312 339.425 243.719C338.362 242.125 337.831 240.298 337.831 238.237M384.747 213.123H398.27H371.224H384.747ZM384.747 213.123V248.283M427.494 235.895H408.429M427.494 235.895L432.701 248.283L417.923 213.123M427.494 235.895L417.923 213.123M408.429 235.895L403.264 248.283L417.923 213.123M408.429 235.895L417.923 213.123M467.445 237.319C467.043 241.022 465.715 243.856 463.461 245.82C461.223 247.784 458.237 248.766 454.502 248.766C451.894 248.766 449.584 248.114 447.571 246.81C445.575 245.506 444.03 243.662 442.935 241.28C441.84 238.881 441.285 236.144 441.269 233.069V228.505C441.269 225.382 441.816 222.613 442.911 220.198C444.005 217.783 445.575 215.924 447.62 214.62C449.68 213.3 452.047 212.64 454.719 212.64C458.486 212.64 461.457 213.662 463.63 215.706C465.819 217.735 467.091 220.544 467.445 224.134M485.45 228.505L479.611 234.435M485.45 228.505L500.596 213.123L479.611 234.435M485.45 228.505L505.474 248.283M479.611 234.435V248.283V213.123M571.342 213.123L562.334 248.283H559.485L551.516 220.778L550.622 217.3L549.753 220.778L541.591 248.283H538.741L529.758 213.123M601.405 230.479H591.513H582.01M582.01 230.479V248.283M582.01 230.479V213.123M582.01 248.283H603.889M582.01 248.283V213.123M582.01 213.123H603.768M615.113 248.283V213.123M615.113 248.283H626.873C630.447 248.283 633.232 247.413 635.229 245.675C637.241 243.92 638.247 241.489 638.247 238.382C638.247 236.337 637.619 234.534 636.364 232.973C635.124 231.411 633.617 230.929 631.573 230.479M615.113 248.283V230.479M615.113 213.123H625.497C629.264 213.123 632.122 213.903 634.07 215.465C636.018 217.011 636.992 219.297 636.992 222.323C636.992 224.142 636.493 225.728 635.494 227.08C634.512 228.417 633.295 229.899 631.573 230.479M615.113 213.123V230.479M631.573 230.479H623.66H615.113M724.055 230.479H714.164H704.713M704.713 230.479V248.283H726.592M704.713 230.479V213.123H726.471M763.148 213.123L750.059 248.283H747.21L734.121 213.123M795.164 248.283H773.285V213.123H795.043M773.285 230.479H782.993H792.799M826.745 248.283H806.388V213.123M931.535 248.283H909.656V213.123H931.414M909.656 230.479H919.407H929.298M958.477 233.446H942.687V248.283V213.123H954.109C957.86 213.123 960.79 214.032 962.899 215.851C965.008 217.671 966.062 220.214 966.062 223.482C966.062 225.736 965.402 227.724 964.082 229.447C962.762 231.17 960.698 232.786 958.477 233.446ZM958.477 233.446L967.873 248.283M667.361 248.283V213.123H677.189C680.071 213.123 682.655 213.783 684.941 215.103C687.227 216.407 689.006 218.282 690.278 220.729C691.565 223.176 692.209 225.962 692.209 229.085V232.321C692.209 235.46 691.573 238.245 690.302 240.676C689.03 243.107 687.235 244.982 684.917 246.303C682.614 247.623 679.966 248.283 676.972 248.283H667.361ZM861.804 232.61C861.804 235.846 861.24 238.688 860.113 241.135C859.003 243.582 857.409 245.465 855.332 246.786C853.255 248.106 850.857 248.766 848.136 248.766C844.031 248.766 840.714 247.301 838.187 244.371C835.659 241.425 834.395 237.456 834.395 232.466V228.843C834.395 225.64 834.959 222.806 836.086 220.343C837.229 217.864 838.839 215.964 840.915 214.644C842.992 213.308 845.383 212.64 848.087 212.64C850.792 212.64 853.175 213.292 855.235 214.596C857.312 215.9 858.914 217.743 860.041 220.126C861.168 222.508 861.756 225.269 861.804 228.409V232.61ZM874.235 233.446V248.283V213.123H886.213C889.867 213.123 892.749 214.056 894.858 215.924C896.983 217.791 898.046 220.359 898.046 223.627C898.046 226.927 897.023 229.479 894.979 231.282C892.95 233.069 890.077 233.446 886.213 233.446H874.235Z" stroke="#F1F1F1" stroke-width="3" stroke-linecap="round" stroke-linejoin="round"/>
</g>
<g id="h2-neon-blur-7" filter="url(#filter8_f)">
<path d="M210.208 230.479H190.912M190.912 230.479V248.283V213.123M190.912 230.479V213.123M190.912 213.123H212.694M247.898 213.123V237.126C247.881 239.493 247.358 241.553 246.328 243.308C245.298 245.063 243.841 246.415 241.957 247.365C240.09 248.299 237.94 248.766 235.509 248.766C231.807 248.766 228.836 247.76 226.599 245.747C224.377 243.719 223.226 240.917 223.145 237.343V213.123M281.483 248.283H261.126V213.123M312.509 248.283H292.152V213.123M362.825 223.144C362.825 221.164 362.318 219.369 361.303 217.759C360.289 216.149 358.856 214.894 357.005 213.992C355.17 213.09 353.085 212.64 350.751 212.64C347.305 212.64 344.472 213.485 342.25 215.175C340.045 216.85 338.942 219.031 338.942 221.719C338.942 224.488 340.133 226.726 342.516 228.433C344.19 229.64 346.706 229.489 350.168 229.984C353.63 230.479 356.623 230.98 358.576 231.468C360.554 231.962 361.216 232.653 362.038 233.94C362.859 235.228 363.042 237.835 363.042 239.589C363.042 242.358 361.931 244.58 359.71 246.254C357.504 247.929 354.59 248.766 350.968 248.766C348.489 248.766 346.211 248.323 344.134 247.438C342.073 246.552 340.504 245.312 339.425 243.719C338.362 242.125 337.831 240.298 337.831 238.237M384.747 213.123H398.27H371.224H384.747ZM384.747 213.123V248.283M427.494 235.895H408.429M427.494 235.895L432.701 248.283L417.923 213.123M427.494 235.895L417.923 213.123M408.429 235.895L403.264 248.283L417.923 213.123M408.429 235.895L417.923 213.123M467.445 237.319C467.043 241.022 465.715 243.856 463.461 245.82C461.223 247.784 458.237 248.766 454.502 248.766C451.894 248.766 449.584 248.114 447.571 246.81C445.575 245.506 444.03 243.662 442.935 241.28C441.84 238.881 441.285 236.144 441.269 233.069V228.505C441.269 225.382 441.816 222.613 442.911 220.198C444.005 217.783 445.575 215.924 447.62 214.62C449.68 213.3 452.047 212.64 454.719 212.64C458.486 212.64 461.457 213.662 463.63 215.706C465.819 217.735 467.091 220.544 467.445 224.134M485.45 228.505L479.611 234.435M485.45 228.505L500.596 213.123L479.611 234.435M485.45 228.505L505.474 248.283M479.611 234.435V248.283V213.123M571.342 213.123L562.334 248.283H559.485L551.516 220.778L550.622 217.3L549.753 220.778L541.591 248.283H538.741L529.758 213.123M601.405 230.479H591.513H582.01M582.01 230.479V248.283M582.01 230.479V213.123M582.01 248.283H603.889M582.01 248.283V213.123M582.01 213.123H603.768M615.113 248.283V213.123M615.113 248.283H626.873C630.447 248.283 633.232 247.413 635.229 245.675C637.241 243.92 638.247 241.489 638.247 238.382C638.247 236.337 637.619 234.534 636.364 232.973C635.124 231.411 633.617 230.929 631.573 230.479M615.113 248.283V230.479M615.113 213.123H625.497C629.264 213.123 632.122 213.903 634.07 215.465C636.018 217.011 636.992 219.297 636.992 222.323C636.992 224.142 636.493 225.728 635.494 227.08C634.512 228.417 633.295 229.899 631.573 230.479M615.113 213.123V230.479M631.573 230.479H623.66H615.113M724.055 230.479H714.164H704.713M704.713 230.479V248.283H726.592M704.713 230.479V213.123H726.471M763.148 213.123L750.059 248.283H747.21L734.121 213.123M795.164 248.283H773.285V213.123H795.043M773.285 230.479H782.993H792.799M826.745 248.283H806.388V213.123M931.535 248.283H909.656V213.123H931.414M909.656 230.479H919.407H929.298M958.477 233.446H942.687V248.283V213.123H954.109C957.86 213.123 960.79 214.032 962.899 215.851C965.008 217.671 966.062 220.214 966.062 223.482C966.062 225.736 965.402 227.724 964.082 229.447C962.762 231.17 960.698 232.786 958.477 233.446ZM958.477 233.446L967.873 248.283M667.361 248.283V213.123H677.189C680.071 213.123 682.655 213.783 684.941 215.103C687.227 216.407 689.006 218.282 690.278 220.729C691.565 223.176 692.209 225.962 692.209 229.085V232.321C692.209 235.46 691.573 238.245 690.302 240.676C689.03 243.107 687.235 244.982 684.917 246.303C682.614 247.623 679.966 248.283 676.972 248.283H667.361ZM861.804 232.61C861.804 235.846 861.24 238.688 860.113 241.135C859.003 243.582 857.409 245.465 855.332 246.786C853.255 248.106 850.857 248.766 848.136 248.766C844.031 248.766 840.714 247.301 838.187 244.371C835.659 241.425 834.395 237.456 834.395 232.466V228.843C834.395 225.64 834.959 222.806 836.086 220.343C837.229 217.864 838.839 215.964 840.915 214.644C842.992 213.308 845.383 212.64 848.087 212.64C850.792 212.64 853.175 213.292 855.235 214.596C857.312 215.9 858.914 217.743 860.041 220.126C861.168 222.508 861.756 225.269 861.804 228.409V232.61ZM874.235 233.446V248.283V213.123H886.213C889.867 213.123 892.749 214.056 894.858 215.924C896.983 217.791 898.046 220.359 898.046 223.627C898.046 226.927 897.023 229.479 894.979 231.282C892.95 233.069 890.077 233.446 886.213 233.446H874.235Z" stroke="#F1F1F1" stroke-width="3" stroke-linecap="round" stroke-linejoin="round"/>
</g>
<g id="h2-neon-shadow" filter="url(#filter9_d)">
<path d="M210.208 230.479H190.912M190.912 230.479V248.283V213.123M190.912 230.479V213.123M190.912 213.123H212.694M247.898 213.123V237.126C247.881 239.493 247.358 241.553 246.328 243.308C245.298 245.063 243.841 246.415 241.957 247.365C240.09 248.299 237.94 248.766 235.509 248.766C231.807 248.766 228.836 247.76 226.599 245.747C224.377 243.719 223.226 240.917 223.145 237.343V213.123M281.483 248.283H261.126V213.123M312.509 248.283H292.152V213.123M362.825 223.144C362.825 221.164 362.318 219.369 361.303 217.759C360.289 216.149 358.856 214.894 357.005 213.992C355.17 213.09 353.085 212.64 350.751 212.64C347.305 212.64 344.472 213.485 342.25 215.175C340.045 216.85 338.942 219.031 338.942 221.719C338.942 224.488 340.133 226.726 342.516 228.433C344.19 229.64 346.706 229.489 350.168 229.984C353.63 230.479 356.623 230.98 358.576 231.468C360.554 231.962 361.216 232.653 362.038 233.94C362.859 235.228 363.042 237.835 363.042 239.589C363.042 242.358 361.931 244.58 359.71 246.254C357.504 247.929 354.59 248.766 350.968 248.766C348.489 248.766 346.211 248.323 344.134 247.438C342.073 246.552 340.504 245.312 339.425 243.719C338.362 242.125 337.831 240.298 337.831 238.237M384.747 213.123H398.27H371.224H384.747ZM384.747 213.123V248.283M427.494 235.895H408.429M427.494 235.895L432.701 248.283L417.923 213.123M427.494 235.895L417.923 213.123M408.429 235.895L403.264 248.283L417.923 213.123M408.429 235.895L417.923 213.123M467.445 237.319C467.043 241.022 465.715 243.856 463.461 245.82C461.223 247.784 458.237 248.766 454.502 248.766C451.894 248.766 449.584 248.114 447.571 246.81C445.575 245.506 444.03 243.662 442.935 241.28C441.84 238.881 441.285 236.144 441.269 233.069V228.505C441.269 225.382 441.816 222.613 442.911 220.198C444.005 217.783 445.575 215.924 447.62 214.62C449.68 213.3 452.047 212.64 454.719 212.64C458.486 212.64 461.457 213.662 463.63 215.706C465.819 217.735 467.091 220.544 467.445 224.134M485.45 228.505L479.611 234.435M485.45 228.505L500.596 213.123L479.611 234.435M485.45 228.505L505.474 248.283M479.611 234.435V248.283V213.123M571.342 213.123L562.334 248.283H559.485L551.516 220.778L550.622 217.3L549.753 220.778L541.591 248.283H538.741L529.758 213.123M601.405 230.479H591.513H582.01M582.01 230.479V248.283M582.01 230.479V213.123M582.01 248.283H603.889M582.01 248.283V213.123M582.01 213.123H603.768M615.113 248.283V213.123M615.113 248.283H626.873C630.447 248.283 633.232 247.413 635.229 245.675C637.241 243.92 638.247 241.489 638.247 238.382C638.247 236.337 637.619 234.534 636.364 232.973C635.124 231.411 633.617 230.929 631.573 230.479M615.113 248.283V230.479M615.113 213.123H625.497C629.264 213.123 632.122 213.903 634.07 215.465C636.018 217.011 636.992 219.297 636.992 222.323C636.992 224.142 636.493 225.728 635.494 227.08C634.512 228.417 633.295 229.899 631.573 230.479M615.113 213.123V230.479M631.573 230.479H623.66H615.113M724.055 230.479H714.164H704.713M704.713 230.479V248.283H726.592M704.713 230.479V213.123H726.471M763.148 213.123L750.059 248.283H747.21L734.121 213.123M795.164 248.283H773.285V213.123H795.043M773.285 230.479H782.993H792.799M826.745 248.283H806.388V213.123M931.535 248.283H909.656V213.123H931.414M909.656 230.479H919.407H929.298M958.477 233.446H942.687V248.283V213.123H954.109C957.86 213.123 960.79 214.032 962.899 215.851C965.008 217.671 966.062 220.214 966.062 223.482C966.062 225.736 965.402 227.724 964.082 229.447C962.762 231.17 960.698 232.786 958.477 233.446ZM958.477 233.446L967.873 248.283M667.361 248.283V213.123H677.189C680.071 213.123 682.655 213.783 684.941 215.103C687.227 216.407 689.006 218.282 690.278 220.729C691.565 223.176 692.209 225.962 692.209 229.085V232.321C692.209 235.46 691.573 238.245 690.302 240.676C689.03 243.107 687.235 244.982 684.917 246.303C682.614 247.623 679.966 248.283 676.972 248.283H667.361ZM861.804 232.61C861.804 235.846 861.24 238.688 860.113 241.135C859.003 243.582 857.409 245.465 855.332 246.786C853.255 248.106 850.857 248.766 848.136 248.766C844.031 248.766 840.714 247.301 838.187 244.371C835.659 241.425 834.395 237.456 834.395 232.466V228.843C834.395 225.64 834.959 222.806 836.086 220.343C837.229 217.864 838.839 215.964 840.915 214.644C842.992 213.308 845.383 212.64 848.087 212.64C850.792 212.64 853.175 213.292 855.235 214.596C857.312 215.9 858.914 217.743 860.041 220.126C861.168 222.508 861.756 225.269 861.804 228.409V232.61ZM874.235 233.446V248.283V213.123H886.213C889.867 213.123 892.749 214.056 894.858 215.924C896.983 217.791 898.046 220.359 898.046 223.627C898.046 226.927 897.023 229.479 894.979 231.282C892.95 233.069 890.077 233.446 886.213 233.446H874.235Z" stroke="#F1F1F1" stroke-width="3" stroke-linecap="round" stroke-linejoin="round"/>
</g>
<path id="h2-neon" d="M210.208 230.479H190.912M190.912 230.479V248.283V213.123M190.912 230.479V213.123M190.912 213.123H212.694M247.898 213.123V237.126C247.881 239.493 247.358 241.553 246.328 243.308C245.298 245.063 243.841 246.415 241.957 247.365C240.09 248.299 237.94 248.766 235.509 248.766C231.807 248.766 228.836 247.76 226.599 245.747C224.377 243.719 223.226 240.917 223.145 237.343V213.123M281.483 248.283H261.126V213.123M312.509 248.283H292.152V213.123M362.825 223.144C362.825 221.164 362.318 219.369 361.303 217.759C360.289 216.149 358.856 214.894 357.005 213.992C355.17 213.09 353.085 212.64 350.751 212.64C347.305 212.64 344.472 213.485 342.25 215.175C340.045 216.85 338.942 219.031 338.942 221.719C338.942 224.488 340.133 226.726 342.516 228.433C344.19 229.64 346.706 229.489 350.168 229.984C353.63 230.479 356.623 230.98 358.576 231.468C360.554 231.962 361.216 232.653 362.038 233.94C362.859 235.228 363.042 237.835 363.042 239.589C363.042 242.358 361.931 244.58 359.71 246.254C357.504 247.929 354.59 248.766 350.968 248.766C348.489 248.766 346.211 248.323 344.134 247.438C342.073 246.552 340.504 245.312 339.425 243.719C338.362 242.125 337.831 240.298 337.831 238.237M384.747 213.123H398.27H371.224H384.747ZM384.747 213.123V248.283M427.494 235.895H408.429M427.494 235.895L432.701 248.283L417.923 213.123M427.494 235.895L417.923 213.123M408.429 235.895L403.264 248.283L417.923 213.123M408.429 235.895L417.923 213.123M467.445 237.319C467.043 241.022 465.715 243.856 463.461 245.82C461.223 247.784 458.237 248.766 454.502 248.766C451.894 248.766 449.584 248.114 447.571 246.81C445.575 245.506 444.03 243.662 442.935 241.28C441.84 238.881 441.285 236.144 441.269 233.069V228.505C441.269 225.382 441.816 222.613 442.911 220.198C444.005 217.783 445.575 215.924 447.62 214.62C449.68 213.3 452.047 212.64 454.719 212.64C458.486 212.64 461.457 213.662 463.63 215.706C465.819 217.735 467.091 220.544 467.445 224.134M485.45 228.505L479.611 234.435M485.45 228.505L500.596 213.123L479.611 234.435M485.45 228.505L505.474 248.283M479.611 234.435V248.283V213.123M571.342 213.123L562.334 248.283H559.485L551.516 220.778L550.622 217.3L549.753 220.778L541.591 248.283H538.741L529.758 213.123M601.405 230.479H591.513H582.01M582.01 230.479V248.283M582.01 230.479V213.123M582.01 248.283H603.889M582.01 248.283V213.123M582.01 213.123H603.768M615.113 248.283V213.123M615.113 248.283H626.873C630.447 248.283 633.232 247.413 635.229 245.675C637.241 243.92 638.247 241.489 638.247 238.382C638.247 236.337 637.619 234.534 636.364 232.973C635.124 231.411 633.617 230.929 631.573 230.479M615.113 248.283V230.479M615.113 213.123H625.497C629.264 213.123 632.122 213.903 634.07 215.465C636.018 217.011 636.992 219.297 636.992 222.323C636.992 224.142 636.493 225.728 635.494 227.08C634.512 228.417 633.295 229.899 631.573 230.479M615.113 213.123V230.479M631.573 230.479H623.66H615.113M724.055 230.479H714.164H704.713M704.713 230.479V248.283H726.592M704.713 230.479V213.123H726.471M763.148 213.123L750.059 248.283H747.21L734.121 213.123M795.164 248.283H773.285V213.123H795.043M773.285 230.479H782.993H792.799M826.745 248.283H806.388V213.123M931.535 248.283H909.656V213.123H931.414M909.656 230.479H919.407H929.298M958.477 233.446H942.687V248.283V213.123H954.109C957.86 213.123 960.79 214.032 962.899 215.851C965.008 217.671 966.062 220.214 966.062 223.482C966.062 225.736 965.402 227.724 964.082 229.447C962.762 231.17 960.698 232.786 958.477 233.446ZM958.477 233.446L967.873 248.283M667.361 248.283V213.123H677.189C680.071 213.123 682.655 213.783 684.941 215.103C687.227 216.407 689.006 218.282 690.278 220.729C691.565 223.176 692.209 225.962 692.209 229.085V232.321C692.209 235.46 691.573 238.245 690.302 240.676C689.03 243.107 687.235 244.982 684.917 246.303C682.614 247.623 679.966 248.283 676.972 248.283H667.361ZM861.804 232.61C861.804 235.846 861.24 238.688 860.113 241.135C859.003 243.582 857.409 245.465 855.332 246.786C853.255 248.106 850.857 248.766 848.136 248.766C844.031 248.766 840.714 247.301 838.187 244.371C835.659 241.425 834.395 237.456 834.395 232.466V228.843C834.395 225.64 834.959 222.806 836.086 220.343C837.229 217.864 838.839 215.964 840.915 214.644C842.992 213.308 845.383 212.64 848.087 212.64C850.792 212.64 853.175 213.292 855.235 214.596C857.312 215.9 858.914 217.743 860.041 220.126C861.168 222.508 861.756 225.269 861.804 228.409V232.61ZM874.235 233.446V248.283V213.123H886.213C889.867 213.123 892.749 214.056 894.858 215.924C896.983 217.791 898.046 220.359 898.046 223.627C898.046 226.927 897.023 229.479 894.979 231.282C892.95 233.069 890.077 233.446 886.213 233.446H874.235Z" stroke="#F1F1F1" stroke-width="3" stroke-linecap="round" stroke-linejoin="round"/>
<path id="h2-neon-outline" d="M210.208 229.489H190.912M190.912 229.489V247.293V212.133M190.912 229.489V212.133M190.912 212.133H212.694M247.898 212.133V236.137C247.881 238.503 247.358 240.564 246.328 242.319C245.298 244.074 243.841 245.426 241.957 246.376C240.09 247.31 237.94 247.776 235.509 247.776C231.807 247.776 228.836 246.77 226.599 244.758C224.377 242.729 223.226 239.928 223.145 236.354V212.133M281.483 247.293H261.126V212.133M312.509 247.293H292.152V212.133M362.825 222.155C362.825 220.175 362.318 218.38 361.303 216.77C360.289 215.16 358.856 213.904 357.005 213.003C355.17 212.101 353.085 211.65 350.751 211.65C347.305 211.65 344.472 212.496 342.25 214.186C340.045 215.86 338.942 218.042 338.942 220.73C338.942 223.499 340.133 225.737 342.516 227.443C344.19 228.651 346.706 228.5 350.168 228.995C353.63 229.489 356.623 229.99 358.576 230.478C360.554 230.973 361.216 231.663 362.038 232.951C362.859 234.239 363.042 236.845 363.042 238.6C363.042 241.369 361.931 243.591 359.71 245.265C357.504 246.939 354.59 247.776 350.968 247.776C348.489 247.776 346.211 247.334 344.134 246.448C342.073 245.563 340.504 244.323 339.425 242.729C338.362 241.136 337.831 239.308 337.831 237.248M384.747 212.133H398.27H371.224H384.747ZM384.747 212.133V247.293M427.494 234.905H408.429M427.494 234.905L432.701 247.293L417.923 212.133M427.494 234.905L417.923 212.133M408.429 234.905L403.264 247.293L417.923 212.133M408.429 234.905L417.923 212.133M467.445 236.33C467.043 240.033 465.715 242.866 463.461 244.83C461.223 246.794 458.237 247.776 454.502 247.776C451.894 247.776 449.584 247.124 447.571 245.82C445.575 244.516 444.03 242.673 442.935 240.29C441.84 237.892 441.285 235.155 441.269 232.08V227.516C441.269 224.393 441.816 221.624 442.911 219.209C444.005 216.794 445.575 214.935 447.62 213.631C449.68 212.31 452.047 211.65 454.719 211.65C458.486 211.65 461.457 212.673 463.63 214.717C465.819 216.746 467.091 219.555 467.445 223.145M485.45 227.516L479.611 233.446M485.45 227.516L500.596 212.133L479.611 233.446M485.45 227.516L505.474 247.293M479.611 233.446V247.293V212.133M571.342 212.133L562.334 247.293H559.485L551.516 219.788L550.622 216.311L549.753 219.788L541.591 247.293H538.741L529.758 212.133M601.405 229.489H591.513H582.01M582.01 229.489V247.293M582.01 229.489V212.133M582.01 247.293H603.889M582.01 247.293V212.133M582.01 212.133H603.768M615.113 247.293V212.133M615.113 247.293H626.873C630.447 247.293 633.232 246.424 635.229 244.685C637.241 242.931 638.247 240.5 638.247 237.393C638.247 235.348 637.619 233.545 636.364 231.983C635.124 230.422 633.617 229.94 631.573 229.489M615.113 247.293V229.489M615.113 212.133H625.497C629.264 212.133 632.122 212.914 634.07 214.476C636.018 216.021 636.992 218.307 636.992 221.334C636.992 223.153 636.493 224.739 635.494 226.091C634.512 227.427 633.295 228.91 631.573 229.489M615.113 212.133V229.489M631.573 229.489H623.66H615.113M724.055 229.489H714.164H704.713M704.713 229.489V247.293H726.592M704.713 229.489V212.133H726.471M763.148 212.133L750.059 247.293H747.21L734.121 212.133M795.164 247.293H773.285V212.133H795.043M773.285 229.489H782.993H792.799M826.745 247.293H806.388V212.133M931.535 247.293H909.656V212.133H931.414M909.656 229.489H919.407H929.298M958.477 232.457H942.687V247.293V212.133H954.109C957.86 212.133 960.79 213.043 962.899 214.862C965.008 216.681 966.062 219.225 966.062 222.493C966.062 224.747 965.402 226.735 964.082 228.458C962.762 230.18 960.698 231.797 958.477 232.457ZM958.477 232.457L967.873 247.293M667.361 247.293V212.133H677.189C680.071 212.133 682.655 212.793 684.941 214.114C687.227 215.418 689.006 217.293 690.278 219.74C691.565 222.187 692.209 224.972 692.209 228.095V231.331C692.209 234.471 691.573 237.256 690.302 239.687C689.03 242.118 687.235 243.993 684.917 245.313C682.614 246.633 679.966 247.293 676.972 247.293H667.361ZM861.804 231.621C861.804 234.857 861.24 237.698 860.113 240.146C859.003 242.593 857.409 244.476 855.332 245.796C853.255 247.116 850.857 247.776 848.136 247.776C844.031 247.776 840.714 246.311 838.187 243.381C835.659 240.435 834.395 236.467 834.395 231.476V227.854C834.395 224.65 834.959 221.817 836.086 219.354C837.229 216.875 838.839 214.975 840.915 213.655C842.992 212.318 845.383 211.65 848.087 211.65C850.792 211.65 853.175 212.302 855.235 213.606C857.312 214.91 858.914 216.754 860.041 219.136C861.168 221.519 861.756 224.28 861.804 227.419V231.621ZM874.235 232.457V247.293V212.133H886.213C889.867 212.133 892.749 213.067 894.858 214.935C896.983 216.802 898.046 219.37 898.046 222.638C898.046 225.938 897.023 228.49 894.979 230.293C892.95 232.08 890.077 232.457 886.213 232.457H874.235Z" stroke="white" stroke-linecap="round" stroke-linejoin="round"/>
</g>
</g>
</g>
<defs>
<filter id="filter0_f" x="0.776619" y="0.707283" width="1161.58" height="287.749" filterUnits="userSpaceOnUse" color-interpolation-filters="sRGB">
<feFlood flood-opacity="0" result="BackgroundImageFix"/>
<feBlend mode="normal" in="SourceGraphic" in2="BackgroundImageFix" result="shape"/>
<feGaussianBlur stdDeviation="35.3514" result="effect1_foregroundBlur"/>
</filter>
<filter id="filter1_b" x="103.316" y="87.7131" width="968.771" height="119.147" filterUnits="userSpaceOnUse" color-interpolation-filters="sRGB">
<feFlood flood-opacity="0" result="BackgroundImageFix"/>
<feGaussianBlur in="BackgroundImage" stdDeviation="6.7123"/>
<feComposite in2="SourceAlpha" operator="in" result="effect1_backgroundBlur"/>
<feBlend mode="normal" in="SourceGraphic" in2="effect1_backgroundBlur" result="shape"/>
</filter>
<filter id="filter2_f" x="103.316" y="87.7131" width="968.771" height="119.147" filterUnits="userSpaceOnUse" color-interpolation-filters="sRGB">
<feFlood flood-opacity="0" result="BackgroundImageFix"/>
<feBlend mode="normal" in="SourceGraphic" in2="BackgroundImageFix" result="shape"/>
<feGaussianBlur stdDeviation="6.7123" result="effect1_foregroundBlur"/>
</filter>
<filter id="filter3_b" x="103.316" y="87.7131" width="968.771" height="119.147" filterUnits="userSpaceOnUse" color-interpolation-filters="sRGB">
<feFlood flood-opacity="0" result="BackgroundImageFix"/>
<feGaussianBlur in="BackgroundImage" stdDeviation="6.7123"/>
<feComposite in2="SourceAlpha" operator="in" result="effect1_backgroundBlur"/>
<feBlend mode="normal" in="SourceGraphic" in2="effect1_backgroundBlur" result="shape"/>
</filter>
<filter id="filter4_f" x="110.476" y="94.8729" width="954.452" height="104.827" filterUnits="userSpaceOnUse" color-interpolation-filters="sRGB">
<feFlood flood-opacity="0" result="BackgroundImageFix"/>
<feBlend mode="normal" in="SourceGraphic" in2="BackgroundImageFix" result="shape"/>
<feGaussianBlur stdDeviation="3.13241" result="effect1_foregroundBlur"/>
</filter>
<filter id="filter5_d" x="112.893" y="101.138" width="949.617" height="102.558" filterUnits="userSpaceOnUse" color-interpolation-filters="sRGB">
<feFlood flood-opacity="0" result="BackgroundImageFix"/>
<feColorMatrix in="SourceAlpha" type="matrix" values="0 0 0 0 0 0 0 0 0 0 0 0 0 0 0 0 0 0 127 0"/>
<feOffset dy="6.41247"/>
<feGaussianBlur stdDeviation="1.92374"/>
<feColorMatrix type="matrix" values="0 0 0 0 0 0 0 0 0 0 0 0 0 0 0 0 0 0 0.6 0"/>
<feBlend mode="normal" in2="BackgroundImageFix" result="effect1_dropShadow"/>
<feBlend mode="normal" in="SourceGraphic" in2="effect1_dropShadow" result="shape"/>
</filter>
<filter id="filter6_f" x="119.912" y="156.65" width="925" height="149" filterUnits="userSpaceOnUse" color-interpolation-filters="sRGB">
<feFlood flood-opacity="0" result="BackgroundImageFix"/>
<feBlend mode="normal" in="SourceGraphic" in2="BackgroundImageFix" result="shape"/>
<feGaussianBlur stdDeviation="23" result="effect1_foregroundBlur"/>
</filter>
<filter id="filter7_f" x="174.412" y="196.14" width="809.961" height="69.126" filterUnits="userSpaceOnUse" color-interpolation-filters="sRGB">
<feFlood flood-opacity="0" result="BackgroundImageFix"/>
<feBlend mode="normal" in="SourceGraphic" in2="BackgroundImageFix" result="shape"/>
<feGaussianBlur stdDeviation="7.5" result="effect1_foregroundBlur"/>
</filter>
<filter id="filter8_f" x="182.412" y="204.14" width="793.961" height="53.126" filterUnits="userSpaceOnUse" color-interpolation-filters="sRGB">
<feFlood flood-opacity="0" result="BackgroundImageFix"/>
<feBlend mode="normal" in="SourceGraphic" in2="BackgroundImageFix" result="shape"/>
<feGaussianBlur stdDeviation="3.5" result="effect1_foregroundBlur"/>
</filter>
<filter id="filter9_d" x="186.412" y="211.14" width="785.961" height="47.126" filterUnits="userSpaceOnUse" color-interpolation-filters="sRGB">
<feFlood flood-opacity="0" result="BackgroundImageFix"/>
<feColorMatrix in="SourceAlpha" type="matrix" values="0 0 0 0 0 0 0 0 0 0 0 0 0 0 0 0 0 0 127 0"/>
<feOffset dy="5"/>
<feGaussianBlur stdDeviation="1.5"/>
<feColorMatrix type="matrix" values="0 0 0 0 0 0 0 0 0 0 0 0 0 0 0 0 0 0 0.6 0"/>
<feBlend mode="normal" in2="BackgroundImageFix" result="effect1_dropShadow"/>
<feBlend mode="normal" in="SourceGraphic" in2="effect1_dropShadow" result="shape"/>
</filter>
</defs>
</svg>
