<svg width="550" height="840" viewBox="0 0 550 840" fill="none" xmlns="http://www.w3.org/2000/svg"><g clip-path="url(#clip0)"><g filter="url(#filter0_f)"><path d="M411.782 76.504l-1.332 2.116 1.332-2.116zm34.441-55.857l-1.331 2.116 1.331-2.116zm-42.14 4.624a2.5 2.5 0 103.727 3.333l-3.727-3.333zM401.5 39.296a2.5 2.5 0 10-4.719-1.652l4.719 1.652zm46.975 21.482l2.114 1.334-2.114-1.334zm-7.516-31.573l-1.353 2.102 1.353-2.102zm-31.507 6.455l-2.115-1.334 2.115 1.334zm1.686 30.056a2.5 2.5 0 003.548-3.523l-3.548 3.523zm12.542 1.9a2.5 2.5 0 10-1.45 4.786l1.45-4.786zm-5.273-25.462l2.153 1.271-2.153-1.271zm4.54 16.868l1.291-2.141-1.291 2.141zm16.853-3.978l-2.153-1.272 2.153 1.272zm.331-16.034a2.5 2.5 0 00-3.742 3.316l3.742-3.316zm-9.495.017a2.5 2.5 0 10.957-4.908l-.957 4.908zm.61 5.286l1.166-2.212-1.166 2.212zm-6.313 2.13l2.221 1.148-2.221-1.147zm1.882 6.45l1.166-2.212-1.166 2.212zm4.372-4.3a2.5 2.5 0 104.993.262l-4.993-.261zm1.323 6.323a2.5 2.5 0 00-2.528-4.313l2.528 4.313zM276.507 734.295l-.048 2.5.048-2.5zm-43.3 43.628l2.499.047-2.499-.047zm41.614 45.271l-.049 2.499.049-2.499zm44.88-34.976a2.5 2.5 0 10-4.905-.969l4.905.969zm-4.911-18.138a2.5 2.5 0 004.904-.974l-4.904.974zm-69.444 7.7l2.499.073-2.499-.073zm28.914 29.89l-.074 2.499.074-2.499zm30.609-28.116l2.499.073-2.499-.073zm-21.678-31.39a2.501 2.501 0 00-1.229 4.847l1.229-4.847zm-15.05 4.843a2.5 2.5 0 10-1.231-4.846l1.231 4.846zm1.247 44.086a2.501 2.501 0 001.505-4.769l-1.505 4.769zm10.992-4.977a2.5 2.5 0 101.716 4.696l-1.716-4.696zm-4.399-6.855l.144 2.495-.144-2.495zm5.866-6.887l-2.496.141 2.496-.141zm-6.604-6.168l-.144-2.496.144 2.496zm-2.896 8.483a2.5 2.5 0 10-4.433 2.313l4.433-2.313zm-4.344-6.435a2.499 2.499 0 104.38 2.41l-4.38-2.41zm48.171-81.282l2.5-.038-2.5.038zm23.433-23.545l-.039-2.499.039 2.499zm24.134 22.81l2.5-.038-2.5.038zm-19.545 20.632a2.499 2.499 0 10.968 4.905l-.968-4.905zm-9.728 4.859a2.5 2.5 0 001.013-4.896l-1.013 4.896zm21.578-25.451l-2.5-.01 2.5.01zm-16.15 15.617l-.01 2.5.01-2.5zm-16.031-15.743l-2.5-.009 2.5.009zm13.09-12.797a2.5 2.5 0 10-1.065-4.885l1.065 4.885zm8.294-4.571a2.5 2.5 0 00-1.394 4.802l1.394-4.802zm-5.117 26.832l-.009 2.5.009-2.5zm-8.739-9.221l2.5.01-2.5-.01zm8.81-9.152l.009-2.5-.009 2.5zm5.933 7.116a2.5 2.5 0 004.783-1.459l-4.783 1.459zm4.588 6.179a2.499 2.499 0 10-4.701-1.704l4.701 1.704zm-14.266-4.338l2.5.009-2.5-.009zm3.511-3.395l-.01 2.5.01-2.5zm3.485 3.422l2.5.01-2.5-.01zm-6.058 5.33a2.5 2.5 0 102.11-4.533l-2.11 4.533zm3.127-4.595a2.5 2.5 0 002.676 4.223l-2.676-4.223zm-24.5 1.955a2.501 2.501 0 00.035-5l-.035 5zm-39.787-5.278a2.5 2.5 0 00-.035 5l.035-5zm114.703-586.093a2.5 2.5 0 004.238 2.654l-4.238-2.654zm21.498-24.903a2.5 2.5 0 00-4.238-2.654l4.238 2.654zm-139.632 654a2.501 2.501 0 005-.013l-5 .013zm-106.084-75.224l2.5.013-2.5-.013zm28.358 27.918l-.013 2.5.013-2.5zm28.639-27.625l2.5.013-2.5-.013zm-22.657-29.879a2.499 2.499 0 10-.917 4.915l.917-4.915zm-11.555 5.07a2.5 2.5 0 10-1.063-4.886l1.063 4.886zm4.88 44.378l-.052 2.5.052-2.5zm18.993-19.081l-2.5-.051 2.5.051zm-18.199-19.856l.052-2.499-.052 2.499zm-20.871 14.165a2.5 2.5 0 104.863 1.163l-4.863-1.163zm4.936 9.799a2.5 2.5 0 10-4.841 1.251l4.841-1.251zm4.261-4.367l-2.5-.006 2.5.006zm10.87 10.648l.006-2.5-.006 2.5zm10.924-10.591l-2.5-.006 2.5.006zm-6.752-12.506a2.5 2.5 0 00-1.518 4.764l1.518-4.764zm-7.093 4.872a2.5 2.5 0 10-1.704-4.701l1.704 4.701zm3.18 3.228l-.096-2.498.096 2.498zm-3.882 4.385l-2.498.094 2.498-.094zm4.2 4.075l.095 2.498-.095-2.498zm1.19-5.062a2.5 2.5 0 004.476-2.228l-4.476 2.228zm4.286 4.266a2.501 2.501 0 00-4.334-2.493l4.334 2.493zm23.599-6.048a2.5 2.5 0 100 5v-5zm50.723 5a2.5 2.5 0 000-5v5zM410.45 78.62c15.99 10.059 37.168 4.574 47.357-11.95l-4.256-2.625c-8.832 14.324-26.962 18.82-40.438 10.343l-2.663 4.232zm47.357-11.95c10.181-16.512 5.72-38.09-10.253-48.139l-2.662 4.232c13.493 8.489 17.5 26.945 8.659 41.282l4.256 2.624zM447.554 18.53c-14.164-8.91-32.419-5.62-43.471 6.74l3.727 3.333c9.55-10.68 25.134-13.356 37.082-5.84l2.662-4.233zm-50.773 19.113c-5.296 15.13-.076 32.33 13.669 40.976l2.663-4.232c-11.615-7.306-16.201-21.983-11.613-35.092l-4.719-1.652zm53.808 24.468c7.397-11.723 3.591-27.37-8.276-35.009l-2.707 4.204c9.685 6.234 12.609 18.858 6.755 28.137l4.228 2.668zm-8.276-35.009c-11.881-7.647-27.569-4.516-34.976 7.223l4.229 2.668c5.844-9.262 18.369-11.912 28.04-5.687l2.707-4.204zm-34.976 7.223c-6.368 10.095-4.426 23.106 3.801 31.39l3.548-3.523c-6.699-6.745-8.161-17.208-3.12-25.199l-4.229-2.668zm14.893 38.076c10.563 3.2 22.27-.638 28.359-10.29l-4.228-2.668c-4.811 7.626-14.13 10.763-22.681 8.172l-1.45 4.786zm-5.976-31.52c-4.134 7-1.617 16.052 5.403 20.282l2.581-4.283c-4.795-2.889-6.344-8.942-3.678-13.456l-4.306-2.542zm5.403 20.282c7.034 4.237 16.152 2.167 20.296-4.85l-4.306-2.542c-2.656 4.497-8.628 5.99-13.409 3.109l-2.581 4.283zm20.296-4.85c3.328-5.635 2.338-12.61-1.822-17.304l-3.742 3.316c2.826 3.188 3.405 7.811 1.258 11.446l4.306 2.543zm-10.36-22.195c-5.899-1.15-12.126 1.323-15.339 6.764l4.306 2.542c2.066-3.498 6.115-5.17 10.076-4.398l.957-4.908zm.819 7.982c-3.579-1.885-7.885-.319-9.7 3.196l4.442 2.294c.633-1.224 1.979-1.566 2.927-1.066l2.331-4.424zm-9.7 3.196c-1.809 3.502-.624 7.93 2.938 9.808l2.331-4.424c-.964-.508-1.465-1.853-.827-3.09l-4.442-2.294zm13.468 3.558c.141-2.687-1.196-5.398-3.768-6.754l-2.331 4.424c.702.37 1.153 1.158 1.106 2.069l4.993.261zm-10.53 6.25c2.255 1.188 4.835.998 6.86-.188l-2.528-4.314c-.646.378-1.388.402-2.001.078l-2.331 4.424zm-149.094 676.69c-24.937-.483-45.359 20.259-45.849 46.079l4.999.095c.442-23.277 18.792-41.6 40.753-41.175l.097-4.999zm-45.849 46.079c-.49 25.82 19.13 47.335 44.065 47.818l.097-4.999c-21.962-.425-39.605-19.446-39.163-42.724l-4.999-.095zm44.065 47.818c22.093.428 40.655-15.819 44.929-37.475l-4.905-.969c-3.845 19.483-20.461 33.822-39.927 33.445l-.097 4.999zm44.922-56.587c-4.151-20.892-21.684-36.895-43.138-37.31l-.097 4.999c18.906.366 34.598 14.496 38.331 33.285l4.904-.974zm-76.847 8.601c-.51 17.458 13.584 31.933 31.339 32.462l.149-4.998c-15.119-.451-26.916-12.74-26.49-27.318l-4.998-.146zm31.339 32.462c17.756.529 32.672-13.083 33.182-30.542l-4.997-.146c-.426 14.577-12.918 26.141-28.036 25.69l-.149 4.998zm33.182-30.542c.44-15.03-9.955-27.856-24.177-31.463l-1.229 4.847c12.085 3.065 20.775 13.916 20.409 26.47l4.997.146zM266.91 748.16c-13.468 3.422-23.644 15.187-24.063 29.546l4.998.146c.35-11.994 8.859-21.94 20.296-24.846l-1.231-4.846zm27.749 30.942c0-10.498-8.715-18.9-19.329-18.9v5c7.975 0 14.329 6.284 14.329 13.9h5zm-19.329-18.9c-10.614 0-19.329 8.402-19.329 18.9h5c0-7.616 6.354-13.9 14.329-13.9v-5zm-19.329 18.9c0 8.451 5.657 15.55 13.387 17.99l1.505-4.769c-5.78-1.824-9.892-7.086-9.892-13.221h-5zm26.095 17.709c7.303-2.668 12.563-9.561 12.563-17.709h-5c0 5.916-3.822 11.019-9.279 13.013l1.716 4.696zm-5.971-9.056c4.927-.284 8.493-4.65 8.218-9.523l-4.992.282c.132 2.336-1.554 4.137-3.514 4.25l.288 4.991zm8.218-9.523c-.276-4.876-4.314-8.807-9.244-8.523l.288 4.992c1.957-.113 3.832 1.479 3.964 3.813l4.992-.282zm-16.429 4.769c1.538 2.948 4.655 4.959 8.211 4.754l-.288-4.991c-1.426.082-2.782-.718-3.49-2.076l-4.433 2.313zm7.185-13.292c-3.111.18-5.703 2.011-7.096 4.544l4.38 2.41c.634-1.152 1.75-1.89 3.004-1.962l-.288-4.992zm43.575-76.776c-.172-11.36 9.155-20.824 20.971-21.007l-.077-4.999c-14.454.223-26.109 11.841-25.893 26.081l4.999-.075zm20.971-21.007c11.816-.182 21.424 8.989 21.596 20.347l5-.075c-.216-14.242-12.218-25.495-26.673-25.271l.077 4.999zm21.596 20.347c.153 10.068-7.15 18.642-17.045 20.595l.968 4.905c12.133-2.394 21.268-12.957 21.077-25.575l-5 .075zm-25.76 20.558c-9.527-1.97-16.659-10.121-16.807-19.898l-4.999.075c.185 12.255 9.106 22.303 20.793 24.719l1.013-4.896zm18.065-20.565c-.027 7.219-6.073 13.157-13.641 13.127l-.019 5c10.206.04 18.622-8.007 18.66-18.108l-5-.019zm-13.641 13.127c-7.567-.03-13.567-6.015-13.54-13.233l-5-.019c-.038 10.101 8.315 18.212 18.521 18.252l.019-5zm-13.54-13.233c.024-6.218 4.505-11.479 10.59-12.807l-1.065-4.885c-8.242 1.798-14.492 8.977-14.525 17.673l5 .019zm17.49-12.576c5.664 1.644 9.714 6.741 9.691 12.682l5 .019c.032-8.307-5.622-15.276-13.297-17.503l-1.394 4.802zm-3.713 19.53c-3.359-.014-6.264-2.909-6.249-6.711l-5-.019c-.024 6.344 4.896 11.705 11.23 11.73l.019-5zm-6.249-6.711c.015-3.802 2.941-6.675 6.3-6.662l.019-5c-6.333-.024-11.295 5.298-11.319 11.643l5 .019zm6.3-6.662c2.711.011 5.108 1.88 5.943 4.616l4.783-1.459c-1.418-4.647-5.614-8.137-10.707-8.157l-.019 5zm5.83 9.091c-.933 2.574-3.266 4.292-5.881 4.282l-.019 5c4.909.019 9.013-3.196 10.601-7.578l-4.701-1.704zm-7.065-2.625c.002-.441.389-.907 1.001-.904l.02-5c-3.252-.013-6.008 2.561-6.021 5.885l5 .019zm1.001-.904c.613.002.996.471.995.912l5 .02c.012-3.324-2.724-5.92-5.975-5.932l-.02 5zm-.453 1.719c-.357-.166-.549-.491-.548-.815l-5-.019c-.009 2.401 1.429 4.432 3.438 5.367l2.11-4.533zm1.448-.807a.889.889 0 01-.431.745l2.676 4.223c1.629-1.032 2.747-2.848 2.755-4.948l-5-.02zm-24.896-2.3l-39.822-.278-.035 5 39.822.278.035-5zm222.12-344.578c0 146.848-117.852 265.85-263.178 265.85v5c148.134 0 268.178-121.287 268.178-270.85h-5zM275 611.187c-145.325 0-263.178-119.002-263.178-265.85h-5c0 149.563 120.044 270.85 268.178 270.85v-5zM11.822 345.337c0-146.848 117.853-265.85 263.178-265.85v-5c-148.134 0-268.178 121.288-268.178 270.85h5zM275 79.487c145.326 0 263.178 119.002 263.178 265.85h5c0-149.562-120.044-270.85-268.178-270.85v5zm120.177 26.711l17.26-27.557-4.238-2.654-17.26 27.557 4.238 2.654zm-117.372 626.43L277.5 613.68l-5 .013.305 118.948 5-.013zm-113.584-75.224c-.085 16.779 13.787 30.344 30.845 30.431l.026-4.999c-14.42-.075-25.942-11.51-25.871-25.406l-5-.026zm30.845 30.431c17.059.088 31.067-13.333 31.152-30.112l-5-.025c-.07 13.896-11.706 25.212-26.126 25.138l-.026 4.999zm31.152-30.112c.075-14.867-10.814-27.216-25.157-29.892l-.917 4.915c12.1 2.258 21.136 12.635 21.074 24.952l5 .025zm-37.775-29.708c-13.758 2.993-24.15 14.951-24.222 29.389l5 .026c.06-11.962 8.681-22.005 20.285-24.529l-1.063-4.886zm5.891 51.764c11.758.244 21.299-9.507 21.544-21.53l-4.999-.102c-.193 9.48-7.659 16.816-16.441 16.633l-.104 4.999zm21.544-21.53c.245-12.023-8.889-22.162-20.646-22.406l-.104 4.999c8.783.182 15.945 7.823 15.751 17.305l4.999.102zm-20.646-22.406c-10.119-.211-18.611 6.998-20.923 16.664l4.863 1.163c1.812-7.577 8.387-12.986 15.956-12.828l.104-4.999zm-20.828 27.714c2.356 9.114 10.265 16.021 19.93 16.222l.104-4.999c-7.232-.151-13.348-5.338-15.193-12.474l-4.841 1.251zm6.602-5.624c-.018 7.306 6.026 13.134 13.363 13.154l.013-5c-4.698-.013-8.387-3.718-8.376-8.141l-5-.013zm13.363 13.154c7.338.019 13.412-5.778 13.431-13.084l-5-.013c-.012 4.423-3.719 8.109-8.418 8.097l-.013 5zm13.431-13.084c.015-5.88-3.908-10.811-9.252-12.513l-1.518 4.764c3.396 1.082 5.779 4.172 5.77 7.736l5 .013zm-18.049-12.342c-5.058 1.834-8.73 6.603-8.745 12.272l5 .013c.009-3.437 2.238-6.42 5.449-7.584l-1.704-4.701zm4.788 5.431c-3.717.142-6.42 3.37-6.284 6.977l4.996-.188c-.04-1.066.733-1.764 1.479-1.793l-.191-4.996zm-6.284 6.977c.135 3.607 3.075 6.622 6.793 6.479l-.191-4.996c-.745.028-1.566-.606-1.606-1.671l-4.996.188zm12.364-3.309c-1.101-2.211-3.4-3.771-6.08-3.668l.191 4.996c.549-.021 1.111.295 1.413.9l4.476-2.228zm-5.571 9.788c2.344-.09 4.309-1.431 5.381-3.294l-4.334-2.493c-.286.497-.753.772-1.238.791l.191 4.996zm28.98-4.342h50.723v-5h-50.723v5z" fill="#6DFC3C"/></g><g filter="url(#filter1_f)"><path d="M411.782 76.504l-1.065 1.693 1.065-1.693zm34.441-55.857l-1.065 1.693 1.065-1.693zm-41.768 4.957a2 2 0 102.982 2.666l-2.982-2.666zm-3.426 13.526a2.001 2.001 0 00-3.776-1.32l3.776 1.32zm47.446 21.648l1.692 1.067-1.692-1.067zm-7.516-31.573l-1.082 1.682 1.082-1.682zm-31.507 6.455l-1.692-1.067 1.692 1.067zm2.041 29.704a2 2 0 002.838-2.819l-2.838 2.82zm12.042 2.73a2 2 0 00-1.16 3.829l1.16-3.828zm-5.128-25.94l1.722 1.017-1.722-1.017zm4.54 16.868l1.033-1.713-1.033 1.713zm16.853-3.978l-1.722-1.017 1.722 1.017zm-.043-15.703a2 2 0 00-2.994 2.653l2.994-2.653zm-9.025-.805a2 2 0 00.766-3.926l-.766 3.926zm.514 5.777l.933-1.77-.933 1.77zm-6.313 2.13l1.777.919-1.777-.918zm1.882 6.45l.932-1.77-.932 1.77zm4.871-4.273a2 2 0 003.994.21l-3.994-.21zm.571 5.865a2 2 0 10-2.022-3.451l2.022 3.451zm-155.75 679.809l-.038 2 .038-2zm-43.3 43.628l1.999.038-1.999-.038zm41.614 45.271l-.039 1.999.039-1.999zm44.39-35.073a2.001 2.001 0 00-3.925-.775l3.925.775zm-3.931-18.138a2 2 0 103.923-.78l-3.923.78zm-69.934 7.797l1.999.059-1.999-.059zm28.914 29.89l-.059 1.999.059-1.999zm30.609-28.116l2 .059-2-.059zm-21.801-30.905a2 2 0 10-.983 3.877l.983-3.877zm-15.05 3.874a2 2 0 00-.985-3.877l.985 3.877zm1.521 44.093a2 2 0 001.203-3.815l-1.203 3.815zm11.012-4.03a2 2 0 001.373 3.757l-1.373-3.757zm-4.57-7.325l.115 1.996-.115-1.996zm5.866-6.887l-1.997.113 1.997-.113zm-6.604-6.168l-.115-1.997.115 1.997zm-3.34 8.714a2 2 0 00-3.546 1.85l3.546-1.85zm-3.462-6.425a1.999 1.999 0 103.504 1.928l-3.504-1.928zm47.733-81.523l2-.031-2 .031zm23.433-23.545l-.031-1.999.031 1.999zm24.134 22.81l2-.031-2 .031zm-19.448 21.122a2 2 0 00.774 3.925l-.774-3.925zm-9.723 3.879a2 2 0 10.809-3.917l-.809 3.917zm21.476-24.961l-2-.008 2 .008zm-16.15 15.617l-.008 2 .008-2zm-16.031-15.743l-2-.008 2 .008zm12.984-13.285a2 2 0 00-.852-3.908l.852 3.908zm8.261-3.603a2.001 2.001 0 00-1.115 3.842l1.115-3.842zm-4.978 26.352l-.007 2 .007-2zm-8.739-9.221l2 .008-2-.008zm8.81-9.152l.007-2-.007 2zm6.412 6.97a2 2 0 103.825-1.167l-3.825 1.167zm3.639 6.155a2 2 0 10-3.761-1.363l3.761 1.363zm-13.796-4.168l2 .007-2-.007zm3.511-3.395l-.008 2 .008-2zm3.485 3.422l2 .008-2-.008zm-5.847 4.877a2 2 0 001.688-3.626l-1.688 3.626zm3.183-3.72a2 2 0 102.142 3.378l-2.142-3.378zm-24.763 1.033a2 2 0 00.028-4l-.028 4zm-39.794-4.278a2 2 0 00-.028 4l.028-4zm115.13-586.327a2 2 0 103.39 2.123l-3.39-2.123zm20.65-25.434a2 2 0 00-3.39-2.124l3.39 2.124zM273.305 732.64a2 2 0 004-.01l-4 .01zm-106.584-75.223l2 .01-2-.01zm28.358 27.918l-.01 2 .01-2zm28.639-27.625l2 .01-2-.01zm-22.748-29.388a2 2 0 00-.734 3.932l.734-3.932zm-11.57 4.09a2 2 0 00-.85-3.909l.85 3.909zm4.986 44.867l-.042 2 .042-2zm18.993-19.081l-2-.041 2 .041zm-18.199-19.856l.041-1.999-.041 1.999zm-20.385 14.281a2 2 0 003.89.931l-3.89-.931zm3.966 9.808a2 2 0 00-3.873 1.001l3.873-1.001zm4.745-4.492l-2-.005 2 .005zm10.87 10.648l.005-2-.005 2zm10.924-10.591l-2-.005 2 .005zm-6.904-12.029a2 2 0 10-1.214 3.811l1.214-3.811zm-7.111 3.925a2 2 0 00-1.363-3.761l1.363 3.761zm3.35 3.698l-.077-1.999.077 1.999zm-3.882 4.385l-1.999.075 1.999-.075zm4.2 4.075l.076 1.999-.076-1.999zm1.637-5.285a2 2 0 103.581-1.782l-3.581 1.782zm3.405 4.24a2 2 0 00-3.467-1.995l3.467 1.995zm24.033-5.299a2 2 0 100 4v-4zm50.723 4a2 2 0 000-4v4zm135.966-581.51c15.738 9.901 36.611 4.515 46.665-11.79l-3.405-2.099c-8.968 14.545-27.403 19.14-41.131 10.504l-2.129 3.386zm46.665-11.79c10.047-16.293 5.631-37.56-10.094-47.452l-2.13 3.386c13.742 8.645 17.793 27.413 8.819 41.968l3.405 2.099zm-10.094-47.452c-13.942-8.77-31.93-5.541-42.833 6.65l2.982 2.666c9.7-10.847 25.552-13.585 37.721-5.93l2.13-3.386zM397.253 37.81c-5.225 14.928-.068 31.875 13.464 40.388l2.129-3.386c-11.827-7.44-16.476-22.37-11.817-35.68l-3.776-1.322zm52.914 24.036c7.242-11.478 3.524-26.824-8.125-34.322l-2.165 3.364c9.903 6.374 12.915 19.3 6.907 28.824l3.383 2.134zm-8.125-34.322c-11.66-7.504-27.031-4.422-34.282 7.07l3.383 2.135c6-9.51 18.842-12.208 28.734-5.841l2.165-3.364zm-34.282 7.07c-6.236 9.884-4.341 22.64 3.733 30.771l2.838-2.819c-6.852-6.899-8.362-17.617-3.188-25.817l-3.383-2.135zm14.615 37.33c10.362 3.14 21.83-.629 27.792-10.078l-3.383-2.134c-4.939 7.828-14.496 11.036-23.249 8.384l-1.16 3.828zm-5.69-30.786c-3.987 6.751-1.567 15.503 5.23 19.598l2.065-3.426c-5.018-3.023-6.663-9.376-3.851-14.138l-3.444-2.034zm5.23 19.598c6.809 4.103 15.612 2.09 19.607-4.674l-3.444-2.035c-2.805 4.75-9.092 6.3-14.098 3.283l-2.065 3.426zm19.607-4.674c3.21-5.436 2.261-12.176-1.765-16.72l-2.994 2.653c2.959 3.34 3.58 8.198 1.315 12.032l3.444 2.035zm-10.024-21.45c-5.706-1.114-11.715 1.28-14.813 6.526l3.444 2.034c2.181-3.692 6.448-5.445 10.603-4.635l.766-3.926zm.681 7.933c-3.316-1.747-7.326-.303-9.023 2.982l3.554 1.836c.751-1.454 2.393-1.918 3.604-1.28l1.865-3.538zm-9.023 2.982c-1.692 3.276-.576 7.396 2.727 9.136l1.864-3.538c-1.223-.645-1.793-2.3-1.037-3.762l-3.554-1.836zm12.524 3.303c.132-2.51-1.116-5.028-3.501-6.285l-1.865 3.539c.889.468 1.429 1.449 1.372 2.537l3.994.21zm-9.797 5.833c2.091 1.102 4.487.93 6.374-.177l-2.022-3.451c-.784.46-1.71.5-2.488.09l-1.864 3.538zM276.546 732.294c-24.639-.476-44.854 20.024-45.339 45.59l3.999.076c.447-23.532 19.004-42.097 41.263-41.666l.077-4zm-45.339 45.59c-.485 25.565 18.937 46.831 43.575 47.308l.077-3.999c-22.259-.431-40.099-19.702-39.653-43.233l-3.999-.076zm43.575 47.308c21.83.423 40.197-15.633 44.429-37.072l-3.925-.775c-3.888 19.7-20.698 34.23-40.427 33.848l-.077 3.999zm44.421-55.99c-4.109-20.682-21.457-36.497-42.657-36.908l-.077 4c19.16.371 35.036 14.688 38.811 33.688l3.923-.78zm-75.856 8.519c-.502 17.17 13.362 31.426 30.854 31.947l.119-3.998c-15.382-.459-27.409-12.967-26.975-27.832l-3.998-.117zm30.854 31.947c17.492.521 32.166-12.886 32.668-30.056l-3.999-.117c-.434 14.865-13.168 26.633-28.55 26.175l-.119 3.998zm32.668-30.056c.431-14.783-9.792-27.411-23.801-30.964l-.983 3.877c12.298 3.119 21.159 14.168 20.785 26.97l3.999.117zm-39.836-30.967c-13.265 3.37-23.274 14.953-23.686 29.076l3.998.117c.357-12.231 9.033-22.359 20.673-25.316l-.985-3.877zm27.126 30.457c0-10.21-8.479-18.4-18.829-18.4v4c8.239 0 14.829 6.496 14.829 14.4h4zm-18.829-18.4c-10.35 0-18.829 8.19-18.829 18.4h4c0-7.904 6.59-14.4 14.829-14.4v-4zm-18.829 18.4c0 8.219 5.502 15.135 13.038 17.513l1.203-3.815c-5.974-1.885-10.241-7.331-10.241-13.698h-4zm25.423 17.24c7.119-2.601 12.235-9.316 12.235-17.24h-4c0 6.139-3.966 11.421-9.608 13.483l1.373 3.757zm-5.828-9.086c4.63-.267 8.009-4.376 7.748-8.996l-3.994.226c.146 2.59-1.728 4.647-3.984 4.777l.23 3.993zm7.748-8.996c-.261-4.621-4.084-8.319-8.716-8.052l.23 3.994c2.255-.13 4.346 1.695 4.492 4.284l3.994-.226zm-15.487 4.509c1.455 2.79 4.396 4.68 7.739 4.487l-.23-3.993c-1.639.094-3.171-.827-3.963-2.344l-3.546 1.85zm6.771-12.561c-2.925.169-5.37 1.891-6.687 4.286l3.504 1.928c.71-1.29 1.974-2.137 3.413-2.22l-.23-3.994zm43.046-77.268c-.176-11.647 9.383-21.327 21.463-21.514l-.061-3.999c-14.191.219-25.613 11.621-25.401 25.574l3.999-.061zm21.463-21.514c12.08-.186 21.928 9.193 22.104 20.84l4-.061c-.212-13.953-11.975-24.998-26.165-24.778l.061 3.999zm22.104 20.84c.156 10.323-7.329 19.096-17.448 21.092l.774 3.925c11.909-2.35 20.861-12.715 20.674-25.078l-4 .061zm-26.362 21.054c-9.742-2.014-17.053-10.354-17.205-20.38l-3.999.061c.181 12.007 8.924 21.865 20.395 24.236l.809-3.917zm18.667-21.052c-.029 7.507-6.312 13.656-14.142 13.625l-.016 4c9.942.039 18.121-7.797 18.158-17.61l-4-.015zm-14.142 13.625c-7.832-.031-14.068-6.228-14.039-13.735l-4-.016c-.037 9.813 8.081 17.712 18.023 17.751l.016-4zm-14.039-13.735c.025-6.466 4.683-11.919 10.984-13.293l-.852-3.908c-8.027 1.75-14.099 8.737-14.132 17.185l4 .016zm18.13-13.054c5.864 1.702 10.075 6.987 10.051 13.164l4 .015c.031-8.07-5.463-14.852-12.936-17.021l-1.115 3.842zm-3.855 20.51c-3.656-.015-6.763-3.157-6.747-7.213l-4-.015c-.023 6.09 4.696 11.204 10.732 11.228l.015-4zm-6.747-7.213c.016-4.056 3.146-7.174 6.802-7.16l.015-4c-6.036-.023-10.794 5.054-10.817 11.145l4 .015zm6.802-7.16c2.949.012 5.526 2.043 6.42 4.97l3.825-1.167c-1.359-4.456-5.375-7.784-10.23-7.803l-.015 4zm6.298 9.762c-.998 2.754-3.508 4.622-6.353 4.611l-.015 4c4.679.018 8.606-3.047 10.129-7.248l-3.761-1.363zm-8.035-2.798c.003-.729.627-1.406 1.503-1.402l.016-4c-2.988-.012-5.507 2.351-5.519 5.387l4 .015zm1.503-1.402c.876.003 1.496.685 1.493 1.414l4 .016c.011-3.036-2.49-5.419-5.477-5.43l-.016 4zm-.666 2.673c-.522-.243-.839-.739-.837-1.271l-4-.015c-.008 2.193 1.305 4.054 3.149 4.912l1.688-3.626zm2.159-1.259a1.385 1.385 0 01-.664 1.165l2.142 3.378c1.493-.946 2.514-2.608 2.522-4.527l-4-.016zm-25.399-1.802l-39.822-.278-.028 4 39.822.278.028-4zm222.623-345.078c0 147.12-118.071 266.35-263.678 266.35v4c147.854 0 267.678-121.059 267.678-270.35h-4zM275 611.687c-145.606 0-263.678-119.23-263.678-266.35h-4c0 149.291 119.825 270.35 267.678 270.35v-4zM11.322 345.337c0-147.119 118.072-266.35 263.678-266.35v-4c-147.853 0-267.678 121.059-267.678 270.35h4zM275 78.987c145.607 0 263.678 119.231 263.678 266.35h4c0-149.291-119.824-270.35-267.678-270.35v4zm119.753 26.946l17.26-27.557-3.39-2.124-17.26 27.558 3.39 2.123zM277.305 732.63L277 613.682l-4 .01.305 118.948 4-.01zm-112.584-75.223c-.084 16.491 13.553 29.842 30.348 29.928l.02-3.999c-14.684-.076-26.44-11.724-26.368-25.909l-4-.02zm30.348 29.928c16.795.087 30.566-13.124 30.649-29.615l-4-.02c-.072 14.185-11.945 25.711-26.629 25.636l-.02 3.999zm30.649-29.615c.074-14.612-10.63-26.763-24.748-29.398l-.734 3.932c12.324 2.3 21.545 12.875 21.482 25.446l4 .02zm-37.168-29.217c-13.544 2.946-23.758 14.713-23.829 28.904l4 .02c.061-12.209 8.859-22.444 20.679-25.015l-.85-3.909zm5.794 50.776c11.461.238 20.794-9.271 21.034-21.041l-3.999-.081c-.198 9.735-7.871 17.312-16.952 17.123l-.083 3.999zm21.034-21.041c.24-11.768-8.697-21.657-20.157-21.895l-.083 3.999c9.081.189 16.44 8.079 16.241 17.815l3.999.081zm-20.157-21.895c-9.864-.205-18.164 6.824-20.426 16.28l3.89.931c1.863-7.786 8.63-13.375 16.453-13.212l.083-3.999zm-20.333 27.089c2.305 8.916 10.034 15.651 19.456 15.847l.083-3.999c-7.475-.156-13.77-5.515-15.666-12.849l-3.873 1.001zm6.618-5.498c-.018 7.018 5.791 12.634 12.864 12.653l.011-4c-4.963-.013-8.887-3.931-8.875-8.643l-4-.01zm12.864 12.653c7.074.018 12.912-5.568 12.93-12.586l-4-.01c-.012 4.712-3.957 8.609-8.919 8.596l-.011 4zm12.93-12.586c.014-5.648-3.754-10.394-8.904-12.034l-1.214 3.811c3.591 1.144 6.127 4.417 6.118 8.213l4 .01zm-17.378-11.87c-4.874 1.767-8.402 6.358-8.416 11.803l4 .01c.01-3.66 2.383-6.821 5.779-8.052l-1.363-3.761zm4.636 5.46c-3.42.131-5.929 3.107-5.804 6.459l3.998-.15c-.05-1.321.916-2.272 1.959-2.312l-.153-3.997zm-5.804 6.459c.126 3.353 2.854 6.13 6.275 5.999l-.153-3.998c-1.042.04-2.075-.832-2.124-2.151l-3.998.15zm11.417-3.067c-1.021-2.051-3.146-3.486-5.613-3.392l.153 3.997c.762-.029 1.498.411 1.879 1.177l3.581-1.782zm-5.142 9.066c2.158-.083 3.973-1.318 4.966-3.044l-3.467-1.995c-.364.633-.981 1.016-1.652 1.041l.153 3.998zm28.999-4.343h50.723v-4h-50.723v4z" fill="#6DFC3C"/></g><g filter="url(#filter2_f)"><path d="M411.782 76.504l-1.065 1.693 1.065-1.693zm34.441-55.857l-1.065 1.693 1.065-1.693zm-41.768 4.957a2 2 0 102.982 2.666l-2.982-2.666zm-3.426 13.526a2.001 2.001 0 00-3.776-1.32l3.776 1.32zm47.446 21.648l1.692 1.067-1.692-1.067zm-7.516-31.573l-1.082 1.682 1.082-1.682zm-31.507 6.455l-1.692-1.067 1.692 1.067zm2.041 29.704a2 2 0 002.838-2.819l-2.838 2.82zm12.042 2.73a2 2 0 00-1.16 3.829l1.16-3.828zm-5.128-25.94l1.722 1.017-1.722-1.017zm4.54 16.868l1.033-1.713-1.033 1.713zm16.853-3.978l-1.722-1.017 1.722 1.017zm-.043-15.703a2 2 0 00-2.994 2.653l2.994-2.653zm-9.025-.805a2 2 0 00.766-3.926l-.766 3.926zm.514 5.777l.933-1.77-.933 1.77zm-6.313 2.13l1.777.919-1.777-.918zm1.882 6.45l.932-1.77-.932 1.77zm4.871-4.273a2 2 0 003.994.21l-3.994-.21zm.571 5.865a2 2 0 10-2.022-3.451l2.022 3.451zm-155.75 679.809l-.038 2 .038-2zm-43.3 43.628l1.999.038-1.999-.038zm41.614 45.271l-.039 1.999.039-1.999zm44.39-35.073a2.001 2.001 0 00-3.925-.775l3.925.775zm-3.931-18.138a2 2 0 103.923-.78l-3.923.78zm-69.934 7.797l1.999.059-1.999-.059zm28.914 29.89l-.059 1.999.059-1.999zm30.609-28.116l2 .059-2-.059zm-21.801-30.905a2 2 0 10-.983 3.877l.983-3.877zm-15.05 3.874a2 2 0 00-.985-3.877l.985 3.877zm1.521 44.093a2 2 0 001.203-3.815l-1.203 3.815zm11.012-4.03a2 2 0 001.373 3.757l-1.373-3.757zm-4.57-7.325l.115 1.996-.115-1.996zm5.866-6.887l-1.997.113 1.997-.113zm-6.604-6.168l-.115-1.997.115 1.997zm-3.34 8.714a2 2 0 00-3.546 1.85l3.546-1.85zm-3.462-6.425a1.999 1.999 0 103.504 1.928l-3.504-1.928zm47.733-81.523l2-.031-2 .031zm23.433-23.545l-.031-1.999.031 1.999zm24.134 22.81l2-.031-2 .031zm-19.448 21.122a2 2 0 00.774 3.925l-.774-3.925zm-9.723 3.879a2 2 0 10.809-3.917l-.809 3.917zm21.476-24.961l-2-.008 2 .008zm-16.15 15.617l-.008 2 .008-2zm-16.031-15.743l-2-.008 2 .008zm12.984-13.285a2 2 0 00-.852-3.908l.852 3.908zm8.261-3.603a2.001 2.001 0 00-1.115 3.842l1.115-3.842zm-4.978 26.352l-.007 2 .007-2zm-8.739-9.221l2 .008-2-.008zm8.81-9.152l.007-2-.007 2zm6.412 6.97a2 2 0 103.825-1.167l-3.825 1.167zm3.639 6.155a2 2 0 10-3.761-1.363l3.761 1.363zm-13.796-4.168l2 .007-2-.007zm3.511-3.395l-.008 2 .008-2zm3.485 3.422l2 .008-2-.008zm-5.847 4.877a2 2 0 001.688-3.626l-1.688 3.626zm3.183-3.72a2 2 0 102.142 3.378l-2.142-3.378zm-24.763 1.033a2 2 0 00.028-4l-.028 4zm-39.794-4.278a2 2 0 00-.028 4l.028-4zm115.13-586.327a2 2 0 103.39 2.123l-3.39-2.123zm20.65-25.434a2 2 0 00-3.39-2.124l3.39 2.124zM273.305 732.64a2 2 0 004-.01l-4 .01zm-106.584-75.223l2 .01-2-.01zm28.358 27.918l-.01 2 .01-2zm28.639-27.625l2 .01-2-.01zm-22.748-29.388a2 2 0 00-.734 3.932l.734-3.932zm-11.57 4.09a2 2 0 00-.85-3.909l.85 3.909zm4.986 44.867l-.042 2 .042-2zm18.993-19.081l-2-.041 2 .041zm-18.199-19.856l.041-1.999-.041 1.999zm-20.385 14.281a2 2 0 003.89.931l-3.89-.931zm3.966 9.808a2 2 0 00-3.873 1.001l3.873-1.001zm4.745-4.492l-2-.005 2 .005zm10.87 10.648l.005-2-.005 2zm10.924-10.591l-2-.005 2 .005zm-6.904-12.029a2 2 0 10-1.214 3.811l1.214-3.811zm-7.111 3.925a2 2 0 00-1.363-3.761l1.363 3.761zm3.35 3.698l-.077-1.999.077 1.999zm-3.882 4.385l-1.999.075 1.999-.075zm4.2 4.075l.076 1.999-.076-1.999zm1.637-5.285a2 2 0 103.581-1.782l-3.581 1.782zm3.405 4.24a2 2 0 00-3.467-1.995l3.467 1.995zm24.033-5.299a2 2 0 100 4v-4zm50.723 4a2 2 0 000-4v4zm135.966-581.51c15.738 9.901 36.611 4.515 46.665-11.79l-3.405-2.099c-8.968 14.545-27.403 19.14-41.131 10.504l-2.129 3.386zm46.665-11.79c10.047-16.293 5.631-37.56-10.094-47.452l-2.13 3.386c13.742 8.645 17.793 27.413 8.819 41.968l3.405 2.099zm-10.094-47.452c-13.942-8.77-31.93-5.541-42.833 6.65l2.982 2.666c9.7-10.847 25.552-13.585 37.721-5.93l2.13-3.386zM397.253 37.81c-5.225 14.928-.068 31.875 13.464 40.388l2.129-3.386c-11.827-7.44-16.476-22.37-11.817-35.68l-3.776-1.322zm52.914 24.036c7.242-11.478 3.524-26.824-8.125-34.322l-2.165 3.364c9.903 6.374 12.915 19.3 6.907 28.824l3.383 2.134zm-8.125-34.322c-11.66-7.504-27.031-4.422-34.282 7.07l3.383 2.135c6-9.51 18.842-12.208 28.734-5.841l2.165-3.364zm-34.282 7.07c-6.236 9.884-4.341 22.64 3.733 30.771l2.838-2.819c-6.852-6.899-8.362-17.617-3.188-25.817l-3.383-2.135zm14.615 37.33c10.362 3.14 21.83-.629 27.792-10.078l-3.383-2.134c-4.939 7.828-14.496 11.036-23.249 8.384l-1.16 3.828zm-5.69-30.786c-3.987 6.751-1.567 15.503 5.23 19.598l2.065-3.426c-5.018-3.023-6.663-9.376-3.851-14.138l-3.444-2.034zm5.23 19.598c6.809 4.103 15.612 2.09 19.607-4.674l-3.444-2.035c-2.805 4.75-9.092 6.3-14.098 3.283l-2.065 3.426zm19.607-4.674c3.21-5.436 2.261-12.176-1.765-16.72l-2.994 2.653c2.959 3.34 3.58 8.198 1.315 12.032l3.444 2.035zm-10.024-21.45c-5.706-1.114-11.715 1.28-14.813 6.526l3.444 2.034c2.181-3.692 6.448-5.445 10.603-4.635l.766-3.926zm.681 7.933c-3.316-1.747-7.326-.303-9.023 2.982l3.554 1.836c.751-1.454 2.393-1.918 3.604-1.28l1.865-3.538zm-9.023 2.982c-1.692 3.276-.576 7.396 2.727 9.136l1.864-3.538c-1.223-.645-1.793-2.3-1.037-3.762l-3.554-1.836zm12.524 3.303c.132-2.51-1.116-5.028-3.501-6.285l-1.865 3.539c.889.468 1.429 1.449 1.372 2.537l3.994.21zm-9.797 5.833c2.091 1.102 4.487.93 6.374-.177l-2.022-3.451c-.784.46-1.71.5-2.488.09l-1.864 3.538zM276.546 732.294c-24.639-.476-44.854 20.024-45.339 45.59l3.999.076c.447-23.532 19.004-42.097 41.263-41.666l.077-4zm-45.339 45.59c-.485 25.565 18.937 46.831 43.575 47.308l.077-3.999c-22.259-.431-40.099-19.702-39.653-43.233l-3.999-.076zm43.575 47.308c21.83.423 40.197-15.633 44.429-37.072l-3.925-.775c-3.888 19.7-20.698 34.23-40.427 33.848l-.077 3.999zm44.421-55.99c-4.109-20.682-21.457-36.497-42.657-36.908l-.077 4c19.16.371 35.036 14.688 38.811 33.688l3.923-.78zm-75.856 8.519c-.502 17.17 13.362 31.426 30.854 31.947l.119-3.998c-15.382-.459-27.409-12.967-26.975-27.832l-3.998-.117zm30.854 31.947c17.492.521 32.166-12.886 32.668-30.056l-3.999-.117c-.434 14.865-13.168 26.633-28.55 26.175l-.119 3.998zm32.668-30.056c.431-14.783-9.792-27.411-23.801-30.964l-.983 3.877c12.298 3.119 21.159 14.168 20.785 26.97l3.999.117zm-39.836-30.967c-13.265 3.37-23.274 14.953-23.686 29.076l3.998.117c.357-12.231 9.033-22.359 20.673-25.316l-.985-3.877zm27.126 30.457c0-10.21-8.479-18.4-18.829-18.4v4c8.239 0 14.829 6.496 14.829 14.4h4zm-18.829-18.4c-10.35 0-18.829 8.19-18.829 18.4h4c0-7.904 6.59-14.4 14.829-14.4v-4zm-18.829 18.4c0 8.219 5.502 15.135 13.038 17.513l1.203-3.815c-5.974-1.885-10.241-7.331-10.241-13.698h-4zm25.423 17.24c7.119-2.601 12.235-9.316 12.235-17.24h-4c0 6.139-3.966 11.421-9.608 13.483l1.373 3.757zm-5.828-9.086c4.63-.267 8.009-4.376 7.748-8.996l-3.994.226c.146 2.59-1.728 4.647-3.984 4.777l.23 3.993zm7.748-8.996c-.261-4.621-4.084-8.319-8.716-8.052l.23 3.994c2.255-.13 4.346 1.695 4.492 4.284l3.994-.226zm-15.487 4.509c1.455 2.79 4.396 4.68 7.739 4.487l-.23-3.993c-1.639.094-3.171-.827-3.963-2.344l-3.546 1.85zm6.771-12.561c-2.925.169-5.37 1.891-6.687 4.286l3.504 1.928c.71-1.29 1.974-2.137 3.413-2.22l-.23-3.994zm43.046-77.268c-.176-11.647 9.383-21.327 21.463-21.514l-.061-3.999c-14.191.219-25.613 11.621-25.401 25.574l3.999-.061zm21.463-21.514c12.08-.186 21.928 9.193 22.104 20.84l4-.061c-.212-13.953-11.975-24.998-26.165-24.778l.061 3.999zm22.104 20.84c.156 10.323-7.329 19.096-17.448 21.092l.774 3.925c11.909-2.35 20.861-12.715 20.674-25.078l-4 .061zm-26.362 21.054c-9.742-2.014-17.053-10.354-17.205-20.38l-3.999.061c.181 12.007 8.924 21.865 20.395 24.236l.809-3.917zm18.667-21.052c-.029 7.507-6.312 13.656-14.142 13.625l-.016 4c9.942.039 18.121-7.797 18.158-17.61l-4-.015zm-14.142 13.625c-7.832-.031-14.068-6.228-14.039-13.735l-4-.016c-.037 9.813 8.081 17.712 18.023 17.751l.016-4zm-14.039-13.735c.025-6.466 4.683-11.919 10.984-13.293l-.852-3.908c-8.027 1.75-14.099 8.737-14.132 17.185l4 .016zm18.13-13.054c5.864 1.702 10.075 6.987 10.051 13.164l4 .015c.031-8.07-5.463-14.852-12.936-17.021l-1.115 3.842zm-3.855 20.51c-3.656-.015-6.763-3.157-6.747-7.213l-4-.015c-.023 6.09 4.696 11.204 10.732 11.228l.015-4zm-6.747-7.213c.016-4.056 3.146-7.174 6.802-7.16l.015-4c-6.036-.023-10.794 5.054-10.817 11.145l4 .015zm6.802-7.16c2.949.012 5.526 2.043 6.42 4.97l3.825-1.167c-1.359-4.456-5.375-7.784-10.23-7.803l-.015 4zm6.298 9.762c-.998 2.754-3.508 4.622-6.353 4.611l-.015 4c4.679.018 8.606-3.047 10.129-7.248l-3.761-1.363zm-8.035-2.798c.003-.729.627-1.406 1.503-1.402l.016-4c-2.988-.012-5.507 2.351-5.519 5.387l4 .015zm1.503-1.402c.876.003 1.496.685 1.493 1.414l4 .016c.011-3.036-2.49-5.419-5.477-5.43l-.016 4zm-.666 2.673c-.522-.243-.839-.739-.837-1.271l-4-.015c-.008 2.193 1.305 4.054 3.149 4.912l1.688-3.626zm2.159-1.259a1.385 1.385 0 01-.664 1.165l2.142 3.378c1.493-.946 2.514-2.608 2.522-4.527l-4-.016zm-25.399-1.802l-39.822-.278-.028 4 39.822.278.028-4zm222.623-345.078c0 147.12-118.071 266.35-263.678 266.35v4c147.854 0 267.678-121.059 267.678-270.35h-4zM275 611.687c-145.606 0-263.678-119.23-263.678-266.35h-4c0 149.291 119.825 270.35 267.678 270.35v-4zM11.322 345.337c0-147.119 118.072-266.35 263.678-266.35v-4c-147.853 0-267.678 121.059-267.678 270.35h4zM275 78.987c145.607 0 263.678 119.231 263.678 266.35h4c0-149.291-119.824-270.35-267.678-270.35v4zm119.753 26.946l17.26-27.557-3.39-2.124-17.26 27.558 3.39 2.123zM277.305 732.63L277 613.682l-4 .01.305 118.948 4-.01zm-112.584-75.223c-.084 16.491 13.553 29.842 30.348 29.928l.02-3.999c-14.684-.076-26.44-11.724-26.368-25.909l-4-.02zm30.348 29.928c16.795.087 30.566-13.124 30.649-29.615l-4-.02c-.072 14.185-11.945 25.711-26.629 25.636l-.02 3.999zm30.649-29.615c.074-14.612-10.63-26.763-24.748-29.398l-.734 3.932c12.324 2.3 21.545 12.875 21.482 25.446l4 .02zm-37.168-29.217c-13.544 2.946-23.758 14.713-23.829 28.904l4 .02c.061-12.209 8.859-22.444 20.679-25.015l-.85-3.909zm5.794 50.776c11.461.238 20.794-9.271 21.034-21.041l-3.999-.081c-.198 9.735-7.871 17.312-16.952 17.123l-.083 3.999zm21.034-21.041c.24-11.768-8.697-21.657-20.157-21.895l-.083 3.999c9.081.189 16.44 8.079 16.241 17.815l3.999.081zm-20.157-21.895c-9.864-.205-18.164 6.824-20.426 16.28l3.89.931c1.863-7.786 8.63-13.375 16.453-13.212l.083-3.999zm-20.333 27.089c2.305 8.916 10.034 15.651 19.456 15.847l.083-3.999c-7.475-.156-13.77-5.515-15.666-12.849l-3.873 1.001zm6.618-5.498c-.018 7.018 5.791 12.634 12.864 12.653l.011-4c-4.963-.013-8.887-3.931-8.875-8.643l-4-.01zm12.864 12.653c7.074.018 12.912-5.568 12.93-12.586l-4-.01c-.012 4.712-3.957 8.609-8.919 8.596l-.011 4zm12.93-12.586c.014-5.648-3.754-10.394-8.904-12.034l-1.214 3.811c3.591 1.144 6.127 4.417 6.118 8.213l4 .01zm-17.378-11.87c-4.874 1.767-8.402 6.358-8.416 11.803l4 .01c.01-3.66 2.383-6.821 5.779-8.052l-1.363-3.761zm4.636 5.46c-3.42.131-5.929 3.107-5.804 6.459l3.998-.15c-.05-1.321.916-2.272 1.959-2.312l-.153-3.997zm-5.804 6.459c.126 3.353 2.854 6.13 6.275 5.999l-.153-3.998c-1.042.04-2.075-.832-2.124-2.151l-3.998.15zm11.417-3.067c-1.021-2.051-3.146-3.486-5.613-3.392l.153 3.997c.762-.029 1.498.411 1.879 1.177l3.581-1.782zm-5.142 9.066c2.158-.083 3.973-1.318 4.966-3.044l-3.467-1.995c-.364.633-.981 1.016-1.652 1.041l.153 3.998zm28.999-4.343h50.723v-4h-50.723v4z" fill="#6DFC3C"/></g><g filter="url(#filter3_d)"><path d="M411.782 76.504l-1.065 1.693 1.065-1.693zm34.441-55.857l-1.065 1.693 1.065-1.693zm-41.768 4.957a2 2 0 102.982 2.666l-2.982-2.666zm-3.426 13.526a2.001 2.001 0 00-3.776-1.32l3.776 1.32zm47.446 21.648l1.692 1.067-1.692-1.067zm-7.516-31.573l-1.082 1.682 1.082-1.682zm-31.507 6.455l-1.692-1.067 1.692 1.067zm2.041 29.704a2 2 0 002.838-2.819l-2.838 2.82zm12.042 2.73a2 2 0 00-1.16 3.829l1.16-3.828zm-5.128-25.94l1.722 1.017-1.722-1.017zm4.54 16.868l1.033-1.713-1.033 1.713zm16.853-3.978l-1.722-1.017 1.722 1.017zm-.043-15.703a2 2 0 00-2.994 2.653l2.994-2.653zm-9.025-.805a2 2 0 00.766-3.926l-.766 3.926zm.514 5.777l.933-1.77-.933 1.77zm-6.313 2.13l1.777.919-1.777-.918zm1.882 6.45l.932-1.77-.932 1.77zm4.871-4.273a2 2 0 003.994.21l-3.994-.21zm.571 5.865a2 2 0 10-2.022-3.451l2.022 3.451zm-155.75 679.809l-.038 2 .038-2zm-43.3 43.628l1.999.038-1.999-.038zm41.614 45.271l-.039 1.999.039-1.999zm44.39-35.073a2.001 2.001 0 00-3.925-.775l3.925.775zm-3.931-18.138a2 2 0 103.923-.78l-3.923.78zm-69.934 7.797l1.999.059-1.999-.059zm28.914 29.89l-.059 1.999.059-1.999zm30.609-28.116l2 .059-2-.059zm-21.801-30.905a2 2 0 10-.983 3.877l.983-3.877zm-15.05 3.874a2 2 0 00-.985-3.877l.985 3.877zm1.521 44.093a2 2 0 001.203-3.815l-1.203 3.815zm11.012-4.03a2 2 0 001.373 3.757l-1.373-3.757zm-4.57-7.325l.115 1.996-.115-1.996zm5.866-6.887l-1.997.113 1.997-.113zm-6.604-6.168l-.115-1.997.115 1.997zm-3.34 8.714a2 2 0 00-3.546 1.85l3.546-1.85zm-3.462-6.425a1.999 1.999 0 103.504 1.928l-3.504-1.928zm47.733-81.523l2-.031-2 .031zm23.433-23.545l-.031-1.999.031 1.999zm24.134 22.81l2-.031-2 .031zm-19.448 21.122a2 2 0 00.774 3.925l-.774-3.925zm-9.723 3.879a2 2 0 10.809-3.917l-.809 3.917zm21.476-24.961l-2-.008 2 .008zm-16.15 15.617l-.008 2 .008-2zm-16.031-15.743l-2-.008 2 .008zm12.984-13.285a2 2 0 00-.852-3.908l.852 3.908zm8.261-3.603a2.001 2.001 0 00-1.115 3.842l1.115-3.842zm-4.978 26.352l-.007 2 .007-2zm-8.739-9.221l2 .008-2-.008zm8.81-9.152l.007-2-.007 2zm6.412 6.97a2 2 0 103.825-1.167l-3.825 1.167zm3.639 6.155a2 2 0 10-3.761-1.363l3.761 1.363zm-13.796-4.168l2 .007-2-.007zm3.511-3.395l-.008 2 .008-2zm3.485 3.422l2 .008-2-.008zm-5.847 4.877a2 2 0 001.688-3.626l-1.688 3.626zm3.183-3.72a2 2 0 102.142 3.378l-2.142-3.378zm-24.763 1.033a2 2 0 00.028-4l-.028 4zm-39.794-4.278a2 2 0 00-.028 4l.028-4zm115.13-586.327a2 2 0 103.39 2.123l-3.39-2.123zm20.65-25.434a2 2 0 00-3.39-2.124l3.39 2.124zM273.305 732.64a2 2 0 004-.01l-4 .01zm-106.584-75.223l2 .01-2-.01zm28.358 27.918l-.01 2 .01-2zm28.639-27.625l2 .01-2-.01zm-22.748-29.388a2 2 0 00-.734 3.932l.734-3.932zm-11.57 4.09a2 2 0 00-.85-3.909l.85 3.909zm4.986 44.867l-.042 2 .042-2zm18.993-19.081l-2-.041 2 .041zm-18.199-19.856l.041-1.999-.041 1.999zm-20.385 14.281a2 2 0 003.89.931l-3.89-.931zm3.966 9.808a2 2 0 00-3.873 1.001l3.873-1.001zm4.745-4.492l-2-.005 2 .005zm10.87 10.648l.005-2-.005 2zm10.924-10.591l-2-.005 2 .005zm-6.904-12.029a2 2 0 10-1.214 3.811l1.214-3.811zm-7.111 3.925a2 2 0 00-1.363-3.761l1.363 3.761zm3.35 3.698l-.077-1.999.077 1.999zm-3.882 4.385l-1.999.075 1.999-.075zm4.2 4.075l.076 1.999-.076-1.999zm1.637-5.285a2 2 0 103.581-1.782l-3.581 1.782zm3.405 4.24a2 2 0 00-3.467-1.995l3.467 1.995zm24.033-5.299a2 2 0 100 4v-4zm50.723 4a2 2 0 000-4v4zm135.966-581.51c15.738 9.901 36.611 4.515 46.665-11.79l-3.405-2.099c-8.968 14.545-27.403 19.14-41.131 10.504l-2.129 3.386zm46.665-11.79c10.047-16.293 5.631-37.56-10.094-47.452l-2.13 3.386c13.742 8.645 17.793 27.413 8.819 41.968l3.405 2.099zm-10.094-47.452c-13.942-8.77-31.93-5.541-42.833 6.65l2.982 2.666c9.7-10.847 25.552-13.585 37.721-5.93l2.13-3.386zM397.253 37.81c-5.225 14.928-.068 31.875 13.464 40.388l2.129-3.386c-11.827-7.44-16.476-22.37-11.817-35.68l-3.776-1.322zm52.914 24.036c7.242-11.478 3.524-26.824-8.125-34.322l-2.165 3.364c9.903 6.374 12.915 19.3 6.907 28.824l3.383 2.134zm-8.125-34.322c-11.66-7.504-27.031-4.422-34.282 7.07l3.383 2.135c6-9.51 18.842-12.208 28.734-5.841l2.165-3.364zm-34.282 7.07c-6.236 9.884-4.341 22.64 3.733 30.771l2.838-2.819c-6.852-6.899-8.362-17.617-3.188-25.817l-3.383-2.135zm14.615 37.33c10.362 3.14 21.83-.629 27.792-10.078l-3.383-2.134c-4.939 7.828-14.496 11.036-23.249 8.384l-1.16 3.828zm-5.69-30.786c-3.987 6.751-1.567 15.503 5.23 19.598l2.065-3.426c-5.018-3.023-6.663-9.376-3.851-14.138l-3.444-2.034zm5.23 19.598c6.809 4.103 15.612 2.09 19.607-4.674l-3.444-2.035c-2.805 4.75-9.092 6.3-14.098 3.283l-2.065 3.426zm19.607-4.674c3.21-5.436 2.261-12.176-1.765-16.72l-2.994 2.653c2.959 3.34 3.58 8.198 1.315 12.032l3.444 2.035zm-10.024-21.45c-5.706-1.114-11.715 1.28-14.813 6.526l3.444 2.034c2.181-3.692 6.448-5.445 10.603-4.635l.766-3.926zm.681 7.933c-3.316-1.747-7.326-.303-9.023 2.982l3.554 1.836c.751-1.454 2.393-1.918 3.604-1.28l1.865-3.538zm-9.023 2.982c-1.692 3.276-.576 7.396 2.727 9.136l1.864-3.538c-1.223-.645-1.793-2.3-1.037-3.762l-3.554-1.836zm12.524 3.303c.132-2.51-1.116-5.028-3.501-6.285l-1.865 3.539c.889.468 1.429 1.449 1.372 2.537l3.994.21zm-9.797 5.833c2.091 1.102 4.487.93 6.374-.177l-2.022-3.451c-.784.46-1.71.5-2.488.09l-1.864 3.538zM276.546 732.294c-24.639-.476-44.854 20.024-45.339 45.59l3.999.076c.447-23.532 19.004-42.097 41.263-41.666l.077-4zm-45.339 45.59c-.485 25.565 18.937 46.831 43.575 47.308l.077-3.999c-22.259-.431-40.099-19.702-39.653-43.233l-3.999-.076zm43.575 47.308c21.83.423 40.197-15.633 44.429-37.072l-3.925-.775c-3.888 19.7-20.698 34.23-40.427 33.848l-.077 3.999zm44.421-55.99c-4.109-20.682-21.457-36.497-42.657-36.908l-.077 4c19.16.371 35.036 14.688 38.811 33.688l3.923-.78zm-75.856 8.519c-.502 17.17 13.362 31.426 30.854 31.947l.119-3.998c-15.382-.459-27.409-12.967-26.975-27.832l-3.998-.117zm30.854 31.947c17.492.521 32.166-12.886 32.668-30.056l-3.999-.117c-.434 14.865-13.168 26.633-28.55 26.175l-.119 3.998zm32.668-30.056c.431-14.783-9.792-27.411-23.801-30.964l-.983 3.877c12.298 3.119 21.159 14.168 20.785 26.97l3.999.117zm-39.836-30.967c-13.265 3.37-23.274 14.953-23.686 29.076l3.998.117c.357-12.231 9.033-22.359 20.673-25.316l-.985-3.877zm27.126 30.457c0-10.21-8.479-18.4-18.829-18.4v4c8.239 0 14.829 6.496 14.829 14.4h4zm-18.829-18.4c-10.35 0-18.829 8.19-18.829 18.4h4c0-7.904 6.59-14.4 14.829-14.4v-4zm-18.829 18.4c0 8.219 5.502 15.135 13.038 17.513l1.203-3.815c-5.974-1.885-10.241-7.331-10.241-13.698h-4zm25.423 17.24c7.119-2.601 12.235-9.316 12.235-17.24h-4c0 6.139-3.966 11.421-9.608 13.483l1.373 3.757zm-5.828-9.086c4.63-.267 8.009-4.376 7.748-8.996l-3.994.226c.146 2.59-1.728 4.647-3.984 4.777l.23 3.993zm7.748-8.996c-.261-4.621-4.084-8.319-8.716-8.052l.23 3.994c2.255-.13 4.346 1.695 4.492 4.284l3.994-.226zm-15.487 4.509c1.455 2.79 4.396 4.68 7.739 4.487l-.23-3.993c-1.639.094-3.171-.827-3.963-2.344l-3.546 1.85zm6.771-12.561c-2.925.169-5.37 1.891-6.687 4.286l3.504 1.928c.71-1.29 1.974-2.137 3.413-2.22l-.23-3.994zm43.046-77.268c-.176-11.647 9.383-21.327 21.463-21.514l-.061-3.999c-14.191.219-25.613 11.621-25.401 25.574l3.999-.061zm21.463-21.514c12.08-.186 21.928 9.193 22.104 20.84l4-.061c-.212-13.953-11.975-24.998-26.165-24.778l.061 3.999zm22.104 20.84c.156 10.323-7.329 19.096-17.448 21.092l.774 3.925c11.909-2.35 20.861-12.715 20.674-25.078l-4 .061zm-26.362 21.054c-9.742-2.014-17.053-10.354-17.205-20.38l-3.999.061c.181 12.007 8.924 21.865 20.395 24.236l.809-3.917zm18.667-21.052c-.029 7.507-6.312 13.656-14.142 13.625l-.016 4c9.942.039 18.121-7.797 18.158-17.61l-4-.015zm-14.142 13.625c-7.832-.031-14.068-6.228-14.039-13.735l-4-.016c-.037 9.813 8.081 17.712 18.023 17.751l.016-4zm-14.039-13.735c.025-6.466 4.683-11.919 10.984-13.293l-.852-3.908c-8.027 1.75-14.099 8.737-14.132 17.185l4 .016zm18.13-13.054c5.864 1.702 10.075 6.987 10.051 13.164l4 .015c.031-8.07-5.463-14.852-12.936-17.021l-1.115 3.842zm-3.855 20.51c-3.656-.015-6.763-3.157-6.747-7.213l-4-.015c-.023 6.09 4.696 11.204 10.732 11.228l.015-4zm-6.747-7.213c.016-4.056 3.146-7.174 6.802-7.16l.015-4c-6.036-.023-10.794 5.054-10.817 11.145l4 .015zm6.802-7.16c2.949.012 5.526 2.043 6.42 4.97l3.825-1.167c-1.359-4.456-5.375-7.784-10.23-7.803l-.015 4zm6.298 9.762c-.998 2.754-3.508 4.622-6.353 4.611l-.015 4c4.679.018 8.606-3.047 10.129-7.248l-3.761-1.363zm-8.035-2.798c.003-.729.627-1.406 1.503-1.402l.016-4c-2.988-.012-5.507 2.351-5.519 5.387l4 .015zm1.503-1.402c.876.003 1.496.685 1.493 1.414l4 .016c.011-3.036-2.49-5.419-5.477-5.43l-.016 4zm-.666 2.673c-.522-.243-.839-.739-.837-1.271l-4-.015c-.008 2.193 1.305 4.054 3.149 4.912l1.688-3.626zm2.159-1.259a1.385 1.385 0 01-.664 1.165l2.142 3.378c1.493-.946 2.514-2.608 2.522-4.527l-4-.016zm-25.399-1.802l-39.822-.278-.028 4 39.822.278.028-4zm222.623-345.078c0 147.12-118.071 266.35-263.678 266.35v4c147.854 0 267.678-121.059 267.678-270.35h-4zM275 611.687c-145.606 0-263.678-119.23-263.678-266.35h-4c0 149.291 119.825 270.35 267.678 270.35v-4zM11.322 345.337c0-147.119 118.072-266.35 263.678-266.35v-4c-147.853 0-267.678 121.059-267.678 270.35h4zM275 78.987c145.607 0 263.678 119.231 263.678 266.35h4c0-149.291-119.824-270.35-267.678-270.35v4zm119.753 26.946l17.26-27.557-3.39-2.124-17.26 27.558 3.39 2.123zM277.305 732.63L277 613.682l-4 .01.305 118.948 4-.01zm-112.584-75.223c-.084 16.491 13.553 29.842 30.348 29.928l.02-3.999c-14.684-.076-26.44-11.724-26.368-25.909l-4-.02zm30.348 29.928c16.795.087 30.566-13.124 30.649-29.615l-4-.02c-.072 14.185-11.945 25.711-26.629 25.636l-.02 3.999zm30.649-29.615c.074-14.612-10.63-26.763-24.748-29.398l-.734 3.932c12.324 2.3 21.545 12.875 21.482 25.446l4 .02zm-37.168-29.217c-13.544 2.946-23.758 14.713-23.829 28.904l4 .02c.061-12.209 8.859-22.444 20.679-25.015l-.85-3.909zm5.794 50.776c11.461.238 20.794-9.271 21.034-21.041l-3.999-.081c-.198 9.735-7.871 17.312-16.952 17.123l-.083 3.999zm21.034-21.041c.24-11.768-8.697-21.657-20.157-21.895l-.083 3.999c9.081.189 16.44 8.079 16.241 17.815l3.999.081zm-20.157-21.895c-9.864-.205-18.164 6.824-20.426 16.28l3.89.931c1.863-7.786 8.63-13.375 16.453-13.212l.083-3.999zm-20.333 27.089c2.305 8.916 10.034 15.651 19.456 15.847l.083-3.999c-7.475-.156-13.77-5.515-15.666-12.849l-3.873 1.001zm6.618-5.498c-.018 7.018 5.791 12.634 12.864 12.653l.011-4c-4.963-.013-8.887-3.931-8.875-8.643l-4-.01zm12.864 12.653c7.074.018 12.912-5.568 12.93-12.586l-4-.01c-.012 4.712-3.957 8.609-8.919 8.596l-.011 4zm12.93-12.586c.014-5.648-3.754-10.394-8.904-12.034l-1.214 3.811c3.591 1.144 6.127 4.417 6.118 8.213l4 .01zm-17.378-11.87c-4.874 1.767-8.402 6.358-8.416 11.803l4 .01c.01-3.66 2.383-6.821 5.779-8.052l-1.363-3.761zm4.636 5.46c-3.42.131-5.929 3.107-5.804 6.459l3.998-.15c-.05-1.321.916-2.272 1.959-2.312l-.153-3.997zm-5.804 6.459c.126 3.353 2.854 6.13 6.275 5.999l-.153-3.998c-1.042.04-2.075-.832-2.124-2.151l-3.998.15zm11.417-3.067c-1.021-2.051-3.146-3.486-5.613-3.392l.153 3.997c.762-.029 1.498.411 1.879 1.177l3.581-1.782zm-5.142 9.066c2.158-.083 3.973-1.318 4.966-3.044l-3.467-1.995c-.364.633-.981 1.016-1.652 1.041l.153 3.998zm28.999-4.343h50.723v-4h-50.723v4z" fill="#6DFC3C"/></g><path d="M411.782 76.504l-1.065 1.693 1.065-1.693zm34.441-55.857l-1.065 1.693 1.065-1.693zm-41.768 4.957a2 2 0 102.982 2.666l-2.982-2.666zm-3.426 13.526a2.001 2.001 0 00-3.776-1.32l3.776 1.32zm47.446 21.648l1.692 1.067-1.692-1.067zm-7.516-31.573l-1.082 1.682 1.082-1.682zm-31.507 6.455l-1.692-1.067 1.692 1.067zm2.041 29.704a2 2 0 002.838-2.819l-2.838 2.82zm12.042 2.73a2 2 0 00-1.16 3.829l1.16-3.828zm-5.128-25.94l1.722 1.017-1.722-1.017zm4.54 16.868l1.033-1.713-1.033 1.713zm16.853-3.978l-1.722-1.017 1.722 1.017zm-.043-15.703a2 2 0 00-2.994 2.653l2.994-2.653zm-9.025-.805a2 2 0 00.766-3.926l-.766 3.926zm.514 5.777l.933-1.77-.933 1.77zm-6.313 2.13l1.777.919-1.777-.918zm1.882 6.45l.932-1.77-.932 1.77zm4.871-4.273a2 2 0 003.994.21l-3.994-.21zm.571 5.865a2 2 0 10-2.022-3.451l2.022 3.451zm-155.75 679.809l-.038 2 .038-2zm-43.3 43.628l1.999.038-1.999-.038zm41.614 45.271l-.039 1.999.039-1.999zm44.39-35.073a2.001 2.001 0 00-3.925-.775l3.925.775zm-3.931-18.138a2 2 0 103.923-.78l-3.923.78zm-69.934 7.797l1.999.059-1.999-.059zm28.914 29.89l-.059 1.999.059-1.999zm30.609-28.116l2 .059-2-.059zm-21.801-30.905a2 2 0 10-.983 3.877l.983-3.877zm-15.05 3.874a2 2 0 00-.985-3.877l.985 3.877zm1.521 44.093a2 2 0 001.203-3.815l-1.203 3.815zm11.012-4.03a2 2 0 001.373 3.757l-1.373-3.757zm-4.57-7.325l.115 1.996-.115-1.996zm5.866-6.887l-1.997.113 1.997-.113zm-6.604-6.168l-.115-1.997.115 1.997zm-3.34 8.714a2 2 0 00-3.546 1.85l3.546-1.85zm-3.462-6.425a1.999 1.999 0 103.504 1.928l-3.504-1.928zm47.733-81.523l2-.031-2 .031zm23.433-23.545l-.031-1.999.031 1.999zm24.134 22.81l2-.031-2 .031zm-19.448 21.122a2 2 0 00.774 3.925l-.774-3.925zm-9.723 3.879a2 2 0 10.809-3.917l-.809 3.917zm21.476-24.961l-2-.008 2 .008zm-16.15 15.617l-.008 2 .008-2zm-16.031-15.743l-2-.008 2 .008zm12.984-13.285a2 2 0 00-.852-3.908l.852 3.908zm8.261-3.603a2.001 2.001 0 00-1.115 3.842l1.115-3.842zm-4.978 26.352l-.007 2 .007-2zm-8.739-9.221l2 .008-2-.008zm8.81-9.152l.007-2-.007 2zm6.412 6.97a2 2 0 103.825-1.167l-3.825 1.167zm3.639 6.155a2 2 0 10-3.761-1.363l3.761 1.363zm-13.796-4.168l2 .007-2-.007zm3.511-3.395l-.008 2 .008-2zm3.485 3.422l2 .008-2-.008zm-5.847 4.877a2 2 0 001.688-3.626l-1.688 3.626zm3.183-3.72a2 2 0 102.142 3.378l-2.142-3.378zm-24.763 1.033a2 2 0 00.028-4l-.028 4zm-39.794-4.278a2 2 0 00-.028 4l.028-4zm115.13-586.327a2 2 0 103.39 2.123l-3.39-2.123zm20.65-25.434a2 2 0 00-3.39-2.124l3.39 2.124zM273.305 732.64a2 2 0 004-.01l-4 .01zm-106.584-75.223l2 .01-2-.01zm28.358 27.918l-.01 2 .01-2zm28.639-27.625l2 .01-2-.01zm-22.748-29.388a2 2 0 00-.734 3.932l.734-3.932zm-11.57 4.09a2 2 0 00-.85-3.909l.85 3.909zm4.986 44.867l-.042 2 .042-2zm18.993-19.081l-2-.041 2 .041zm-18.199-19.856l.041-1.999-.041 1.999zm-20.385 14.281a2 2 0 003.89.931l-3.89-.931zm3.966 9.808a2 2 0 00-3.873 1.001l3.873-1.001zm4.745-4.492l-2-.005 2 .005zm10.87 10.648l.005-2-.005 2zm10.924-10.591l-2-.005 2 .005zm-6.904-12.029a2 2 0 10-1.214 3.811l1.214-3.811zm-7.111 3.925a2 2 0 00-1.363-3.761l1.363 3.761zm3.35 3.698l-.077-1.999.077 1.999zm-3.882 4.385l-1.999.075 1.999-.075zm4.2 4.075l.076 1.999-.076-1.999zm1.637-5.285a2 2 0 103.581-1.782l-3.581 1.782zm3.405 4.24a2 2 0 00-3.467-1.995l3.467 1.995zm24.033-5.299a2 2 0 100 4v-4zm50.723 4a2 2 0 000-4v4zm135.966-581.51c15.738 9.901 36.611 4.515 46.665-11.79l-3.405-2.099c-8.968 14.545-27.403 19.14-41.131 10.504l-2.129 3.386zm46.665-11.79c10.047-16.293 5.631-37.56-10.094-47.452l-2.13 3.386c13.742 8.645 17.793 27.413 8.819 41.968l3.405 2.099zm-10.094-47.452c-13.942-8.77-31.93-5.541-42.833 6.65l2.982 2.666c9.7-10.847 25.552-13.585 37.721-5.93l2.13-3.386zM397.253 37.81c-5.225 14.928-.068 31.875 13.464 40.388l2.129-3.386c-11.827-7.44-16.476-22.37-11.817-35.68l-3.776-1.322zm52.914 24.036c7.242-11.478 3.524-26.824-8.125-34.322l-2.165 3.364c9.903 6.374 12.915 19.3 6.907 28.824l3.383 2.134zm-8.125-34.322c-11.66-7.504-27.031-4.422-34.282 7.07l3.383 2.135c6-9.51 18.842-12.208 28.734-5.841l2.165-3.364zm-34.282 7.07c-6.236 9.884-4.341 22.64 3.733 30.771l2.838-2.819c-6.852-6.899-8.362-17.617-3.188-25.817l-3.383-2.135zm14.615 37.33c10.362 3.14 21.83-.629 27.792-10.078l-3.383-2.134c-4.939 7.828-14.496 11.036-23.249 8.384l-1.16 3.828zm-5.69-30.786c-3.987 6.751-1.567 15.503 5.23 19.598l2.065-3.426c-5.018-3.023-6.663-9.376-3.851-14.138l-3.444-2.034zm5.23 19.598c6.809 4.103 15.612 2.09 19.607-4.674l-3.444-2.035c-2.805 4.75-9.092 6.3-14.098 3.283l-2.065 3.426zm19.607-4.674c3.21-5.436 2.261-12.176-1.765-16.72l-2.994 2.653c2.959 3.34 3.58 8.198 1.315 12.032l3.444 2.035zm-10.024-21.45c-5.706-1.114-11.715 1.28-14.813 6.526l3.444 2.034c2.181-3.692 6.448-5.445 10.603-4.635l.766-3.926zm.681 7.933c-3.316-1.747-7.326-.303-9.023 2.982l3.554 1.836c.751-1.454 2.393-1.918 3.604-1.28l1.865-3.538zm-9.023 2.982c-1.692 3.276-.576 7.396 2.727 9.136l1.864-3.538c-1.223-.645-1.793-2.3-1.037-3.762l-3.554-1.836zm12.524 3.303c.132-2.51-1.116-5.028-3.501-6.285l-1.865 3.539c.889.468 1.429 1.449 1.372 2.537l3.994.21zm-9.797 5.833c2.091 1.102 4.487.93 6.374-.177l-2.022-3.451c-.784.46-1.71.5-2.488.09l-1.864 3.538zM276.546 732.294c-24.639-.476-44.854 20.024-45.339 45.59l3.999.076c.447-23.532 19.004-42.097 41.263-41.666l.077-4zm-45.339 45.59c-.485 25.565 18.937 46.831 43.575 47.308l.077-3.999c-22.259-.431-40.099-19.702-39.653-43.233l-3.999-.076zm43.575 47.308c21.83.423 40.197-15.633 44.429-37.072l-3.925-.775c-3.888 19.7-20.698 34.23-40.427 33.848l-.077 3.999zm44.421-55.99c-4.109-20.682-21.457-36.497-42.657-36.908l-.077 4c19.16.371 35.036 14.688 38.811 33.688l3.923-.78zm-75.856 8.519c-.502 17.17 13.362 31.426 30.854 31.947l.119-3.998c-15.382-.459-27.409-12.967-26.975-27.832l-3.998-.117zm30.854 31.947c17.492.521 32.166-12.886 32.668-30.056l-3.999-.117c-.434 14.865-13.168 26.633-28.55 26.175l-.119 3.998zm32.668-30.056c.431-14.783-9.792-27.411-23.801-30.964l-.983 3.877c12.298 3.119 21.159 14.168 20.785 26.97l3.999.117zm-39.836-30.967c-13.265 3.37-23.274 14.953-23.686 29.076l3.998.117c.357-12.231 9.033-22.359 20.673-25.316l-.985-3.877zm27.126 30.457c0-10.21-8.479-18.4-18.829-18.4v4c8.239 0 14.829 6.496 14.829 14.4h4zm-18.829-18.4c-10.35 0-18.829 8.19-18.829 18.4h4c0-7.904 6.59-14.4 14.829-14.4v-4zm-18.829 18.4c0 8.219 5.502 15.135 13.038 17.513l1.203-3.815c-5.974-1.885-10.241-7.331-10.241-13.698h-4zm25.423 17.24c7.119-2.601 12.235-9.316 12.235-17.24h-4c0 6.139-3.966 11.421-9.608 13.483l1.373 3.757zm-5.828-9.086c4.63-.267 8.009-4.376 7.748-8.996l-3.994.226c.146 2.59-1.728 4.647-3.984 4.777l.23 3.993zm7.748-8.996c-.261-4.621-4.084-8.319-8.716-8.052l.23 3.994c2.255-.13 4.346 1.695 4.492 4.284l3.994-.226zm-15.487 4.509c1.455 2.79 4.396 4.68 7.739 4.487l-.23-3.993c-1.639.094-3.171-.827-3.963-2.344l-3.546 1.85zm6.771-12.561c-2.925.169-5.37 1.891-6.687 4.286l3.504 1.928c.71-1.29 1.974-2.137 3.413-2.22l-.23-3.994zm43.046-77.268c-.176-11.647 9.383-21.327 21.463-21.514l-.061-3.999c-14.191.219-25.613 11.621-25.401 25.574l3.999-.061zm21.463-21.514c12.08-.186 21.928 9.193 22.104 20.84l4-.061c-.212-13.953-11.975-24.998-26.165-24.778l.061 3.999zm22.104 20.84c.156 10.323-7.329 19.096-17.448 21.092l.774 3.925c11.909-2.35 20.861-12.715 20.674-25.078l-4 .061zm-26.362 21.054c-9.742-2.014-17.053-10.354-17.205-20.38l-3.999.061c.181 12.007 8.924 21.865 20.395 24.236l.809-3.917zm18.667-21.052c-.029 7.507-6.312 13.656-14.142 13.625l-.016 4c9.942.039 18.121-7.797 18.158-17.61l-4-.015zm-14.142 13.625c-7.832-.031-14.068-6.228-14.039-13.735l-4-.016c-.037 9.813 8.081 17.712 18.023 17.751l.016-4zm-14.039-13.735c.025-6.466 4.683-11.919 10.984-13.293l-.852-3.908c-8.027 1.75-14.099 8.737-14.132 17.185l4 .016zm18.13-13.054c5.864 1.702 10.075 6.987 10.051 13.164l4 .015c.031-8.07-5.463-14.852-12.936-17.021l-1.115 3.842zm-3.855 20.51c-3.656-.015-6.763-3.157-6.747-7.213l-4-.015c-.023 6.09 4.696 11.204 10.732 11.228l.015-4zm-6.747-7.213c.016-4.056 3.146-7.174 6.802-7.16l.015-4c-6.036-.023-10.794 5.054-10.817 11.145l4 .015zm6.802-7.16c2.949.012 5.526 2.043 6.42 4.97l3.825-1.167c-1.359-4.456-5.375-7.784-10.23-7.803l-.015 4zm6.298 9.762c-.998 2.754-3.508 4.622-6.353 4.611l-.015 4c4.679.018 8.606-3.047 10.129-7.248l-3.761-1.363zm-8.035-2.798c.003-.729.627-1.406 1.503-1.402l.016-4c-2.988-.012-5.507 2.351-5.519 5.387l4 .015zm1.503-1.402c.876.003 1.496.685 1.493 1.414l4 .016c.011-3.036-2.49-5.419-5.477-5.43l-.016 4zm-.666 2.673c-.522-.243-.839-.739-.837-1.271l-4-.015c-.008 2.193 1.305 4.054 3.149 4.912l1.688-3.626zm2.159-1.259a1.385 1.385 0 01-.664 1.165l2.142 3.378c1.493-.946 2.514-2.608 2.522-4.527l-4-.016zm-25.399-1.802l-39.822-.278-.028 4 39.822.278.028-4zm222.623-345.078c0 147.12-118.071 266.35-263.678 266.35v4c147.854 0 267.678-121.059 267.678-270.35h-4zM275 611.687c-145.606 0-263.678-119.23-263.678-266.35h-4c0 149.291 119.825 270.35 267.678 270.35v-4zM11.322 345.337c0-147.119 118.072-266.35 263.678-266.35v-4c-147.853 0-267.678 121.059-267.678 270.35h4zM275 78.987c145.607 0 263.678 119.231 263.678 266.35h4c0-149.291-119.824-270.35-267.678-270.35v4zm119.753 26.946l17.26-27.557-3.39-2.124-17.26 27.558 3.39 2.123zM277.305 732.63L277 613.682l-4 .01.305 118.948 4-.01zm-112.584-75.223c-.084 16.491 13.553 29.842 30.348 29.928l.02-3.999c-14.684-.076-26.44-11.724-26.368-25.909l-4-.02zm30.348 29.928c16.795.087 30.566-13.124 30.649-29.615l-4-.02c-.072 14.185-11.945 25.711-26.629 25.636l-.02 3.999zm30.649-29.615c.074-14.612-10.63-26.763-24.748-29.398l-.734 3.932c12.324 2.3 21.545 12.875 21.482 25.446l4 .02zm-37.168-29.217c-13.544 2.946-23.758 14.713-23.829 28.904l4 .02c.061-12.209 8.859-22.444 20.679-25.015l-.85-3.909zm5.794 50.776c11.461.238 20.794-9.271 21.034-21.041l-3.999-.081c-.198 9.735-7.871 17.312-16.952 17.123l-.083 3.999zm21.034-21.041c.24-11.768-8.697-21.657-20.157-21.895l-.083 3.999c9.081.189 16.44 8.079 16.241 17.815l3.999.081zm-20.157-21.895c-9.864-.205-18.164 6.824-20.426 16.28l3.89.931c1.863-7.786 8.63-13.375 16.453-13.212l.083-3.999zm-20.333 27.089c2.305 8.916 10.034 15.651 19.456 15.847l.083-3.999c-7.475-.156-13.77-5.515-15.666-12.849l-3.873 1.001zm6.618-5.498c-.018 7.018 5.791 12.634 12.864 12.653l.011-4c-4.963-.013-8.887-3.931-8.875-8.643l-4-.01zm12.864 12.653c7.074.018 12.912-5.568 12.93-12.586l-4-.01c-.012 4.712-3.957 8.609-8.919 8.596l-.011 4zm12.93-12.586c.014-5.648-3.754-10.394-8.904-12.034l-1.214 3.811c3.591 1.144 6.127 4.417 6.118 8.213l4 .01zm-17.378-11.87c-4.874 1.767-8.402 6.358-8.416 11.803l4 .01c.01-3.66 2.383-6.821 5.779-8.052l-1.363-3.761zm4.636 5.46c-3.42.131-5.929 3.107-5.804 6.459l3.998-.15c-.05-1.321.916-2.272 1.959-2.312l-.153-3.997zm-5.804 6.459c.126 3.353 2.854 6.13 6.275 5.999l-.153-3.998c-1.042.04-2.075-.832-2.124-2.151l-3.998.15zm11.417-3.067c-1.021-2.051-3.146-3.486-5.613-3.392l.153 3.997c.762-.029 1.498.411 1.879 1.177l3.581-1.782zm-5.142 9.066c2.158-.083 3.973-1.318 4.966-3.044l-3.467-1.995c-.364.633-.981 1.016-1.652 1.041l.153 3.998zm28.999-4.343h50.723v-4h-50.723v4z" fill="#6DFC3C"/><path d="M411.782 75.58l-.533.847.533-.847zm34.441-55.857l-.532.847.532-.847zm-41.022 5.624a1 1 0 101.49 1.333l-1.49-1.333zm-5.116 12.53a1 1 0 00-1.888-.661l1.888.66zm48.39 21.977l.846.534-.846-.534zm-7.516-31.573l-.541.841.541-.84zm-31.507 6.456l.845.533-.845-.533zm2.751 28.999a1 1 0 101.419-1.41l-1.419 1.41zm11.042 4.392a1 1 0 00-.58 1.914l.58-1.914zm-4.838-26.898l.861.509-.861-.509zm4.54 16.869l.517-.857-.517.857zm16.853-3.98l-.861-.508.861.509zm-.792-15.038a1 1 0 00-1.497 1.326l1.497-1.326zm-8.085-2.45a1 1 0 00.383-1.963l-.383 1.963zm.323 6.758l-.466.885.466-.885zm-6.313 2.131l.889.459-.889-.459zm1.882 6.449l.466-.885-.466.885zm5.87-4.22a1 1 0 101.997.104l-1.997-.105zm-.934 4.95a1 1 0 10-1.011-1.726l1.011 1.726zM276.507 733.37l-.019 1 .019-1zm-43.3 43.628l.999.019-.999-.019zm41.614 45.271l-.02.999.02-.999zm43.409-35.267a1 1 0 00-1.963-.387l1.963.387zm-1.969-18.139a1.001 1.001 0 001.962-.39l-1.962.39zm-70.915 7.992l.999.029-.999-.029zm28.914 29.89l-.029 1 .029-1zm30.609-28.116l1 .029-1-.029zm-22.047-29.936a1.001 1.001 0 00-.491 1.939l.491-1.939zm-15.05 1.936a1 1 0 00-.493-1.939l.493 1.939zm2.067 44.108a1 1 0 00.602-1.907l-.602 1.907zm11.056-2.137a1 1 0 00.686 1.879l-.686-1.879zm-4.914-8.264l.058.998-.058-.998zm5.866-6.887l.998-.057-.998.057zm-6.604-6.168l-.057-.998.057.998zm-4.226 9.177a1 1 0 10-1.773.925l1.773-.925zm-1.7-6.406a1 1 0 101.752.964l-1.752-.964zm46.857-82.005l1-.016-1 .016zm23.433-23.545l-.016-.999.016.999zm24.134 22.81l1-.016-1 .016zm-19.254 22.103a1 1 0 10.387 1.962l-.387-1.962zm-9.715 1.919a1 1 0 00.405-1.958l-.405 1.958zm21.274-23.982l-1-.004 1 .004zm-16.15 15.617l-.004 1 .004-1zm-16.031-15.743l-1-.004 1 .004zm12.771-14.262a1 1 0 10-.426-1.954l.426 1.954zm8.195-1.665a1 1 0 10-.558 1.921l.558-1.921zm-4.699 25.391l-.004 1 .004-1zm-8.739-9.221l1 .004-1-.004zm8.81-9.152l.003-1-.003 1zm7.368 6.678a1 1 0 101.913-.584l-1.913.584zm1.743 6.106a1 1 0 00-1.88-.682l1.88.682zm-12.856-3.827l1 .004-1-.004zm3.511-3.395l-.004 1 .004-1zm3.485 3.422l1 .004-1-.004zm-5.425 3.971a1 1 0 00.844-1.814l-.844 1.814zm3.297-1.969a1 1 0 101.07 1.689l-1.07-1.689zm-25.292-.812a1 1 0 00.014-2l-.014 2zm-39.808-2.278a1 1 0 10-.014 2l.014-2zM392.21 103.417a1 1 0 001.695 1.061l-1.695-1.061zm18.955-26.496a1 1 0 10-1.695-1.062l1.695 1.062zm-136.86 654.792a1 1 0 002-.005l-2 .005zm-107.584-75.22l1 .005-1-.005zm28.358 27.919l-.005 1 .005-1zm28.639-27.626l1 .005-1-.005zm-22.932-28.405a1 1 0 00-.367 1.966l.367-1.966zm-11.599 2.13a1 1 0 10-.425-1.954l.425 1.954zm5.199 45.844l-.021 1 .021-1zm18.993-19.081l-1-.021 1 .021zm-18.199-19.856l.02-.999-.02.999zm-19.412 14.514a1 1 0 101.945.465l-1.945-.465zm2.025 9.825a1 1 0 00-1.936.501l1.936-.501zm5.713-4.742l-1-.002 1 .002zm10.87 10.648l.002-1-.002 1zm10.924-10.591l-1-.002 1 .002zm-7.208-11.076a1 1 0 10-.606 1.905l.606-1.905zm-7.148 2.032a1 1 0 10-.681-1.88l.681 1.88zm3.691 4.638l-.039-.999.039.999zm-3.882 4.385l-.999.037.999-.037zm4.2 4.075l.038.999-.038-.999zm2.532-5.73a1 1 0 001.791-.892l-1.791.892zm1.644 4.186a1 1 0 00-1.734-.997l1.734.997zm24.899-3.8a1 1 0 100 2v-2zm50.723 2a1 1 0 100-2v2zM411.249 76.427c15.236 9.584 35.499 4.396 45.281-11.469l-1.702-1.05c-9.239 14.985-28.283 19.778-42.514 10.826l-1.065 1.693zm45.281-11.469c9.779-15.86 5.455-36.5-9.774-46.081l-1.065 1.693c14.237 8.956 18.38 28.349 9.137 43.338l1.702 1.05zm-9.774-46.081c-13.5-8.492-30.953-5.385-41.555 6.47l1.49 1.333c10.002-11.183 26.387-14.044 39-6.11l1.065-1.693zm-48.559 18.339c-5.084 14.524-.054 30.966 13.052 39.21l1.065-1.692c-12.254-7.709-17.03-23.142-12.229-36.858l-1.888-.66zm51.124 23.172c6.933-10.99 3.392-25.73-7.82-32.947l-1.083 1.681c10.34 6.655 13.528 20.186 7.211 30.199l1.692 1.067zm-7.82-32.947c-11.218-7.22-25.957-4.235-32.895 6.762l1.691 1.067c6.313-10.006 19.787-12.8 30.121-6.148l1.083-1.681zm-32.895 6.762c-5.97 9.463-4.172 21.71 3.597 29.533l1.419-1.41c-7.158-7.207-8.764-18.434-3.325-27.056l-1.691-1.067zm14.059 35.84c9.959 3.017 20.95-.611 26.656-9.655l-1.692-1.067c-5.194 8.233-15.229 11.58-24.384 8.807l-.58 1.914zm-5.119-29.321c-3.694 6.254-1.467 14.405 4.885 18.233l1.033-1.713c-5.463-3.291-7.302-10.244-4.196-15.503l-1.722-1.017zm4.885 18.233c6.358 3.83 14.532 1.934 18.23-4.327l-1.722-1.017c-3.102 5.253-10.018 6.919-15.475 3.631l-1.033 1.713zm18.23-4.327c2.974-5.035 2.107-11.305-1.653-15.547l-1.497 1.326c3.227 3.64 3.929 8.97 1.428 13.204l1.722 1.017zm-9.355-19.96c-5.318-1.038-10.891 1.196-13.76 6.054l1.722 1.017c2.41-4.081 7.113-5.994 11.655-5.108l.383-1.963zm.407 7.837c-2.79-1.47-6.208-.271-7.668 2.556l1.777.918c.987-1.911 3.221-2.62 4.958-1.705l.933-1.77zm-7.668 2.556c-1.458 2.822-.479 6.327 2.304 7.793l.932-1.77c-1.743-.918-2.449-3.189-1.459-5.105l-1.777-.918zm10.637 2.792c.113-2.154-.958-4.289-2.969-5.348l-.933 1.769c1.263.666 1.98 2.03 1.905 3.474l1.997.105zm-8.333 5c1.763.93 3.791.79 5.402-.154l-1.011-1.726c-1.059.62-2.353.694-3.459.111l-.932 1.77zM276.527 732.37c-24.044-.465-43.845 19.551-44.32 44.609l1.999.038c.456-24.04 19.428-43.089 42.282-42.647l.039-2zm-44.32 44.609c-.476 25.057 18.551 45.824 42.594 46.289l.039-1.999c-22.854-.443-41.09-20.212-40.634-44.252l-1.999-.038zm42.594 46.289c21.305.413 39.283-15.261 43.429-36.266l-1.963-.387c-3.974 20.135-21.173 35.046-41.427 34.654l-.039 1.999zm43.422-54.795c-4.026-20.261-21.006-35.702-41.696-36.103l-.039 2c19.671.381 35.915 15.073 39.773 34.493l1.962-.39zm-73.877 8.353c-.484 16.594 12.92 30.413 29.885 30.919l.059-2c-15.909-.474-28.396-13.419-27.945-28.861l-1.999-.058zm29.885 30.919c16.964.505 31.153-12.492 31.638-29.087l-1.999-.058c-.451 15.441-13.671 27.62-29.58 27.145l-.059 2zm31.638-29.087c.417-14.287-9.466-26.52-23.047-29.965l-.491 1.939c12.726 3.227 21.927 14.671 21.539 27.968l1.999.058zm-38.59-29.968c-12.858 3.267-22.534 14.486-22.933 28.136l1.999.058c.372-12.703 9.381-23.195 21.427-26.255l-.493-1.939zm25.88 29.488c0-9.634-8.007-17.4-17.829-17.4v2c8.767 0 15.829 6.919 15.829 15.4h2zm-17.829-17.4c-9.822 0-17.829 7.766-17.829 17.4h2c0-8.481 7.062-15.4 15.829-15.4v-2zm-17.829 17.4c0 7.756 5.193 14.304 12.338 16.559l.602-1.907c-6.364-2.009-10.94-7.822-10.94-14.652h-2zm24.08 16.301c6.749-2.467 11.578-8.823 11.578-16.301h-2c0 6.586-4.253 12.226-10.264 14.422l.686 1.879zm-5.542-9.145c4.036-.233 7.039-3.829 6.806-7.942l-1.997.113c.176 3.098-2.075 5.668-4.925 5.832l.116 1.997zm6.806-7.942c-.232-4.113-3.621-7.342-7.659-7.109l.115 1.996c2.849-.164 5.372 2.13 5.547 5.226l1.997-.113zm-13.601 3.991c1.289 2.471 3.877 4.119 6.795 3.951l-.116-1.997c-2.065.119-3.949-1.044-4.906-2.879l-1.773.925zm5.942-11.1c-2.554.147-4.704 1.651-5.869 3.769l1.752.964c.862-1.566 2.421-2.632 4.232-2.737l-.115-1.996zm41.988-78.252c-.185-12.223 9.84-22.334 22.448-22.529l-.031-1.999c-13.663.211-24.619 11.182-24.417 24.559l2-.031zm22.448-22.529c12.607-.194 22.934 9.601 23.119 21.825l2-.031c-.203-13.376-11.487-24.005-25.15-23.793l.031 1.999zm23.119 21.825c.164 10.833-7.688 20.004-18.254 22.088l.387 1.962c11.461-2.261 20.046-12.228 19.867-24.081l-2 .031zm-27.564 22.049c-10.175-2.104-17.843-10.824-18.003-21.345l-2 .031c.175 11.511 8.559 20.99 19.598 23.272l.405-1.958zm19.869-22.028c-.031 8.083-6.788 14.654-15.146 14.621l-.008 2c9.414.037 17.119-7.377 17.154-16.613l-2-.008zM339.9 705.969c-8.359-.033-15.066-6.656-15.035-14.739l-2-.008c-.035 9.237 7.613 16.71 17.027 16.747l.008-2zm-15.035-14.739c.027-6.961 5.038-12.798 11.771-14.266l-.426-1.954c-7.595 1.656-13.314 8.26-13.345 16.212l2 .008zm19.408-14.01c6.267 1.818 10.799 7.477 10.773 14.128l2 .008c.029-7.598-5.144-14.005-12.215-16.057l-.558 1.921zm-4.137 22.47c-4.251-.017-7.76-3.652-7.743-8.217l-2-.008c-.021 5.582 4.295 10.203 9.735 10.225l.008-2zm-7.743-8.217c.017-4.565 3.555-8.172 7.806-8.156l.007-2c-5.441-.021-9.792 4.567-9.813 10.148l2 .008zm7.806-8.156c3.425.014 6.362 2.369 7.372 5.678l1.913-.584c-1.243-4.073-4.9-7.076-9.278-7.094l-.007 2zm7.235 11.102c-1.13 3.117-3.994 5.284-7.298 5.271l-.008 2c4.221.016 7.794-2.75 9.186-6.589l-1.88-.682zm-9.976-3.141c.005-1.306 1.103-2.405 2.507-2.399l.008-2c-2.46-.01-4.506 1.932-4.515 4.391l2 .008zm2.507-2.399c1.404.005 2.494 1.112 2.489 2.418l2 .008c.009-2.459-2.022-4.417-4.481-4.426l-.008 2zm-1.092 4.579c-.853-.396-1.419-1.234-1.415-2.18l-2-.008c-.007 1.777 1.057 3.297 2.571 4.002l.844-1.814zm3.581-2.161a2.387 2.387 0 01-1.128 2.006l1.07 1.689c1.225-.776 2.052-2.131 2.058-3.687l-2-.008zm-26.406-.806l-39.822-.278-.014 2 39.822.278.014-2zm223.63-346.078c0 147.663-118.51 267.35-264.678 267.35v2c147.292 0 266.678-120.602 266.678-269.35h-2zM275 611.763c-146.168 0-264.678-119.687-264.678-267.35h-2c0 148.748 119.387 269.35 266.678 269.35v-2zM10.322 344.413c0-147.662 118.51-267.349 264.678-267.349v-2c-147.291 0-266.678 120.601-266.678 269.349h2zM275 77.064c146.168 0 264.678 119.687 264.678 267.349h2c0-148.748-119.386-269.349-266.678-269.349v2zm118.905 27.414l17.26-27.557-1.695-1.062-17.26 27.558 1.695 1.061zm-117.6 627.23L276 612.76l-2 .005.305 118.948 2-.005zm-110.584-75.22c-.081 15.914 13.086 28.84 29.353 28.924l.01-2c-15.211-.079-27.438-12.152-27.363-26.914l-2-.01zm29.353 28.924c16.267.083 29.564-12.706 29.644-28.621l-2-.01c-.075 14.762-12.422 26.709-27.634 26.631l-.01 2zm29.644-28.621c.071-14.101-10.262-25.858-23.932-28.41l-.367 1.966c12.773 2.384 22.365 13.353 22.299 26.434l2 .01zm-35.956-28.234c-13.112 2.852-22.972 14.235-23.041 27.931l2 .01c.064-12.705 9.216-23.322 21.466-25.987l-.425-1.954zm5.603 48.798c10.865.226 19.784-8.8 20.014-20.061l-2-.041c-.209 10.244-8.297 18.304-17.972 18.103l-.042 1.999zm20.014-20.061c.229-11.26-8.314-20.649-19.179-20.875l-.041 1.999c9.676.201 17.429 8.591 17.22 18.835l2 .041zM195.2 636.419c-9.353-.195-17.27 6.474-19.432 15.513l1.945.465c1.962-8.203 9.112-14.152 17.446-13.979l.041-1.999zm-19.343 25.839c2.202 8.52 9.573 14.911 18.508 15.097l.042-1.999c-7.963-.166-14.616-5.869-16.614-13.599l-1.936.501zm6.649-5.245c-.016 6.441 5.321 11.633 11.867 11.65l.005-2c-5.49-.015-9.885-4.357-9.872-9.645l-2-.005zm11.867 11.65c6.546.017 11.91-5.147 11.927-11.588l-2-.005c-.014 5.288-4.431 9.607-9.922 9.593l-.005 2zm11.927-11.588c.013-5.185-3.448-9.564-8.208-11.079l-.606 1.905c3.98 1.268 6.824 4.91 6.814 9.169l2 .005zm-16.037-10.927c-4.505 1.632-7.744 5.866-7.757 10.865l2 .005c.011-4.107 2.672-7.625 6.438-8.99l-.681-1.88zm4.333 5.519c-2.825.108-4.949 2.577-4.842 5.421l1.998-.075c-.068-1.828 1.284-3.285 2.921-3.348l-.077-1.998zm-4.842 5.421c.107 2.845 2.41 5.146 5.237 5.037l-.077-1.998c-1.636.063-3.093-1.286-3.162-3.114l-1.998.075zm9.522-2.584c-.861-1.729-2.639-2.916-4.68-2.837l.077 1.998c1.188-.045 2.271.644 2.812 1.731l1.791-.892zm-4.285 7.621c1.786-.068 3.302-1.09 4.138-2.543l-1.734-.997c-.522.906-1.438 1.502-2.481 1.542l.077 1.998zm29.037-4.343h50.723v-2h-50.723v2z" fill="#B6FE9E"/></g><defs><filter id="filter0_f" x="5.822" y="12.486" width="538.356" height="814.214" filterUnits="userSpaceOnUse" color-interpolation-filters="sRGB"><feFlood flood-opacity="0" result="BackgroundImageFix"/><feBlend in="SourceGraphic" in2="BackgroundImageFix" result="shape"/><feGaussianBlur stdDeviation=".5" result="effect1_foregroundBlur"/></filter><filter id="filter1_f" x="-7.678" y="-1.014" width="565.356" height="841.214" filterUnits="userSpaceOnUse" color-interpolation-filters="sRGB"><feFlood flood-opacity="0" result="BackgroundImageFix"/><feBlend in="SourceGraphic" in2="BackgroundImageFix" result="shape"/><feGaussianBlur stdDeviation="7.5" result="effect1_foregroundBlur"/></filter><filter id="filter2_f" x=".322" y="6.986" width="549.356" height="825.214" filterUnits="userSpaceOnUse" color-interpolation-filters="sRGB"><feFlood flood-opacity="0" result="BackgroundImageFix"/><feBlend in="SourceGraphic" in2="BackgroundImageFix" result="shape"/><feGaussianBlur stdDeviation="3.5" result="effect1_foregroundBlur"/></filter><filter id="filter3_d" x="4.322" y="13.986" width="541.356" height="819.214" filterUnits="userSpaceOnUse" color-interpolation-filters="sRGB"><feFlood flood-opacity="0" result="BackgroundImageFix"/><feColorMatrix in="SourceAlpha" values="0 0 0 0 0 0 0 0 0 0 0 0 0 0 0 0 0 0 127 0"/><feOffset dy="5"/><feGaussianBlur stdDeviation="1.5"/><feColorMatrix values="0 0 0 0 0 0 0 0 0 0 0 0 0 0 0 0 0 0 0.6 0"/><feBlend in2="BackgroundImageFix" result="effect1_dropShadow"/><feBlend in="SourceGraphic" in2="effect1_dropShadow" result="shape"/></filter><clipPath id="clip0"><path fill="#fff" d="M0 0h550v840H0z"/></clipPath></defs></svg>