<svg width="99" height="63" fill="none" xmlns="http://www.w3.org/2000/svg"><g stroke="#fff" stroke-width="2"><path d="M1 8.31C1 6.481 2.48 5 4.304 5h39.392A3.306 3.306 0 0147 8.31v21.38c0 1.828-1.48 3.31-3.304 3.31H4.304A3.306 3.306 0 011 29.69V8.31z"/><path d="M21.622 25.776c1.33.97 3.13.975 4.466.015L45.381 11.92C48.39 9.757 46.86 5 43.158 5H4.838C1.145 5-.39 9.73 2.593 11.905l19.028 13.87z"/></g><g clip-path="url(#clip0)"><path d="M79.506 32.848l-.084-.015-.099-.017c-4.683-.007-8.34-.585-10.896-1.83-2.842-1.368-4.116-4.21-4.116-8.013 0-2.387.825-4.412 2.509-5.945.762-.706 1.695-1.184 2.81-1.452l.011-.003h0c1.012-.231 1.983-.356 2.916-.32h.001c.825.031 1.98.11 3.42.22 1.433.108 2.573.168 3.598.168.745 0 2.167-.075 4.305-.246 2.154-.173 3.848-.182 5.007.01h.002l-.164.987-9.22 16.456zm0 0h.085m-.085 0h.085m0 0c4.727 0 8.427-.58 11.026-1.83l.002-.002m-11.028 1.832l11.028-1.831m0 0c2.848-1.38 4.16-4.212 4.16-8.028m-4.16 8.027l4.16-8.027m0 0c0-2.345-.869-4.36-2.607-5.94l2.608 5.94zm-9.706-1.578h0l.007-.011c.375-.528.772-.702 1.173-.702.335 0 .683.14 1.081.702.392.552.62 1.261.62 2.197 0 .933-.227 1.641-.616 2.192-.418.571-.77.707-1.085.707-.392 0-.78-.166-1.176-.707-.389-.55-.617-1.272-.617-2.192 0-.934.22-1.648.613-2.186zm9.903-12.832c0 .113-.004.205-.008.28l-.759.416.846.94c1.903 2.112 2.869 4.692 2.869 7.752 0 2.06-.234 3.886-.676 5.501-.467 1.634-1.036 2.925-1.682 3.866a11.065 11.065 0 01-2.479 2.592h0l-.007.005c-1.024.786-1.936 1.314-2.736 1.65-.818.34-1.777.618-2.868.81-1.159.204-1.955.315-2.478.329h-.028c-.556.03-1.175.046-1.843.046-.175 0-.714.017-1.554.047h-.001c-.827.031-1.527.047-2.072.047-.545 0-1.245-.016-2.072-.047h0a68.79 68.79 0 00-1.555-.047c-.693 0-1.288 0-1.816-.044h-.015l-.015-.001c-.547-.028-1.366-.13-2.503-.33h-.002c-1.113-.193-2.051-.455-2.873-.807h0l-.008-.004c-.796-.332-1.709-.875-2.744-1.654a10.766 10.766 0 01-2.474-2.585h0l-.004-.005c-.646-.941-1.215-2.234-1.682-3.868-.443-1.616-.677-3.442-.677-5.501 0-3.06.967-5.64 2.87-7.753l.894-.993-.81-.389a5.673 5.673 0 01-.008-.244c-.005-.524.04-1.32.146-2.41h0v-.013c.151-1.82.495-3.502 1.037-5.053 2.221.441 5.004 1.808 8.39 4.21l.383.272.453-.12c1.172-.312 2.851-.497 5.07-.497 2.345 0 3.999.173 5.036.487l.464.141.398-.277c1.705-1.189 3.325-2.142 4.862-2.879 1.631-.752 2.66-1.125 3.24-1.21l.039-.006.038-.009.239-.054c.53 1.535.867 3.199 1.016 4.995v.01l.002.011c.112 1.08.16 1.871.157 2.393zm-30.934.518v-.004a.09.09 0 010 .004zm30.9-.006a.14.14 0 010 .003V9.09zM72.838 20.698c.324 0 .686.144 1.081.702.392.552.62 1.261.62 2.197 0 .936-.228 1.645-.62 2.198-.395.557-.757.701-1.081.701-.412 0-.796-.17-1.172-.701-.391-.551-.62-1.275-.62-2.198 0-.922.229-1.646.62-2.197.376-.53.76-.702 1.172-.702z" stroke="#fff" stroke-width="2"/></g><g fill="#fff"><path d="M1 62.746V44.254h5.31c1.638 0 3.085.356 4.343 1.067 1.257.711 2.227 1.723 2.907 3.035.69 1.313 1.038 2.82 1.047 4.522v1.18c0 1.745-.345 3.273-1.034 4.586a7.107 7.107 0 01-2.933 3.022c-1.267.703-2.744 1.063-4.432 1.08H1zm2.481-16.485v14.491h2.61c1.913 0 3.399-.584 4.458-1.753 1.069-1.168 1.603-2.832 1.603-4.991v-1.08c0-2.1-.504-3.73-1.512-4.89-1-1.168-2.42-1.76-4.264-1.777H3.48zM16.726 61.514c0-.406.12-.745.362-1.016.25-.271.62-.406 1.111-.406s.862.135 1.111.406c.259.27.388.61.388 1.016 0 .39-.13.715-.388.978-.25.263-.62.394-1.11.394-.492 0-.862-.132-1.112-.394-.241-.262-.362-.588-.362-.978zM28.808 54.148l-2.3 2.35v6.248h-2.481V44.254h2.48v9.144l8.361-9.144h2.998l-7.404 8.166 7.986 10.326h-2.972l-6.668-8.598zM58.89 62.746H46.563v-1.69l6.512-7.111c.965-1.076 1.629-1.948 1.99-2.617.37-.677.556-1.376.556-2.095 0-.966-.297-1.757-.892-2.375-.594-.618-1.386-.927-2.377-.927-1.189 0-2.115.334-2.778 1.003-.655.66-.982 1.583-.982 2.769H46.2c0-1.702.556-3.078 1.667-4.128 1.12-1.05 2.614-1.575 4.484-1.575 1.749 0 3.131.453 4.148 1.359 1.016.898 1.525 2.096 1.525 3.594 0 1.82-1.18 3.988-3.541 6.503l-5.04 5.372h9.446v1.918zM73.22 54.859c0 2.752-.477 4.797-1.434 6.134C70.83 62.331 69.336 63 67.302 63c-2.007 0-3.493-.652-4.458-1.956-.964-1.312-1.464-3.268-1.498-5.867v-3.138c0-2.718.478-4.737 1.434-6.058.956-1.32 2.455-1.981 4.497-1.981 2.024 0 3.514.64 4.47 1.918.957 1.27 1.448 3.234 1.474 5.893v3.048zm-2.39-3.213c0-1.99-.284-3.438-.853-4.344-.568-.914-1.469-1.371-2.7-1.371-1.224 0-2.115.453-2.675 1.358-.56.906-.849 2.3-.866 4.179v3.76c0 1.997.293 3.475.879 4.432.594.948 1.49 1.422 2.688 1.422 1.18 0 2.054-.449 2.623-1.346.577-.897.878-2.311.904-4.242v-3.848zM88.61 62.746H76.284v-1.69l6.513-7.111c.965-1.076 1.628-1.948 1.99-2.617.37-.677.555-1.376.555-2.095 0-.966-.297-1.757-.891-2.375-.594-.618-1.387-.927-2.378-.927-1.189 0-2.115.334-2.778 1.003-.655.66-.982 1.583-.982 2.769h-2.39c0-1.702.555-3.078 1.666-4.128 1.12-1.05 2.615-1.575 4.484-1.575 1.749 0 3.132.453 4.148 1.359 1.017.898 1.525 2.096 1.525 3.594 0 1.82-1.18 3.988-3.54 6.503l-5.04 5.372h9.446v1.918zM99 62.746h-2.403v-15.66l-4.82 1.74v-2.133l6.848-2.528H99v18.581z"/></g><defs><clipPath id="clip0"><path fill="transparent" transform="translate(60)" d="M0 0h39v34H0z"/></clipPath></defs></svg>