<svg width="650" height="150" viewBox="0 0 650 150" fill="none" xmlns="http://www.w3.org/2000/svg"><path d="M38.764 116.042V37.943a5.732 5.732 0 015.732-5.732h24.037c8.989 0 16.869 1.747 23.64 5.24 6.888 3.376 12.141 8.266 15.76 14.67 3.735 6.287 5.603 13.623 5.603 22.006 0 8.383-1.868 15.776-5.603 22.18-3.619 6.287-8.873 11.178-15.76 14.67-6.771 3.377-14.651 5.065-23.64 5.065H58.075m292.668-34.93c0 23.986-10.331 35.978-30.994 35.978-20.78 0-31.17-11.992-31.17-35.977V18.732A5.732 5.732 0 00282.847 13h-11.3a5.732 5.732 0 00-5.732 5.732v63.254c0 17.698 4.728 31.32 14.184 40.868 9.456 9.431 22.647 14.146 39.575 14.146 16.927 0 30.06-4.715 39.399-14.146 9.456-9.548 14.184-23.17 14.184-40.868V18.732A5.732 5.732 0 00367.425 13h-10.95a5.732 5.732 0 00-5.732 5.732V47.056M626.696 33.26c1.986 3.081 3.503 6.435 4.55 10.062m-4.55-10.062l4.55 10.062m-4.55-10.062a37.253 37.253 0 00-3.401-4.492c-3.868-4.376-8.804-7.885-14.81-10.528C600.663 14.746 591.441 13 580.817 13h-44.699a5.732 5.732 0 00-5.732 5.732v110.79a5.732 5.732 0 005.732 5.732h11.3a5.732 5.732 0 005.732-5.732v-8.58M72.397 40.895L48.62 65.501c-3.581 3.707-9.854 1.171-9.854-3.983V18.732A5.732 5.732 0 0033.033 13h-11.3a5.732 5.732 0 00-5.732 5.732v110.79a5.732 5.732 0 005.732 5.732h11.3a5.732 5.732 0 005.732-5.732v-11.577m43.008-86.752l3.516-3.639 12.374-12.805A5.732 5.732 0 01101.785 13h9.862c5.025 0 7.618 6.004 4.173 9.662l-38.953 41.36a5.732 5.732 0 00-.285 7.534l43.943 54.362c3.03 3.749.362 9.336-4.457 9.336h-11.953a5.733 5.733 0 01-4.378-2.032L62.275 88.9a5.732 5.732 0 00-8.48-.304l-13.4 13.725a5.733 5.733 0 00-1.63 4.005v1.913m114.854 5.426l1.376-3.224a5.732 5.732 0 015.272-3.48h53.739a5.732 5.732 0 015.26 3.453l9.265 21.386a5.732 5.732 0 005.26 3.454h11.165c4.165 0 6.939-4.302 5.222-8.096l-50.146-110.79A5.732 5.732 0 00194.81 13h-15.014a5.733 5.733 0 00-5.225 3.375l-49.987 110.789c-1.711 3.794 1.063 8.09 5.225 8.09h10.805c2.296 0 4.37-1.37 5.272-3.481l2.553-5.98m50.244-63.368l2.266 5.24 5.828 13.474c1.637 3.785-1.138 8.008-5.261 8.008h-28.631c-4.117 0-6.891-4.21-5.268-7.993l14.261-33.225c1.984-4.621 8.532-4.63 10.529-.015l.111.258m158.225 26.304v5.24-12.051m54.295-29.166V18.732A5.732 5.732 0 01410.77 13h44.7c10.623 0 19.846 1.746 27.667 5.24 7.939 3.492 14.009 8.499 18.212 15.02 4.202 6.52 6.304 14.262 6.304 23.227 0 8.85-2.102 16.592-6.304 23.229-4.203 6.52-10.273 11.526-18.212 15.02-7.821 3.492-17.044 5.239-27.667 5.239h-21.936a5.733 5.733 0 00-5.732 5.732v23.815a5.732 5.732 0 01-5.731 5.732H410.77a5.733 5.733 0 01-5.732-5.732V74.476m0-26.304v-7.277m64.983 37.487c2.683-.992 5.012-2.294 6.987-3.906 5.137-4.192 7.705-10.188 7.705-17.989 0-7.8-2.568-13.797-7.705-17.988-5.136-4.192-12.666-6.288-22.589-6.288h-20.885a5.732 5.732 0 00-5.732 5.732v37.088a5.732 5.732 0 005.732 5.732h21.936m175.776-37.442C632.415 47.37 633 51.758 633 56.487c0 8.85-2.101 16.592-6.304 23.229-4.203 6.52-10.273 11.526-18.211 15.02-7.822 3.492-17.044 5.239-27.668 5.239h-22.034a5.633 5.633 0 00-5.633 5.633v3.206M69.584 13c13.075 0 24.69 2.562 34.847 7.684 10.156 5.007 18.036 12.168 23.639 21.482 5.604 9.198 8.406 19.852 8.406 31.96 0 12.11-2.802 22.821-8.406 32.136-5.603 9.198-13.483 16.359-23.639 21.482-10.157 5.006-21.772 7.51-34.847 7.51H21.732A5.732 5.732 0 0116 129.522V18.732A5.732 5.732 0 0121.732 13H69.584zm510.183 67.763c9.922 0 17.452-2.095 22.589-6.287 5.136-4.192 7.705-10.188 7.705-17.989 0-7.8-2.569-13.797-7.705-17.988-5.137-4.192-12.667-6.288-22.589-6.288h-20.885a5.732 5.732 0 00-5.732 5.732v37.088a5.732 5.732 0 005.732 5.732h20.885z" stroke="#6DFC3C" stroke-width="6" stroke-linecap="round" stroke-linejoin="round"/></svg>