<svg width="100" height="50" viewBox="0 0 100 50" fill="none" xmlns="http://www.w3.org/2000/svg">
<path fill-rule="evenodd" clip-rule="evenodd" d="M23.3094 6C20.3634 6 18 8.41926 18 11.3727V39.6273C18 42.5807 20.3634 45 23.3094 45H74.6906C77.6366 45 80 42.5807 80 39.6273V32H94.0021L90.7073 36.4007C90.3763 36.8428 90.4664 37.4695 90.9085 37.8005C91.3506 38.1315 91.9773 38.0414 92.3083 37.5993L97.2492 31L92.3083 24.4007C91.9773 23.9586 91.3506 23.8685 90.9085 24.1995C90.4664 24.5305 90.3763 25.1572 90.7073 25.5993L94.0021 30H80V11.3727C80 8.41926 77.6366 6 74.6906 6H23.3094ZM78 30V16.5287C77.8364 16.6759 77.662 16.8175 77.4766 16.9525L52.3125 35.2816C50.2169 36.808 47.3896 36.7986 45.304 35.2583L20.4853 16.9292C20.3141 16.8028 20.1524 16.6708 20 16.5339V39.6273C20 41.5038 21.4954 43 23.3094 43H74.6906C76.5046 43 78 41.5038 78 39.6273V32H71C70.4477 32 70 31.5523 70 31C70 30.4477 70.4477 30 71 30H78ZM24.0054 8H73.9882C77.8184 8 79.4682 13.0276 76.2991 15.3359L51.135 33.665C49.7452 34.6773 47.8755 34.6711 46.4921 33.6495L21.6734 15.3204C18.53 12.999 20.1884 8 24.0054 8Z" fill="white"/>
</svg>
