<svg width="997" height="200" viewBox="0 0 997 200" fill="none" xmlns="http://www.w3.org/2000/svg">
<g clip-path="url(#clip0)">
<g filter="url(#filter0_f)">
<rect opacity="0.14" x="9" y="8" width="498" height="121" rx="60.5" fill="#6DFC3C"/>
<rect opacity="0.14" x="503" y="18" width="483" height="104" rx="50.1185" fill="#6DFC3C"/>
</g>
<g filter="url(#filter1_b)">
<g filter="url(#filter2_f)">
<path d="M53.2914 100.138V46.338C53.2914 43.5048 55.5882 41.208 58.4214 41.208H74.1958C80.5082 41.208 86.0417 42.4357 90.7964 44.8912C95.6331 47.2647 99.3221 50.7024 101.863 55.204C104.487 59.6238 105.798 64.7802 105.798 70.6732C105.798 76.5662 104.487 81.7636 101.863 86.2652C99.3221 90.685 95.6331 94.1226 90.7964 96.578C86.0417 98.9516 80.5082 100.138 74.1958 100.138H66.852M775.889 75.5841C775.889 92.4447 768.634 100.875 754.124 100.875C739.532 100.875 732.236 92.4447 732.236 75.5841V32.8331C732.236 29.9999 729.939 27.7031 727.106 27.7031H721.38C718.547 27.7031 716.25 29.9999 716.25 32.8331V76.1979C716.25 88.6388 719.57 98.215 726.21 104.927C732.851 111.556 742.114 114.871 754.001 114.871C765.888 114.871 775.11 111.556 781.669 104.927C788.309 98.215 791.629 88.6388 791.629 76.1979V32.8331C791.629 29.9999 789.332 27.7031 786.499 27.7031H781.019C778.186 27.7031 775.889 29.9999 775.889 32.8331V45.6278V51.6436M969.671 41.9446C971.066 44.1104 972.131 46.4681 972.866 49.0177M969.671 41.9446L972.866 49.0177M969.671 41.9446C968.953 40.8289 968.157 39.7763 967.283 38.7867C964.567 35.7108 961.1 33.244 956.882 31.3863C951.39 28.9308 944.914 27.7031 937.454 27.7031H907.169C904.336 27.7031 902.039 29.9999 902.039 32.8331V108.513C902.039 111.347 904.336 113.643 907.169 113.643H912.895C915.728 113.643 918.025 111.347 918.025 108.513V103.583M580.426 47.3125L565.629 62.6405C562.425 65.9602 556.809 63.6917 556.809 59.0776V32.8331C556.809 29.9999 554.512 27.7031 551.679 27.7031H545.953C543.12 27.7031 540.823 29.9999 540.823 32.8331V108.513C540.823 111.347 543.12 113.643 545.953 113.643H551.679C554.512 113.643 556.809 111.347 556.809 108.513V103.792V101.476M587.01 40.4918L589.479 37.9341L597.842 29.2702C598.809 28.2688 600.141 27.7031 601.533 27.7031H605.439C609.934 27.7031 612.255 33.0742 609.175 36.3482L584.221 62.8728C582.465 64.7397 582.356 67.6165 583.966 69.6108L612.777 105.29C615.486 108.646 613.098 113.643 608.786 113.643H603.213C601.703 113.643 600.268 112.977 599.294 111.823L574.104 81.9896C572.15 79.6752 568.627 79.5489 566.512 81.7175L558.266 90.1728C557.332 91.1309 556.809 92.4162 556.809 93.7545V94.6533M637.462 98.4673L638.143 96.8714C638.949 94.9809 640.806 93.7543 642.861 93.7543H679.141C681.187 93.7543 683.037 94.9695 683.849 96.8467L689.78 110.551C690.593 112.428 692.443 113.643 694.488 113.643H699.893C703.619 113.643 706.102 109.795 704.567 106.4L670.348 30.7196C669.518 28.8832 667.689 27.7031 665.674 27.7031H656.559C654.542 27.7031 652.712 28.8858 651.883 30.7251L617.772 106.405C616.242 109.8 618.725 113.643 622.449 113.643H627.599C629.654 113.643 631.511 112.417 632.317 110.526L633.825 106.993M669.107 62.4475L670.699 66.1307L674.128 74.0669C675.591 77.4537 673.108 81.2316 669.419 81.2316H652.664C648.981 81.2316 646.498 77.4652 647.949 74.08L657.229 52.4384C658.65 49.1234 663.348 49.1169 664.778 52.428V52.428M775.889 70.9188V74.6019V66.1307M814.017 45.6278V37.9341V32.8331C814.017 29.9999 816.313 27.7031 819.147 27.7031H849.431C856.891 27.7031 863.367 28.9308 868.86 31.3863C874.435 33.8417 878.697 37.3612 881.649 41.9446C884.6 46.5281 886.075 51.971 886.075 58.2733C886.075 64.4937 884.6 69.9366 881.649 74.6019C878.697 79.1854 874.435 82.7048 868.86 85.1603C863.367 87.6157 856.891 88.8434 849.431 88.8434H835.132C832.299 88.8434 830.002 91.1402 830.002 93.9734V108.513C830.002 111.347 827.706 113.643 824.872 113.643H819.147C816.313 113.643 814.017 111.347 814.017 108.513V70.9188M814.017 52.428V47.3125M859.649 73.6646C861.533 72.9672 863.169 72.0519 864.556 70.9188C868.163 67.9722 869.967 63.7571 869.967 58.2733C869.967 52.7895 868.163 48.5743 864.556 45.6278C860.949 42.6813 855.662 41.208 848.693 41.208H835.132C832.299 41.208 830.002 43.5048 830.002 46.338V70.2086C830.002 73.0418 832.299 75.3385 835.132 75.3385H842.57H849.431M972.866 49.0177C973.687 51.8637 974.098 54.949 974.098 58.2733C974.098 64.4937 972.622 69.9366 969.671 74.6019C966.72 79.1854 962.457 82.7048 956.882 85.1603C951.39 87.6157 944.914 88.8434 937.454 88.8434H921.985C919.798 88.8434 918.025 90.6163 918.025 92.8034V92.8034V95.057M154.883 60.1012V32.8331C154.883 29.9999 152.587 27.7031 149.753 27.7031H144.028C141.194 27.7031 138.898 29.9999 138.898 32.8331V108.513C138.898 111.347 141.194 113.643 144.028 113.643H149.753C152.587 113.643 154.883 111.347 154.883 108.513V79.7106V69.4796M206.386 63.4297H202.116H199.281C196.448 63.4297 194.151 61.1329 194.151 58.2997V46.2152C194.151 43.382 196.448 41.0852 199.281 41.0852H235.872C238.705 41.0852 241.002 38.7885 241.002 35.9553V32.8331C241.002 29.9999 238.705 27.7031 235.872 27.7031H183.296C180.462 27.7031 178.166 29.9999 178.166 32.8331V108.513C178.166 111.347 180.462 113.643 183.296 113.643H214.071H218.341M224.318 63.4297H225.172M218.341 63.4297H225.172M225.172 63.4297H230.584C233.417 63.4297 235.714 65.7265 235.714 68.5597V71.4363C235.714 74.2695 233.417 76.5663 230.584 76.5663H199.281C196.448 76.5663 194.151 78.863 194.151 81.6962V95.1312C194.151 97.9644 196.448 100.261 199.281 100.261H212.363H216.633M218.437 100.261H216.633M230.296 100.261H232.004M216.633 100.261H232.004M232.004 100.261H236.652H237.593C240.427 100.261 242.723 102.558 242.723 105.391V108.513C242.723 111.347 240.427 113.643 237.593 113.643H236.628H227.734M271.285 41.208H272.875C275.709 41.208 278.005 43.5048 278.005 46.338V108.513C278.005 111.347 280.302 113.643 283.135 113.643H288.861C291.694 113.643 293.991 111.347 293.991 108.513V46.338C293.991 43.5048 296.288 41.208 299.121 41.208H317.39C320.223 41.208 322.52 38.9112 322.52 36.078V32.8331C322.52 29.9999 320.223 27.7031 317.39 27.7031H254.607C251.774 27.7031 249.477 29.9999 249.477 32.8331V36.078C249.477 38.9112 251.774 41.208 254.607 41.208H259.33M334.516 41.0852V38.7867V32.8331C334.516 29.9999 336.813 27.7031 339.646 27.7031H392.223C395.056 27.7031 397.353 29.9999 397.353 32.8331V35.9553C397.353 38.7885 395.056 41.0852 392.223 41.0852H355.632C352.799 41.0852 350.502 43.382 350.502 46.2152V58.2997C350.502 61.1329 352.799 63.4297 355.632 63.4297H386.935C389.768 63.4297 392.065 65.7265 392.065 68.5597V71.4363C392.065 74.2695 389.768 76.5663 386.935 76.5663H355.632C352.799 76.5663 350.502 78.863 350.502 81.6962V95.1312C350.502 97.9644 352.799 100.261 355.632 100.261H366.072H371.196M334.516 56.6909V108.513C334.516 111.347 336.813 113.643 339.646 113.643H393.944C396.778 113.643 399.074 111.347 399.074 108.513V105.391C399.074 102.558 396.778 100.261 393.944 100.261H387.421M432.881 50.7228V47.3125V46.338C432.881 43.5048 435.177 41.208 438.011 41.208H451.572C458.54 41.208 463.827 42.6813 467.434 45.6278C471.041 48.5743 472.845 52.7895 472.845 58.2733C472.845 63.7571 471.041 68.0132 467.434 71.0415C463.827 73.9881 458.54 75.4613 451.572 75.4613H438.011C435.177 75.4613 432.881 73.1645 432.881 70.3313V66.1307M476.203 93.3519L475.376 92.1733L474.389 90.7643C472.477 88.0383 473.666 84.2668 476.467 82.4674C479.601 80.4541 482.165 77.9551 484.158 74.9702C487.355 70.3049 488.954 64.7392 488.954 58.2733C488.954 51.971 487.478 46.5281 484.527 41.9446C481.576 37.3612 477.313 33.8417 471.738 31.3863C466.246 28.9308 459.77 27.7031 452.309 27.7031H422.025C419.192 27.7031 416.895 29.9999 416.895 32.8331V108.513C416.895 111.347 419.192 113.643 422.025 113.643H427.751C430.584 113.643 432.881 111.347 432.881 108.513V93.7278C432.881 90.8946 435.177 88.5979 438.011 88.5979H452.309C452.404 88.5979 452.497 88.5977 452.588 88.5974C454.465 88.5905 456.299 89.4326 457.374 90.9715L471.682 111.451C472.642 112.825 474.212 113.643 475.888 113.643H480.567C484.719 113.643 487.151 108.968 484.768 105.568L481.583 101.025M74.9336 27.7031C84.1152 27.7031 92.272 29.5038 99.4041 33.1051C106.536 36.6245 112.07 41.6582 116.005 48.206C119.94 54.672 121.907 62.161 121.907 70.6732C121.907 79.1854 119.94 86.7154 116.005 93.2632C112.07 99.7292 106.536 104.763 99.4041 108.364C92.272 111.884 84.1152 113.643 74.9336 113.643H42.4356C39.6024 113.643 37.3057 111.347 37.3057 108.513V32.8331C37.3057 29.9999 39.6024 27.7031 42.4356 27.7031L56.1197 27.7031L65.5266 27.7031L74.9336 27.7031ZM936.716 75.3385C943.684 75.3385 948.972 73.8653 952.579 70.9188C956.186 67.9722 957.989 63.7571 957.989 58.2733C957.989 52.7895 956.186 48.5743 952.579 45.6278C948.972 42.6813 943.684 41.208 936.716 41.208H923.155C920.322 41.208 918.025 43.5048 918.025 46.338V70.2086C918.025 73.0418 920.322 75.3385 923.155 75.3385H936.716Z" stroke="#6DFC3C" stroke-width="5.12997" stroke-linecap="round" stroke-linejoin="round"/>
</g>
</g>
<g filter="url(#filter3_b)">
<g filter="url(#filter4_f)">
<path d="M53.2914 100.138V46.338C53.2914 43.5048 55.5882 41.208 58.4214 41.208H74.1958C80.5082 41.208 86.0417 42.4357 90.7964 44.8912C95.6331 47.2647 99.3221 50.7024 101.863 55.204C104.487 59.6238 105.798 64.7802 105.798 70.6732C105.798 76.5662 104.487 81.7636 101.863 86.2652C99.3221 90.685 95.6331 94.1226 90.7964 96.578C86.0417 98.9516 80.5082 100.138 74.1958 100.138H66.852M775.889 75.5841C775.889 92.4447 768.634 100.875 754.124 100.875C739.532 100.875 732.236 92.4447 732.236 75.5841V32.8331C732.236 29.9999 729.939 27.7031 727.106 27.7031H721.38C718.547 27.7031 716.25 29.9999 716.25 32.8331V76.1979C716.25 88.6388 719.57 98.215 726.21 104.927C732.851 111.556 742.114 114.871 754.001 114.871C765.888 114.871 775.11 111.556 781.669 104.927C788.309 98.215 791.629 88.6388 791.629 76.1979V32.8331C791.629 29.9999 789.332 27.7031 786.499 27.7031H781.019C778.186 27.7031 775.889 29.9999 775.889 32.8331V45.6278V51.6436M969.671 41.9446C971.066 44.1104 972.131 46.4681 972.866 49.0177M969.671 41.9446L972.866 49.0177M969.671 41.9446C968.953 40.8289 968.157 39.7763 967.283 38.7867C964.567 35.7108 961.1 33.244 956.882 31.3863C951.39 28.9308 944.914 27.7031 937.454 27.7031H907.169C904.336 27.7031 902.039 29.9999 902.039 32.8331V108.513C902.039 111.347 904.336 113.643 907.169 113.643H912.895C915.728 113.643 918.025 111.347 918.025 108.513V103.583M580.426 47.3125L565.629 62.6405C562.425 65.9602 556.809 63.6917 556.809 59.0776V32.8331C556.809 29.9999 554.512 27.7031 551.679 27.7031H545.953C543.12 27.7031 540.823 29.9999 540.823 32.8331V108.513C540.823 111.347 543.12 113.643 545.953 113.643H551.679C554.512 113.643 556.809 111.347 556.809 108.513V103.792V101.476M587.01 40.4918L589.479 37.9341L597.842 29.2702C598.809 28.2688 600.141 27.7031 601.533 27.7031H605.439C609.934 27.7031 612.255 33.0742 609.175 36.3482L584.221 62.8728C582.465 64.7397 582.356 67.6165 583.966 69.6108L612.777 105.29C615.486 108.646 613.098 113.643 608.786 113.643H603.213C601.703 113.643 600.268 112.977 599.294 111.823L574.104 81.9896C572.15 79.6752 568.627 79.5489 566.512 81.7175L558.266 90.1728C557.332 91.1309 556.809 92.4162 556.809 93.7545V94.6533M637.462 98.4673L638.143 96.8714C638.949 94.9809 640.806 93.7543 642.861 93.7543H679.141C681.187 93.7543 683.037 94.9695 683.849 96.8467L689.78 110.551C690.593 112.428 692.443 113.643 694.488 113.643H699.893C703.619 113.643 706.102 109.795 704.567 106.4L670.348 30.7196C669.518 28.8832 667.689 27.7031 665.674 27.7031H656.559C654.542 27.7031 652.712 28.8858 651.883 30.7251L617.772 106.405C616.242 109.8 618.725 113.643 622.449 113.643H627.599C629.654 113.643 631.511 112.417 632.317 110.526L633.825 106.993M669.107 62.4475L670.699 66.1307L674.128 74.0669C675.591 77.4537 673.108 81.2316 669.419 81.2316H652.664C648.981 81.2316 646.498 77.4652 647.949 74.08L657.229 52.4384C658.65 49.1234 663.348 49.1169 664.778 52.428V52.428M775.889 70.9188V74.6019V66.1307M814.017 45.6278V37.9341V32.8331C814.017 29.9999 816.313 27.7031 819.147 27.7031H849.431C856.891 27.7031 863.367 28.9308 868.86 31.3863C874.435 33.8417 878.697 37.3612 881.649 41.9446C884.6 46.5281 886.075 51.971 886.075 58.2733C886.075 64.4937 884.6 69.9366 881.649 74.6019C878.697 79.1854 874.435 82.7048 868.86 85.1603C863.367 87.6157 856.891 88.8434 849.431 88.8434H835.132C832.299 88.8434 830.002 91.1402 830.002 93.9734V108.513C830.002 111.347 827.706 113.643 824.872 113.643H819.147C816.313 113.643 814.017 111.347 814.017 108.513V70.9188M814.017 52.428V47.3125M859.649 73.6646C861.533 72.9672 863.169 72.0519 864.556 70.9188C868.163 67.9722 869.967 63.7571 869.967 58.2733C869.967 52.7895 868.163 48.5743 864.556 45.6278C860.949 42.6813 855.662 41.208 848.693 41.208H835.132C832.299 41.208 830.002 43.5048 830.002 46.338V70.2086C830.002 73.0418 832.299 75.3385 835.132 75.3385H842.57H849.431M972.866 49.0177C973.687 51.8637 974.098 54.949 974.098 58.2733C974.098 64.4937 972.622 69.9366 969.671 74.6019C966.72 79.1854 962.457 82.7048 956.882 85.1603C951.39 87.6157 944.914 88.8434 937.454 88.8434H921.985C919.798 88.8434 918.025 90.6163 918.025 92.8034V92.8034V95.057M154.883 60.1012V32.8331C154.883 29.9999 152.587 27.7031 149.753 27.7031H144.028C141.194 27.7031 138.898 29.9999 138.898 32.8331V108.513C138.898 111.347 141.194 113.643 144.028 113.643H149.753C152.587 113.643 154.883 111.347 154.883 108.513V79.7106V69.4796M206.386 63.4297H202.116H199.281C196.448 63.4297 194.151 61.1329 194.151 58.2997V46.2152C194.151 43.382 196.448 41.0852 199.281 41.0852H235.872C238.705 41.0852 241.002 38.7885 241.002 35.9553V32.8331C241.002 29.9999 238.705 27.7031 235.872 27.7031H183.296C180.462 27.7031 178.166 29.9999 178.166 32.8331V108.513C178.166 111.347 180.462 113.643 183.296 113.643H214.071H218.341M224.318 63.4297H225.172M218.341 63.4297H225.172M225.172 63.4297H230.584C233.417 63.4297 235.714 65.7265 235.714 68.5597V71.4363C235.714 74.2695 233.417 76.5663 230.584 76.5663H199.281C196.448 76.5663 194.151 78.863 194.151 81.6962V95.1312C194.151 97.9644 196.448 100.261 199.281 100.261H212.363H216.633M218.437 100.261H216.633M230.296 100.261H232.004M216.633 100.261H232.004M232.004 100.261H236.652H237.593C240.427 100.261 242.723 102.558 242.723 105.391V108.513C242.723 111.347 240.427 113.643 237.593 113.643H236.628H227.734M271.285 41.208H272.875C275.709 41.208 278.005 43.5048 278.005 46.338V108.513C278.005 111.347 280.302 113.643 283.135 113.643H288.861C291.694 113.643 293.991 111.347 293.991 108.513V46.338C293.991 43.5048 296.288 41.208 299.121 41.208H317.39C320.223 41.208 322.52 38.9112 322.52 36.078V32.8331C322.52 29.9999 320.223 27.7031 317.39 27.7031H254.607C251.774 27.7031 249.477 29.9999 249.477 32.8331V36.078C249.477 38.9112 251.774 41.208 254.607 41.208H259.33M334.516 41.0852V38.7867V32.8331C334.516 29.9999 336.813 27.7031 339.646 27.7031H392.223C395.056 27.7031 397.353 29.9999 397.353 32.8331V35.9553C397.353 38.7885 395.056 41.0852 392.223 41.0852H355.632C352.799 41.0852 350.502 43.382 350.502 46.2152V58.2997C350.502 61.1329 352.799 63.4297 355.632 63.4297H386.935C389.768 63.4297 392.065 65.7265 392.065 68.5597V71.4363C392.065 74.2695 389.768 76.5663 386.935 76.5663H355.632C352.799 76.5663 350.502 78.863 350.502 81.6962V95.1312C350.502 97.9644 352.799 100.261 355.632 100.261H366.072H371.196M334.516 56.6909V108.513C334.516 111.347 336.813 113.643 339.646 113.643H393.944C396.778 113.643 399.074 111.347 399.074 108.513V105.391C399.074 102.558 396.778 100.261 393.944 100.261H387.421M432.881 50.7228V47.3125V46.338C432.881 43.5048 435.177 41.208 438.011 41.208H451.572C458.54 41.208 463.827 42.6813 467.434 45.6278C471.041 48.5743 472.845 52.7895 472.845 58.2733C472.845 63.7571 471.041 68.0132 467.434 71.0415C463.827 73.9881 458.54 75.4613 451.572 75.4613H438.011C435.177 75.4613 432.881 73.1645 432.881 70.3313V66.1307M476.203 93.3519L475.376 92.1733L474.389 90.7643C472.477 88.0383 473.666 84.2668 476.467 82.4674C479.601 80.4541 482.165 77.9551 484.158 74.9702C487.355 70.3049 488.954 64.7392 488.954 58.2733C488.954 51.971 487.478 46.5281 484.527 41.9446C481.576 37.3612 477.313 33.8417 471.738 31.3863C466.246 28.9308 459.77 27.7031 452.309 27.7031H422.025C419.192 27.7031 416.895 29.9999 416.895 32.8331V108.513C416.895 111.347 419.192 113.643 422.025 113.643H427.751C430.584 113.643 432.881 111.347 432.881 108.513V93.7278C432.881 90.8946 435.177 88.5979 438.011 88.5979H452.309C452.404 88.5979 452.497 88.5977 452.588 88.5974C454.465 88.5905 456.299 89.4326 457.374 90.9715L471.682 111.451C472.642 112.825 474.212 113.643 475.888 113.643H480.567C484.719 113.643 487.151 108.968 484.768 105.568L481.583 101.025M74.9336 27.7031C84.1152 27.7031 92.272 29.5038 99.4041 33.1051C106.536 36.6245 112.07 41.6582 116.005 48.206C119.94 54.672 121.907 62.161 121.907 70.6732C121.907 79.1854 119.94 86.7154 116.005 93.2632C112.07 99.7292 106.536 104.763 99.4041 108.364C92.272 111.884 84.1152 113.643 74.9336 113.643H42.4356C39.6024 113.643 37.3057 111.347 37.3057 108.513V32.8331C37.3057 29.9999 39.6024 27.7031 42.4356 27.7031L56.1197 27.7031L65.5266 27.7031L74.9336 27.7031ZM936.716 75.3385C943.684 75.3385 948.972 73.8653 952.579 70.9188C956.186 67.9722 957.989 63.7571 957.989 58.2733C957.989 52.7895 956.186 48.5743 952.579 45.6278C948.972 42.6813 943.684 41.208 936.716 41.208H923.155C920.322 41.208 918.025 43.5048 918.025 46.338V70.2086C918.025 73.0418 920.322 75.3385 923.155 75.3385H936.716Z" stroke="#6DFC3C" stroke-width="5.12997" stroke-linecap="round" stroke-linejoin="round"/>
</g>
</g>
<g filter="url(#filter5_d)">
<path d="M53.2914 100.138V46.338C53.2914 43.5048 55.5882 41.208 58.4214 41.208H74.1958C80.5082 41.208 86.0417 42.4357 90.7964 44.8912C95.6331 47.2647 99.3221 50.7024 101.863 55.204C104.487 59.6238 105.798 64.7802 105.798 70.6732C105.798 76.5662 104.487 81.7636 101.863 86.2652C99.3221 90.685 95.6331 94.1226 90.7964 96.578C86.0417 98.9516 80.5082 100.138 74.1958 100.138H66.852M775.889 75.5841C775.889 92.4447 768.634 100.875 754.124 100.875C739.532 100.875 732.236 92.4447 732.236 75.5841V32.8331C732.236 29.9999 729.939 27.7031 727.106 27.7031H721.38C718.547 27.7031 716.25 29.9999 716.25 32.8331V76.1979C716.25 88.6388 719.57 98.215 726.21 104.927C732.851 111.556 742.114 114.871 754.001 114.871C765.888 114.871 775.11 111.556 781.669 104.927C788.309 98.215 791.629 88.6388 791.629 76.1979V32.8331C791.629 29.9999 789.332 27.7031 786.499 27.7031H781.019C778.186 27.7031 775.889 29.9999 775.889 32.8331V45.6278V51.6436M969.671 41.9446C971.066 44.1104 972.131 46.4681 972.866 49.0177M969.671 41.9446L972.866 49.0177M969.671 41.9446C968.953 40.8289 968.157 39.7763 967.283 38.7867C964.567 35.7108 961.1 33.244 956.882 31.3863C951.39 28.9308 944.914 27.7031 937.454 27.7031H907.169C904.336 27.7031 902.039 29.9999 902.039 32.8331V108.513C902.039 111.347 904.336 113.643 907.169 113.643H912.895C915.728 113.643 918.025 111.347 918.025 108.513V103.583M580.426 47.3125L565.629 62.6405C562.425 65.9602 556.809 63.6917 556.809 59.0776V32.8331C556.809 29.9999 554.512 27.7031 551.679 27.7031H545.953C543.12 27.7031 540.823 29.9999 540.823 32.8331V108.513C540.823 111.347 543.12 113.643 545.953 113.643H551.679C554.512 113.643 556.809 111.347 556.809 108.513V103.792V101.476M587.01 40.4918L589.479 37.9341L597.842 29.2702C598.809 28.2688 600.141 27.7031 601.533 27.7031H605.439C609.934 27.7031 612.255 33.0742 609.175 36.3482L584.221 62.8728C582.465 64.7397 582.356 67.6165 583.966 69.6108L612.777 105.29C615.486 108.646 613.098 113.643 608.786 113.643H603.213C601.703 113.643 600.268 112.977 599.294 111.823L574.104 81.9896C572.15 79.6752 568.627 79.5489 566.512 81.7175L558.266 90.1728C557.332 91.1309 556.809 92.4162 556.809 93.7545V94.6533M637.462 98.4673L638.143 96.8714C638.949 94.9809 640.806 93.7543 642.861 93.7543H679.141C681.187 93.7543 683.037 94.9695 683.849 96.8467L689.78 110.551C690.593 112.428 692.443 113.643 694.488 113.643H699.893C703.619 113.643 706.102 109.795 704.567 106.4L670.348 30.7196C669.518 28.8832 667.689 27.7031 665.674 27.7031H656.559C654.542 27.7031 652.712 28.8858 651.883 30.7251L617.772 106.405C616.242 109.8 618.725 113.643 622.449 113.643H627.599C629.654 113.643 631.511 112.417 632.317 110.526L633.825 106.993M669.107 62.4475L670.699 66.1307L674.128 74.0669C675.591 77.4537 673.108 81.2316 669.419 81.2316H652.664C648.981 81.2316 646.498 77.4652 647.949 74.08L657.229 52.4384C658.65 49.1234 663.348 49.1169 664.778 52.428V52.428M775.889 70.9188V74.6019V66.1307M814.017 45.6278V37.9341V32.8331C814.017 29.9999 816.313 27.7031 819.147 27.7031H849.431C856.891 27.7031 863.367 28.9308 868.86 31.3863C874.435 33.8417 878.697 37.3612 881.649 41.9446C884.6 46.5281 886.075 51.971 886.075 58.2733C886.075 64.4937 884.6 69.9366 881.649 74.6019C878.697 79.1854 874.435 82.7048 868.86 85.1603C863.367 87.6157 856.891 88.8434 849.431 88.8434H835.132C832.299 88.8434 830.002 91.1402 830.002 93.9734V108.513C830.002 111.347 827.706 113.643 824.872 113.643H819.147C816.313 113.643 814.017 111.347 814.017 108.513V70.9188M814.017 52.428V47.3125M859.649 73.6646C861.533 72.9672 863.169 72.0519 864.556 70.9188C868.163 67.9722 869.967 63.7571 869.967 58.2733C869.967 52.7895 868.163 48.5743 864.556 45.6278C860.949 42.6813 855.662 41.208 848.693 41.208H835.132C832.299 41.208 830.002 43.5048 830.002 46.338V70.2086C830.002 73.0418 832.299 75.3385 835.132 75.3385H842.57H849.431M972.866 49.0177C973.687 51.8637 974.098 54.949 974.098 58.2733C974.098 64.4937 972.622 69.9366 969.671 74.6019C966.72 79.1854 962.457 82.7048 956.882 85.1603C951.39 87.6157 944.914 88.8434 937.454 88.8434H921.985C919.798 88.8434 918.025 90.6163 918.025 92.8034V92.8034V95.057M154.883 60.1012V32.8331C154.883 29.9999 152.587 27.7031 149.753 27.7031H144.028C141.194 27.7031 138.898 29.9999 138.898 32.8331V108.513C138.898 111.347 141.194 113.643 144.028 113.643H149.753C152.587 113.643 154.883 111.347 154.883 108.513V79.7106V69.4796M206.386 63.4297H202.116H199.281C196.448 63.4297 194.151 61.1329 194.151 58.2997V46.2152C194.151 43.382 196.448 41.0852 199.281 41.0852H235.872C238.705 41.0852 241.002 38.7885 241.002 35.9553V32.8331C241.002 29.9999 238.705 27.7031 235.872 27.7031H183.296C180.462 27.7031 178.166 29.9999 178.166 32.8331V108.513C178.166 111.347 180.462 113.643 183.296 113.643H214.071H218.341M224.318 63.4297H225.172M218.341 63.4297H225.172M225.172 63.4297H230.584C233.417 63.4297 235.714 65.7265 235.714 68.5597V71.4363C235.714 74.2695 233.417 76.5663 230.584 76.5663H199.281C196.448 76.5663 194.151 78.863 194.151 81.6962V95.1312C194.151 97.9644 196.448 100.261 199.281 100.261H212.363H216.633M218.437 100.261H216.633M230.296 100.261H232.004M216.633 100.261H232.004M232.004 100.261H236.652H237.593C240.427 100.261 242.723 102.558 242.723 105.391V108.513C242.723 111.347 240.427 113.643 237.593 113.643H236.628H227.734M271.285 41.208H272.875C275.709 41.208 278.005 43.5048 278.005 46.338V108.513C278.005 111.347 280.302 113.643 283.135 113.643H288.861C291.694 113.643 293.991 111.347 293.991 108.513V46.338C293.991 43.5048 296.288 41.208 299.121 41.208H317.39C320.223 41.208 322.52 38.9112 322.52 36.078V32.8331C322.52 29.9999 320.223 27.7031 317.39 27.7031H254.607C251.774 27.7031 249.477 29.9999 249.477 32.8331V36.078C249.477 38.9112 251.774 41.208 254.607 41.208H259.33M334.516 41.0852V38.7867V32.8331C334.516 29.9999 336.813 27.7031 339.646 27.7031H392.223C395.056 27.7031 397.353 29.9999 397.353 32.8331V35.9553C397.353 38.7885 395.056 41.0852 392.223 41.0852H355.632C352.799 41.0852 350.502 43.382 350.502 46.2152V58.2997C350.502 61.1329 352.799 63.4297 355.632 63.4297H386.935C389.768 63.4297 392.065 65.7265 392.065 68.5597V71.4363C392.065 74.2695 389.768 76.5663 386.935 76.5663H355.632C352.799 76.5663 350.502 78.863 350.502 81.6962V95.1312C350.502 97.9644 352.799 100.261 355.632 100.261H366.072H371.196M334.516 56.6909V108.513C334.516 111.347 336.813 113.643 339.646 113.643H393.944C396.778 113.643 399.074 111.347 399.074 108.513V105.391C399.074 102.558 396.778 100.261 393.944 100.261H387.421M432.881 50.7228V47.3125V46.338C432.881 43.5048 435.177 41.208 438.011 41.208H451.572C458.54 41.208 463.827 42.6813 467.434 45.6278C471.041 48.5743 472.845 52.7895 472.845 58.2733C472.845 63.7571 471.041 68.0132 467.434 71.0415C463.827 73.9881 458.54 75.4613 451.572 75.4613H438.011C435.177 75.4613 432.881 73.1645 432.881 70.3313V66.1307M476.203 93.3519L475.376 92.1733L474.389 90.7643C472.477 88.0383 473.666 84.2668 476.467 82.4674C479.601 80.4541 482.165 77.9551 484.158 74.9702C487.355 70.3049 488.954 64.7392 488.954 58.2733C488.954 51.971 487.478 46.5281 484.527 41.9446C481.576 37.3612 477.313 33.8417 471.738 31.3863C466.246 28.9308 459.77 27.7031 452.309 27.7031H422.025C419.192 27.7031 416.895 29.9999 416.895 32.8331V108.513C416.895 111.347 419.192 113.643 422.025 113.643H427.751C430.584 113.643 432.881 111.347 432.881 108.513V93.7278C432.881 90.8946 435.177 88.5979 438.011 88.5979H452.309C452.404 88.5979 452.497 88.5977 452.588 88.5974C454.465 88.5905 456.299 89.4326 457.374 90.9715L471.682 111.451C472.642 112.825 474.212 113.643 475.888 113.643H480.567C484.719 113.643 487.151 108.968 484.768 105.568L481.583 101.025M74.9336 27.7031C84.1152 27.7031 92.272 29.5038 99.4041 33.1051C106.536 36.6245 112.07 41.6582 116.005 48.206C119.94 54.672 121.907 62.161 121.907 70.6732C121.907 79.1854 119.94 86.7154 116.005 93.2632C112.07 99.7292 106.536 104.763 99.4041 108.364C92.272 111.884 84.1152 113.643 74.9336 113.643H42.4356C39.6024 113.643 37.3057 111.347 37.3057 108.513V32.8331C37.3057 29.9999 39.6024 27.7031 42.4356 27.7031L56.1197 27.7031L65.5266 27.7031L74.9336 27.7031ZM936.716 75.3385C943.684 75.3385 948.972 73.8653 952.579 70.9188C956.186 67.9722 957.989 63.7571 957.989 58.2733C957.989 52.7895 956.186 48.5743 952.579 45.6278C948.972 42.6813 943.684 41.208 936.716 41.208H923.155C920.322 41.208 918.025 43.5048 918.025 46.338V70.2086C918.025 73.0418 920.322 75.3385 923.155 75.3385H936.716Z" stroke="#6DFC3C" stroke-width="5.12997" stroke-linecap="round" stroke-linejoin="round"/>
</g>
<path d="M53.2914 100.138V46.338C53.2914 43.5048 55.5882 41.208 58.4214 41.208H74.1958C80.5082 41.208 86.0417 42.4357 90.7964 44.8912C95.6331 47.2647 99.3221 50.7024 101.863 55.204C104.487 59.6238 105.798 64.7802 105.798 70.6732C105.798 76.5662 104.487 81.7636 101.863 86.2652C99.3221 90.685 95.6331 94.1226 90.7964 96.578C86.0417 98.9516 80.5082 100.138 74.1958 100.138H66.852M775.889 75.5841C775.889 92.4447 768.634 100.875 754.124 100.875C739.532 100.875 732.236 92.4447 732.236 75.5841V32.8331C732.236 29.9999 729.939 27.7031 727.106 27.7031H721.38C718.547 27.7031 716.25 29.9999 716.25 32.8331V76.1979C716.25 88.6388 719.57 98.215 726.21 104.927C732.851 111.556 742.114 114.871 754.001 114.871C765.888 114.871 775.11 111.556 781.669 104.927C788.309 98.215 791.629 88.6388 791.629 76.1979V32.8331C791.629 29.9999 789.332 27.7031 786.499 27.7031H781.019C778.186 27.7031 775.889 29.9999 775.889 32.8331V45.6278V51.6436M969.671 41.9446C971.066 44.1104 972.131 46.4681 972.866 49.0177M969.671 41.9446L972.866 49.0177M969.671 41.9446C968.953 40.8289 968.157 39.7763 967.283 38.7867C964.567 35.7108 961.1 33.244 956.882 31.3863C951.39 28.9308 944.914 27.7031 937.454 27.7031H907.169C904.336 27.7031 902.039 29.9999 902.039 32.8331V108.513C902.039 111.347 904.336 113.643 907.169 113.643H912.895C915.728 113.643 918.025 111.347 918.025 108.513V103.583M580.426 47.3125L565.629 62.6405C562.425 65.9602 556.809 63.6917 556.809 59.0776V32.8331C556.809 29.9999 554.512 27.7031 551.679 27.7031H545.953C543.12 27.7031 540.823 29.9999 540.823 32.8331V108.513C540.823 111.347 543.12 113.643 545.953 113.643H551.679C554.512 113.643 556.809 111.347 556.809 108.513V103.792V101.476M587.01 40.4918L589.479 37.9341L597.842 29.2702C598.809 28.2688 600.141 27.7031 601.533 27.7031H605.439C609.934 27.7031 612.255 33.0742 609.175 36.3482L584.221 62.8728C582.465 64.7397 582.356 67.6165 583.966 69.6108L612.777 105.29C615.486 108.646 613.098 113.643 608.786 113.643H603.213C601.703 113.643 600.268 112.977 599.294 111.823L574.104 81.9896C572.15 79.6752 568.627 79.5489 566.512 81.7175L558.266 90.1728C557.332 91.1309 556.809 92.4162 556.809 93.7545V94.6533M637.462 98.4673L638.143 96.8714C638.949 94.9809 640.806 93.7543 642.861 93.7543H679.141C681.187 93.7543 683.037 94.9695 683.849 96.8467L689.78 110.551C690.593 112.428 692.443 113.643 694.488 113.643H699.893C703.619 113.643 706.102 109.795 704.567 106.4L670.348 30.7196C669.518 28.8832 667.689 27.7031 665.674 27.7031H656.559C654.542 27.7031 652.712 28.8858 651.883 30.7251L617.772 106.405C616.242 109.8 618.725 113.643 622.449 113.643H627.599C629.654 113.643 631.511 112.417 632.317 110.526L633.825 106.993M669.107 62.4475L670.699 66.1307L674.128 74.0669C675.591 77.4537 673.108 81.2316 669.419 81.2316H652.664C648.981 81.2316 646.498 77.4652 647.949 74.08L657.229 52.4384C658.65 49.1234 663.348 49.1169 664.778 52.428V52.428M775.889 70.9188V74.6019V66.1307M814.017 45.6278V37.9341V32.8331C814.017 29.9999 816.313 27.7031 819.147 27.7031H849.431C856.891 27.7031 863.367 28.9308 868.86 31.3863C874.435 33.8417 878.697 37.3612 881.649 41.9446C884.6 46.5281 886.075 51.971 886.075 58.2733C886.075 64.4937 884.6 69.9366 881.649 74.6019C878.697 79.1854 874.435 82.7048 868.86 85.1603C863.367 87.6157 856.891 88.8434 849.431 88.8434H835.132C832.299 88.8434 830.002 91.1402 830.002 93.9734V108.513C830.002 111.347 827.706 113.643 824.872 113.643H819.147C816.313 113.643 814.017 111.347 814.017 108.513V70.9188M814.017 52.428V47.3125M859.649 73.6646C861.533 72.9672 863.169 72.0519 864.556 70.9188C868.163 67.9722 869.967 63.7571 869.967 58.2733C869.967 52.7895 868.163 48.5743 864.556 45.6278C860.949 42.6813 855.662 41.208 848.693 41.208H835.132C832.299 41.208 830.002 43.5048 830.002 46.338V70.2086C830.002 73.0418 832.299 75.3385 835.132 75.3385H842.57H849.431M972.866 49.0177C973.687 51.8637 974.098 54.949 974.098 58.2733C974.098 64.4937 972.622 69.9366 969.671 74.6019C966.72 79.1854 962.457 82.7048 956.882 85.1603C951.39 87.6157 944.914 88.8434 937.454 88.8434H921.985C919.798 88.8434 918.025 90.6163 918.025 92.8034V92.8034V95.057M154.883 60.1012V32.8331C154.883 29.9999 152.587 27.7031 149.753 27.7031H144.028C141.194 27.7031 138.898 29.9999 138.898 32.8331V108.513C138.898 111.347 141.194 113.643 144.028 113.643H149.753C152.587 113.643 154.883 111.347 154.883 108.513V79.7106V69.4796M206.386 63.4297H202.116H199.281C196.448 63.4297 194.151 61.1329 194.151 58.2997V46.2152C194.151 43.382 196.448 41.0852 199.281 41.0852H235.872C238.705 41.0852 241.002 38.7885 241.002 35.9553V32.8331C241.002 29.9999 238.705 27.7031 235.872 27.7031H183.296C180.462 27.7031 178.166 29.9999 178.166 32.8331V108.513C178.166 111.347 180.462 113.643 183.296 113.643H214.071H218.341M224.318 63.4297H225.172M218.341 63.4297H225.172M225.172 63.4297H230.584C233.417 63.4297 235.714 65.7265 235.714 68.5597V71.4363C235.714 74.2695 233.417 76.5663 230.584 76.5663H199.281C196.448 76.5663 194.151 78.863 194.151 81.6962V95.1312C194.151 97.9644 196.448 100.261 199.281 100.261H212.363H216.633M218.437 100.261H216.633M230.296 100.261H232.004M216.633 100.261H232.004M232.004 100.261H236.652H237.593C240.427 100.261 242.723 102.558 242.723 105.391V108.513C242.723 111.347 240.427 113.643 237.593 113.643H236.628H227.734M271.285 41.208H272.875C275.709 41.208 278.005 43.5048 278.005 46.338V108.513C278.005 111.347 280.302 113.643 283.135 113.643H288.861C291.694 113.643 293.991 111.347 293.991 108.513V46.338C293.991 43.5048 296.288 41.208 299.121 41.208H317.39C320.223 41.208 322.52 38.9112 322.52 36.078V32.8331C322.52 29.9999 320.223 27.7031 317.39 27.7031H254.607C251.774 27.7031 249.477 29.9999 249.477 32.8331V36.078C249.477 38.9112 251.774 41.208 254.607 41.208H259.33M334.516 41.0852V38.7867V32.8331C334.516 29.9999 336.813 27.7031 339.646 27.7031H392.223C395.056 27.7031 397.353 29.9999 397.353 32.8331V35.9553C397.353 38.7885 395.056 41.0852 392.223 41.0852H355.632C352.799 41.0852 350.502 43.382 350.502 46.2152V58.2997C350.502 61.1329 352.799 63.4297 355.632 63.4297H386.935C389.768 63.4297 392.065 65.7265 392.065 68.5597V71.4363C392.065 74.2695 389.768 76.5663 386.935 76.5663H355.632C352.799 76.5663 350.502 78.863 350.502 81.6962V95.1312C350.502 97.9644 352.799 100.261 355.632 100.261H366.072H371.196M334.516 56.6909V108.513C334.516 111.347 336.813 113.643 339.646 113.643H393.944C396.778 113.643 399.074 111.347 399.074 108.513V105.391C399.074 102.558 396.778 100.261 393.944 100.261H387.421M432.881 50.7228V47.3125V46.338C432.881 43.5048 435.177 41.208 438.011 41.208H451.572C458.54 41.208 463.827 42.6813 467.434 45.6278C471.041 48.5743 472.845 52.7895 472.845 58.2733C472.845 63.7571 471.041 68.0132 467.434 71.0415C463.827 73.9881 458.54 75.4613 451.572 75.4613H438.011C435.177 75.4613 432.881 73.1645 432.881 70.3313V66.1307M476.203 93.3519L475.376 92.1733L474.389 90.7643C472.477 88.0383 473.666 84.2668 476.467 82.4674C479.601 80.4541 482.165 77.9551 484.158 74.9702C487.355 70.3049 488.954 64.7392 488.954 58.2733C488.954 51.971 487.478 46.5281 484.527 41.9446C481.576 37.3612 477.313 33.8417 471.738 31.3863C466.246 28.9308 459.77 27.7031 452.309 27.7031H422.025C419.192 27.7031 416.895 29.9999 416.895 32.8331V108.513C416.895 111.347 419.192 113.643 422.025 113.643H427.751C430.584 113.643 432.881 111.347 432.881 108.513V93.7278C432.881 90.8946 435.177 88.5979 438.011 88.5979H452.309C452.404 88.5979 452.497 88.5977 452.588 88.5974C454.465 88.5905 456.299 89.4326 457.374 90.9715L471.682 111.451C472.642 112.825 474.212 113.643 475.888 113.643H480.567C484.719 113.643 487.151 108.968 484.768 105.568L481.583 101.025M74.9336 27.7031C84.1152 27.7031 92.272 29.5038 99.4041 33.1051C106.536 36.6245 112.07 41.6582 116.005 48.206C119.94 54.672 121.907 62.161 121.907 70.6732C121.907 79.1854 119.94 86.7154 116.005 93.2632C112.07 99.7292 106.536 104.763 99.4041 108.364C92.272 111.884 84.1152 113.643 74.9336 113.643H42.4356C39.6024 113.643 37.3057 111.347 37.3057 108.513V32.8331C37.3057 29.9999 39.6024 27.7031 42.4356 27.7031L56.1197 27.7031L65.5266 27.7031L74.9336 27.7031ZM936.716 75.3385C943.684 75.3385 948.972 73.8653 952.579 70.9188C956.186 67.9722 957.989 63.7571 957.989 58.2733C957.989 52.7895 956.186 48.5743 952.579 45.6278C948.972 42.6813 943.684 41.208 936.716 41.208H923.155C920.322 41.208 918.025 43.5048 918.025 46.338V70.2086C918.025 73.0418 920.322 75.3385 923.155 75.3385H936.716Z" stroke="#6DFC3C" stroke-width="5.12997" stroke-linecap="round" stroke-linejoin="round"/>
<path d="M53.2914 99.0876V45.2872C53.2914 42.454 55.5882 40.1572 58.4214 40.1572H74.1958C80.5082 40.1572 86.0417 41.3849 90.7964 43.8404C95.6331 46.214 99.3221 49.6516 101.863 54.1532C104.487 58.573 105.798 63.7294 105.798 69.6224C105.798 75.5155 104.487 80.7128 101.863 85.2144C99.3221 89.6342 95.6331 93.0718 90.7964 95.5273C86.0417 97.9008 80.5082 99.0876 74.1958 99.0876H66.852M775.889 74.5333C775.889 91.3939 768.634 99.8243 754.124 99.8243C739.532 99.8243 732.236 91.3939 732.236 74.5333V31.7823C732.236 28.9491 729.939 26.6523 727.106 26.6523H721.38C718.547 26.6523 716.25 28.9491 716.25 31.7823V75.1472C716.25 87.588 719.57 97.1642 726.21 103.876C732.851 110.505 742.114 113.82 754.001 113.82C765.888 113.82 775.11 110.505 781.669 103.876C788.309 97.1642 791.629 87.588 791.629 75.1472V31.7823C791.629 28.9491 789.332 26.6523 786.499 26.6523H781.019C778.186 26.6523 775.889 28.9491 775.889 31.7823V44.577V50.5928M969.671 40.8939C971.066 43.0596 972.131 45.4173 972.866 47.9669M969.671 40.8939L972.866 47.9669M969.671 40.8939C968.953 39.7782 968.157 38.7255 967.283 37.7359C964.567 34.66 961.1 32.1932 956.882 30.3355C951.39 27.8801 944.914 26.6523 937.454 26.6523H907.169C904.336 26.6523 902.039 28.9491 902.039 31.7823V107.463C902.039 110.296 904.336 112.593 907.169 112.593H912.895C915.728 112.593 918.025 110.296 918.025 107.463V102.532M580.426 46.2617L565.629 61.5897C562.425 64.9094 556.809 62.6409 556.809 58.0268V31.7823C556.809 28.9491 554.512 26.6523 551.679 26.6523H545.953C543.12 26.6523 540.823 28.9491 540.823 31.7823V107.463C540.823 110.296 543.12 112.593 545.953 112.593H551.679C554.512 112.593 556.809 110.296 556.809 107.463V102.741V100.426M587.01 39.4411L589.479 36.8833L597.842 28.2194C598.809 27.218 600.141 26.6523 601.533 26.6523H605.439C609.934 26.6523 612.255 32.0234 609.175 35.2975L584.221 61.822C582.465 63.6889 582.356 66.5657 583.966 68.56L612.777 104.24C615.486 107.595 613.098 112.593 608.786 112.593H603.213C601.703 112.593 600.268 111.926 599.294 110.772L574.104 80.9388C572.15 78.6245 568.627 78.4982 566.512 80.6667L558.266 89.122C557.332 90.0801 556.809 91.3654 556.809 92.7037V93.6025M637.462 97.4166L638.143 95.8206C638.949 93.9301 640.806 92.7035 642.861 92.7035H679.141C681.187 92.7035 683.037 93.9187 683.849 95.7959L689.78 109.5C690.593 111.377 692.443 112.593 694.488 112.593H699.893C703.619 112.593 706.102 108.745 704.567 105.349L670.348 29.6688C669.518 27.8324 667.689 26.6523 665.674 26.6523H656.559C654.542 26.6523 652.712 27.835 651.883 29.6744L617.772 105.355C616.242 108.75 618.725 112.593 622.449 112.593H627.599C629.654 112.593 631.511 111.366 632.317 109.475L633.825 105.942M669.107 61.3967L670.699 65.0799L674.128 73.0162C675.591 76.4029 673.108 80.1808 669.419 80.1808H652.664C648.981 80.1808 646.498 76.4144 647.949 73.0292L657.229 51.3876C658.65 48.0726 663.348 48.0661 664.778 51.3772V51.3772M775.889 69.868V73.5511V65.0799M814.017 44.577V36.8833V31.7823C814.017 28.9491 816.313 26.6523 819.147 26.6523H849.431C856.891 26.6523 863.367 27.8801 868.86 30.3355C874.435 32.7909 878.697 36.3104 881.649 40.8939C884.6 45.4773 886.075 50.9202 886.075 57.2225C886.075 63.4429 884.6 68.8858 881.649 73.5511C878.697 78.1346 874.435 81.6541 868.86 84.1095C863.367 86.5649 856.891 87.7926 849.431 87.7926H835.132C832.299 87.7926 830.002 90.0894 830.002 92.9226V107.463C830.002 110.296 827.706 112.593 824.872 112.593H819.147C816.313 112.593 814.017 110.296 814.017 107.463V69.868M814.017 51.3772V46.2617M859.649 72.6138C861.533 71.9164 863.169 71.0011 864.556 69.868C868.163 66.9215 869.967 62.7063 869.967 57.2225C869.967 51.7387 868.163 47.5235 864.556 44.577C860.949 41.6305 855.662 40.1572 848.693 40.1572H835.132C832.299 40.1572 830.002 42.454 830.002 45.2872V69.1578C830.002 71.991 832.299 74.2878 835.132 74.2878H842.57H849.431M972.866 47.9669C973.687 50.813 974.098 53.8982 974.098 57.2225C974.098 63.4429 972.622 68.8858 969.671 73.5511C966.72 78.1346 962.457 81.6541 956.882 84.1095C951.39 86.5649 944.914 87.7926 937.454 87.7926H921.985C919.798 87.7926 918.025 89.5656 918.025 91.7526V91.7526V94.0062M154.883 59.0504V31.7823C154.883 28.9491 152.587 26.6523 149.753 26.6523H144.028C141.194 26.6523 138.898 28.9491 138.898 31.7823V107.463C138.898 110.296 141.194 112.593 144.028 112.593H149.753C152.587 112.593 154.883 110.296 154.883 107.463V78.6598V68.4288M206.386 62.3789H202.116H199.281C196.448 62.3789 194.151 60.0821 194.151 57.2489V45.1644C194.151 42.3312 196.448 40.0345 199.281 40.0345H235.872C238.705 40.0345 241.002 37.7377 241.002 34.9045V31.7823C241.002 28.9491 238.705 26.6523 235.872 26.6523H183.296C180.462 26.6523 178.166 28.9491 178.166 31.7823V107.463C178.166 110.296 180.462 112.593 183.296 112.593H214.071H218.341M224.318 62.3789H225.172M218.341 62.3789H225.172M225.172 62.3789H230.584C233.417 62.3789 235.714 64.6757 235.714 67.5089V70.3855C235.714 73.2187 233.417 75.5155 230.584 75.5155H199.281C196.448 75.5155 194.151 77.8122 194.151 80.6454V94.0804C194.151 96.9136 196.448 99.2104 199.281 99.2104H212.363H216.633M218.437 99.2104H216.633M230.296 99.2104H232.004M216.633 99.2104H232.004M232.004 99.2104H236.652H237.593C240.427 99.2104 242.723 101.507 242.723 104.34V107.463C242.723 110.296 240.427 112.593 237.593 112.593H236.628H227.734M271.285 40.1572H272.875C275.709 40.1572 278.005 42.454 278.005 45.2872V107.463C278.005 110.296 280.302 112.593 283.135 112.593H288.861C291.694 112.593 293.991 110.296 293.991 107.463V45.2872C293.991 42.454 296.288 40.1572 299.121 40.1572H317.39C320.223 40.1572 322.52 37.8605 322.52 35.0273V31.7823C322.52 28.9491 320.223 26.6523 317.39 26.6523H254.607C251.774 26.6523 249.477 28.9491 249.477 31.7823V35.0273C249.477 37.8605 251.774 40.1572 254.607 40.1572H259.33M334.516 40.0345V37.7359V31.7823C334.516 28.9491 336.813 26.6523 339.646 26.6523H392.223C395.056 26.6523 397.353 28.9491 397.353 31.7823V34.9045C397.353 37.7377 395.056 40.0345 392.223 40.0345H355.632C352.799 40.0345 350.502 42.3312 350.502 45.1644V57.2489C350.502 60.0821 352.799 62.3789 355.632 62.3789H386.935C389.768 62.3789 392.065 64.6757 392.065 67.5089V70.3855C392.065 73.2187 389.768 75.5155 386.935 75.5155H355.632C352.799 75.5155 350.502 77.8122 350.502 80.6454V94.0804C350.502 96.9136 352.799 99.2104 355.632 99.2104H366.072H371.196M334.516 55.6401V107.463C334.516 110.296 336.813 112.593 339.646 112.593H393.944C396.778 112.593 399.074 110.296 399.074 107.463V104.34C399.074 101.507 396.778 99.2104 393.944 99.2104H387.421M432.881 49.672V46.2617V45.2872C432.881 42.454 435.177 40.1572 438.011 40.1572H451.572C458.54 40.1572 463.827 41.6305 467.434 44.577C471.041 47.5235 472.845 51.7387 472.845 57.2225C472.845 62.7063 471.041 66.9624 467.434 69.9908C463.827 72.9373 458.54 74.4105 451.572 74.4105H438.011C435.177 74.4105 432.881 72.1138 432.881 69.2806V65.0799M476.203 92.3011L475.376 91.1225L474.389 89.7135C472.477 86.9875 473.666 83.216 476.467 81.4166C479.601 79.4034 482.165 76.9043 484.158 73.9194C487.355 69.2541 488.954 63.6885 488.954 57.2225C488.954 50.9202 487.478 45.4773 484.527 40.8939C481.576 36.3104 477.313 32.7909 471.738 30.3355C466.246 27.8801 459.77 26.6523 452.309 26.6523H422.025C419.192 26.6523 416.895 28.9491 416.895 31.7823V107.463C416.895 110.296 419.192 112.593 422.025 112.593H427.751C430.584 112.593 432.881 110.296 432.881 107.463V92.6771C432.881 89.8439 435.177 87.5471 438.011 87.5471H452.309C452.404 87.5471 452.497 87.5469 452.588 87.5466C454.465 87.5397 456.299 88.3818 457.374 89.9207L471.682 110.401C472.642 111.774 474.212 112.593 475.888 112.593H480.567C484.719 112.593 487.151 107.917 484.768 104.518L481.583 99.9743M74.9336 26.6523C84.1152 26.6523 92.272 28.453 99.4041 32.0543C106.536 35.5738 112.07 40.6074 116.005 47.1552C119.94 53.6212 121.907 61.1103 121.907 69.6224C121.907 78.1346 119.94 85.6646 116.005 92.2124C112.07 98.6784 106.536 103.712 99.4041 107.313C92.272 110.833 84.1152 112.593 74.9336 112.593H42.4356C39.6024 112.593 37.3057 110.296 37.3057 107.463V31.7823C37.3057 28.9491 39.6024 26.6523 42.4356 26.6523L56.1197 26.6523L65.5266 26.6523L74.9336 26.6523ZM936.716 74.2878C943.684 74.2878 948.972 72.8145 952.579 69.868C956.186 66.9215 957.989 62.7063 957.989 57.2225C957.989 51.7387 956.186 47.5235 952.579 44.577C948.972 41.6305 943.684 40.1572 936.716 40.1572H923.155C920.322 40.1572 918.025 42.454 918.025 45.2872V69.1578C918.025 71.991 920.322 74.2878 923.155 74.2878H936.716Z" stroke="#B6FE9E" stroke-width="2.56499" stroke-linecap="round" stroke-linejoin="round"/>
<g filter="url(#filter6_f)">
<rect x="90.9121" y="136.65" width="833" height="57" rx="28.5" fill="#EAEAEA" fill-opacity="0.3"/>
</g>
<g filter="url(#filter7_f)">
<path d="M135.208 164.479H115.912M115.912 164.479V182.283V147.123M115.912 164.479V147.123M115.912 147.123H137.694M172.898 147.123V171.126C172.881 173.493 172.358 175.553 171.328 177.308C170.298 179.063 168.841 180.415 166.957 181.365C165.09 182.299 162.94 182.766 160.509 182.766C156.807 182.766 153.836 181.76 151.599 179.747C149.377 177.719 148.226 174.917 148.145 171.343V147.123M206.483 182.283H186.126V147.123M237.509 182.283H217.152V147.123M287.825 157.144C287.825 155.164 287.318 153.369 286.303 151.759C285.289 150.149 283.856 148.894 282.005 147.992C280.17 147.09 278.085 146.64 275.751 146.64C272.305 146.64 269.472 147.485 267.25 149.175C265.045 150.85 263.942 153.031 263.942 155.719C263.942 158.488 265.133 160.726 267.516 162.433C269.19 163.64 271.706 163.489 275.168 163.984C278.63 164.479 281.623 164.98 283.576 165.468C285.554 165.962 286.216 166.653 287.038 167.94C287.859 169.228 288.042 171.835 288.042 173.589C288.042 176.358 286.931 178.58 284.71 180.254C282.504 181.929 279.59 182.766 275.968 182.766C273.489 182.766 271.211 182.323 269.134 181.438C267.073 180.552 265.504 179.312 264.425 177.719C263.362 176.125 262.831 174.298 262.831 172.237M309.747 147.123H323.27H296.224H309.747ZM309.747 147.123V182.283M352.494 169.895H333.429M352.494 169.895L357.701 182.283L342.923 147.123M352.494 169.895L342.923 147.123M333.429 169.895L328.264 182.283L342.923 147.123M333.429 169.895L342.923 147.123M392.445 171.319C392.043 175.022 390.715 177.856 388.461 179.82C386.223 181.784 383.237 182.766 379.502 182.766C376.894 182.766 374.584 182.114 372.571 180.81C370.575 179.506 369.03 177.662 367.935 175.28C366.84 172.881 366.285 170.144 366.269 167.069V162.505C366.269 159.382 366.816 156.613 367.911 154.198C369.005 151.783 370.575 149.924 372.62 148.62C374.68 147.3 377.047 146.64 379.719 146.64C383.486 146.64 386.457 147.662 388.63 149.706C390.819 151.735 392.091 154.544 392.445 158.134M410.45 162.505L404.611 168.435M410.45 162.505L425.596 147.123L404.611 168.435M410.45 162.505L430.474 182.283M404.611 168.435V182.283V147.123M496.342 147.123L487.334 182.283H484.485L476.516 154.778L475.622 151.3L474.753 154.778L466.591 182.283H463.741L454.758 147.123M526.405 164.479H516.513H507.01M507.01 164.479V182.283M507.01 164.479V147.123M507.01 182.283H528.889M507.01 182.283V147.123M507.01 147.123H528.768M540.113 182.283V147.123M540.113 182.283H551.873C555.447 182.283 558.232 181.413 560.229 179.675C562.241 177.92 563.247 175.489 563.247 172.382C563.247 170.337 562.619 168.534 561.364 166.973C560.124 165.411 558.617 164.929 556.573 164.479M540.113 182.283V164.479M540.113 147.123H550.497C554.264 147.123 557.122 147.903 559.07 149.465C561.018 151.011 561.992 153.297 561.992 156.323C561.992 158.142 561.493 159.728 560.494 161.08C559.512 162.417 558.295 163.899 556.573 164.479M540.113 147.123V164.479M556.573 164.479H548.66H540.113M649.055 164.479H639.164H629.713M629.713 164.479V182.283H651.592M629.713 164.479V147.123H651.471M688.148 147.123L675.059 182.283H672.21L659.121 147.123M720.164 182.283H698.285V147.123H720.043M698.285 164.479H707.993H717.799M751.745 182.283H731.388V147.123M856.535 182.283H834.656V147.123H856.414M834.656 164.479H844.407H854.298M883.477 167.446H867.687V182.283V147.123H879.109C882.86 147.123 885.79 148.032 887.899 149.851C890.008 151.671 891.062 154.214 891.062 157.482C891.062 159.736 890.402 161.724 889.082 163.447C887.762 165.17 885.698 166.786 883.477 167.446ZM883.477 167.446L892.873 182.283M592.361 182.283V147.123H602.189C605.071 147.123 607.655 147.783 609.941 149.103C612.227 150.407 614.006 152.282 615.278 154.729C616.565 157.176 617.209 159.962 617.209 163.085V166.321C617.209 169.46 616.573 172.245 615.302 174.676C614.03 177.107 612.235 178.982 609.917 180.303C607.614 181.623 604.966 182.283 601.972 182.283H592.361ZM786.804 166.61C786.804 169.846 786.24 172.688 785.113 175.135C784.003 177.582 782.409 179.465 780.332 180.786C778.255 182.106 775.857 182.766 773.136 182.766C769.031 182.766 765.714 181.301 763.187 178.371C760.659 175.425 759.395 171.456 759.395 166.466V162.843C759.395 159.64 759.959 156.806 761.086 154.343C762.229 151.864 763.839 149.964 765.915 148.644C767.992 147.308 770.383 146.64 773.087 146.64C775.792 146.64 778.175 147.292 780.235 148.596C782.312 149.9 783.914 151.743 785.041 154.126C786.168 156.508 786.756 159.269 786.804 162.409V166.61ZM799.235 167.446V182.283V147.123H811.213C814.867 147.123 817.749 148.056 819.858 149.924C821.983 151.791 823.046 154.359 823.046 157.627C823.046 160.927 822.023 163.479 819.979 165.282C817.95 167.069 815.077 167.446 811.213 167.446H799.235Z" stroke="#F1F1F1" stroke-width="3" stroke-linecap="round" stroke-linejoin="round"/>
</g>
<g filter="url(#filter8_f)">
<path d="M135.208 164.479H115.912M115.912 164.479V182.283V147.123M115.912 164.479V147.123M115.912 147.123H137.694M172.898 147.123V171.126C172.881 173.493 172.358 175.553 171.328 177.308C170.298 179.063 168.841 180.415 166.957 181.365C165.09 182.299 162.94 182.766 160.509 182.766C156.807 182.766 153.836 181.76 151.599 179.747C149.377 177.719 148.226 174.917 148.145 171.343V147.123M206.483 182.283H186.126V147.123M237.509 182.283H217.152V147.123M287.825 157.144C287.825 155.164 287.318 153.369 286.303 151.759C285.289 150.149 283.856 148.894 282.005 147.992C280.17 147.09 278.085 146.64 275.751 146.64C272.305 146.64 269.472 147.485 267.25 149.175C265.045 150.85 263.942 153.031 263.942 155.719C263.942 158.488 265.133 160.726 267.516 162.433C269.19 163.64 271.706 163.489 275.168 163.984C278.63 164.479 281.623 164.98 283.576 165.468C285.554 165.962 286.216 166.653 287.038 167.94C287.859 169.228 288.042 171.835 288.042 173.589C288.042 176.358 286.931 178.58 284.71 180.254C282.504 181.929 279.59 182.766 275.968 182.766C273.489 182.766 271.211 182.323 269.134 181.438C267.073 180.552 265.504 179.312 264.425 177.719C263.362 176.125 262.831 174.298 262.831 172.237M309.747 147.123H323.27H296.224H309.747ZM309.747 147.123V182.283M352.494 169.895H333.429M352.494 169.895L357.701 182.283L342.923 147.123M352.494 169.895L342.923 147.123M333.429 169.895L328.264 182.283L342.923 147.123M333.429 169.895L342.923 147.123M392.445 171.319C392.043 175.022 390.715 177.856 388.461 179.82C386.223 181.784 383.237 182.766 379.502 182.766C376.894 182.766 374.584 182.114 372.571 180.81C370.575 179.506 369.03 177.662 367.935 175.28C366.84 172.881 366.285 170.144 366.269 167.069V162.505C366.269 159.382 366.816 156.613 367.911 154.198C369.005 151.783 370.575 149.924 372.62 148.62C374.68 147.3 377.047 146.64 379.719 146.64C383.486 146.64 386.457 147.662 388.63 149.706C390.819 151.735 392.091 154.544 392.445 158.134M410.45 162.505L404.611 168.435M410.45 162.505L425.596 147.123L404.611 168.435M410.45 162.505L430.474 182.283M404.611 168.435V182.283V147.123M496.342 147.123L487.334 182.283H484.485L476.516 154.778L475.622 151.3L474.753 154.778L466.591 182.283H463.741L454.758 147.123M526.405 164.479H516.513H507.01M507.01 164.479V182.283M507.01 164.479V147.123M507.01 182.283H528.889M507.01 182.283V147.123M507.01 147.123H528.768M540.113 182.283V147.123M540.113 182.283H551.873C555.447 182.283 558.232 181.413 560.229 179.675C562.241 177.92 563.247 175.489 563.247 172.382C563.247 170.337 562.619 168.534 561.364 166.973C560.124 165.411 558.617 164.929 556.573 164.479M540.113 182.283V164.479M540.113 147.123H550.497C554.264 147.123 557.122 147.903 559.07 149.465C561.018 151.011 561.992 153.297 561.992 156.323C561.992 158.142 561.493 159.728 560.494 161.08C559.512 162.417 558.295 163.899 556.573 164.479M540.113 147.123V164.479M556.573 164.479H548.66H540.113M649.055 164.479H639.164H629.713M629.713 164.479V182.283H651.592M629.713 164.479V147.123H651.471M688.148 147.123L675.059 182.283H672.21L659.121 147.123M720.164 182.283H698.285V147.123H720.043M698.285 164.479H707.993H717.799M751.745 182.283H731.388V147.123M856.535 182.283H834.656V147.123H856.414M834.656 164.479H844.407H854.298M883.477 167.446H867.687V182.283V147.123H879.109C882.86 147.123 885.79 148.032 887.899 149.851C890.008 151.671 891.062 154.214 891.062 157.482C891.062 159.736 890.402 161.724 889.082 163.447C887.762 165.17 885.698 166.786 883.477 167.446ZM883.477 167.446L892.873 182.283M592.361 182.283V147.123H602.189C605.071 147.123 607.655 147.783 609.941 149.103C612.227 150.407 614.006 152.282 615.278 154.729C616.565 157.176 617.209 159.962 617.209 163.085V166.321C617.209 169.46 616.573 172.245 615.302 174.676C614.03 177.107 612.235 178.982 609.917 180.303C607.614 181.623 604.966 182.283 601.972 182.283H592.361ZM786.804 166.61C786.804 169.846 786.24 172.688 785.113 175.135C784.003 177.582 782.409 179.465 780.332 180.786C778.255 182.106 775.857 182.766 773.136 182.766C769.031 182.766 765.714 181.301 763.187 178.371C760.659 175.425 759.395 171.456 759.395 166.466V162.843C759.395 159.64 759.959 156.806 761.086 154.343C762.229 151.864 763.839 149.964 765.915 148.644C767.992 147.308 770.383 146.64 773.087 146.64C775.792 146.64 778.175 147.292 780.235 148.596C782.312 149.9 783.914 151.743 785.041 154.126C786.168 156.508 786.756 159.269 786.804 162.409V166.61ZM799.235 167.446V182.283V147.123H811.213C814.867 147.123 817.749 148.056 819.858 149.924C821.983 151.791 823.046 154.359 823.046 157.627C823.046 160.927 822.023 163.479 819.979 165.282C817.95 167.069 815.077 167.446 811.213 167.446H799.235Z" stroke="#F1F1F1" stroke-width="3" stroke-linecap="round" stroke-linejoin="round"/>
</g>
<g filter="url(#filter9_d)">
<path d="M135.208 164.479H115.912M115.912 164.479V182.283V147.123M115.912 164.479V147.123M115.912 147.123H137.694M172.898 147.123V171.126C172.881 173.493 172.358 175.553 171.328 177.308C170.298 179.063 168.841 180.415 166.957 181.365C165.09 182.299 162.94 182.766 160.509 182.766C156.807 182.766 153.836 181.76 151.599 179.747C149.377 177.719 148.226 174.917 148.145 171.343V147.123M206.483 182.283H186.126V147.123M237.509 182.283H217.152V147.123M287.825 157.144C287.825 155.164 287.318 153.369 286.303 151.759C285.289 150.149 283.856 148.894 282.005 147.992C280.17 147.09 278.085 146.64 275.751 146.64C272.305 146.64 269.472 147.485 267.25 149.175C265.045 150.85 263.942 153.031 263.942 155.719C263.942 158.488 265.133 160.726 267.516 162.433C269.19 163.64 271.706 163.489 275.168 163.984C278.63 164.479 281.623 164.98 283.576 165.468C285.554 165.962 286.216 166.653 287.038 167.94C287.859 169.228 288.042 171.835 288.042 173.589C288.042 176.358 286.931 178.58 284.71 180.254C282.504 181.929 279.59 182.766 275.968 182.766C273.489 182.766 271.211 182.323 269.134 181.438C267.073 180.552 265.504 179.312 264.425 177.719C263.362 176.125 262.831 174.298 262.831 172.237M309.747 147.123H323.27H296.224H309.747ZM309.747 147.123V182.283M352.494 169.895H333.429M352.494 169.895L357.701 182.283L342.923 147.123M352.494 169.895L342.923 147.123M333.429 169.895L328.264 182.283L342.923 147.123M333.429 169.895L342.923 147.123M392.445 171.319C392.043 175.022 390.715 177.856 388.461 179.82C386.223 181.784 383.237 182.766 379.502 182.766C376.894 182.766 374.584 182.114 372.571 180.81C370.575 179.506 369.03 177.662 367.935 175.28C366.84 172.881 366.285 170.144 366.269 167.069V162.505C366.269 159.382 366.816 156.613 367.911 154.198C369.005 151.783 370.575 149.924 372.62 148.62C374.68 147.3 377.047 146.64 379.719 146.64C383.486 146.64 386.457 147.662 388.63 149.706C390.819 151.735 392.091 154.544 392.445 158.134M410.45 162.505L404.611 168.435M410.45 162.505L425.596 147.123L404.611 168.435M410.45 162.505L430.474 182.283M404.611 168.435V182.283V147.123M496.342 147.123L487.334 182.283H484.485L476.516 154.778L475.622 151.3L474.753 154.778L466.591 182.283H463.741L454.758 147.123M526.405 164.479H516.513H507.01M507.01 164.479V182.283M507.01 164.479V147.123M507.01 182.283H528.889M507.01 182.283V147.123M507.01 147.123H528.768M540.113 182.283V147.123M540.113 182.283H551.873C555.447 182.283 558.232 181.413 560.229 179.675C562.241 177.92 563.247 175.489 563.247 172.382C563.247 170.337 562.619 168.534 561.364 166.973C560.124 165.411 558.617 164.929 556.573 164.479M540.113 182.283V164.479M540.113 147.123H550.497C554.264 147.123 557.122 147.903 559.07 149.465C561.018 151.011 561.992 153.297 561.992 156.323C561.992 158.142 561.493 159.728 560.494 161.08C559.512 162.417 558.295 163.899 556.573 164.479M540.113 147.123V164.479M556.573 164.479H548.66H540.113M649.055 164.479H639.164H629.713M629.713 164.479V182.283H651.592M629.713 164.479V147.123H651.471M688.148 147.123L675.059 182.283H672.21L659.121 147.123M720.164 182.283H698.285V147.123H720.043M698.285 164.479H707.993H717.799M751.745 182.283H731.388V147.123M856.535 182.283H834.656V147.123H856.414M834.656 164.479H844.407H854.298M883.477 167.446H867.687V182.283V147.123H879.109C882.86 147.123 885.79 148.032 887.899 149.851C890.008 151.671 891.062 154.214 891.062 157.482C891.062 159.736 890.402 161.724 889.082 163.447C887.762 165.17 885.698 166.786 883.477 167.446ZM883.477 167.446L892.873 182.283M592.361 182.283V147.123H602.189C605.071 147.123 607.655 147.783 609.941 149.103C612.227 150.407 614.006 152.282 615.278 154.729C616.565 157.176 617.209 159.962 617.209 163.085V166.321C617.209 169.46 616.573 172.245 615.302 174.676C614.03 177.107 612.235 178.982 609.917 180.303C607.614 181.623 604.966 182.283 601.972 182.283H592.361ZM786.804 166.61C786.804 169.846 786.24 172.688 785.113 175.135C784.003 177.582 782.409 179.465 780.332 180.786C778.255 182.106 775.857 182.766 773.136 182.766C769.031 182.766 765.714 181.301 763.187 178.371C760.659 175.425 759.395 171.456 759.395 166.466V162.843C759.395 159.64 759.959 156.806 761.086 154.343C762.229 151.864 763.839 149.964 765.915 148.644C767.992 147.308 770.383 146.64 773.087 146.64C775.792 146.64 778.175 147.292 780.235 148.596C782.312 149.9 783.914 151.743 785.041 154.126C786.168 156.508 786.756 159.269 786.804 162.409V166.61ZM799.235 167.446V182.283V147.123H811.213C814.867 147.123 817.749 148.056 819.858 149.924C821.983 151.791 823.046 154.359 823.046 157.627C823.046 160.927 822.023 163.479 819.979 165.282C817.95 167.069 815.077 167.446 811.213 167.446H799.235Z" stroke="#F1F1F1" stroke-width="3" stroke-linecap="round" stroke-linejoin="round"/>
</g>
<path d="M135.208 164.479H115.912M115.912 164.479V182.283V147.123M115.912 164.479V147.123M115.912 147.123H137.694M172.898 147.123V171.126C172.881 173.493 172.358 175.553 171.328 177.308C170.298 179.063 168.841 180.415 166.957 181.365C165.09 182.299 162.94 182.766 160.509 182.766C156.807 182.766 153.836 181.76 151.599 179.747C149.377 177.719 148.226 174.917 148.145 171.343V147.123M206.483 182.283H186.126V147.123M237.509 182.283H217.152V147.123M287.825 157.144C287.825 155.164 287.318 153.369 286.303 151.759C285.289 150.149 283.856 148.894 282.005 147.992C280.17 147.09 278.085 146.64 275.751 146.64C272.305 146.64 269.472 147.485 267.25 149.175C265.045 150.85 263.942 153.031 263.942 155.719C263.942 158.488 265.133 160.726 267.516 162.433C269.19 163.64 271.706 163.489 275.168 163.984C278.63 164.479 281.623 164.98 283.576 165.468C285.554 165.962 286.216 166.653 287.038 167.94C287.859 169.228 288.042 171.835 288.042 173.589C288.042 176.358 286.931 178.58 284.71 180.254C282.504 181.929 279.59 182.766 275.968 182.766C273.489 182.766 271.211 182.323 269.134 181.438C267.073 180.552 265.504 179.312 264.425 177.719C263.362 176.125 262.831 174.298 262.831 172.237M309.747 147.123H323.27H296.224H309.747ZM309.747 147.123V182.283M352.494 169.895H333.429M352.494 169.895L357.701 182.283L342.923 147.123M352.494 169.895L342.923 147.123M333.429 169.895L328.264 182.283L342.923 147.123M333.429 169.895L342.923 147.123M392.445 171.319C392.043 175.022 390.715 177.856 388.461 179.82C386.223 181.784 383.237 182.766 379.502 182.766C376.894 182.766 374.584 182.114 372.571 180.81C370.575 179.506 369.03 177.662 367.935 175.28C366.84 172.881 366.285 170.144 366.269 167.069V162.505C366.269 159.382 366.816 156.613 367.911 154.198C369.005 151.783 370.575 149.924 372.62 148.62C374.68 147.3 377.047 146.64 379.719 146.64C383.486 146.64 386.457 147.662 388.63 149.706C390.819 151.735 392.091 154.544 392.445 158.134M410.45 162.505L404.611 168.435M410.45 162.505L425.596 147.123L404.611 168.435M410.45 162.505L430.474 182.283M404.611 168.435V182.283V147.123M496.342 147.123L487.334 182.283H484.485L476.516 154.778L475.622 151.3L474.753 154.778L466.591 182.283H463.741L454.758 147.123M526.405 164.479H516.513H507.01M507.01 164.479V182.283M507.01 164.479V147.123M507.01 182.283H528.889M507.01 182.283V147.123M507.01 147.123H528.768M540.113 182.283V147.123M540.113 182.283H551.873C555.447 182.283 558.232 181.413 560.229 179.675C562.241 177.92 563.247 175.489 563.247 172.382C563.247 170.337 562.619 168.534 561.364 166.973C560.124 165.411 558.617 164.929 556.573 164.479M540.113 182.283V164.479M540.113 147.123H550.497C554.264 147.123 557.122 147.903 559.07 149.465C561.018 151.011 561.992 153.297 561.992 156.323C561.992 158.142 561.493 159.728 560.494 161.08C559.512 162.417 558.295 163.899 556.573 164.479M540.113 147.123V164.479M556.573 164.479H548.66H540.113M649.055 164.479H639.164H629.713M629.713 164.479V182.283H651.592M629.713 164.479V147.123H651.471M688.148 147.123L675.059 182.283H672.21L659.121 147.123M720.164 182.283H698.285V147.123H720.043M698.285 164.479H707.993H717.799M751.745 182.283H731.388V147.123M856.535 182.283H834.656V147.123H856.414M834.656 164.479H844.407H854.298M883.477 167.446H867.687V182.283V147.123H879.109C882.86 147.123 885.79 148.032 887.899 149.851C890.008 151.671 891.062 154.214 891.062 157.482C891.062 159.736 890.402 161.724 889.082 163.447C887.762 165.17 885.698 166.786 883.477 167.446ZM883.477 167.446L892.873 182.283M592.361 182.283V147.123H602.189C605.071 147.123 607.655 147.783 609.941 149.103C612.227 150.407 614.006 152.282 615.278 154.729C616.565 157.176 617.209 159.962 617.209 163.085V166.321C617.209 169.46 616.573 172.245 615.302 174.676C614.03 177.107 612.235 178.982 609.917 180.303C607.614 181.623 604.966 182.283 601.972 182.283H592.361ZM786.804 166.61C786.804 169.846 786.24 172.688 785.113 175.135C784.003 177.582 782.409 179.465 780.332 180.786C778.255 182.106 775.857 182.766 773.136 182.766C769.031 182.766 765.714 181.301 763.187 178.371C760.659 175.425 759.395 171.456 759.395 166.466V162.843C759.395 159.64 759.959 156.806 761.086 154.343C762.229 151.864 763.839 149.964 765.915 148.644C767.992 147.308 770.383 146.64 773.087 146.64C775.792 146.64 778.175 147.292 780.235 148.596C782.312 149.9 783.914 151.743 785.041 154.126C786.168 156.508 786.756 159.269 786.804 162.409V166.61ZM799.235 167.446V182.283V147.123H811.213C814.867 147.123 817.749 148.056 819.858 149.924C821.983 151.791 823.046 154.359 823.046 157.627C823.046 160.927 822.023 163.479 819.979 165.282C817.95 167.069 815.077 167.446 811.213 167.446H799.235Z" stroke="#F1F1F1" stroke-width="3" stroke-linecap="round" stroke-linejoin="round"/>
<path d="M135.208 163.489H115.912M115.912 163.489V181.293V146.133M115.912 163.489V146.133M115.912 146.133H137.694M172.898 146.133V170.137C172.881 172.503 172.358 174.564 171.328 176.319C170.298 178.074 168.841 179.426 166.957 180.376C165.09 181.31 162.94 181.776 160.509 181.776C156.807 181.776 153.836 180.77 151.599 178.758C149.377 176.729 148.226 173.928 148.145 170.354V146.133M206.483 181.293H186.126V146.133M237.509 181.293H217.152V146.133M287.825 156.155C287.825 154.175 287.318 152.38 286.303 150.77C285.289 149.16 283.856 147.904 282.005 147.003C280.17 146.101 278.085 145.65 275.751 145.65C272.305 145.65 269.472 146.496 267.25 148.186C265.045 149.86 263.942 152.042 263.942 154.73C263.942 157.499 265.133 159.737 267.516 161.443C269.19 162.651 271.706 162.5 275.168 162.995C278.63 163.489 281.623 163.99 283.576 164.478C285.554 164.973 286.216 165.663 287.038 166.951C287.859 168.239 288.042 170.845 288.042 172.6C288.042 175.369 286.931 177.591 284.71 179.265C282.504 180.939 279.59 181.776 275.968 181.776C273.489 181.776 271.211 181.334 269.134 180.448C267.073 179.563 265.504 178.323 264.425 176.729C263.362 175.136 262.831 173.308 262.831 171.248M309.747 146.133H323.27H296.224H309.747ZM309.747 146.133V181.293M352.494 168.905H333.429M352.494 168.905L357.701 181.293L342.923 146.133M352.494 168.905L342.923 146.133M333.429 168.905L328.264 181.293L342.923 146.133M333.429 168.905L342.923 146.133M392.445 170.33C392.043 174.033 390.715 176.866 388.461 178.83C386.223 180.794 383.237 181.776 379.502 181.776C376.894 181.776 374.584 181.124 372.571 179.82C370.575 178.516 369.03 176.673 367.935 174.29C366.84 171.892 366.285 169.155 366.269 166.08V161.516C366.269 158.393 366.816 155.624 367.911 153.209C369.005 150.794 370.575 148.935 372.62 147.631C374.68 146.31 377.047 145.65 379.719 145.65C383.486 145.65 386.457 146.673 388.63 148.717C390.819 150.746 392.091 153.555 392.445 157.145M410.45 161.516L404.611 167.446M410.45 161.516L425.596 146.133L404.611 167.446M410.45 161.516L430.474 181.293M404.611 167.446V181.293V146.133M496.342 146.133L487.334 181.293H484.485L476.516 153.788L475.622 150.311L474.753 153.788L466.591 181.293H463.741L454.758 146.133M526.405 163.489H516.513H507.01M507.01 163.489V181.293M507.01 163.489V146.133M507.01 181.293H528.889M507.01 181.293V146.133M507.01 146.133H528.768M540.113 181.293V146.133M540.113 181.293H551.873C555.447 181.293 558.232 180.424 560.229 178.685C562.241 176.931 563.247 174.5 563.247 171.393C563.247 169.348 562.619 167.545 561.364 165.983C560.124 164.422 558.617 163.94 556.573 163.489M540.113 181.293V163.489M540.113 146.133H550.497C554.264 146.133 557.122 146.914 559.07 148.476C561.018 150.021 561.992 152.307 561.992 155.334C561.992 157.153 561.493 158.739 560.494 160.091C559.512 161.427 558.295 162.91 556.573 163.489M540.113 146.133V163.489M556.573 163.489H548.66H540.113M649.055 163.489H639.164H629.713M629.713 163.489V181.293H651.592M629.713 163.489V146.133H651.471M688.148 146.133L675.059 181.293H672.21L659.121 146.133M720.164 181.293H698.285V146.133H720.043M698.285 163.489H707.993H717.799M751.745 181.293H731.388V146.133M856.535 181.293H834.656V146.133H856.414M834.656 163.489H844.407H854.298M883.477 166.457H867.687V181.293V146.133H879.109C882.86 146.133 885.79 147.043 887.899 148.862C890.008 150.681 891.062 153.225 891.062 156.493C891.062 158.747 890.402 160.735 889.082 162.458C887.762 164.18 885.698 165.797 883.477 166.457ZM883.477 166.457L892.873 181.293M592.361 181.293V146.133H602.189C605.071 146.133 607.655 146.793 609.941 148.114C612.227 149.418 614.006 151.293 615.278 153.74C616.565 156.187 617.209 158.972 617.209 162.095V165.331C617.209 168.471 616.573 171.256 615.302 173.687C614.03 176.118 612.235 177.993 609.917 179.313C607.614 180.633 604.966 181.293 601.972 181.293H592.361ZM786.804 165.621C786.804 168.857 786.24 171.698 785.113 174.146C784.003 176.593 782.409 178.476 780.332 179.796C778.255 181.116 775.857 181.776 773.136 181.776C769.031 181.776 765.714 180.311 763.187 177.381C760.659 174.435 759.395 170.467 759.395 165.476V161.854C759.395 158.65 759.959 155.817 761.086 153.354C762.229 150.875 763.839 148.975 765.915 147.655C767.992 146.318 770.383 145.65 773.087 145.65C775.792 145.65 778.175 146.302 780.235 147.606C782.312 148.91 783.914 150.754 785.041 153.136C786.168 155.519 786.756 158.28 786.804 161.419V165.621ZM799.235 166.457V181.293V146.133H811.213C814.867 146.133 817.749 147.067 819.858 148.935C821.983 150.802 823.046 153.37 823.046 156.638C823.046 159.938 822.023 162.49 819.979 164.293C817.95 166.08 815.077 166.457 811.213 166.457H799.235Z" stroke="white" stroke-linecap="round" stroke-linejoin="round"/>
</g>
<defs>
<filter id="filter0_f" x="-61.7029" y="-62.7029" width="1118.41" height="262.406" filterUnits="userSpaceOnUse" color-interpolation-filters="sRGB">
<feFlood flood-opacity="0" result="BackgroundImageFix"/>
<feBlend mode="normal" in="SourceGraphic" in2="BackgroundImageFix" result="shape"/>
<feGaussianBlur stdDeviation="35.3514" result="effect1_foregroundBlur"/>
</filter>
<filter id="filter1_b" x="21.3156" y="11.7131" width="968.771" height="119.147" filterUnits="userSpaceOnUse" color-interpolation-filters="sRGB">
<feFlood flood-opacity="0" result="BackgroundImageFix"/>
<feGaussianBlur in="BackgroundImage" stdDeviation="6.7123"/>
<feComposite in2="SourceAlpha" operator="in" result="effect1_backgroundBlur"/>
<feBlend mode="normal" in="SourceGraphic" in2="effect1_backgroundBlur" result="shape"/>
</filter>
<filter id="filter2_f" x="21.3156" y="11.7131" width="968.771" height="119.147" filterUnits="userSpaceOnUse" color-interpolation-filters="sRGB">
<feFlood flood-opacity="0" result="BackgroundImageFix"/>
<feBlend mode="normal" in="SourceGraphic" in2="BackgroundImageFix" result="shape"/>
<feGaussianBlur stdDeviation="6.7123" result="effect1_foregroundBlur"/>
</filter>
<filter id="filter3_b" x="21.3156" y="11.7131" width="968.771" height="119.147" filterUnits="userSpaceOnUse" color-interpolation-filters="sRGB">
<feFlood flood-opacity="0" result="BackgroundImageFix"/>
<feGaussianBlur in="BackgroundImage" stdDeviation="6.7123"/>
<feComposite in2="SourceAlpha" operator="in" result="effect1_backgroundBlur"/>
<feBlend mode="normal" in="SourceGraphic" in2="effect1_backgroundBlur" result="shape"/>
</filter>
<filter id="filter4_f" x="28.4754" y="18.8729" width="954.452" height="104.827" filterUnits="userSpaceOnUse" color-interpolation-filters="sRGB">
<feFlood flood-opacity="0" result="BackgroundImageFix"/>
<feBlend mode="normal" in="SourceGraphic" in2="BackgroundImageFix" result="shape"/>
<feGaussianBlur stdDeviation="3.13241" result="effect1_foregroundBlur"/>
</filter>
<filter id="filter5_d" x="30.8928" y="25.1377" width="949.617" height="102.558" filterUnits="userSpaceOnUse" color-interpolation-filters="sRGB">
<feFlood flood-opacity="0" result="BackgroundImageFix"/>
<feColorMatrix in="SourceAlpha" type="matrix" values="0 0 0 0 0 0 0 0 0 0 0 0 0 0 0 0 0 0 127 0"/>
<feOffset dy="6.41247"/>
<feGaussianBlur stdDeviation="1.92374"/>
<feColorMatrix type="matrix" values="0 0 0 0 0 0 0 0 0 0 0 0 0 0 0 0 0 0 0.6 0"/>
<feBlend mode="normal" in2="BackgroundImageFix" result="effect1_dropShadow"/>
<feBlend mode="normal" in="SourceGraphic" in2="effect1_dropShadow" result="shape"/>
</filter>
<filter id="filter6_f" x="-136.088" y="-90.3496" width="1287" height="511" filterUnits="userSpaceOnUse" color-interpolation-filters="sRGB">
<feFlood flood-opacity="0" result="BackgroundImageFix"/>
<feBlend mode="normal" in="SourceGraphic" in2="BackgroundImageFix" result="shape"/>
<feGaussianBlur stdDeviation="113.5" result="effect1_foregroundBlur"/>
</filter>
<filter id="filter7_f" x="99.4121" y="130.14" width="809.961" height="69.126" filterUnits="userSpaceOnUse" color-interpolation-filters="sRGB">
<feFlood flood-opacity="0" result="BackgroundImageFix"/>
<feBlend mode="normal" in="SourceGraphic" in2="BackgroundImageFix" result="shape"/>
<feGaussianBlur stdDeviation="7.5" result="effect1_foregroundBlur"/>
</filter>
<filter id="filter8_f" x="107.412" y="138.14" width="793.961" height="53.126" filterUnits="userSpaceOnUse" color-interpolation-filters="sRGB">
<feFlood flood-opacity="0" result="BackgroundImageFix"/>
<feBlend mode="normal" in="SourceGraphic" in2="BackgroundImageFix" result="shape"/>
<feGaussianBlur stdDeviation="3.5" result="effect1_foregroundBlur"/>
</filter>
<filter id="filter9_d" x="111.412" y="145.14" width="785.961" height="47.126" filterUnits="userSpaceOnUse" color-interpolation-filters="sRGB">
<feFlood flood-opacity="0" result="BackgroundImageFix"/>
<feColorMatrix in="SourceAlpha" type="matrix" values="0 0 0 0 0 0 0 0 0 0 0 0 0 0 0 0 0 0 127 0"/>
<feOffset dy="5"/>
<feGaussianBlur stdDeviation="1.5"/>
<feColorMatrix type="matrix" values="0 0 0 0 0 0 0 0 0 0 0 0 0 0 0 0 0 0 0.6 0"/>
<feBlend mode="normal" in2="BackgroundImageFix" result="effect1_dropShadow"/>
<feBlend mode="normal" in="SourceGraphic" in2="effect1_dropShadow" result="shape"/>
</filter>
<clipPath id="clip0">
<rect width="997" height="200" fill="white"/>
</clipPath>
</defs>
</svg>
