<svg width="957" height="186" fill="none" xmlns="http://www.w3.org/2000/svg"><g clip-path="url(#clip0)"><g filter="url(#filter0_f)" fill="#6DFC3C"><rect opacity=".14" width="478.981" height="121" rx="60.5"/><rect opacity=".14" x="478.02" width="478.981" height="121" rx="60.5"/></g><g filter="url(#filter1_b)"><g filter="url(#filter2_f)"><path d="M27.291 92.138v-53.8a5.13 5.13 0 015.13-5.13h15.775c6.312 0 11.846 1.228 16.6 3.683 4.837 2.374 8.526 5.811 11.067 10.313 2.624 4.42 3.935 9.576 3.935 15.47 0 5.892-1.311 11.09-3.934 15.591-2.542 4.42-6.23 7.858-11.068 10.313-4.754 2.374-10.288 3.56-16.6 3.56h-7.344m709.037-24.554c0 16.86-7.255 25.291-21.765 25.291-14.592 0-21.888-8.43-21.888-25.29V24.832a5.13 5.13 0 00-5.13-5.13h-5.726a5.13 5.13 0 00-5.13 5.13v43.365c0 12.44 3.32 22.017 9.96 28.729 6.641 6.629 15.904 9.944 27.791 9.944s21.109-3.315 27.668-9.944c6.64-6.712 9.96-16.288 9.96-28.73V24.834a5.13 5.13 0 00-5.13-5.13h-5.48a5.13 5.13 0 00-5.13 5.13v18.811m193.782-9.7a26.579 26.579 0 013.195 7.074m-3.195-7.073l3.195 7.073m-3.195-7.073a26.099 26.099 0 00-2.388-3.158c-2.716-3.076-6.183-5.543-10.401-7.4-5.492-2.456-11.968-3.684-19.428-3.684h-30.285a5.13 5.13 0 00-5.13 5.13v75.68a5.13 5.13 0 005.13 5.13h5.726a5.13 5.13 0 005.13-5.13v-4.93m-337.599-56.27L539.629 54.64c-3.204 3.32-8.82 1.05-8.82-3.563V24.833a5.13 5.13 0 00-5.13-5.13h-5.726a5.13 5.13 0 00-5.13 5.13v75.68a5.13 5.13 0 005.13 5.13h5.726a5.13 5.13 0 005.13-5.13v-7.037m30.201-60.984l2.469-2.558 8.363-8.664a5.13 5.13 0 013.691-1.567h3.906c4.495 0 6.816 5.371 3.736 8.645l-24.954 26.525a5.13 5.13 0 00-.255 6.738l28.811 35.68c2.709 3.355.321 8.352-3.991 8.352h-5.573a5.13 5.13 0 01-3.919-1.82l-25.19-29.833a5.13 5.13 0 00-7.592-.272l-8.246 8.455a5.131 5.131 0 00-1.457 3.581v.9m80.653 3.813l.681-1.596a5.129 5.129 0 014.718-3.117h36.28a5.13 5.13 0 014.708 3.093l5.931 13.704a5.131 5.131 0 004.708 3.092h5.405c3.726 0 6.209-3.848 4.674-7.243l-34.219-75.68a5.13 5.13 0 00-4.674-3.017h-9.115a5.13 5.13 0 00-4.676 3.022l-34.111 75.68c-1.53 3.395.953 7.238 4.677 7.238h5.15a5.128 5.128 0 004.718-3.117l1.508-3.533m35.282-44.545l1.592 3.683 3.429 7.936c1.463 3.387-1.02 7.165-4.709 7.165h-16.755c-3.683 0-6.166-3.767-4.715-7.152l9.28-21.642c1.421-3.315 6.119-3.321 7.549-.01v0m111.111 18.49v3.684-8.471m38.128-20.503V24.834a5.13 5.13 0 015.13-5.13h30.284c7.46 0 13.936 1.227 19.429 3.682 5.575 2.456 9.837 5.975 12.789 10.559 2.951 4.583 4.426 10.026 4.426 16.328 0 6.22-1.475 11.664-4.426 16.329-2.952 4.583-7.214 8.103-12.789 10.558-5.493 2.456-11.969 3.683-19.429 3.683h-14.299a5.13 5.13 0 00-5.13 5.13v14.54a5.129 5.129 0 01-5.13 5.13h-5.725a5.129 5.129 0 01-5.13-5.13V62.919m0-18.491v-5.115m45.632 26.352c1.884-.698 3.52-1.613 4.907-2.746 3.607-2.947 5.411-7.162 5.411-12.646 0-5.484-1.804-9.699-5.411-12.645-3.607-2.947-8.894-4.42-15.863-4.42h-13.561a5.13 5.13 0 00-5.13 5.13v23.87a5.13 5.13 0 005.13 5.13h14.299m123.435-26.32c.821 2.846 1.232 5.931 1.232 9.255 0 6.22-1.476 11.664-4.427 16.329-2.951 4.583-7.214 8.103-12.789 10.558-5.492 2.456-11.968 3.683-19.428 3.683h-15.469a3.96 3.96 0 00-3.96 3.96v2.254M128.883 52.101V24.833a5.13 5.13 0 00-5.13-5.13h-5.725a5.13 5.13 0 00-5.13 5.13v75.68a5.129 5.129 0 005.13 5.13h5.725a5.129 5.129 0 005.13-5.13V61.48m51.503-6.05H173.281a5.13 5.13 0 01-5.13-5.13V38.215a5.13 5.13 0 015.13-5.13h36.591a5.13 5.13 0 005.13-5.13v-3.122a5.13 5.13 0 00-5.13-5.13h-52.576a5.13 5.13 0 00-5.13 5.13v75.68a5.129 5.129 0 005.13 5.13h35.045m5.977-50.213h.854m-6.831 0h6.831m0 0h5.412a5.13 5.13 0 015.13 5.13v2.876a5.13 5.13 0 01-5.13 5.13h-31.303a5.13 5.13 0 00-5.13 5.13v13.435a5.13 5.13 0 005.13 5.13h17.352m1.804 0h-1.804m13.663 0h1.708m-15.371 0h15.371m0 0H211.593a5.13 5.13 0 015.13 5.13v3.122a5.129 5.129 0 01-5.13 5.13h-9.859m43.551-72.435h1.59a5.13 5.13 0 015.13 5.13v62.175a5.13 5.13 0 005.13 5.13h5.726a5.13 5.13 0 005.13-5.13V38.338a5.13 5.13 0 015.13-5.13h18.269a5.13 5.13 0 005.13-5.13v-3.245a5.13 5.13 0 00-5.13-5.13h-62.783a5.13 5.13 0 00-5.13 5.13v3.245a5.13 5.13 0 005.13 5.13h4.723m75.186-.123V24.833a5.13 5.13 0 015.13-5.13h52.577a5.13 5.13 0 015.13 5.13v3.122a5.13 5.13 0 01-5.13 5.13h-36.591a5.13 5.13 0 00-5.13 5.13V50.3a5.13 5.13 0 005.13 5.13h31.303a5.13 5.13 0 015.13 5.13v2.876a5.13 5.13 0 01-5.13 5.13h-31.303a5.13 5.13 0 00-5.13 5.13v13.435a5.13 5.13 0 005.13 5.13h15.564m-36.68-43.57v51.822a5.13 5.13 0 005.13 5.13h54.298a5.129 5.129 0 005.13-5.13v-3.122a5.13 5.13 0 00-5.13-5.13h-6.523m45.46-49.538v-4.385a5.13 5.13 0 015.13-5.13h13.561c6.968 0 12.255 1.473 15.862 4.42 3.607 2.946 5.411 7.161 5.411 12.645s-1.804 9.74-5.411 12.768c-3.607 2.947-8.894 4.42-15.862 4.42h-13.561a5.13 5.13 0 01-5.13-5.13v-4.2m43.322 27.22l-.827-1.178-.987-1.409c-1.912-2.726-.723-6.497 2.078-8.297 3.134-2.013 5.698-4.512 7.691-7.497 3.197-4.665 4.796-10.23 4.796-16.697 0-6.302-1.476-11.745-4.427-16.328-2.951-4.584-7.214-8.103-12.789-10.559-5.492-2.455-11.968-3.683-19.429-3.683h-30.284a5.13 5.13 0 00-5.13 5.13v75.68a5.13 5.13 0 005.13 5.13h5.726a5.13 5.13 0 005.13-5.13V85.728a5.13 5.13 0 015.13-5.13h14.577c1.877-.007 3.711.835 4.786 2.374l14.308 20.479a5.13 5.13 0 004.206 2.192h4.679c4.152 0 6.584-4.675 4.201-8.075l-3.185-4.543M48.933 19.703c9.182 0 17.339 1.8 24.471 5.402 7.132 3.52 12.666 8.553 16.6 15.101 3.936 6.466 5.903 13.955 5.903 22.467 0 8.512-1.967 16.042-5.902 22.59-3.935 6.466-9.469 11.5-16.6 15.101-7.133 3.52-15.29 5.279-24.471 5.279H16.436a5.13 5.13 0 01-5.13-5.13v-75.68a5.13 5.13 0 015.13-5.13H48.934zm861.783 47.635c6.968 0 12.256-1.473 15.863-4.42 3.607-2.946 5.41-7.16 5.41-12.645 0-5.484-1.803-9.699-5.41-12.645-3.607-2.947-8.895-4.42-15.863-4.42h-13.561a5.13 5.13 0 00-5.13 5.13v23.87a5.13 5.13 0 005.13 5.13h13.561z" stroke="#6DFC3C" stroke-width="5.13" stroke-linecap="round" stroke-linejoin="round"/></g></g><g filter="url(#filter3_b)"><g filter="url(#filter4_f)"><path d="M27.291 92.138v-53.8a5.13 5.13 0 015.13-5.13h15.775c6.312 0 11.846 1.228 16.6 3.683 4.837 2.374 8.526 5.811 11.067 10.313 2.624 4.42 3.935 9.576 3.935 15.47 0 5.892-1.311 11.09-3.934 15.591-2.542 4.42-6.23 7.858-11.068 10.313-4.754 2.374-10.288 3.56-16.6 3.56h-7.344m709.037-24.554c0 16.86-7.255 25.291-21.765 25.291-14.592 0-21.888-8.43-21.888-25.29V24.832a5.13 5.13 0 00-5.13-5.13h-5.726a5.13 5.13 0 00-5.13 5.13v43.365c0 12.44 3.32 22.017 9.96 28.729 6.641 6.629 15.904 9.944 27.791 9.944s21.109-3.315 27.668-9.944c6.64-6.712 9.96-16.288 9.96-28.73V24.834a5.13 5.13 0 00-5.13-5.13h-5.48a5.13 5.13 0 00-5.13 5.13v18.811m193.782-9.7a26.579 26.579 0 013.195 7.074m-3.195-7.073l3.195 7.073m-3.195-7.073a26.099 26.099 0 00-2.388-3.158c-2.716-3.076-6.183-5.543-10.401-7.4-5.492-2.456-11.968-3.684-19.428-3.684h-30.285a5.13 5.13 0 00-5.13 5.13v75.68a5.13 5.13 0 005.13 5.13h5.726a5.13 5.13 0 005.13-5.13v-4.93m-337.599-56.27L539.629 54.64c-3.204 3.32-8.82 1.05-8.82-3.563V24.833a5.13 5.13 0 00-5.13-5.13h-5.726a5.13 5.13 0 00-5.13 5.13v75.68a5.13 5.13 0 005.13 5.13h5.726a5.13 5.13 0 005.13-5.13v-7.037m30.201-60.984l2.469-2.558 8.363-8.664a5.13 5.13 0 013.691-1.567h3.906c4.495 0 6.816 5.371 3.736 8.645l-24.954 26.525a5.13 5.13 0 00-.255 6.738l28.811 35.68c2.709 3.355.321 8.352-3.991 8.352h-5.573a5.13 5.13 0 01-3.919-1.82l-25.19-29.833a5.13 5.13 0 00-7.592-.272l-8.246 8.455a5.131 5.131 0 00-1.457 3.581v.9m80.653 3.813l.681-1.596a5.129 5.129 0 014.718-3.117h36.28a5.13 5.13 0 014.708 3.093l5.931 13.704a5.131 5.131 0 004.708 3.092h5.405c3.726 0 6.209-3.848 4.674-7.243l-34.219-75.68a5.13 5.13 0 00-4.674-3.017h-9.115a5.13 5.13 0 00-4.676 3.022l-34.111 75.68c-1.53 3.395.953 7.238 4.677 7.238h5.15a5.128 5.128 0 004.718-3.117l1.508-3.533m35.282-44.545l1.592 3.683 3.429 7.936c1.463 3.387-1.02 7.165-4.709 7.165h-16.755c-3.683 0-6.166-3.767-4.715-7.152l9.28-21.642c1.421-3.315 6.119-3.321 7.549-.01v0m111.111 18.49v3.684-8.471m38.128-20.503V24.834a5.13 5.13 0 015.13-5.13h30.284c7.46 0 13.936 1.227 19.429 3.682 5.575 2.456 9.837 5.975 12.789 10.559 2.951 4.583 4.426 10.026 4.426 16.328 0 6.22-1.475 11.664-4.426 16.329-2.952 4.583-7.214 8.103-12.789 10.558-5.493 2.456-11.969 3.683-19.429 3.683h-14.299a5.13 5.13 0 00-5.13 5.13v14.54a5.129 5.129 0 01-5.13 5.13h-5.725a5.129 5.129 0 01-5.13-5.13V62.919m0-18.491v-5.115m45.632 26.352c1.884-.698 3.52-1.613 4.907-2.746 3.607-2.947 5.411-7.162 5.411-12.646 0-5.484-1.804-9.699-5.411-12.645-3.607-2.947-8.894-4.42-15.863-4.42h-13.561a5.13 5.13 0 00-5.13 5.13v23.87a5.13 5.13 0 005.13 5.13h14.299m123.435-26.32c.821 2.846 1.232 5.931 1.232 9.255 0 6.22-1.476 11.664-4.427 16.329-2.951 4.583-7.214 8.103-12.789 10.558-5.492 2.456-11.968 3.683-19.428 3.683h-15.469a3.96 3.96 0 00-3.96 3.96v2.254M128.883 52.101V24.833a5.13 5.13 0 00-5.13-5.13h-5.725a5.13 5.13 0 00-5.13 5.13v75.68a5.129 5.129 0 005.13 5.13h5.725a5.129 5.129 0 005.13-5.13V61.48m51.503-6.05H173.281a5.13 5.13 0 01-5.13-5.13V38.215a5.13 5.13 0 015.13-5.13h36.591a5.13 5.13 0 005.13-5.13v-3.122a5.13 5.13 0 00-5.13-5.13h-52.576a5.13 5.13 0 00-5.13 5.13v75.68a5.129 5.129 0 005.13 5.13h35.045m5.977-50.213h.854m-6.831 0h6.831m0 0h5.412a5.13 5.13 0 015.13 5.13v2.876a5.13 5.13 0 01-5.13 5.13h-31.303a5.13 5.13 0 00-5.13 5.13v13.435a5.13 5.13 0 005.13 5.13h17.352m1.804 0h-1.804m13.663 0h1.708m-15.371 0h15.371m0 0H211.593a5.13 5.13 0 015.13 5.13v3.122a5.129 5.129 0 01-5.13 5.13h-9.859m43.551-72.435h1.59a5.13 5.13 0 015.13 5.13v62.175a5.13 5.13 0 005.13 5.13h5.726a5.13 5.13 0 005.13-5.13V38.338a5.13 5.13 0 015.13-5.13h18.269a5.13 5.13 0 005.13-5.13v-3.245a5.13 5.13 0 00-5.13-5.13h-62.783a5.13 5.13 0 00-5.13 5.13v3.245a5.13 5.13 0 005.13 5.13h4.723m75.186-.123V24.833a5.13 5.13 0 015.13-5.13h52.577a5.13 5.13 0 015.13 5.13v3.122a5.13 5.13 0 01-5.13 5.13h-36.591a5.13 5.13 0 00-5.13 5.13V50.3a5.13 5.13 0 005.13 5.13h31.303a5.13 5.13 0 015.13 5.13v2.876a5.13 5.13 0 01-5.13 5.13h-31.303a5.13 5.13 0 00-5.13 5.13v13.435a5.13 5.13 0 005.13 5.13h15.564m-36.68-43.57v51.822a5.13 5.13 0 005.13 5.13h54.298a5.129 5.129 0 005.13-5.13v-3.122a5.13 5.13 0 00-5.13-5.13h-6.523m45.46-49.538v-4.385a5.13 5.13 0 015.13-5.13h13.561c6.968 0 12.255 1.473 15.862 4.42 3.607 2.946 5.411 7.161 5.411 12.645s-1.804 9.74-5.411 12.768c-3.607 2.947-8.894 4.42-15.862 4.42h-13.561a5.13 5.13 0 01-5.13-5.13v-4.2m43.322 27.22l-.827-1.178-.987-1.409c-1.912-2.726-.723-6.497 2.078-8.297 3.134-2.013 5.698-4.512 7.691-7.497 3.197-4.665 4.796-10.23 4.796-16.697 0-6.302-1.476-11.745-4.427-16.328-2.951-4.584-7.214-8.103-12.789-10.559-5.492-2.455-11.968-3.683-19.429-3.683h-30.284a5.13 5.13 0 00-5.13 5.13v75.68a5.13 5.13 0 005.13 5.13h5.726a5.13 5.13 0 005.13-5.13V85.728a5.13 5.13 0 015.13-5.13h14.577c1.877-.007 3.711.835 4.786 2.374l14.308 20.479a5.13 5.13 0 004.206 2.192h4.679c4.152 0 6.584-4.675 4.201-8.075l-3.185-4.543M48.933 19.703c9.182 0 17.339 1.8 24.471 5.402 7.132 3.52 12.666 8.553 16.6 15.101 3.936 6.466 5.903 13.955 5.903 22.467 0 8.512-1.967 16.042-5.902 22.59-3.935 6.466-9.469 11.5-16.6 15.101-7.133 3.52-15.29 5.279-24.471 5.279H16.436a5.13 5.13 0 01-5.13-5.13v-75.68a5.13 5.13 0 015.13-5.13H48.934zm861.783 47.635c6.968 0 12.256-1.473 15.863-4.42 3.607-2.946 5.41-7.16 5.41-12.645 0-5.484-1.803-9.699-5.41-12.645-3.607-2.947-8.895-4.42-15.863-4.42h-13.561a5.13 5.13 0 00-5.13 5.13v23.87a5.13 5.13 0 005.13 5.13h13.561z" stroke="#6DFC3C" stroke-width="5.13" stroke-linecap="round" stroke-linejoin="round"/></g></g><g filter="url(#filter5_d)"><path d="M27.291 92.138v-53.8a5.13 5.13 0 015.13-5.13h15.775c6.312 0 11.846 1.228 16.6 3.683 4.837 2.374 8.526 5.811 11.067 10.313 2.624 4.42 3.935 9.576 3.935 15.47 0 5.892-1.311 11.09-3.934 15.591-2.542 4.42-6.23 7.858-11.068 10.313-4.754 2.374-10.288 3.56-16.6 3.56h-7.344m709.037-24.554c0 16.86-7.255 25.291-21.765 25.291-14.592 0-21.888-8.43-21.888-25.29V24.832a5.13 5.13 0 00-5.13-5.13h-5.726a5.13 5.13 0 00-5.13 5.13v43.365c0 12.44 3.32 22.017 9.96 28.729 6.641 6.629 15.904 9.944 27.791 9.944s21.109-3.315 27.668-9.944c6.64-6.712 9.96-16.288 9.96-28.73V24.834a5.13 5.13 0 00-5.13-5.13h-5.48a5.13 5.13 0 00-5.13 5.13v18.811m193.782-9.7a26.579 26.579 0 013.195 7.074m-3.195-7.073l3.195 7.073m-3.195-7.073a26.099 26.099 0 00-2.388-3.158c-2.716-3.076-6.183-5.543-10.401-7.4-5.492-2.456-11.968-3.684-19.428-3.684h-30.285a5.13 5.13 0 00-5.13 5.13v75.68a5.13 5.13 0 005.13 5.13h5.726a5.13 5.13 0 005.13-5.13v-4.93m-337.599-56.27L539.629 54.64c-3.204 3.32-8.82 1.05-8.82-3.563V24.833a5.13 5.13 0 00-5.13-5.13h-5.726a5.13 5.13 0 00-5.13 5.13v75.68a5.13 5.13 0 005.13 5.13h5.726a5.13 5.13 0 005.13-5.13v-7.037m30.201-60.984l2.469-2.558 8.363-8.664a5.13 5.13 0 013.691-1.567h3.906c4.495 0 6.816 5.371 3.736 8.645l-24.954 26.525a5.13 5.13 0 00-.255 6.738l28.811 35.68c2.709 3.355.321 8.352-3.991 8.352h-5.573a5.13 5.13 0 01-3.919-1.82l-25.19-29.833a5.13 5.13 0 00-7.592-.272l-8.246 8.455a5.131 5.131 0 00-1.457 3.581v.9m80.653 3.813l.681-1.596a5.129 5.129 0 014.718-3.117h36.28a5.13 5.13 0 014.708 3.093l5.931 13.704a5.131 5.131 0 004.708 3.092h5.405c3.726 0 6.209-3.848 4.674-7.243l-34.219-75.68a5.13 5.13 0 00-4.674-3.017h-9.115a5.13 5.13 0 00-4.676 3.022l-34.111 75.68c-1.53 3.395.953 7.238 4.677 7.238h5.15a5.128 5.128 0 004.718-3.117l1.508-3.533m35.282-44.545l1.592 3.683 3.429 7.936c1.463 3.387-1.02 7.165-4.709 7.165h-16.755c-3.683 0-6.166-3.767-4.715-7.152l9.28-21.642c1.421-3.315 6.119-3.321 7.549-.01v0m111.111 18.49v3.684-8.471m38.128-20.503V24.834a5.13 5.13 0 015.13-5.13h30.284c7.46 0 13.936 1.227 19.429 3.682 5.575 2.456 9.837 5.975 12.789 10.559 2.951 4.583 4.426 10.026 4.426 16.328 0 6.22-1.475 11.664-4.426 16.329-2.952 4.583-7.214 8.103-12.789 10.558-5.493 2.456-11.969 3.683-19.429 3.683h-14.299a5.13 5.13 0 00-5.13 5.13v14.54a5.129 5.129 0 01-5.13 5.13h-5.725a5.129 5.129 0 01-5.13-5.13V62.919m0-18.491v-5.115m45.632 26.352c1.884-.698 3.52-1.613 4.907-2.746 3.607-2.947 5.411-7.162 5.411-12.646 0-5.484-1.804-9.699-5.411-12.645-3.607-2.947-8.894-4.42-15.863-4.42h-13.561a5.13 5.13 0 00-5.13 5.13v23.87a5.13 5.13 0 005.13 5.13h14.299m123.435-26.32c.821 2.846 1.232 5.931 1.232 9.255 0 6.22-1.476 11.664-4.427 16.329-2.951 4.583-7.214 8.103-12.789 10.558-5.492 2.456-11.968 3.683-19.428 3.683h-15.469a3.96 3.96 0 00-3.96 3.96v2.254M128.883 52.101V24.833a5.13 5.13 0 00-5.13-5.13h-5.725a5.13 5.13 0 00-5.13 5.13v75.68a5.129 5.129 0 005.13 5.13h5.725a5.129 5.129 0 005.13-5.13V61.48m51.503-6.05H173.281a5.13 5.13 0 01-5.13-5.13V38.215a5.13 5.13 0 015.13-5.13h36.591a5.13 5.13 0 005.13-5.13v-3.122a5.13 5.13 0 00-5.13-5.13h-52.576a5.13 5.13 0 00-5.13 5.13v75.68a5.129 5.129 0 005.13 5.13h35.045m5.977-50.213h.854m-6.831 0h6.831m0 0h5.412a5.13 5.13 0 015.13 5.13v2.876a5.13 5.13 0 01-5.13 5.13h-31.303a5.13 5.13 0 00-5.13 5.13v13.435a5.13 5.13 0 005.13 5.13h17.352m1.804 0h-1.804m13.663 0h1.708m-15.371 0h15.371m0 0H211.593a5.13 5.13 0 015.13 5.13v3.122a5.129 5.129 0 01-5.13 5.13h-9.859m43.551-72.435h1.59a5.13 5.13 0 015.13 5.13v62.175a5.13 5.13 0 005.13 5.13h5.726a5.13 5.13 0 005.13-5.13V38.338a5.13 5.13 0 015.13-5.13h18.269a5.13 5.13 0 005.13-5.13v-3.245a5.13 5.13 0 00-5.13-5.13h-62.783a5.13 5.13 0 00-5.13 5.13v3.245a5.13 5.13 0 005.13 5.13h4.723m75.186-.123V24.833a5.13 5.13 0 015.13-5.13h52.577a5.13 5.13 0 015.13 5.13v3.122a5.13 5.13 0 01-5.13 5.13h-36.591a5.13 5.13 0 00-5.13 5.13V50.3a5.13 5.13 0 005.13 5.13h31.303a5.13 5.13 0 015.13 5.13v2.876a5.13 5.13 0 01-5.13 5.13h-31.303a5.13 5.13 0 00-5.13 5.13v13.435a5.13 5.13 0 005.13 5.13h15.564m-36.68-43.57v51.822a5.13 5.13 0 005.13 5.13h54.298a5.129 5.129 0 005.13-5.13v-3.122a5.13 5.13 0 00-5.13-5.13h-6.523m45.46-49.538v-4.385a5.13 5.13 0 015.13-5.13h13.561c6.968 0 12.255 1.473 15.862 4.42 3.607 2.946 5.411 7.161 5.411 12.645s-1.804 9.74-5.411 12.768c-3.607 2.947-8.894 4.42-15.862 4.42h-13.561a5.13 5.13 0 01-5.13-5.13v-4.2m43.322 27.22l-.827-1.178-.987-1.409c-1.912-2.726-.723-6.497 2.078-8.297 3.134-2.013 5.698-4.512 7.691-7.497 3.197-4.665 4.796-10.23 4.796-16.697 0-6.302-1.476-11.745-4.427-16.328-2.951-4.584-7.214-8.103-12.789-10.559-5.492-2.455-11.968-3.683-19.429-3.683h-30.284a5.13 5.13 0 00-5.13 5.13v75.68a5.13 5.13 0 005.13 5.13h5.726a5.13 5.13 0 005.13-5.13V85.728a5.13 5.13 0 015.13-5.13h14.577c1.877-.007 3.711.835 4.786 2.374l14.308 20.479a5.13 5.13 0 004.206 2.192h4.679c4.152 0 6.584-4.675 4.201-8.075l-3.185-4.543M48.933 19.703c9.182 0 17.339 1.8 24.471 5.402 7.132 3.52 12.666 8.553 16.6 15.101 3.936 6.466 5.903 13.955 5.903 22.467 0 8.512-1.967 16.042-5.902 22.59-3.935 6.466-9.469 11.5-16.6 15.101-7.133 3.52-15.29 5.279-24.471 5.279H16.436a5.13 5.13 0 01-5.13-5.13v-75.68a5.13 5.13 0 015.13-5.13H48.934zm861.783 47.635c6.968 0 12.256-1.473 15.863-4.42 3.607-2.946 5.41-7.16 5.41-12.645 0-5.484-1.803-9.699-5.41-12.645-3.607-2.947-8.895-4.42-15.863-4.42h-13.561a5.13 5.13 0 00-5.13 5.13v23.87a5.13 5.13 0 005.13 5.13h13.561z" stroke="#6DFC3C" stroke-width="5.13" stroke-linecap="round" stroke-linejoin="round"/></g><path d="M27.291 92.138v-53.8a5.13 5.13 0 015.13-5.13h15.775c6.312 0 11.846 1.228 16.6 3.683 4.837 2.374 8.526 5.811 11.067 10.313 2.624 4.42 3.935 9.576 3.935 15.47 0 5.892-1.311 11.09-3.934 15.591-2.542 4.42-6.23 7.858-11.068 10.313-4.754 2.374-10.288 3.56-16.6 3.56h-7.344m709.037-24.554c0 16.86-7.255 25.291-21.765 25.291-14.592 0-21.888-8.43-21.888-25.29V24.832a5.13 5.13 0 00-5.13-5.13h-5.726a5.13 5.13 0 00-5.13 5.13v43.365c0 12.44 3.32 22.017 9.96 28.729 6.641 6.629 15.904 9.944 27.791 9.944s21.109-3.315 27.668-9.944c6.64-6.712 9.96-16.288 9.96-28.73V24.834a5.13 5.13 0 00-5.13-5.13h-5.48a5.13 5.13 0 00-5.13 5.13v18.811m193.782-9.7a26.579 26.579 0 013.195 7.074m-3.195-7.073l3.195 7.073m-3.195-7.073a26.099 26.099 0 00-2.388-3.158c-2.716-3.076-6.183-5.543-10.401-7.4-5.492-2.456-11.968-3.684-19.428-3.684h-30.285a5.13 5.13 0 00-5.13 5.13v75.68a5.13 5.13 0 005.13 5.13h5.726a5.13 5.13 0 005.13-5.13v-4.93m-337.599-56.27L539.629 54.64c-3.204 3.32-8.82 1.05-8.82-3.563V24.833a5.13 5.13 0 00-5.13-5.13h-5.726a5.13 5.13 0 00-5.13 5.13v75.68a5.13 5.13 0 005.13 5.13h5.726a5.13 5.13 0 005.13-5.13v-7.037m30.201-60.984l2.469-2.558 8.363-8.664a5.13 5.13 0 013.691-1.567h3.906c4.495 0 6.816 5.371 3.736 8.645l-24.954 26.525a5.13 5.13 0 00-.255 6.738l28.811 35.68c2.709 3.355.321 8.352-3.991 8.352h-5.573a5.13 5.13 0 01-3.919-1.82l-25.19-29.833a5.13 5.13 0 00-7.592-.272l-8.246 8.455a5.131 5.131 0 00-1.457 3.581v.9m80.653 3.813l.681-1.596a5.129 5.129 0 014.718-3.117h36.28a5.13 5.13 0 014.708 3.093l5.931 13.704a5.131 5.131 0 004.708 3.092h5.405c3.726 0 6.209-3.848 4.674-7.243l-34.219-75.68a5.13 5.13 0 00-4.674-3.017h-9.115a5.13 5.13 0 00-4.676 3.022l-34.111 75.68c-1.53 3.395.953 7.238 4.677 7.238h5.15a5.128 5.128 0 004.718-3.117l1.508-3.533m35.282-44.545l1.592 3.683 3.429 7.936c1.463 3.387-1.02 7.165-4.709 7.165h-16.755c-3.683 0-6.166-3.767-4.715-7.152l9.28-21.642c1.421-3.315 6.119-3.321 7.549-.01v0m111.111 18.49v3.684-8.471m38.128-20.503V24.834a5.13 5.13 0 015.13-5.13h30.284c7.46 0 13.936 1.227 19.429 3.682 5.575 2.456 9.837 5.975 12.789 10.559 2.951 4.583 4.426 10.026 4.426 16.328 0 6.22-1.475 11.664-4.426 16.329-2.952 4.583-7.214 8.103-12.789 10.558-5.493 2.456-11.969 3.683-19.429 3.683h-14.299a5.13 5.13 0 00-5.13 5.13v14.54a5.129 5.129 0 01-5.13 5.13h-5.725a5.129 5.129 0 01-5.13-5.13V62.919m0-18.491v-5.115m45.632 26.352c1.884-.698 3.52-1.613 4.907-2.746 3.607-2.947 5.411-7.162 5.411-12.646 0-5.484-1.804-9.699-5.411-12.645-3.607-2.947-8.894-4.42-15.863-4.42h-13.561a5.13 5.13 0 00-5.13 5.13v23.87a5.13 5.13 0 005.13 5.13h14.299m123.435-26.32c.821 2.846 1.232 5.931 1.232 9.255 0 6.22-1.476 11.664-4.427 16.329-2.951 4.583-7.214 8.103-12.789 10.558-5.492 2.456-11.968 3.683-19.428 3.683h-15.469a3.96 3.96 0 00-3.96 3.96v2.254M128.883 52.101V24.833a5.13 5.13 0 00-5.13-5.13h-5.725a5.13 5.13 0 00-5.13 5.13v75.68a5.129 5.129 0 005.13 5.13h5.725a5.129 5.129 0 005.13-5.13V61.48m51.503-6.05H173.281a5.13 5.13 0 01-5.13-5.13V38.215a5.13 5.13 0 015.13-5.13h36.591a5.13 5.13 0 005.13-5.13v-3.122a5.13 5.13 0 00-5.13-5.13h-52.576a5.13 5.13 0 00-5.13 5.13v75.68a5.129 5.129 0 005.13 5.13h35.045m5.977-50.213h.854m-6.831 0h6.831m0 0h5.412a5.13 5.13 0 015.13 5.13v2.876a5.13 5.13 0 01-5.13 5.13h-31.303a5.13 5.13 0 00-5.13 5.13v13.435a5.13 5.13 0 005.13 5.13h17.352m1.804 0h-1.804m13.663 0h1.708m-15.371 0h15.371m0 0H211.593a5.13 5.13 0 015.13 5.13v3.122a5.129 5.129 0 01-5.13 5.13h-9.859m43.551-72.435h1.59a5.13 5.13 0 015.13 5.13v62.175a5.13 5.13 0 005.13 5.13h5.726a5.13 5.13 0 005.13-5.13V38.338a5.13 5.13 0 015.13-5.13h18.269a5.13 5.13 0 005.13-5.13v-3.245a5.13 5.13 0 00-5.13-5.13h-62.783a5.13 5.13 0 00-5.13 5.13v3.245a5.13 5.13 0 005.13 5.13h4.723m75.186-.123V24.833a5.13 5.13 0 015.13-5.13h52.577a5.13 5.13 0 015.13 5.13v3.122a5.13 5.13 0 01-5.13 5.13h-36.591a5.13 5.13 0 00-5.13 5.13V50.3a5.13 5.13 0 005.13 5.13h31.303a5.13 5.13 0 015.13 5.13v2.876a5.13 5.13 0 01-5.13 5.13h-31.303a5.13 5.13 0 00-5.13 5.13v13.435a5.13 5.13 0 005.13 5.13h15.564m-36.68-43.57v51.822a5.13 5.13 0 005.13 5.13h54.298a5.129 5.129 0 005.13-5.13v-3.122a5.13 5.13 0 00-5.13-5.13h-6.523m45.46-49.538v-4.385a5.13 5.13 0 015.13-5.13h13.561c6.968 0 12.255 1.473 15.862 4.42 3.607 2.946 5.411 7.161 5.411 12.645s-1.804 9.74-5.411 12.768c-3.607 2.947-8.894 4.42-15.862 4.42h-13.561a5.13 5.13 0 01-5.13-5.13v-4.2m43.322 27.22l-.827-1.178-.987-1.409c-1.912-2.726-.723-6.497 2.078-8.297 3.134-2.013 5.698-4.512 7.691-7.497 3.197-4.665 4.796-10.23 4.796-16.697 0-6.302-1.476-11.745-4.427-16.328-2.951-4.584-7.214-8.103-12.789-10.559-5.492-2.455-11.968-3.683-19.429-3.683h-30.284a5.13 5.13 0 00-5.13 5.13v75.68a5.13 5.13 0 005.13 5.13h5.726a5.13 5.13 0 005.13-5.13V85.728a5.13 5.13 0 015.13-5.13h14.577c1.877-.007 3.711.835 4.786 2.374l14.308 20.479a5.13 5.13 0 004.206 2.192h4.679c4.152 0 6.584-4.675 4.201-8.075l-3.185-4.543M48.933 19.703c9.182 0 17.339 1.8 24.471 5.402 7.132 3.52 12.666 8.553 16.6 15.101 3.936 6.466 5.903 13.955 5.903 22.467 0 8.512-1.967 16.042-5.902 22.59-3.935 6.466-9.469 11.5-16.6 15.101-7.133 3.52-15.29 5.279-24.471 5.279H16.436a5.13 5.13 0 01-5.13-5.13v-75.68a5.13 5.13 0 015.13-5.13H48.934zm861.783 47.635c6.968 0 12.256-1.473 15.863-4.42 3.607-2.946 5.41-7.16 5.41-12.645 0-5.484-1.803-9.699-5.41-12.645-3.607-2.947-8.895-4.42-15.863-4.42h-13.561a5.13 5.13 0 00-5.13 5.13v23.87a5.13 5.13 0 005.13 5.13h13.561z" stroke="#6DFC3C" stroke-width="5.13" stroke-linecap="round" stroke-linejoin="round"/><path d="M27.291 91.088v-53.8a5.13 5.13 0 015.13-5.13h15.775c6.312 0 11.846 1.227 16.6 3.682 4.837 2.374 8.526 5.812 11.067 10.313 2.624 4.42 3.935 9.576 3.935 15.47 0 5.893-1.311 11.09-3.934 15.591-2.542 4.42-6.23 7.858-11.068 10.313-4.754 2.374-10.288 3.56-16.6 3.56h-7.344m709.037-24.554c0 16.86-7.255 25.291-21.765 25.291-14.592 0-21.888-8.43-21.888-25.29V23.781a5.13 5.13 0 00-5.13-5.13h-5.726a5.13 5.13 0 00-5.13 5.13v43.365c0 12.441 3.32 22.017 9.96 28.729 6.641 6.629 15.904 9.944 27.791 9.944s21.109-3.315 27.668-9.944c6.64-6.712 9.96-16.288 9.96-28.729V23.782a5.13 5.13 0 00-5.13-5.13h-5.48a5.13 5.13 0 00-5.13 5.13v18.811m193.782-9.7a26.577 26.577 0 013.195 7.074m-3.195-7.073l3.195 7.073m-3.195-7.073a26.1 26.1 0 00-2.388-3.158c-2.716-3.076-6.183-5.543-10.401-7.4-5.492-2.456-11.968-3.684-19.428-3.684h-30.285a5.13 5.13 0 00-5.13 5.13v75.68a5.13 5.13 0 005.13 5.131h5.726a5.13 5.13 0 005.13-5.13v-4.93M554.426 38.261L539.629 53.59c-3.204 3.32-8.82 1.05-8.82-3.563V23.782a5.13 5.13 0 00-5.13-5.13h-5.726a5.13 5.13 0 00-5.13 5.13v75.68a5.13 5.13 0 005.13 5.131h5.726a5.13 5.13 0 005.13-5.13v-7.038m30.201-60.984l2.469-2.558 8.363-8.664a5.13 5.13 0 013.691-1.567h3.906c4.495 0 6.816 5.371 3.736 8.645l-24.954 26.525a5.13 5.13 0 00-.255 6.738l28.811 35.68c2.709 3.355.321 8.353-3.991 8.353h-5.573a5.13 5.13 0 01-3.919-1.821l-25.19-29.833a5.13 5.13 0 00-7.592-.272l-8.246 8.455a5.131 5.131 0 00-1.457 3.582v.899m80.653 3.814l.681-1.596a5.129 5.129 0 014.718-3.117h36.28a5.13 5.13 0 014.708 3.092l5.931 13.704a5.132 5.132 0 004.708 3.093h5.405c3.726 0 6.209-3.848 4.674-7.244l-34.219-75.68a5.13 5.13 0 00-4.674-3.017h-9.115a5.13 5.13 0 00-4.676 3.022l-34.111 75.68c-1.53 3.396.953 7.239 4.677 7.239h5.15a5.129 5.129 0 004.718-3.118l1.508-3.533m35.282-44.545l1.592 3.683 3.429 7.936c1.463 3.387-1.02 7.165-4.709 7.165h-16.755c-3.683 0-6.166-3.767-4.715-7.152l9.28-21.641c1.421-3.315 6.119-3.322 7.549-.01v0m111.111 18.49v3.683-8.471m38.128-20.503V23.783a5.13 5.13 0 015.13-5.13h30.284c7.46 0 13.936 1.227 19.429 3.683 5.575 2.455 9.837 5.974 12.789 10.558 2.951 4.583 4.426 10.026 4.426 16.328 0 6.22-1.475 11.664-4.426 16.33-2.952 4.583-7.214 8.102-12.789 10.557-5.493 2.456-11.969 3.684-19.429 3.684h-14.299a5.13 5.13 0 00-5.13 5.13v14.54a5.13 5.13 0 01-5.13 5.13h-5.725a5.13 5.13 0 01-5.13-5.13V61.868m0-18.49v-5.116m45.632 26.352c1.884-.698 3.52-1.613 4.907-2.746 3.607-2.947 5.411-7.162 5.411-12.646 0-5.483-1.804-9.699-5.411-12.645-3.607-2.947-8.894-4.42-15.863-4.42h-13.561a5.13 5.13 0 00-5.13 5.13v23.87a5.13 5.13 0 005.13 5.13h14.299m123.435-26.32c.821 2.846 1.232 5.931 1.232 9.255 0 6.22-1.476 11.664-4.427 16.33-2.951 4.583-7.214 8.102-12.789 10.557-5.492 2.456-11.968 3.684-19.428 3.684h-15.469a3.96 3.96 0 00-3.96 3.96v2.253M128.883 51.05V23.782a5.13 5.13 0 00-5.13-5.13h-5.725a5.13 5.13 0 00-5.13 5.13v75.68a5.13 5.13 0 005.13 5.131h5.725a5.13 5.13 0 005.13-5.13V60.429m51.503-6.05H173.281a5.13 5.13 0 01-5.13-5.13V37.164a5.13 5.13 0 015.13-5.13h36.591a5.13 5.13 0 005.13-5.13v-3.122a5.13 5.13 0 00-5.13-5.13h-52.576a5.13 5.13 0 00-5.13 5.13v75.68a5.13 5.13 0 005.13 5.131h35.045m5.977-50.214h.854m-6.831 0h6.831m0 0h5.412a5.13 5.13 0 015.13 5.13v2.877a5.13 5.13 0 01-5.13 5.13h-31.303a5.13 5.13 0 00-5.13 5.13V86.08a5.13 5.13 0 005.13 5.13h17.352m1.804 0h-1.804m13.663 0h1.708m-15.371 0h15.371m0 0H211.593a5.13 5.13 0 015.13 5.13v3.123a5.13 5.13 0 01-5.13 5.13h-9.859m43.551-72.436h1.59a5.13 5.13 0 015.13 5.13v62.176a5.13 5.13 0 005.13 5.13h5.726a5.13 5.13 0 005.13-5.13V37.287a5.13 5.13 0 015.13-5.13h18.269a5.13 5.13 0 005.13-5.13v-3.245a5.13 5.13 0 00-5.13-5.13h-62.783a5.13 5.13 0 00-5.13 5.13v3.245a5.13 5.13 0 005.13 5.13h4.723m75.186-.122v-8.253a5.13 5.13 0 015.13-5.13h52.577a5.13 5.13 0 015.13 5.13v3.122a5.13 5.13 0 01-5.13 5.13h-36.591a5.13 5.13 0 00-5.13 5.13V49.25a5.13 5.13 0 005.13 5.13h31.303a5.13 5.13 0 015.13 5.13v2.877a5.13 5.13 0 01-5.13 5.13h-31.303a5.13 5.13 0 00-5.13 5.13V86.08a5.13 5.13 0 005.13 5.13h15.564m-36.68-43.57v51.823a5.13 5.13 0 005.13 5.13h54.298a5.13 5.13 0 005.13-5.13V96.34a5.13 5.13 0 00-5.13-5.13h-6.523m45.46-49.538v-4.385a5.13 5.13 0 015.13-5.13h13.561c6.968 0 12.255 1.474 15.862 4.42 3.607 2.947 5.411 7.162 5.411 12.645 0 5.484-1.804 9.74-5.411 12.769-3.607 2.946-8.894 4.42-15.862 4.42h-13.561a5.13 5.13 0 01-5.13-5.13V57.08M450.203 84.3l-.827-1.178-.987-1.41c-1.912-2.725-.723-6.497 2.078-8.296 3.134-2.014 5.698-4.513 7.691-7.498 3.197-4.665 4.796-10.23 4.796-16.697 0-6.302-1.476-11.745-4.427-16.328-2.951-4.584-7.214-8.103-12.789-10.558-5.492-2.456-11.968-3.684-19.429-3.684h-30.284a5.13 5.13 0 00-5.13 5.13v75.68a5.13 5.13 0 005.13 5.131h5.726a5.13 5.13 0 005.13-5.13V84.677a5.13 5.13 0 015.13-5.13h14.577c1.877-.007 3.711.835 4.786 2.374l14.308 20.48a5.133 5.133 0 004.206 2.192h4.679c4.152 0 6.584-4.676 4.201-8.075l-3.185-4.544M48.933 18.652c9.182 0 17.339 1.801 24.471 5.402 7.132 3.52 12.666 8.553 16.6 15.101 3.936 6.466 5.903 13.955 5.903 22.467 0 8.513-1.967 16.043-5.902 22.59-3.935 6.466-9.469 11.5-16.6 15.101-7.133 3.52-15.29 5.28-24.471 5.28H16.436a5.13 5.13 0 01-5.13-5.13v-75.68a5.13 5.13 0 015.13-5.13H48.934zm861.783 47.636c6.968 0 12.256-1.474 15.863-4.42 3.607-2.947 5.41-7.162 5.41-12.646 0-5.483-1.803-9.699-5.41-12.645-3.607-2.947-8.895-4.42-15.863-4.42h-13.561a5.13 5.13 0 00-5.13 5.13v23.87a5.13 5.13 0 005.13 5.13h13.561z" stroke="#B6FE9E" stroke-width="2.565" stroke-linecap="round" stroke-linejoin="round"/><g><g filter="url(#filter6_f)"><rect x="64.912" y="128.65" width="833" height="57" rx="28.5" fill="#EAEAEA" fill-opacity=".3"/></g><g filter="url(#filter7_f)"><path d="M109.208 156.479H89.912m0 0v17.804-35.16m0 17.356v-17.356m0 0h21.782m35.204 0v24.003c-.017 2.367-.54 4.427-1.57 6.182-1.03 1.755-2.487 3.107-4.371 4.057-1.867.934-4.017 1.401-6.448 1.401-3.702 0-6.673-1.006-8.91-3.019-2.222-2.028-3.373-4.83-3.454-8.404v-24.22m58.338 35.16h-20.357v-35.16m51.383 35.16h-20.357v-35.16m70.673 10.021c0-1.98-.507-3.775-1.522-5.385-1.014-1.61-2.447-2.865-4.298-3.767-1.835-.902-3.92-1.352-6.254-1.352-3.446 0-6.279.845-8.501 2.535-2.205 1.675-3.308 3.856-3.308 6.544 0 2.769 1.191 5.007 3.574 6.714 1.674 1.207 4.19 1.056 7.652 1.551 3.462.495 6.455.996 8.408 1.484 1.978.494 2.64 1.185 3.462 2.472.821 1.288 1.004 3.895 1.004 5.649 0 2.769-1.111 4.991-3.332 6.665-2.206 1.675-5.12 2.512-8.742 2.512-2.479 0-4.757-.443-6.834-1.328-2.061-.886-3.63-2.126-4.709-3.719-1.063-1.594-1.594-3.421-1.594-5.482m46.916-25.114h13.523-27.046 13.523zm0 0v35.16m42.747-12.388h-19.065m19.065 0l5.207 12.388-14.778-35.16m9.571 22.772l-9.571-22.772m-9.494 22.772l-5.165 12.388 14.659-35.16m-9.494 22.772l9.494-22.772m49.522 24.196c-.402 3.703-1.73 6.537-3.984 8.501-2.238 1.964-5.224 2.946-8.959 2.946-2.608 0-4.918-.652-6.931-1.956-1.996-1.304-3.541-3.148-4.636-5.53-1.095-2.399-1.65-5.136-1.666-8.211v-4.564c0-3.123.547-5.892 1.642-8.307 1.094-2.415 2.664-4.274 4.709-5.578 2.06-1.32 4.427-1.98 7.099-1.98 3.767 0 6.738 1.022 8.911 3.066 2.189 2.029 3.461 4.838 3.815 8.428m18.005 4.371l-5.839 5.93m5.839-5.93l15.146-15.382-20.985 21.312m5.839-5.93l20.024 19.778m-25.863-13.848v13.848-35.16m91.731 0l-9.008 35.16h-2.849l-7.969-27.505-.894-3.478-.869 3.478-8.162 27.505h-2.85l-8.983-35.16m71.647 17.356H481.01m0 0v17.804m0-17.804v-17.356m0 35.16h21.879m-21.879 0v-35.16m0 0h21.758m11.345 35.16v-35.16m0 35.16h11.76c3.574 0 6.359-.87 8.356-2.608 2.012-1.755 3.018-4.186 3.018-7.293 0-2.045-.628-3.848-1.883-5.409-1.24-1.562-2.747-2.044-4.791-2.494m-16.46 17.804v-17.804m0-17.356h10.384c3.767 0 6.625.78 8.573 2.342 1.948 1.546 2.922 3.832 2.922 6.858 0 1.819-.499 3.405-1.498 4.757-.982 1.337-2.199 2.819-3.921 3.399m-16.46-17.356v17.356m16.46 0h-16.46m108.942 0h-19.342m0 0v17.804h21.879m-21.879-17.804v-17.356h21.758m36.677 0l-13.089 35.16h-2.849l-13.089-35.16m61.043 35.16h-21.879v-35.16h21.758m-21.758 17.356h19.514m33.946 17.804h-20.357v-35.16m125.147 35.16h-21.879v-35.16h21.758m-21.758 17.356h19.642m29.179 2.967h-15.79v14.837-35.16h11.422c3.751 0 6.681.909 8.79 2.728 2.109 1.82 3.163 4.363 3.163 7.631 0 2.254-.66 4.242-1.98 5.965-1.32 1.723-3.384 3.339-5.605 3.999zm0 0l9.396 14.837m-300.512 0v-35.16h9.828c2.882 0 5.466.66 7.752 1.98 2.286 1.304 4.065 3.179 5.337 5.626 1.287 2.447 1.931 5.233 1.931 8.356v3.236c0 3.139-.636 5.924-1.907 8.355-1.272 2.431-3.067 4.306-5.385 5.627-2.303 1.32-4.951 1.98-7.945 1.98h-9.611zm194.443-15.673c0 3.236-.564 6.078-1.691 8.525-1.11 2.447-2.704 4.33-4.781 5.651-2.077 1.32-4.475 1.98-7.196 1.98-4.105 0-7.422-1.465-9.949-4.395-2.528-2.946-3.792-6.915-3.792-11.905v-3.623c0-3.203.564-6.037 1.691-8.5 1.143-2.479 2.753-4.379 4.829-5.699 2.077-1.336 4.468-2.004 7.172-2.004 2.705 0 5.088.652 7.148 1.956 2.077 1.304 3.679 3.147 4.806 5.53 1.127 2.382 1.715 5.143 1.763 8.283v4.201zm12.431.836v14.837-35.16h11.978c3.654 0 6.536.933 8.645 2.801 2.125 1.867 3.188 4.435 3.188 7.703 0 3.3-1.023 5.852-3.067 7.655-2.029 1.787-4.902 2.164-8.766 2.164h-11.978z" stroke="#F1F1F1" stroke-width="3" stroke-linecap="round" stroke-linejoin="round"/></g><g filter="url(#filter8_f)"><path d="M109.208 156.479H89.912m0 0v17.804-35.16m0 17.356v-17.356m0 0h21.782m35.204 0v24.003c-.017 2.367-.54 4.427-1.57 6.182-1.03 1.755-2.487 3.107-4.371 4.057-1.867.934-4.017 1.401-6.448 1.401-3.702 0-6.673-1.006-8.91-3.019-2.222-2.028-3.373-4.83-3.454-8.404v-24.22m58.338 35.16h-20.357v-35.16m51.383 35.16h-20.357v-35.16m70.673 10.021c0-1.98-.507-3.775-1.522-5.385-1.014-1.61-2.447-2.865-4.298-3.767-1.835-.902-3.92-1.352-6.254-1.352-3.446 0-6.279.845-8.501 2.535-2.205 1.675-3.308 3.856-3.308 6.544 0 2.769 1.191 5.007 3.574 6.714 1.674 1.207 4.19 1.056 7.652 1.551 3.462.495 6.455.996 8.408 1.484 1.978.494 2.64 1.185 3.462 2.472.821 1.288 1.004 3.895 1.004 5.649 0 2.769-1.111 4.991-3.332 6.665-2.206 1.675-5.12 2.512-8.742 2.512-2.479 0-4.757-.443-6.834-1.328-2.061-.886-3.63-2.126-4.709-3.719-1.063-1.594-1.594-3.421-1.594-5.482m46.916-25.114h13.523-27.046 13.523zm0 0v35.16m42.747-12.388h-19.065m19.065 0l5.207 12.388-14.778-35.16m9.571 22.772l-9.571-22.772m-9.494 22.772l-5.165 12.388 14.659-35.16m-9.494 22.772l9.494-22.772m49.522 24.196c-.402 3.703-1.73 6.537-3.984 8.501-2.238 1.964-5.224 2.946-8.959 2.946-2.608 0-4.918-.652-6.931-1.956-1.996-1.304-3.541-3.148-4.636-5.53-1.095-2.399-1.65-5.136-1.666-8.211v-4.564c0-3.123.547-5.892 1.642-8.307 1.094-2.415 2.664-4.274 4.709-5.578 2.06-1.32 4.427-1.98 7.099-1.98 3.767 0 6.738 1.022 8.911 3.066 2.189 2.029 3.461 4.838 3.815 8.428m18.005 4.371l-5.839 5.93m5.839-5.93l15.146-15.382-20.985 21.312m5.839-5.93l20.024 19.778m-25.863-13.848v13.848-35.16m91.731 0l-9.008 35.16h-2.849l-7.969-27.505-.894-3.478-.869 3.478-8.162 27.505h-2.85l-8.983-35.16m71.647 17.356H481.01m0 0v17.804m0-17.804v-17.356m0 35.16h21.879m-21.879 0v-35.16m0 0h21.758m11.345 35.16v-35.16m0 35.16h11.76c3.574 0 6.359-.87 8.356-2.608 2.012-1.755 3.018-4.186 3.018-7.293 0-2.045-.628-3.848-1.883-5.409-1.24-1.562-2.747-2.044-4.791-2.494m-16.46 17.804v-17.804m0-17.356h10.384c3.767 0 6.625.78 8.573 2.342 1.948 1.546 2.922 3.832 2.922 6.858 0 1.819-.499 3.405-1.498 4.757-.982 1.337-2.199 2.819-3.921 3.399m-16.46-17.356v17.356m16.46 0h-16.46m108.942 0h-19.342m0 0v17.804h21.879m-21.879-17.804v-17.356h21.758m36.677 0l-13.089 35.16h-2.849l-13.089-35.16m61.043 35.16h-21.879v-35.16h21.758m-21.758 17.356h19.514m33.946 17.804h-20.357v-35.16m125.147 35.16h-21.879v-35.16h21.758m-21.758 17.356h19.642m29.179 2.967h-15.79v14.837-35.16h11.422c3.751 0 6.681.909 8.79 2.728 2.109 1.82 3.163 4.363 3.163 7.631 0 2.254-.66 4.242-1.98 5.965-1.32 1.723-3.384 3.339-5.605 3.999zm0 0l9.396 14.837m-300.512 0v-35.16h9.828c2.882 0 5.466.66 7.752 1.98 2.286 1.304 4.065 3.179 5.337 5.626 1.287 2.447 1.931 5.233 1.931 8.356v3.236c0 3.139-.636 5.924-1.907 8.355-1.272 2.431-3.067 4.306-5.385 5.627-2.303 1.32-4.951 1.98-7.945 1.98h-9.611zm194.443-15.673c0 3.236-.564 6.078-1.691 8.525-1.11 2.447-2.704 4.33-4.781 5.651-2.077 1.32-4.475 1.98-7.196 1.98-4.105 0-7.422-1.465-9.949-4.395-2.528-2.946-3.792-6.915-3.792-11.905v-3.623c0-3.203.564-6.037 1.691-8.5 1.143-2.479 2.753-4.379 4.829-5.699 2.077-1.336 4.468-2.004 7.172-2.004 2.705 0 5.088.652 7.148 1.956 2.077 1.304 3.679 3.147 4.806 5.53 1.127 2.382 1.715 5.143 1.763 8.283v4.201zm12.431.836v14.837-35.16h11.978c3.654 0 6.536.933 8.645 2.801 2.125 1.867 3.188 4.435 3.188 7.703 0 3.3-1.023 5.852-3.067 7.655-2.029 1.787-4.902 2.164-8.766 2.164h-11.978z" stroke="#F1F1F1" stroke-width="3" stroke-linecap="round" stroke-linejoin="round"/></g><g filter="url(#filter9_d)"><path d="M109.208 156.479H89.912m0 0v17.804-35.16m0 17.356v-17.356m0 0h21.782m35.204 0v24.003c-.017 2.367-.54 4.427-1.57 6.182-1.03 1.755-2.487 3.107-4.371 4.057-1.867.934-4.017 1.401-6.448 1.401-3.702 0-6.673-1.006-8.91-3.019-2.222-2.028-3.373-4.83-3.454-8.404v-24.22m58.338 35.16h-20.357v-35.16m51.383 35.16h-20.357v-35.16m70.673 10.021c0-1.98-.507-3.775-1.522-5.385-1.014-1.61-2.447-2.865-4.298-3.767-1.835-.902-3.92-1.352-6.254-1.352-3.446 0-6.279.845-8.501 2.535-2.205 1.675-3.308 3.856-3.308 6.544 0 2.769 1.191 5.007 3.574 6.714 1.674 1.207 4.19 1.056 7.652 1.551 3.462.495 6.455.996 8.408 1.484 1.978.494 2.64 1.185 3.462 2.472.821 1.288 1.004 3.895 1.004 5.649 0 2.769-1.111 4.991-3.332 6.665-2.206 1.675-5.12 2.512-8.742 2.512-2.479 0-4.757-.443-6.834-1.328-2.061-.886-3.63-2.126-4.709-3.719-1.063-1.594-1.594-3.421-1.594-5.482m46.916-25.114h13.523-27.046 13.523zm0 0v35.16m42.747-12.388h-19.065m19.065 0l5.207 12.388-14.778-35.16m9.571 22.772l-9.571-22.772m-9.494 22.772l-5.165 12.388 14.659-35.16m-9.494 22.772l9.494-22.772m49.522 24.196c-.402 3.703-1.73 6.537-3.984 8.501-2.238 1.964-5.224 2.946-8.959 2.946-2.608 0-4.918-.652-6.931-1.956-1.996-1.304-3.541-3.148-4.636-5.53-1.095-2.399-1.65-5.136-1.666-8.211v-4.564c0-3.123.547-5.892 1.642-8.307 1.094-2.415 2.664-4.274 4.709-5.578 2.06-1.32 4.427-1.98 7.099-1.98 3.767 0 6.738 1.022 8.911 3.066 2.189 2.029 3.461 4.838 3.815 8.428m18.005 4.371l-5.839 5.93m5.839-5.93l15.146-15.382-20.985 21.312m5.839-5.93l20.024 19.778m-25.863-13.848v13.848-35.16m91.731 0l-9.008 35.16h-2.849l-7.969-27.505-.894-3.478-.869 3.478-8.162 27.505h-2.85l-8.983-35.16m71.647 17.356H481.01m0 0v17.804m0-17.804v-17.356m0 35.16h21.879m-21.879 0v-35.16m0 0h21.758m11.345 35.16v-35.16m0 35.16h11.76c3.574 0 6.359-.87 8.356-2.608 2.012-1.755 3.018-4.186 3.018-7.293 0-2.045-.628-3.848-1.883-5.409-1.24-1.562-2.747-2.044-4.791-2.494m-16.46 17.804v-17.804m0-17.356h10.384c3.767 0 6.625.78 8.573 2.342 1.948 1.546 2.922 3.832 2.922 6.858 0 1.819-.499 3.405-1.498 4.757-.982 1.337-2.199 2.819-3.921 3.399m-16.46-17.356v17.356m16.46 0h-16.46m108.942 0h-19.342m0 0v17.804h21.879m-21.879-17.804v-17.356h21.758m36.677 0l-13.089 35.16h-2.849l-13.089-35.16m61.043 35.16h-21.879v-35.16h21.758m-21.758 17.356h19.514m33.946 17.804h-20.357v-35.16m125.147 35.16h-21.879v-35.16h21.758m-21.758 17.356h19.642m29.179 2.967h-15.79v14.837-35.16h11.422c3.751 0 6.681.909 8.79 2.728 2.109 1.82 3.163 4.363 3.163 7.631 0 2.254-.66 4.242-1.98 5.965-1.32 1.723-3.384 3.339-5.605 3.999zm0 0l9.396 14.837m-300.512 0v-35.16h9.828c2.882 0 5.466.66 7.752 1.98 2.286 1.304 4.065 3.179 5.337 5.626 1.287 2.447 1.931 5.233 1.931 8.356v3.236c0 3.139-.636 5.924-1.907 8.355-1.272 2.431-3.067 4.306-5.385 5.627-2.303 1.32-4.951 1.98-7.945 1.98h-9.611zm194.443-15.673c0 3.236-.564 6.078-1.691 8.525-1.11 2.447-2.704 4.33-4.781 5.651-2.077 1.32-4.475 1.98-7.196 1.98-4.105 0-7.422-1.465-9.949-4.395-2.528-2.946-3.792-6.915-3.792-11.905v-3.623c0-3.203.564-6.037 1.691-8.5 1.143-2.479 2.753-4.379 4.829-5.699 2.077-1.336 4.468-2.004 7.172-2.004 2.705 0 5.088.652 7.148 1.956 2.077 1.304 3.679 3.147 4.806 5.53 1.127 2.382 1.715 5.143 1.763 8.283v4.201zm12.431.836v14.837-35.16h11.978c3.654 0 6.536.933 8.645 2.801 2.125 1.867 3.188 4.435 3.188 7.703 0 3.3-1.023 5.852-3.067 7.655-2.029 1.787-4.902 2.164-8.766 2.164h-11.978z" stroke="#F1F1F1" stroke-width="3" stroke-linecap="round" stroke-linejoin="round"/></g><path d="M109.208 156.479H89.912m0 0v17.804-35.16m0 17.356v-17.356m0 0h21.782m35.204 0v24.003c-.017 2.367-.54 4.427-1.57 6.182-1.03 1.755-2.487 3.107-4.371 4.057-1.867.934-4.017 1.401-6.448 1.401-3.702 0-6.673-1.006-8.91-3.019-2.222-2.028-3.373-4.83-3.454-8.404v-24.22m58.338 35.16h-20.357v-35.16m51.383 35.16h-20.357v-35.16m70.673 10.021c0-1.98-.507-3.775-1.522-5.385-1.014-1.61-2.447-2.865-4.298-3.767-1.835-.902-3.92-1.352-6.254-1.352-3.446 0-6.279.845-8.501 2.535-2.205 1.675-3.308 3.856-3.308 6.544 0 2.769 1.191 5.007 3.574 6.714 1.674 1.207 4.19 1.056 7.652 1.551 3.462.495 6.455.996 8.408 1.484 1.978.494 2.64 1.185 3.462 2.472.821 1.288 1.004 3.895 1.004 5.649 0 2.769-1.111 4.991-3.332 6.665-2.206 1.675-5.12 2.512-8.742 2.512-2.479 0-4.757-.443-6.834-1.328-2.061-.886-3.63-2.126-4.709-3.719-1.063-1.594-1.594-3.421-1.594-5.482m46.916-25.114h13.523-27.046 13.523zm0 0v35.16m42.747-12.388h-19.065m19.065 0l5.207 12.388-14.778-35.16m9.571 22.772l-9.571-22.772m-9.494 22.772l-5.165 12.388 14.659-35.16m-9.494 22.772l9.494-22.772m49.522 24.196c-.402 3.703-1.73 6.537-3.984 8.501-2.238 1.964-5.224 2.946-8.959 2.946-2.608 0-4.918-.652-6.931-1.956-1.996-1.304-3.541-3.148-4.636-5.53-1.095-2.399-1.65-5.136-1.666-8.211v-4.564c0-3.123.547-5.892 1.642-8.307 1.094-2.415 2.664-4.274 4.709-5.578 2.06-1.32 4.427-1.98 7.099-1.98 3.767 0 6.738 1.022 8.911 3.066 2.189 2.029 3.461 4.838 3.815 8.428m18.005 4.371l-5.839 5.93m5.839-5.93l15.146-15.382-20.985 21.312m5.839-5.93l20.024 19.778m-25.863-13.848v13.848-35.16m91.731 0l-9.008 35.16h-2.849l-7.969-27.505-.894-3.478-.869 3.478-8.162 27.505h-2.85l-8.983-35.16m71.647 17.356H481.01m0 0v17.804m0-17.804v-17.356m0 35.16h21.879m-21.879 0v-35.16m0 0h21.758m11.345 35.16v-35.16m0 35.16h11.76c3.574 0 6.359-.87 8.356-2.608 2.012-1.755 3.018-4.186 3.018-7.293 0-2.045-.628-3.848-1.883-5.409-1.24-1.562-2.747-2.044-4.791-2.494m-16.46 17.804v-17.804m0-17.356h10.384c3.767 0 6.625.78 8.573 2.342 1.948 1.546 2.922 3.832 2.922 6.858 0 1.819-.499 3.405-1.498 4.757-.982 1.337-2.199 2.819-3.921 3.399m-16.46-17.356v17.356m16.46 0h-16.46m108.942 0h-19.342m0 0v17.804h21.879m-21.879-17.804v-17.356h21.758m36.677 0l-13.089 35.16h-2.849l-13.089-35.16m61.043 35.16h-21.879v-35.16h21.758m-21.758 17.356h19.514m33.946 17.804h-20.357v-35.16m125.147 35.16h-21.879v-35.16h21.758m-21.758 17.356h19.642m29.179 2.967h-15.79v14.837-35.16h11.422c3.751 0 6.681.909 8.79 2.728 2.109 1.82 3.163 4.363 3.163 7.631 0 2.254-.66 4.242-1.98 5.965-1.32 1.723-3.384 3.339-5.605 3.999zm0 0l9.396 14.837m-300.512 0v-35.16h9.828c2.882 0 5.466.66 7.752 1.98 2.286 1.304 4.065 3.179 5.337 5.626 1.287 2.447 1.931 5.233 1.931 8.356v3.236c0 3.139-.636 5.924-1.907 8.355-1.272 2.431-3.067 4.306-5.385 5.627-2.303 1.32-4.951 1.98-7.945 1.98h-9.611zm194.443-15.673c0 3.236-.564 6.078-1.691 8.525-1.11 2.447-2.704 4.33-4.781 5.651-2.077 1.32-4.475 1.98-7.196 1.98-4.105 0-7.422-1.465-9.949-4.395-2.528-2.946-3.792-6.915-3.792-11.905v-3.623c0-3.203.564-6.037 1.691-8.5 1.143-2.479 2.753-4.379 4.829-5.699 2.077-1.336 4.468-2.004 7.172-2.004 2.705 0 5.088.652 7.148 1.956 2.077 1.304 3.679 3.147 4.806 5.53 1.127 2.382 1.715 5.143 1.763 8.283v4.201zm12.431.836v14.837-35.16h11.978c3.654 0 6.536.933 8.645 2.801 2.125 1.867 3.188 4.435 3.188 7.703 0 3.3-1.023 5.852-3.067 7.655-2.029 1.787-4.902 2.164-8.766 2.164h-11.978z" stroke="#F1F1F1" stroke-width="3" stroke-linecap="round" stroke-linejoin="round"/><path d="M109.208 155.489H89.912m0 0v17.804-35.16m0 17.356v-17.356m0 0h21.782m35.204 0v24.004c-.017 2.366-.54 4.427-1.57 6.182-1.03 1.755-2.487 3.107-4.371 4.057-1.867.934-4.017 1.4-6.448 1.4-3.702 0-6.673-1.006-8.91-3.018-2.222-2.029-3.373-4.83-3.454-8.404v-24.221m58.338 35.16h-20.357v-35.16m51.383 35.16h-20.357v-35.16m70.673 10.022c0-1.98-.507-3.775-1.522-5.385-1.014-1.61-2.447-2.866-4.298-3.767-1.835-.902-3.92-1.353-6.254-1.353-3.446 0-6.279.846-8.501 2.536-2.205 1.674-3.308 3.856-3.308 6.544 0 2.769 1.191 5.007 3.574 6.713 1.674 1.208 4.19 1.057 7.652 1.552 3.462.494 6.455.995 8.408 1.483 1.978.495 2.64 1.185 3.462 2.473.821 1.288 1.004 3.894 1.004 5.649 0 2.769-1.111 4.991-3.332 6.665-2.206 1.674-5.12 2.511-8.742 2.511-2.479 0-4.757-.442-6.834-1.328-2.061-.885-3.63-2.125-4.709-3.719-1.063-1.593-1.594-3.421-1.594-5.481m46.916-25.115h13.523-27.046 13.523zm0 0v35.16m42.747-12.388h-19.065m19.065 0l5.207 12.388-14.778-35.16m9.571 22.772l-9.571-22.772m-9.494 22.772l-5.165 12.388 14.659-35.16m-9.494 22.772l9.494-22.772m49.522 24.197c-.402 3.703-1.73 6.536-3.984 8.5-2.238 1.964-5.224 2.946-8.959 2.946-2.608 0-4.918-.652-6.931-1.956-1.996-1.304-3.541-3.147-4.636-5.53-1.095-2.398-1.65-5.135-1.666-8.21v-4.564c0-3.123.547-5.892 1.642-8.307 1.094-2.415 2.664-4.274 4.709-5.578 2.06-1.321 4.427-1.981 7.099-1.981 3.767 0 6.738 1.023 8.911 3.067 2.189 2.029 3.461 4.838 3.815 8.428m18.005 4.371l-5.839 5.93m5.839-5.93l15.146-15.383-20.985 21.313m5.839-5.93l20.024 19.777m-25.863-13.847v13.847-35.16m91.731 0l-9.008 35.16h-2.849l-7.969-27.505-.894-3.477-.869 3.477-8.162 27.505h-2.85l-8.983-35.16m71.647 17.356H481.01m0 0v17.804m0-17.804v-17.356m0 35.16h21.879m-21.879 0v-35.16m0 0h21.758m11.345 35.16v-35.16m0 35.16h11.76c3.574 0 6.359-.869 8.356-2.608 2.012-1.754 3.018-4.185 3.018-7.292 0-2.045-.628-3.848-1.883-5.41-1.24-1.561-2.747-2.043-4.791-2.494m-16.46 17.804v-17.804m0-17.356h10.384c3.767 0 6.625.781 8.573 2.343 1.948 1.545 2.922 3.831 2.922 6.858 0 1.819-.499 3.405-1.498 4.757-.982 1.336-2.199 2.819-3.921 3.398m-16.46-17.356v17.356m16.46 0h-16.46m108.942 0h-19.342m0 0v17.804h21.879m-21.879-17.804v-17.356h21.758m36.677 0l-13.089 35.16h-2.849l-13.089-35.16m61.043 35.16h-21.879v-35.16h21.758m-21.758 17.356h19.514m33.946 17.804h-20.357v-35.16m125.147 35.16h-21.879v-35.16h21.758m-21.758 17.356h19.642m29.179 2.968h-15.79v14.836-35.16h11.422c3.751 0 6.681.91 8.79 2.729 2.109 1.819 3.163 4.363 3.163 7.631 0 2.254-.66 4.242-1.98 5.965-1.32 1.722-3.384 3.339-5.605 3.999zm0 0l9.396 14.836m-300.512 0v-35.16h9.828c2.882 0 5.466.66 7.752 1.981 2.286 1.304 4.065 3.179 5.337 5.626 1.287 2.447 1.931 5.232 1.931 8.355v3.236c0 3.14-.636 5.925-1.907 8.356-1.272 2.431-3.067 4.306-5.385 5.626-2.303 1.32-4.951 1.98-7.945 1.98h-9.611zm194.443-15.672c0 3.236-.564 6.077-1.691 8.525-1.11 2.447-2.704 4.33-4.781 5.65-2.077 1.32-4.475 1.98-7.196 1.98-4.105 0-7.422-1.465-9.949-4.395-2.528-2.946-3.792-6.914-3.792-11.905v-3.622c0-3.204.564-6.037 1.691-8.5 1.143-2.479 2.753-4.379 4.829-5.699 2.077-1.337 4.468-2.005 7.172-2.005 2.705 0 5.088.652 7.148 1.956 2.077 1.304 3.679 3.148 4.806 5.53 1.127 2.383 1.715 5.144 1.763 8.283v4.202zm12.431.836v14.836-35.16h11.978c3.654 0 6.536.934 8.645 2.802 2.125 1.867 3.188 4.435 3.188 7.703 0 3.3-1.023 5.852-3.067 7.655-2.029 1.787-4.902 2.164-8.766 2.164h-11.978z" stroke="#fff" stroke-linecap="round" stroke-linejoin="round"/></g></g><defs><filter id="filter0_f" x="-70.703" y="-70.703" width="1098.41" height="262.406" filterUnits="userSpaceOnUse" color-interpolation-filters="sRGB"><feFlood flood-opacity="0" result="BackgroundImageFix"/><feBlend in="SourceGraphic" in2="BackgroundImageFix" result="shape"/><feGaussianBlur stdDeviation="35.351" result="effect1_foregroundBlur"/></filter><filter id="filter1_b" x="-4.684" y="3.713" width="968.771" height="119.147" filterUnits="userSpaceOnUse" color-interpolation-filters="sRGB"><feFlood flood-opacity="0" result="BackgroundImageFix"/><feGaussianBlur in="BackgroundImage" stdDeviation="6.712"/><feComposite in2="SourceAlpha" operator="in" result="effect1_backgroundBlur"/><feBlend in="SourceGraphic" in2="effect1_backgroundBlur" result="shape"/></filter><filter id="filter2_f" x="-4.684" y="3.713" width="968.771" height="119.147" filterUnits="userSpaceOnUse" color-interpolation-filters="sRGB"><feFlood flood-opacity="0" result="BackgroundImageFix"/><feBlend in="SourceGraphic" in2="BackgroundImageFix" result="shape"/><feGaussianBlur stdDeviation="6.712" result="effect1_foregroundBlur"/></filter><filter id="filter3_b" x="-4.684" y="3.713" width="968.771" height="119.147" filterUnits="userSpaceOnUse" color-interpolation-filters="sRGB"><feFlood flood-opacity="0" result="BackgroundImageFix"/><feGaussianBlur in="BackgroundImage" stdDeviation="6.712"/><feComposite in2="SourceAlpha" operator="in" result="effect1_backgroundBlur"/><feBlend in="SourceGraphic" in2="effect1_backgroundBlur" result="shape"/></filter><filter id="filter4_f" x="2.475" y="10.873" width="954.452" height="104.827" filterUnits="userSpaceOnUse" color-interpolation-filters="sRGB"><feFlood flood-opacity="0" result="BackgroundImageFix"/><feBlend in="SourceGraphic" in2="BackgroundImageFix" result="shape"/><feGaussianBlur stdDeviation="3.132" result="effect1_foregroundBlur"/></filter><filter id="filter5_d" x="4.893" y="17.138" width="949.617" height="102.558" filterUnits="userSpaceOnUse" color-interpolation-filters="sRGB"><feFlood flood-opacity="0" result="BackgroundImageFix"/><feColorMatrix in="SourceAlpha" values="0 0 0 0 0 0 0 0 0 0 0 0 0 0 0 0 0 0 127 0"/><feOffset dy="6.412"/><feGaussianBlur stdDeviation="1.924"/><feColorMatrix values="0 0 0 0 0 0 0 0 0 0 0 0 0 0 0 0 0 0 0.6 0"/><feBlend in2="BackgroundImageFix" result="effect1_dropShadow"/><feBlend in="SourceGraphic" in2="effect1_dropShadow" result="shape"/></filter><filter id="filter6_f" x="-162.088" y="-98.35" width="1287" height="511" filterUnits="userSpaceOnUse" color-interpolation-filters="sRGB"><feFlood flood-opacity="0" result="BackgroundImageFix"/><feBlend in="SourceGraphic" in2="BackgroundImageFix" result="shape"/><feGaussianBlur stdDeviation="113.5" result="effect1_foregroundBlur"/></filter><filter id="filter7_f" x="73.412" y="122.14" width="809.961" height="69.126" filterUnits="userSpaceOnUse" color-interpolation-filters="sRGB"><feFlood flood-opacity="0" result="BackgroundImageFix"/><feBlend in="SourceGraphic" in2="BackgroundImageFix" result="shape"/><feGaussianBlur stdDeviation="7.5" result="effect1_foregroundBlur"/></filter><filter id="filter8_f" x="81.412" y="130.14" width="793.961" height="53.126" filterUnits="userSpaceOnUse" color-interpolation-filters="sRGB"><feFlood flood-opacity="0" result="BackgroundImageFix"/><feBlend in="SourceGraphic" in2="BackgroundImageFix" result="shape"/><feGaussianBlur stdDeviation="3.5" result="effect1_foregroundBlur"/></filter><filter id="filter9_d" x="85.412" y="137.14" width="785.961" height="47.126" filterUnits="userSpaceOnUse" color-interpolation-filters="sRGB"><feFlood flood-opacity="0" result="BackgroundImageFix"/><feColorMatrix in="SourceAlpha" values="0 0 0 0 0 0 0 0 0 0 0 0 0 0 0 0 0 0 127 0"/><feOffset dy="5"/><feGaussianBlur stdDeviation="1.5"/><feColorMatrix values="0 0 0 0 0 0 0 0 0 0 0 0 0 0 0 0 0 0 0.6 0"/><feBlend in2="BackgroundImageFix" result="effect1_dropShadow"/><feBlend in="SourceGraphic" in2="effect1_dropShadow" result="shape"/></filter><clipPath id="clip0"><path fill="#fff" d="M0 0h957v186H0z"/></clipPath></defs></svg>