<svg width="957" height="186" viewBox="0 0 957 186" fill="none" xmlns="http://www.w3.org/2000/svg">
<g id="neon-h1" clip-path="url(#clip0)">
<g id="neon-sign">
<g id="heading">
<g id="Group 92" filter="url(#filter0_f)">
<rect id="Rectangle 2" opacity="0.14" width="478.981" height="121" rx="60.5" fill="#6DFC3C"/>
<rect id="Rectangle 3" opacity="0.14" x="478.02" width="478.981" height="121" rx="60.5" fill="#6DFC3C"/>
</g>
<g id="blur 15 px" filter="url(#filter1_b)">
<g id="Dieter Kaupp" filter="url(#filter2_f)">
<path d="M27.2914 92.1384V38.338C27.2914 35.5048 29.5882 33.208 32.4214 33.208H48.1958C54.5082 33.208 60.0417 34.4357 64.7964 36.8912C69.6331 39.2647 73.3221 42.7024 75.8635 47.204C78.4868 51.6238 79.7984 56.7802 79.7984 62.6732C79.7984 68.5662 78.4868 73.7636 75.8635 78.2652C73.3221 82.685 69.6331 86.1226 64.7964 88.578C60.0417 90.9516 54.5082 92.1384 48.1958 92.1384H40.852M749.889 67.5841C749.889 84.4447 742.634 92.875 728.124 92.875C713.532 92.875 706.236 84.4447 706.236 67.5841V24.8331C706.236 21.9999 703.939 19.7031 701.106 19.7031H695.38C692.547 19.7031 690.25 21.9999 690.25 24.8331V68.1979C690.25 80.6388 693.57 90.215 700.21 96.9265C706.851 103.556 716.114 106.871 728.001 106.871C739.888 106.871 749.11 103.556 755.669 96.9265C762.309 90.215 765.629 80.6388 765.629 68.1979V24.8331C765.629 21.9999 763.332 19.7031 760.499 19.7031H755.019C752.186 19.7031 749.889 21.9999 749.889 24.8331V37.6278V43.6436M943.671 33.9446C945.066 36.1104 946.131 38.4681 946.866 41.0177M943.671 33.9446L946.866 41.0177M943.671 33.9446C942.953 32.8289 942.157 31.7763 941.283 30.7867C938.567 27.7108 935.1 25.244 930.882 23.3863C925.39 20.9308 918.914 19.7031 911.454 19.7031H881.169C878.336 19.7031 876.039 21.9999 876.039 24.8331V100.513C876.039 103.347 878.336 105.643 881.169 105.643H886.895C889.728 105.643 892.025 103.347 892.025 100.513V95.5828M554.426 39.3125L539.629 54.6405C536.425 57.9602 530.809 55.6917 530.809 51.0776V24.8331C530.809 21.9999 528.512 19.7031 525.679 19.7031H519.953C517.12 19.7031 514.823 21.9999 514.823 24.8331V100.513C514.823 103.347 517.12 105.643 519.953 105.643H525.679C528.512 105.643 530.809 103.347 530.809 100.513V95.792V93.4763M561.01 32.4918L563.479 29.9341L571.842 21.2702C572.809 20.2688 574.141 19.7031 575.533 19.7031H579.439C583.934 19.7031 586.255 25.0742 583.175 28.3482L558.221 54.8728C556.465 56.7397 556.356 59.6165 557.966 61.6108L586.777 97.2905C589.486 100.646 587.098 105.643 582.786 105.643H577.213C575.703 105.643 574.268 104.977 573.294 103.823L548.104 73.9896C546.15 71.6752 542.627 71.5489 540.512 73.7175L532.266 82.1728C531.332 83.1309 530.809 84.4162 530.809 85.7545V86.6533M611.462 90.4673L612.143 88.8714C612.949 86.9809 614.806 85.7543 616.861 85.7543H653.141C655.187 85.7543 657.037 86.9695 657.849 88.8467L663.78 102.551C664.593 104.428 666.443 105.643 668.488 105.643H673.893C677.619 105.643 680.102 101.795 678.567 98.3998L644.348 22.7196C643.518 20.8832 641.689 19.7031 639.674 19.7031H630.559C628.542 19.7031 626.712 20.8858 625.883 22.7251L591.772 98.4054C590.242 101.8 592.725 105.643 596.449 105.643H601.599C603.654 105.643 605.511 104.417 606.317 102.526L607.825 98.9932M643.107 54.4475L644.699 58.1307L648.128 66.0669C649.591 69.4537 647.108 73.2316 643.419 73.2316H626.664C622.981 73.2316 620.498 69.4652 621.949 66.08L631.229 44.4384C632.65 41.1234 637.348 41.1169 638.778 44.428V44.428M749.889 62.9188V66.6019V58.1307M788.017 37.6278V29.9341V24.8331C788.017 21.9999 790.313 19.7031 793.147 19.7031H823.431C830.891 19.7031 837.367 20.9308 842.86 23.3863C848.435 25.8417 852.697 29.3612 855.649 33.9446C858.6 38.5281 860.075 43.971 860.075 50.2733C860.075 56.4937 858.6 61.9366 855.649 66.6019C852.697 71.1854 848.435 74.7048 842.86 77.1603C837.367 79.6157 830.891 80.8434 823.431 80.8434H809.132C806.299 80.8434 804.002 83.1402 804.002 85.9734V100.513C804.002 103.347 801.706 105.643 798.872 105.643H793.147C790.313 105.643 788.017 103.347 788.017 100.513V62.9188M788.017 44.428V39.3125M833.649 65.6646C835.533 64.9672 837.169 64.0519 838.556 62.9188C842.163 59.9722 843.967 55.7571 843.967 50.2733C843.967 44.7895 842.163 40.5743 838.556 37.6278C834.949 34.6813 829.662 33.208 822.693 33.208H809.132C806.299 33.208 804.002 35.5048 804.002 38.338V62.2086C804.002 65.0418 806.299 67.3385 809.132 67.3385H816.57H823.431M946.866 41.0177C947.687 43.8637 948.098 46.949 948.098 50.2733C948.098 56.4937 946.622 61.9366 943.671 66.6019C940.72 71.1854 936.457 74.7048 930.882 77.1603C925.39 79.6157 918.914 80.8434 911.454 80.8434H895.985C893.798 80.8434 892.025 82.6163 892.025 84.8034V84.8034V87.057M128.883 52.1012V24.8331C128.883 21.9999 126.587 19.7031 123.753 19.7031H118.028C115.194 19.7031 112.898 21.9999 112.898 24.8331V100.513C112.898 103.347 115.194 105.643 118.028 105.643H123.753C126.587 105.643 128.883 103.347 128.883 100.513V71.7106V61.4796M180.386 55.4297H176.116H173.281C170.448 55.4297 168.151 53.1329 168.151 50.2997V38.2152C168.151 35.382 170.448 33.0852 173.281 33.0852H209.872C212.705 33.0852 215.002 30.7885 215.002 27.9553V24.8331C215.002 21.9999 212.705 19.7031 209.872 19.7031H157.296C154.462 19.7031 152.166 21.9999 152.166 24.8331V100.513C152.166 103.347 154.462 105.643 157.296 105.643H188.071H192.341M198.318 55.4297H199.172M192.341 55.4297H199.172M199.172 55.4297H204.584C207.417 55.4297 209.714 57.7265 209.714 60.5597V63.4363C209.714 66.2695 207.417 68.5663 204.584 68.5663H173.281C170.448 68.5663 168.151 70.863 168.151 73.6962V87.1312C168.151 89.9644 170.448 92.2612 173.281 92.2612H186.363H190.633M192.437 92.2612H190.633M204.296 92.2612H206.004M190.633 92.2612H206.004M206.004 92.2612H210.652H211.593C214.427 92.2612 216.723 94.558 216.723 97.3912V100.513C216.723 103.347 214.427 105.643 211.593 105.643H210.628H201.734M245.285 33.208H246.875C249.709 33.208 252.005 35.5048 252.005 38.338V100.513C252.005 103.347 254.302 105.643 257.135 105.643H262.861C265.694 105.643 267.991 103.347 267.991 100.513V38.338C267.991 35.5048 270.288 33.208 273.121 33.208H291.39C294.223 33.208 296.52 30.9112 296.52 28.078V24.8331C296.52 21.9999 294.223 19.7031 291.39 19.7031H228.607C225.774 19.7031 223.477 21.9999 223.477 24.8331V28.078C223.477 30.9112 225.774 33.208 228.607 33.208H233.33M308.516 33.0852V30.7867V24.8331C308.516 21.9999 310.813 19.7031 313.646 19.7031H366.223C369.056 19.7031 371.353 21.9999 371.353 24.8331V27.9553C371.353 30.7885 369.056 33.0852 366.223 33.0852H329.632C326.799 33.0852 324.502 35.382 324.502 38.2152V50.2997C324.502 53.1329 326.799 55.4297 329.632 55.4297H360.935C363.768 55.4297 366.065 57.7265 366.065 60.5597V63.4363C366.065 66.2695 363.768 68.5663 360.935 68.5663H329.632C326.799 68.5663 324.502 70.863 324.502 73.6962V87.1312C324.502 89.9644 326.799 92.2612 329.632 92.2612H340.072H345.196M308.516 48.6909V100.513C308.516 103.347 310.813 105.643 313.646 105.643H367.944C370.778 105.643 373.074 103.347 373.074 100.513V97.3912C373.074 94.558 370.778 92.2612 367.944 92.2612H361.421M406.881 42.7228V39.3125V38.338C406.881 35.5048 409.177 33.208 412.011 33.208H425.572C432.54 33.208 437.827 34.6813 441.434 37.6278C445.041 40.5743 446.845 44.7895 446.845 50.2733C446.845 55.7571 445.041 60.0132 441.434 63.0415C437.827 65.9881 432.54 67.4613 425.572 67.4613H412.011C409.177 67.4613 406.881 65.1645 406.881 62.3313V58.1307M450.203 85.3519L449.376 84.1733L448.389 82.7643C446.477 80.0383 447.666 76.2668 450.467 74.4674C453.601 72.4541 456.165 69.9551 458.158 66.9702C461.355 62.3049 462.954 56.7392 462.954 50.2733C462.954 43.971 461.478 38.5281 458.527 33.9446C455.576 29.3612 451.313 25.8417 445.738 23.3863C440.246 20.9308 433.77 19.7031 426.309 19.7031H396.025C393.192 19.7031 390.895 21.9999 390.895 24.8331V100.513C390.895 103.347 393.192 105.643 396.025 105.643H401.751C404.584 105.643 406.881 103.347 406.881 100.513V85.7278C406.881 82.8946 409.177 80.5979 412.011 80.5979H426.309C426.404 80.5979 426.497 80.5977 426.588 80.5974C428.465 80.5905 430.299 81.4326 431.374 82.9715L445.682 103.451C446.642 104.825 448.212 105.643 449.888 105.643H454.567C458.719 105.643 461.151 100.968 458.768 97.5683L455.583 93.0251M48.9336 19.7031C58.1152 19.7031 66.272 21.5038 73.4041 25.1051C80.5362 28.6245 86.0697 33.6582 90.0047 40.206C93.9397 46.672 95.9071 54.161 95.9071 62.6732C95.9071 71.1854 93.9397 78.7154 90.0047 85.2632C86.0697 91.7292 80.5362 96.7628 73.4041 100.364C66.272 103.884 58.1152 105.643 48.9336 105.643H16.4356C13.6024 105.643 11.3057 103.347 11.3057 100.513V24.8331C11.3057 21.9999 13.6024 19.7031 16.4356 19.7031L30.1197 19.7031L39.5266 19.7031L48.9336 19.7031ZM910.716 67.3385C917.684 67.3385 922.972 65.8653 926.579 62.9188C930.186 59.9722 931.989 55.7571 931.989 50.2733C931.989 44.7895 930.186 40.5743 926.579 37.6278C922.972 34.6813 917.684 33.208 910.716 33.208H897.155C894.322 33.208 892.025 35.5048 892.025 38.338V62.2086C892.025 65.0418 894.322 67.3385 897.155 67.3385H910.716Z" stroke="#6DFC3C" stroke-width="5.12997" stroke-linecap="round" stroke-linejoin="round"/>
</g>
</g>
<g id="blur 7 px" filter="url(#filter3_b)">
<g id="Dieter Kaupp_2" filter="url(#filter4_f)">
<path d="M27.2914 92.1384V38.338C27.2914 35.5048 29.5882 33.208 32.4214 33.208H48.1958C54.5082 33.208 60.0417 34.4357 64.7964 36.8912C69.6331 39.2647 73.3221 42.7024 75.8635 47.204C78.4868 51.6238 79.7984 56.7802 79.7984 62.6732C79.7984 68.5662 78.4868 73.7636 75.8635 78.2652C73.3221 82.685 69.6331 86.1226 64.7964 88.578C60.0417 90.9516 54.5082 92.1384 48.1958 92.1384H40.852M749.889 67.5841C749.889 84.4447 742.634 92.875 728.124 92.875C713.532 92.875 706.236 84.4447 706.236 67.5841V24.8331C706.236 21.9999 703.939 19.7031 701.106 19.7031H695.38C692.547 19.7031 690.25 21.9999 690.25 24.8331V68.1979C690.25 80.6388 693.57 90.215 700.21 96.9265C706.851 103.556 716.114 106.871 728.001 106.871C739.888 106.871 749.11 103.556 755.669 96.9265C762.309 90.215 765.629 80.6388 765.629 68.1979V24.8331C765.629 21.9999 763.332 19.7031 760.499 19.7031H755.019C752.186 19.7031 749.889 21.9999 749.889 24.8331V37.6278V43.6436M943.671 33.9446C945.066 36.1104 946.131 38.4681 946.866 41.0177M943.671 33.9446L946.866 41.0177M943.671 33.9446C942.953 32.8289 942.157 31.7763 941.283 30.7867C938.567 27.7108 935.1 25.244 930.882 23.3863C925.39 20.9308 918.914 19.7031 911.454 19.7031H881.169C878.336 19.7031 876.039 21.9999 876.039 24.8331V100.513C876.039 103.347 878.336 105.643 881.169 105.643H886.895C889.728 105.643 892.025 103.347 892.025 100.513V95.5828M554.426 39.3125L539.629 54.6405C536.425 57.9602 530.809 55.6917 530.809 51.0776V24.8331C530.809 21.9999 528.512 19.7031 525.679 19.7031H519.953C517.12 19.7031 514.823 21.9999 514.823 24.8331V100.513C514.823 103.347 517.12 105.643 519.953 105.643H525.679C528.512 105.643 530.809 103.347 530.809 100.513V95.792V93.4763M561.01 32.4918L563.479 29.9341L571.842 21.2702C572.809 20.2688 574.141 19.7031 575.533 19.7031H579.439C583.934 19.7031 586.255 25.0742 583.175 28.3482L558.221 54.8728C556.465 56.7397 556.356 59.6165 557.966 61.6108L586.777 97.2905C589.486 100.646 587.098 105.643 582.786 105.643H577.213C575.703 105.643 574.268 104.977 573.294 103.823L548.104 73.9896C546.15 71.6752 542.627 71.5489 540.512 73.7175L532.266 82.1728C531.332 83.1309 530.809 84.4162 530.809 85.7545V86.6533M611.462 90.4673L612.143 88.8714C612.949 86.9809 614.806 85.7543 616.861 85.7543H653.141C655.187 85.7543 657.037 86.9695 657.849 88.8467L663.78 102.551C664.593 104.428 666.443 105.643 668.488 105.643H673.893C677.619 105.643 680.102 101.795 678.567 98.3998L644.348 22.7196C643.518 20.8832 641.689 19.7031 639.674 19.7031H630.559C628.542 19.7031 626.712 20.8858 625.883 22.7251L591.772 98.4054C590.242 101.8 592.725 105.643 596.449 105.643H601.599C603.654 105.643 605.511 104.417 606.317 102.526L607.825 98.9932M643.107 54.4475L644.699 58.1307L648.128 66.0669C649.591 69.4537 647.108 73.2316 643.419 73.2316H626.664C622.981 73.2316 620.498 69.4652 621.949 66.08L631.229 44.4384C632.65 41.1234 637.348 41.1169 638.778 44.428V44.428M749.889 62.9188V66.6019V58.1307M788.017 37.6278V29.9341V24.8331C788.017 21.9999 790.313 19.7031 793.147 19.7031H823.431C830.891 19.7031 837.367 20.9308 842.86 23.3863C848.435 25.8417 852.697 29.3612 855.649 33.9446C858.6 38.5281 860.075 43.971 860.075 50.2733C860.075 56.4937 858.6 61.9366 855.649 66.6019C852.697 71.1854 848.435 74.7048 842.86 77.1603C837.367 79.6157 830.891 80.8434 823.431 80.8434H809.132C806.299 80.8434 804.002 83.1402 804.002 85.9734V100.513C804.002 103.347 801.706 105.643 798.872 105.643H793.147C790.313 105.643 788.017 103.347 788.017 100.513V62.9188M788.017 44.428V39.3125M833.649 65.6646C835.533 64.9672 837.169 64.0519 838.556 62.9188C842.163 59.9722 843.967 55.7571 843.967 50.2733C843.967 44.7895 842.163 40.5743 838.556 37.6278C834.949 34.6813 829.662 33.208 822.693 33.208H809.132C806.299 33.208 804.002 35.5048 804.002 38.338V62.2086C804.002 65.0418 806.299 67.3385 809.132 67.3385H816.57H823.431M946.866 41.0177C947.687 43.8637 948.098 46.949 948.098 50.2733C948.098 56.4937 946.622 61.9366 943.671 66.6019C940.72 71.1854 936.457 74.7048 930.882 77.1603C925.39 79.6157 918.914 80.8434 911.454 80.8434H895.985C893.798 80.8434 892.025 82.6163 892.025 84.8034V84.8034V87.057M128.883 52.1012V24.8331C128.883 21.9999 126.587 19.7031 123.753 19.7031H118.028C115.194 19.7031 112.898 21.9999 112.898 24.8331V100.513C112.898 103.347 115.194 105.643 118.028 105.643H123.753C126.587 105.643 128.883 103.347 128.883 100.513V71.7106V61.4796M180.386 55.4297H176.116H173.281C170.448 55.4297 168.151 53.1329 168.151 50.2997V38.2152C168.151 35.382 170.448 33.0852 173.281 33.0852H209.872C212.705 33.0852 215.002 30.7885 215.002 27.9553V24.8331C215.002 21.9999 212.705 19.7031 209.872 19.7031H157.296C154.462 19.7031 152.166 21.9999 152.166 24.8331V100.513C152.166 103.347 154.462 105.643 157.296 105.643H188.071H192.341M198.318 55.4297H199.172M192.341 55.4297H199.172M199.172 55.4297H204.584C207.417 55.4297 209.714 57.7265 209.714 60.5597V63.4363C209.714 66.2695 207.417 68.5663 204.584 68.5663H173.281C170.448 68.5663 168.151 70.863 168.151 73.6962V87.1312C168.151 89.9644 170.448 92.2612 173.281 92.2612H186.363H190.633M192.437 92.2612H190.633M204.296 92.2612H206.004M190.633 92.2612H206.004M206.004 92.2612H210.652H211.593C214.427 92.2612 216.723 94.558 216.723 97.3912V100.513C216.723 103.347 214.427 105.643 211.593 105.643H210.628H201.734M245.285 33.208H246.875C249.709 33.208 252.005 35.5048 252.005 38.338V100.513C252.005 103.347 254.302 105.643 257.135 105.643H262.861C265.694 105.643 267.991 103.347 267.991 100.513V38.338C267.991 35.5048 270.288 33.208 273.121 33.208H291.39C294.223 33.208 296.52 30.9112 296.52 28.078V24.8331C296.52 21.9999 294.223 19.7031 291.39 19.7031H228.607C225.774 19.7031 223.477 21.9999 223.477 24.8331V28.078C223.477 30.9112 225.774 33.208 228.607 33.208H233.33M308.516 33.0852V30.7867V24.8331C308.516 21.9999 310.813 19.7031 313.646 19.7031H366.223C369.056 19.7031 371.353 21.9999 371.353 24.8331V27.9553C371.353 30.7885 369.056 33.0852 366.223 33.0852H329.632C326.799 33.0852 324.502 35.382 324.502 38.2152V50.2997C324.502 53.1329 326.799 55.4297 329.632 55.4297H360.935C363.768 55.4297 366.065 57.7265 366.065 60.5597V63.4363C366.065 66.2695 363.768 68.5663 360.935 68.5663H329.632C326.799 68.5663 324.502 70.863 324.502 73.6962V87.1312C324.502 89.9644 326.799 92.2612 329.632 92.2612H340.072H345.196M308.516 48.6909V100.513C308.516 103.347 310.813 105.643 313.646 105.643H367.944C370.778 105.643 373.074 103.347 373.074 100.513V97.3912C373.074 94.558 370.778 92.2612 367.944 92.2612H361.421M406.881 42.7228V39.3125V38.338C406.881 35.5048 409.177 33.208 412.011 33.208H425.572C432.54 33.208 437.827 34.6813 441.434 37.6278C445.041 40.5743 446.845 44.7895 446.845 50.2733C446.845 55.7571 445.041 60.0132 441.434 63.0415C437.827 65.9881 432.54 67.4613 425.572 67.4613H412.011C409.177 67.4613 406.881 65.1645 406.881 62.3313V58.1307M450.203 85.3519L449.376 84.1733L448.389 82.7643C446.477 80.0383 447.666 76.2668 450.467 74.4674C453.601 72.4541 456.165 69.9551 458.158 66.9702C461.355 62.3049 462.954 56.7392 462.954 50.2733C462.954 43.971 461.478 38.5281 458.527 33.9446C455.576 29.3612 451.313 25.8417 445.738 23.3863C440.246 20.9308 433.77 19.7031 426.309 19.7031H396.025C393.192 19.7031 390.895 21.9999 390.895 24.8331V100.513C390.895 103.347 393.192 105.643 396.025 105.643H401.751C404.584 105.643 406.881 103.347 406.881 100.513V85.7278C406.881 82.8946 409.177 80.5979 412.011 80.5979H426.309C426.404 80.5979 426.497 80.5977 426.588 80.5974C428.465 80.5905 430.299 81.4326 431.374 82.9715L445.682 103.451C446.642 104.825 448.212 105.643 449.888 105.643H454.567C458.719 105.643 461.151 100.968 458.768 97.5683L455.583 93.0251M48.9336 19.7031C58.1152 19.7031 66.272 21.5038 73.4041 25.1051C80.5362 28.6245 86.0697 33.6582 90.0047 40.206C93.9397 46.672 95.9071 54.161 95.9071 62.6732C95.9071 71.1854 93.9397 78.7154 90.0047 85.2632C86.0697 91.7292 80.5362 96.7628 73.4041 100.364C66.272 103.884 58.1152 105.643 48.9336 105.643H16.4356C13.6024 105.643 11.3057 103.347 11.3057 100.513V24.8331C11.3057 21.9999 13.6024 19.7031 16.4356 19.7031L30.1197 19.7031L39.5266 19.7031L48.9336 19.7031ZM910.716 67.3385C917.684 67.3385 922.972 65.8653 926.579 62.9188C930.186 59.9722 931.989 55.7571 931.989 50.2733C931.989 44.7895 930.186 40.5743 926.579 37.6278C922.972 34.6813 917.684 33.208 910.716 33.208H897.155C894.322 33.208 892.025 35.5048 892.025 38.338V62.2086C892.025 65.0418 894.322 67.3385 897.155 67.3385H910.716Z" stroke="#6DFC3C" stroke-width="5.12997" stroke-linecap="round" stroke-linejoin="round"/>
</g>
</g>
<g id="neon shadow" filter="url(#filter5_d)">
<path id="Dieter Kaupp_3" d="M27.2914 92.1384V38.338C27.2914 35.5048 29.5882 33.208 32.4214 33.208H48.1958C54.5082 33.208 60.0417 34.4357 64.7964 36.8912C69.6331 39.2647 73.3221 42.7024 75.8635 47.204C78.4868 51.6238 79.7984 56.7802 79.7984 62.6732C79.7984 68.5662 78.4868 73.7636 75.8635 78.2652C73.3221 82.685 69.6331 86.1226 64.7964 88.578C60.0417 90.9516 54.5082 92.1384 48.1958 92.1384H40.852M749.889 67.5841C749.889 84.4447 742.634 92.875 728.124 92.875C713.532 92.875 706.236 84.4447 706.236 67.5841V24.8331C706.236 21.9999 703.939 19.7031 701.106 19.7031H695.38C692.547 19.7031 690.25 21.9999 690.25 24.8331V68.1979C690.25 80.6388 693.57 90.215 700.21 96.9265C706.851 103.556 716.114 106.871 728.001 106.871C739.888 106.871 749.11 103.556 755.669 96.9265C762.309 90.215 765.629 80.6388 765.629 68.1979V24.8331C765.629 21.9999 763.332 19.7031 760.499 19.7031H755.019C752.186 19.7031 749.889 21.9999 749.889 24.8331V37.6278V43.6436M943.671 33.9446C945.066 36.1104 946.131 38.4681 946.866 41.0177M943.671 33.9446L946.866 41.0177M943.671 33.9446C942.953 32.8289 942.157 31.7763 941.283 30.7867C938.567 27.7108 935.1 25.244 930.882 23.3863C925.39 20.9308 918.914 19.7031 911.454 19.7031H881.169C878.336 19.7031 876.039 21.9999 876.039 24.8331V100.513C876.039 103.347 878.336 105.643 881.169 105.643H886.895C889.728 105.643 892.025 103.347 892.025 100.513V95.5828M554.426 39.3125L539.629 54.6405C536.425 57.9602 530.809 55.6917 530.809 51.0776V24.8331C530.809 21.9999 528.512 19.7031 525.679 19.7031H519.953C517.12 19.7031 514.823 21.9999 514.823 24.8331V100.513C514.823 103.347 517.12 105.643 519.953 105.643H525.679C528.512 105.643 530.809 103.347 530.809 100.513V95.792V93.4763M561.01 32.4918L563.479 29.9341L571.842 21.2702C572.809 20.2688 574.141 19.7031 575.533 19.7031H579.439C583.934 19.7031 586.255 25.0742 583.175 28.3482L558.221 54.8728C556.465 56.7397 556.356 59.6165 557.966 61.6108L586.777 97.2905C589.486 100.646 587.098 105.643 582.786 105.643H577.213C575.703 105.643 574.268 104.977 573.294 103.823L548.104 73.9896C546.15 71.6752 542.627 71.5489 540.512 73.7175L532.266 82.1728C531.332 83.1309 530.809 84.4162 530.809 85.7545V86.6533M611.462 90.4673L612.143 88.8714C612.949 86.9809 614.806 85.7543 616.861 85.7543H653.141C655.187 85.7543 657.037 86.9695 657.849 88.8467L663.78 102.551C664.593 104.428 666.443 105.643 668.488 105.643H673.893C677.619 105.643 680.102 101.795 678.567 98.3998L644.348 22.7196C643.518 20.8832 641.689 19.7031 639.674 19.7031H630.559C628.542 19.7031 626.712 20.8858 625.883 22.7251L591.772 98.4054C590.242 101.8 592.725 105.643 596.449 105.643H601.599C603.654 105.643 605.511 104.417 606.317 102.526L607.825 98.9932M643.107 54.4475L644.699 58.1307L648.128 66.0669C649.591 69.4537 647.108 73.2316 643.419 73.2316H626.664C622.981 73.2316 620.498 69.4652 621.949 66.08L631.229 44.4384C632.65 41.1234 637.348 41.1169 638.778 44.428V44.428M749.889 62.9188V66.6019V58.1307M788.017 37.6278V29.9341V24.8331C788.017 21.9999 790.313 19.7031 793.147 19.7031H823.431C830.891 19.7031 837.367 20.9308 842.86 23.3863C848.435 25.8417 852.697 29.3612 855.649 33.9446C858.6 38.5281 860.075 43.971 860.075 50.2733C860.075 56.4937 858.6 61.9366 855.649 66.6019C852.697 71.1854 848.435 74.7048 842.86 77.1603C837.367 79.6157 830.891 80.8434 823.431 80.8434H809.132C806.299 80.8434 804.002 83.1402 804.002 85.9734V100.513C804.002 103.347 801.706 105.643 798.872 105.643H793.147C790.313 105.643 788.017 103.347 788.017 100.513V62.9188M788.017 44.428V39.3125M833.649 65.6646C835.533 64.9672 837.169 64.0519 838.556 62.9188C842.163 59.9722 843.967 55.7571 843.967 50.2733C843.967 44.7895 842.163 40.5743 838.556 37.6278C834.949 34.6813 829.662 33.208 822.693 33.208H809.132C806.299 33.208 804.002 35.5048 804.002 38.338V62.2086C804.002 65.0418 806.299 67.3385 809.132 67.3385H816.57H823.431M946.866 41.0177C947.687 43.8637 948.098 46.949 948.098 50.2733C948.098 56.4937 946.622 61.9366 943.671 66.6019C940.72 71.1854 936.457 74.7048 930.882 77.1603C925.39 79.6157 918.914 80.8434 911.454 80.8434H895.985C893.798 80.8434 892.025 82.6163 892.025 84.8034V84.8034V87.057M128.883 52.1012V24.8331C128.883 21.9999 126.587 19.7031 123.753 19.7031H118.028C115.194 19.7031 112.898 21.9999 112.898 24.8331V100.513C112.898 103.347 115.194 105.643 118.028 105.643H123.753C126.587 105.643 128.883 103.347 128.883 100.513V71.7106V61.4796M180.386 55.4297H176.116H173.281C170.448 55.4297 168.151 53.1329 168.151 50.2997V38.2152C168.151 35.382 170.448 33.0852 173.281 33.0852H209.872C212.705 33.0852 215.002 30.7885 215.002 27.9553V24.8331C215.002 21.9999 212.705 19.7031 209.872 19.7031H157.296C154.462 19.7031 152.166 21.9999 152.166 24.8331V100.513C152.166 103.347 154.462 105.643 157.296 105.643H188.071H192.341M198.318 55.4297H199.172M192.341 55.4297H199.172M199.172 55.4297H204.584C207.417 55.4297 209.714 57.7265 209.714 60.5597V63.4363C209.714 66.2695 207.417 68.5663 204.584 68.5663H173.281C170.448 68.5663 168.151 70.863 168.151 73.6962V87.1312C168.151 89.9644 170.448 92.2612 173.281 92.2612H186.363H190.633M192.437 92.2612H190.633M204.296 92.2612H206.004M190.633 92.2612H206.004M206.004 92.2612H210.652H211.593C214.427 92.2612 216.723 94.558 216.723 97.3912V100.513C216.723 103.347 214.427 105.643 211.593 105.643H210.628H201.734M245.285 33.208H246.875C249.709 33.208 252.005 35.5048 252.005 38.338V100.513C252.005 103.347 254.302 105.643 257.135 105.643H262.861C265.694 105.643 267.991 103.347 267.991 100.513V38.338C267.991 35.5048 270.288 33.208 273.121 33.208H291.39C294.223 33.208 296.52 30.9112 296.52 28.078V24.8331C296.52 21.9999 294.223 19.7031 291.39 19.7031H228.607C225.774 19.7031 223.477 21.9999 223.477 24.8331V28.078C223.477 30.9112 225.774 33.208 228.607 33.208H233.33M308.516 33.0852V30.7867V24.8331C308.516 21.9999 310.813 19.7031 313.646 19.7031H366.223C369.056 19.7031 371.353 21.9999 371.353 24.8331V27.9553C371.353 30.7885 369.056 33.0852 366.223 33.0852H329.632C326.799 33.0852 324.502 35.382 324.502 38.2152V50.2997C324.502 53.1329 326.799 55.4297 329.632 55.4297H360.935C363.768 55.4297 366.065 57.7265 366.065 60.5597V63.4363C366.065 66.2695 363.768 68.5663 360.935 68.5663H329.632C326.799 68.5663 324.502 70.863 324.502 73.6962V87.1312C324.502 89.9644 326.799 92.2612 329.632 92.2612H340.072H345.196M308.516 48.6909V100.513C308.516 103.347 310.813 105.643 313.646 105.643H367.944C370.778 105.643 373.074 103.347 373.074 100.513V97.3912C373.074 94.558 370.778 92.2612 367.944 92.2612H361.421M406.881 42.7228V39.3125V38.338C406.881 35.5048 409.177 33.208 412.011 33.208H425.572C432.54 33.208 437.827 34.6813 441.434 37.6278C445.041 40.5743 446.845 44.7895 446.845 50.2733C446.845 55.7571 445.041 60.0132 441.434 63.0415C437.827 65.9881 432.54 67.4613 425.572 67.4613H412.011C409.177 67.4613 406.881 65.1645 406.881 62.3313V58.1307M450.203 85.3519L449.376 84.1733L448.389 82.7643C446.477 80.0383 447.666 76.2668 450.467 74.4674C453.601 72.4541 456.165 69.9551 458.158 66.9702C461.355 62.3049 462.954 56.7392 462.954 50.2733C462.954 43.971 461.478 38.5281 458.527 33.9446C455.576 29.3612 451.313 25.8417 445.738 23.3863C440.246 20.9308 433.77 19.7031 426.309 19.7031H396.025C393.192 19.7031 390.895 21.9999 390.895 24.8331V100.513C390.895 103.347 393.192 105.643 396.025 105.643H401.751C404.584 105.643 406.881 103.347 406.881 100.513V85.7278C406.881 82.8946 409.177 80.5979 412.011 80.5979H426.309C426.404 80.5979 426.497 80.5977 426.588 80.5974C428.465 80.5905 430.299 81.4326 431.374 82.9715L445.682 103.451C446.642 104.825 448.212 105.643 449.888 105.643H454.567C458.719 105.643 461.151 100.968 458.768 97.5683L455.583 93.0251M48.9336 19.7031C58.1152 19.7031 66.272 21.5038 73.4041 25.1051C80.5362 28.6245 86.0697 33.6582 90.0047 40.206C93.9397 46.672 95.9071 54.161 95.9071 62.6732C95.9071 71.1854 93.9397 78.7154 90.0047 85.2632C86.0697 91.7292 80.5362 96.7628 73.4041 100.364C66.272 103.884 58.1152 105.643 48.9336 105.643H16.4356C13.6024 105.643 11.3057 103.347 11.3057 100.513V24.8331C11.3057 21.9999 13.6024 19.7031 16.4356 19.7031L30.1197 19.7031L39.5266 19.7031L48.9336 19.7031ZM910.716 67.3385C917.684 67.3385 922.972 65.8653 926.579 62.9188C930.186 59.9722 931.989 55.7571 931.989 50.2733C931.989 44.7895 930.186 40.5743 926.579 37.6278C922.972 34.6813 917.684 33.208 910.716 33.208H897.155C894.322 33.208 892.025 35.5048 892.025 38.338V62.2086C892.025 65.0418 894.322 67.3385 897.155 67.3385H910.716Z" stroke="#6DFC3C" stroke-width="5.12997" stroke-linecap="round" stroke-linejoin="round"/>
</g>
<g id="neon">
<path id="Dieter Kaupp_4" d="M27.2914 92.1384V38.338C27.2914 35.5048 29.5882 33.208 32.4214 33.208H48.1958C54.5082 33.208 60.0417 34.4357 64.7964 36.8912C69.6331 39.2647 73.3221 42.7024 75.8635 47.204C78.4868 51.6238 79.7984 56.7802 79.7984 62.6732C79.7984 68.5662 78.4868 73.7636 75.8635 78.2652C73.3221 82.685 69.6331 86.1226 64.7964 88.578C60.0417 90.9516 54.5082 92.1384 48.1958 92.1384H40.852M749.889 67.5841C749.889 84.4447 742.634 92.875 728.124 92.875C713.532 92.875 706.236 84.4447 706.236 67.5841V24.8331C706.236 21.9999 703.939 19.7031 701.106 19.7031H695.38C692.547 19.7031 690.25 21.9999 690.25 24.8331V68.1979C690.25 80.6388 693.57 90.215 700.21 96.9265C706.851 103.556 716.114 106.871 728.001 106.871C739.888 106.871 749.11 103.556 755.669 96.9265C762.309 90.215 765.629 80.6388 765.629 68.1979V24.8331C765.629 21.9999 763.332 19.7031 760.499 19.7031H755.019C752.186 19.7031 749.889 21.9999 749.889 24.8331V37.6278V43.6436M943.671 33.9446C945.066 36.1104 946.131 38.4681 946.866 41.0177M943.671 33.9446L946.866 41.0177M943.671 33.9446C942.953 32.8289 942.157 31.7763 941.283 30.7867C938.567 27.7108 935.1 25.244 930.882 23.3863C925.39 20.9308 918.914 19.7031 911.454 19.7031H881.169C878.336 19.7031 876.039 21.9999 876.039 24.8331V100.513C876.039 103.347 878.336 105.643 881.169 105.643H886.895C889.728 105.643 892.025 103.347 892.025 100.513V95.5828M554.426 39.3125L539.629 54.6405C536.425 57.9602 530.809 55.6917 530.809 51.0776V24.8331C530.809 21.9999 528.512 19.7031 525.679 19.7031H519.953C517.12 19.7031 514.823 21.9999 514.823 24.8331V100.513C514.823 103.347 517.12 105.643 519.953 105.643H525.679C528.512 105.643 530.809 103.347 530.809 100.513V95.792V93.4763M561.01 32.4918L563.479 29.9341L571.842 21.2702C572.809 20.2688 574.141 19.7031 575.533 19.7031H579.439C583.934 19.7031 586.255 25.0742 583.175 28.3482L558.221 54.8728C556.465 56.7397 556.356 59.6165 557.966 61.6108L586.777 97.2905C589.486 100.646 587.098 105.643 582.786 105.643H577.213C575.703 105.643 574.268 104.977 573.294 103.823L548.104 73.9896C546.15 71.6752 542.627 71.5489 540.512 73.7175L532.266 82.1728C531.332 83.1309 530.809 84.4162 530.809 85.7545V86.6533M611.462 90.4673L612.143 88.8714C612.949 86.9809 614.806 85.7543 616.861 85.7543H653.141C655.187 85.7543 657.037 86.9695 657.849 88.8467L663.78 102.551C664.593 104.428 666.443 105.643 668.488 105.643H673.893C677.619 105.643 680.102 101.795 678.567 98.3998L644.348 22.7196C643.518 20.8832 641.689 19.7031 639.674 19.7031H630.559C628.542 19.7031 626.712 20.8858 625.883 22.7251L591.772 98.4054C590.242 101.8 592.725 105.643 596.449 105.643H601.599C603.654 105.643 605.511 104.417 606.317 102.526L607.825 98.9932M643.107 54.4475L644.699 58.1307L648.128 66.0669C649.591 69.4537 647.108 73.2316 643.419 73.2316H626.664C622.981 73.2316 620.498 69.4652 621.949 66.08L631.229 44.4384C632.65 41.1234 637.348 41.1169 638.778 44.428V44.428M749.889 62.9188V66.6019V58.1307M788.017 37.6278V29.9341V24.8331C788.017 21.9999 790.313 19.7031 793.147 19.7031H823.431C830.891 19.7031 837.367 20.9308 842.86 23.3863C848.435 25.8417 852.697 29.3612 855.649 33.9446C858.6 38.5281 860.075 43.971 860.075 50.2733C860.075 56.4937 858.6 61.9366 855.649 66.6019C852.697 71.1854 848.435 74.7048 842.86 77.1603C837.367 79.6157 830.891 80.8434 823.431 80.8434H809.132C806.299 80.8434 804.002 83.1402 804.002 85.9734V100.513C804.002 103.347 801.706 105.643 798.872 105.643H793.147C790.313 105.643 788.017 103.347 788.017 100.513V62.9188M788.017 44.428V39.3125M833.649 65.6646C835.533 64.9672 837.169 64.0519 838.556 62.9188C842.163 59.9722 843.967 55.7571 843.967 50.2733C843.967 44.7895 842.163 40.5743 838.556 37.6278C834.949 34.6813 829.662 33.208 822.693 33.208H809.132C806.299 33.208 804.002 35.5048 804.002 38.338V62.2086C804.002 65.0418 806.299 67.3385 809.132 67.3385H816.57H823.431M946.866 41.0177C947.687 43.8637 948.098 46.949 948.098 50.2733C948.098 56.4937 946.622 61.9366 943.671 66.6019C940.72 71.1854 936.457 74.7048 930.882 77.1603C925.39 79.6157 918.914 80.8434 911.454 80.8434H895.985C893.798 80.8434 892.025 82.6163 892.025 84.8034V84.8034V87.057M128.883 52.1012V24.8331C128.883 21.9999 126.587 19.7031 123.753 19.7031H118.028C115.194 19.7031 112.898 21.9999 112.898 24.8331V100.513C112.898 103.347 115.194 105.643 118.028 105.643H123.753C126.587 105.643 128.883 103.347 128.883 100.513V71.7106V61.4796M180.386 55.4297H176.116H173.281C170.448 55.4297 168.151 53.1329 168.151 50.2997V38.2152C168.151 35.382 170.448 33.0852 173.281 33.0852H209.872C212.705 33.0852 215.002 30.7885 215.002 27.9553V24.8331C215.002 21.9999 212.705 19.7031 209.872 19.7031H157.296C154.462 19.7031 152.166 21.9999 152.166 24.8331V100.513C152.166 103.347 154.462 105.643 157.296 105.643H188.071H192.341M198.318 55.4297H199.172M192.341 55.4297H199.172M199.172 55.4297H204.584C207.417 55.4297 209.714 57.7265 209.714 60.5597V63.4363C209.714 66.2695 207.417 68.5663 204.584 68.5663H173.281C170.448 68.5663 168.151 70.863 168.151 73.6962V87.1312C168.151 89.9644 170.448 92.2612 173.281 92.2612H186.363H190.633M192.437 92.2612H190.633M204.296 92.2612H206.004M190.633 92.2612H206.004M206.004 92.2612H210.652H211.593C214.427 92.2612 216.723 94.558 216.723 97.3912V100.513C216.723 103.347 214.427 105.643 211.593 105.643H210.628H201.734M245.285 33.208H246.875C249.709 33.208 252.005 35.5048 252.005 38.338V100.513C252.005 103.347 254.302 105.643 257.135 105.643H262.861C265.694 105.643 267.991 103.347 267.991 100.513V38.338C267.991 35.5048 270.288 33.208 273.121 33.208H291.39C294.223 33.208 296.52 30.9112 296.52 28.078V24.8331C296.52 21.9999 294.223 19.7031 291.39 19.7031H228.607C225.774 19.7031 223.477 21.9999 223.477 24.8331V28.078C223.477 30.9112 225.774 33.208 228.607 33.208H233.33M308.516 33.0852V30.7867V24.8331C308.516 21.9999 310.813 19.7031 313.646 19.7031H366.223C369.056 19.7031 371.353 21.9999 371.353 24.8331V27.9553C371.353 30.7885 369.056 33.0852 366.223 33.0852H329.632C326.799 33.0852 324.502 35.382 324.502 38.2152V50.2997C324.502 53.1329 326.799 55.4297 329.632 55.4297H360.935C363.768 55.4297 366.065 57.7265 366.065 60.5597V63.4363C366.065 66.2695 363.768 68.5663 360.935 68.5663H329.632C326.799 68.5663 324.502 70.863 324.502 73.6962V87.1312C324.502 89.9644 326.799 92.2612 329.632 92.2612H340.072H345.196M308.516 48.6909V100.513C308.516 103.347 310.813 105.643 313.646 105.643H367.944C370.778 105.643 373.074 103.347 373.074 100.513V97.3912C373.074 94.558 370.778 92.2612 367.944 92.2612H361.421M406.881 42.7228V39.3125V38.338C406.881 35.5048 409.177 33.208 412.011 33.208H425.572C432.54 33.208 437.827 34.6813 441.434 37.6278C445.041 40.5743 446.845 44.7895 446.845 50.2733C446.845 55.7571 445.041 60.0132 441.434 63.0415C437.827 65.9881 432.54 67.4613 425.572 67.4613H412.011C409.177 67.4613 406.881 65.1645 406.881 62.3313V58.1307M450.203 85.3519L449.376 84.1733L448.389 82.7643C446.477 80.0383 447.666 76.2668 450.467 74.4674C453.601 72.4541 456.165 69.9551 458.158 66.9702C461.355 62.3049 462.954 56.7392 462.954 50.2733C462.954 43.971 461.478 38.5281 458.527 33.9446C455.576 29.3612 451.313 25.8417 445.738 23.3863C440.246 20.9308 433.77 19.7031 426.309 19.7031H396.025C393.192 19.7031 390.895 21.9999 390.895 24.8331V100.513C390.895 103.347 393.192 105.643 396.025 105.643H401.751C404.584 105.643 406.881 103.347 406.881 100.513V85.7278C406.881 82.8946 409.177 80.5979 412.011 80.5979H426.309C426.404 80.5979 426.497 80.5977 426.588 80.5974C428.465 80.5905 430.299 81.4326 431.374 82.9715L445.682 103.451C446.642 104.825 448.212 105.643 449.888 105.643H454.567C458.719 105.643 461.151 100.968 458.768 97.5683L455.583 93.0251M48.9336 19.7031C58.1152 19.7031 66.272 21.5038 73.4041 25.1051C80.5362 28.6245 86.0697 33.6582 90.0047 40.206C93.9397 46.672 95.9071 54.161 95.9071 62.6732C95.9071 71.1854 93.9397 78.7154 90.0047 85.2632C86.0697 91.7292 80.5362 96.7628 73.4041 100.364C66.272 103.884 58.1152 105.643 48.9336 105.643H16.4356C13.6024 105.643 11.3057 103.347 11.3057 100.513V24.8331C11.3057 21.9999 13.6024 19.7031 16.4356 19.7031L30.1197 19.7031L39.5266 19.7031L48.9336 19.7031ZM910.716 67.3385C917.684 67.3385 922.972 65.8653 926.579 62.9188C930.186 59.9722 931.989 55.7571 931.989 50.2733C931.989 44.7895 930.186 40.5743 926.579 37.6278C922.972 34.6813 917.684 33.208 910.716 33.208H897.155C894.322 33.208 892.025 35.5048 892.025 38.338V62.2086C892.025 65.0418 894.322 67.3385 897.155 67.3385H910.716Z" stroke="#6DFC3C" stroke-width="5.12997" stroke-linecap="round" stroke-linejoin="round"/>
</g>
<g id="outline">
<path id="Dieter Kaupp_5" d="M27.2914 91.0876V37.2872C27.2914 34.454 29.5882 32.1572 32.4214 32.1572H48.1958C54.5082 32.1572 60.0417 33.3849 64.7964 35.8404C69.6331 38.214 73.3221 41.6516 75.8635 46.1532C78.4868 50.573 79.7984 55.7294 79.7984 61.6224C79.7984 67.5155 78.4868 72.7128 75.8635 77.2144C73.3221 81.6342 69.6331 85.0718 64.7964 87.5273C60.0417 89.9008 54.5082 91.0876 48.1958 91.0876H40.852M749.889 66.5333C749.889 83.3939 742.634 91.8243 728.124 91.8243C713.532 91.8243 706.236 83.3939 706.236 66.5333V23.7823C706.236 20.9491 703.939 18.6523 701.106 18.6523H695.38C692.547 18.6523 690.25 20.9491 690.25 23.7823V67.1472C690.25 79.588 693.57 89.1642 700.21 95.8757C706.851 102.505 716.114 105.82 728.001 105.82C739.888 105.82 749.11 102.505 755.669 95.8757C762.309 89.1642 765.629 79.588 765.629 67.1472V23.7823C765.629 20.9491 763.332 18.6523 760.499 18.6523H755.019C752.186 18.6523 749.889 20.9491 749.889 23.7823V36.577V42.5928M943.671 32.8939C945.066 35.0596 946.131 37.4173 946.866 39.9669M943.671 32.8939L946.866 39.9669M943.671 32.8939C942.953 31.7782 942.157 30.7255 941.283 29.7359C938.567 26.66 935.1 24.1932 930.882 22.3355C925.39 19.8801 918.914 18.6523 911.454 18.6523H881.169C878.336 18.6523 876.039 20.9491 876.039 23.7823V99.4625C876.039 102.296 878.336 104.593 881.169 104.593H886.895C889.728 104.593 892.025 102.296 892.025 99.4625V94.5321M554.426 38.2617L539.629 53.5897C536.425 56.9094 530.809 54.6409 530.809 50.0268V23.7823C530.809 20.9491 528.512 18.6523 525.679 18.6523H519.953C517.12 18.6523 514.823 20.9491 514.823 23.7823V99.4625C514.823 102.296 517.12 104.593 519.953 104.593H525.679C528.512 104.593 530.809 102.296 530.809 99.4625V94.7412V92.4255M561.01 31.4411L563.479 28.8833L571.842 20.2194C572.809 19.218 574.141 18.6523 575.533 18.6523H579.439C583.934 18.6523 586.255 24.0234 583.175 27.2975L558.221 53.822C556.465 55.6889 556.356 58.5657 557.966 60.56L586.777 96.2397C589.486 99.5948 587.098 104.593 582.786 104.593H577.213C575.703 104.593 574.268 103.926 573.294 102.772L548.104 72.9388C546.15 70.6245 542.627 70.4982 540.512 72.6667L532.266 81.122C531.332 82.0801 530.809 83.3654 530.809 84.7037V85.6025M611.462 89.4166L612.143 87.8206C612.949 85.9301 614.806 84.7035 616.861 84.7035H653.141C655.187 84.7035 657.037 85.9187 657.849 87.7959L663.78 101.5C664.593 103.377 666.443 104.593 668.488 104.593H673.893C677.619 104.593 680.102 100.745 678.567 97.349L644.348 21.6688C643.518 19.8324 641.689 18.6523 639.674 18.6523H630.559C628.542 18.6523 626.712 19.835 625.883 21.6744L591.772 97.3546C590.242 100.75 592.725 104.593 596.449 104.593H601.599C603.654 104.593 605.511 103.366 606.317 101.475L607.825 97.9424M643.107 53.3967L644.699 57.0799L648.128 65.0162C649.591 68.4029 647.108 72.1808 643.419 72.1808H626.664C622.981 72.1808 620.498 68.4144 621.949 65.0292L631.229 43.3876C632.65 40.0726 637.348 40.0661 638.778 43.3772V43.3772M749.889 61.868V65.5511V57.0799M788.017 36.577V28.8833V23.7823C788.017 20.9491 790.313 18.6523 793.147 18.6523H823.431C830.891 18.6523 837.367 19.8801 842.86 22.3355C848.435 24.7909 852.697 28.3104 855.649 32.8939C858.6 37.4773 860.075 42.9202 860.075 49.2225C860.075 55.4429 858.6 60.8858 855.649 65.5511C852.697 70.1346 848.435 73.6541 842.86 76.1095C837.367 78.5649 830.891 79.7926 823.431 79.7926H809.132C806.299 79.7926 804.002 82.0894 804.002 84.9226V99.4625C804.002 102.296 801.706 104.593 798.872 104.593H793.147C790.313 104.593 788.017 102.296 788.017 99.4625V61.868M788.017 43.3772V38.2617M833.649 64.6138C835.533 63.9164 837.169 63.0011 838.556 61.868C842.163 58.9215 843.967 54.7063 843.967 49.2225C843.967 43.7387 842.163 39.5235 838.556 36.577C834.949 33.6305 829.662 32.1572 822.693 32.1572H809.132C806.299 32.1572 804.002 34.454 804.002 37.2872V61.1578C804.002 63.991 806.299 66.2878 809.132 66.2878H816.57H823.431M946.866 39.9669C947.687 42.813 948.098 45.8982 948.098 49.2225C948.098 55.4429 946.622 60.8858 943.671 65.5511C940.72 70.1346 936.457 73.6541 930.882 76.1095C925.39 78.5649 918.914 79.7926 911.454 79.7926H895.985C893.798 79.7926 892.025 81.5656 892.025 83.7526V83.7526V86.0062M128.883 51.0504V23.7823C128.883 20.9491 126.587 18.6523 123.753 18.6523H118.028C115.194 18.6523 112.898 20.9491 112.898 23.7823V99.4625C112.898 102.296 115.194 104.593 118.028 104.593H123.753C126.587 104.593 128.883 102.296 128.883 99.4625V70.6598V60.4288M180.386 54.3789H176.116H173.281C170.448 54.3789 168.151 52.0821 168.151 49.2489V37.1644C168.151 34.3312 170.448 32.0345 173.281 32.0345H209.872C212.705 32.0345 215.002 29.7377 215.002 26.9045V23.7823C215.002 20.9491 212.705 18.6523 209.872 18.6523H157.296C154.462 18.6523 152.166 20.9491 152.166 23.7823V99.4625C152.166 102.296 154.462 104.593 157.296 104.593H188.071H192.341M198.318 54.3789H199.172M192.341 54.3789H199.172M199.172 54.3789H204.584C207.417 54.3789 209.714 56.6757 209.714 59.5089V62.3855C209.714 65.2187 207.417 67.5155 204.584 67.5155H173.281C170.448 67.5155 168.151 69.8122 168.151 72.6454V86.0804C168.151 88.9136 170.448 91.2104 173.281 91.2104H186.363H190.633M192.437 91.2104H190.633M204.296 91.2104H206.004M190.633 91.2104H206.004M206.004 91.2104H210.652H211.593C214.427 91.2104 216.723 93.5072 216.723 96.3404V99.4625C216.723 102.296 214.427 104.593 211.593 104.593H210.628H201.734M245.285 32.1572H246.875C249.709 32.1572 252.005 34.454 252.005 37.2872V99.4625C252.005 102.296 254.302 104.593 257.135 104.593H262.861C265.694 104.593 267.991 102.296 267.991 99.4625V37.2872C267.991 34.454 270.288 32.1572 273.121 32.1572H291.39C294.223 32.1572 296.52 29.8605 296.52 27.0273V23.7823C296.52 20.9491 294.223 18.6523 291.39 18.6523H228.607C225.774 18.6523 223.477 20.9491 223.477 23.7823V27.0273C223.477 29.8605 225.774 32.1572 228.607 32.1572H233.33M308.516 32.0345V29.7359V23.7823C308.516 20.9491 310.813 18.6523 313.646 18.6523H366.223C369.056 18.6523 371.353 20.9491 371.353 23.7823V26.9045C371.353 29.7377 369.056 32.0345 366.223 32.0345H329.632C326.799 32.0345 324.502 34.3312 324.502 37.1644V49.2489C324.502 52.0821 326.799 54.3789 329.632 54.3789H360.935C363.768 54.3789 366.065 56.6757 366.065 59.5089V62.3855C366.065 65.2187 363.768 67.5155 360.935 67.5155H329.632C326.799 67.5155 324.502 69.8122 324.502 72.6454V86.0804C324.502 88.9136 326.799 91.2104 329.632 91.2104H340.072H345.196M308.516 47.6401V99.4625C308.516 102.296 310.813 104.593 313.646 104.593H367.944C370.778 104.593 373.074 102.296 373.074 99.4625V96.3404C373.074 93.5072 370.778 91.2104 367.944 91.2104H361.421M406.881 41.672V38.2617V37.2872C406.881 34.454 409.177 32.1572 412.011 32.1572H425.572C432.54 32.1572 437.827 33.6305 441.434 36.577C445.041 39.5235 446.845 43.7387 446.845 49.2225C446.845 54.7063 445.041 58.9624 441.434 61.9908C437.827 64.9373 432.54 66.4105 425.572 66.4105H412.011C409.177 66.4105 406.881 64.1138 406.881 61.2806V57.0799M450.203 84.3011L449.376 83.1225L448.389 81.7135C446.477 78.9875 447.666 75.216 450.467 73.4166C453.601 71.4034 456.165 68.9043 458.158 65.9194C461.355 61.2541 462.954 55.6885 462.954 49.2225C462.954 42.9202 461.478 37.4773 458.527 32.8939C455.576 28.3104 451.313 24.7909 445.738 22.3355C440.246 19.8801 433.77 18.6523 426.309 18.6523H396.025C393.192 18.6523 390.895 20.9491 390.895 23.7823V99.4625C390.895 102.296 393.192 104.593 396.025 104.593H401.751C404.584 104.593 406.881 102.296 406.881 99.4625V84.6771C406.881 81.8439 409.177 79.5471 412.011 79.5471H426.309C426.404 79.5471 426.497 79.5469 426.588 79.5466C428.465 79.5397 430.299 80.3818 431.374 81.9207L445.682 102.401C446.642 103.774 448.212 104.593 449.888 104.593H454.567C458.719 104.593 461.151 99.9172 458.768 96.5176L455.583 91.9743M48.9336 18.6523C58.1152 18.6523 66.272 20.453 73.4041 24.0543C80.5362 27.5738 86.0697 32.6074 90.0047 39.1552C93.9397 45.6212 95.9071 53.1103 95.9071 61.6224C95.9071 70.1346 93.9397 77.6646 90.0047 84.2124C86.0697 90.6784 80.5362 95.712 73.4041 99.3133C66.272 102.833 58.1152 104.593 48.9336 104.593H16.4356C13.6024 104.593 11.3057 102.296 11.3057 99.4625V23.7823C11.3057 20.9491 13.6024 18.6523 16.4356 18.6523L30.1197 18.6523L39.5266 18.6523L48.9336 18.6523ZM910.716 66.2878C917.684 66.2878 922.972 64.8145 926.579 61.868C930.186 58.9215 931.989 54.7063 931.989 49.2225C931.989 43.7387 930.186 39.5235 926.579 36.577C922.972 33.6305 917.684 32.1572 910.716 32.1572H897.155C894.322 32.1572 892.025 34.454 892.025 37.2872V61.1578C892.025 63.991 894.322 66.2878 897.155 66.2878H910.716Z" stroke="#B6FE9E" stroke-width="2.56499" stroke-linecap="round" stroke-linejoin="round"/>
</g>
</g>
<g id="neon-h2">
<g id="overlay" filter="url(#filter6_f)">
<rect x="64.9121" y="128.65" width="833" height="57" rx="28.5" fill="#EAEAEA" fill-opacity="0.3"/>
</g>
<g id="h2-neon-blur-15" filter="url(#filter7_f)">
<path d="M109.208 156.479H89.9121M89.9121 156.479V174.283V139.123M89.9121 156.479V139.123M89.9121 139.123H111.694M146.898 139.123V163.126C146.881 165.493 146.358 167.553 145.328 169.308C144.298 171.063 142.841 172.415 140.957 173.365C139.09 174.299 136.94 174.766 134.509 174.766C130.807 174.766 127.836 173.76 125.599 171.747C123.377 169.719 122.226 166.917 122.145 163.343V139.123M180.483 174.283H160.126V139.123M211.509 174.283H191.152V139.123M261.825 149.144C261.825 147.164 261.318 145.369 260.303 143.759C259.289 142.149 257.856 140.894 256.005 139.992C254.17 139.09 252.085 138.64 249.751 138.64C246.305 138.64 243.472 139.485 241.25 141.175C239.045 142.85 237.942 145.031 237.942 147.719C237.942 150.488 239.133 152.726 241.516 154.433C243.19 155.64 245.706 155.489 249.168 155.984C252.63 156.479 255.623 156.98 257.576 157.468C259.554 157.962 260.216 158.653 261.038 159.94C261.859 161.228 262.042 163.835 262.042 165.589C262.042 168.358 260.931 170.58 258.71 172.254C256.504 173.929 253.59 174.766 249.968 174.766C247.489 174.766 245.211 174.323 243.134 173.438C241.073 172.552 239.504 171.312 238.425 169.719C237.362 168.125 236.831 166.298 236.831 164.237M283.747 139.123H297.27H270.224H283.747ZM283.747 139.123V174.283M326.494 161.895H307.429M326.494 161.895L331.701 174.283L316.923 139.123M326.494 161.895L316.923 139.123M307.429 161.895L302.264 174.283L316.923 139.123M307.429 161.895L316.923 139.123M366.445 163.319C366.043 167.022 364.715 169.856 362.461 171.82C360.223 173.784 357.237 174.766 353.502 174.766C350.894 174.766 348.584 174.114 346.571 172.81C344.575 171.506 343.03 169.662 341.935 167.28C340.84 164.881 340.285 162.144 340.269 159.069V154.505C340.269 151.382 340.816 148.613 341.911 146.198C343.005 143.783 344.575 141.924 346.62 140.62C348.68 139.3 351.047 138.64 353.719 138.64C357.486 138.64 360.457 139.662 362.63 141.706C364.819 143.735 366.091 146.544 366.445 150.134M384.45 154.505L378.611 160.435M384.45 154.505L399.596 139.123L378.611 160.435M384.45 154.505L404.474 174.283M378.611 160.435V174.283V139.123M470.342 139.123L461.334 174.283H458.485L450.516 146.778L449.622 143.3L448.753 146.778L440.591 174.283H437.741L428.758 139.123M500.405 156.479H490.513H481.01M481.01 156.479V174.283M481.01 156.479V139.123M481.01 174.283H502.889M481.01 174.283V139.123M481.01 139.123H502.768M514.113 174.283V139.123M514.113 174.283H525.873C529.447 174.283 532.232 173.413 534.229 171.675C536.241 169.92 537.247 167.489 537.247 164.382C537.247 162.337 536.619 160.534 535.364 158.973C534.124 157.411 532.617 156.929 530.573 156.479M514.113 174.283V156.479M514.113 139.123H524.497C528.264 139.123 531.122 139.903 533.07 141.465C535.018 143.011 535.992 145.297 535.992 148.323C535.992 150.142 535.493 151.728 534.494 153.08C533.512 154.417 532.295 155.899 530.573 156.479M514.113 139.123V156.479M530.573 156.479H522.66H514.113M623.055 156.479H613.164H603.713M603.713 156.479V174.283H625.592M603.713 156.479V139.123H625.471M662.148 139.123L649.059 174.283H646.21L633.121 139.123M694.164 174.283H672.285V139.123H694.043M672.285 156.479H681.993H691.799M725.745 174.283H705.388V139.123M830.535 174.283H808.656V139.123H830.414M808.656 156.479H818.407H828.298M857.477 159.446H841.687V174.283V139.123H853.109C856.86 139.123 859.79 140.032 861.899 141.851C864.008 143.671 865.062 146.214 865.062 149.482C865.062 151.736 864.402 153.724 863.082 155.447C861.762 157.17 859.698 158.786 857.477 159.446ZM857.477 159.446L866.873 174.283M566.361 174.283V139.123H576.189C579.071 139.123 581.655 139.783 583.941 141.103C586.227 142.407 588.006 144.282 589.278 146.729C590.565 149.176 591.209 151.962 591.209 155.085V158.321C591.209 161.46 590.573 164.245 589.302 166.676C588.03 169.107 586.235 170.982 583.917 172.303C581.614 173.623 578.966 174.283 575.972 174.283H566.361ZM760.804 158.61C760.804 161.846 760.24 164.688 759.113 167.135C758.003 169.582 756.409 171.465 754.332 172.786C752.255 174.106 749.857 174.766 747.136 174.766C743.031 174.766 739.714 173.301 737.187 170.371C734.659 167.425 733.395 163.456 733.395 158.466V154.843C733.395 151.64 733.959 148.806 735.086 146.343C736.229 143.864 737.839 141.964 739.915 140.644C741.992 139.308 744.383 138.64 747.087 138.64C749.792 138.64 752.175 139.292 754.235 140.596C756.312 141.9 757.914 143.743 759.041 146.126C760.168 148.508 760.756 151.269 760.804 154.409V158.61ZM773.235 159.446V174.283V139.123H785.213C788.867 139.123 791.749 140.056 793.858 141.924C795.983 143.791 797.046 146.359 797.046 149.627C797.046 152.927 796.023 155.479 793.979 157.282C791.95 159.069 789.077 159.446 785.213 159.446H773.235Z" stroke="#F1F1F1" stroke-width="3" stroke-linecap="round" stroke-linejoin="round"/>
</g>
<g id="h2-neon-blur-7" filter="url(#filter8_f)">
<path d="M109.208 156.479H89.9121M89.9121 156.479V174.283V139.123M89.9121 156.479V139.123M89.9121 139.123H111.694M146.898 139.123V163.126C146.881 165.493 146.358 167.553 145.328 169.308C144.298 171.063 142.841 172.415 140.957 173.365C139.09 174.299 136.94 174.766 134.509 174.766C130.807 174.766 127.836 173.76 125.599 171.747C123.377 169.719 122.226 166.917 122.145 163.343V139.123M180.483 174.283H160.126V139.123M211.509 174.283H191.152V139.123M261.825 149.144C261.825 147.164 261.318 145.369 260.303 143.759C259.289 142.149 257.856 140.894 256.005 139.992C254.17 139.09 252.085 138.64 249.751 138.64C246.305 138.64 243.472 139.485 241.25 141.175C239.045 142.85 237.942 145.031 237.942 147.719C237.942 150.488 239.133 152.726 241.516 154.433C243.19 155.64 245.706 155.489 249.168 155.984C252.63 156.479 255.623 156.98 257.576 157.468C259.554 157.962 260.216 158.653 261.038 159.94C261.859 161.228 262.042 163.835 262.042 165.589C262.042 168.358 260.931 170.58 258.71 172.254C256.504 173.929 253.59 174.766 249.968 174.766C247.489 174.766 245.211 174.323 243.134 173.438C241.073 172.552 239.504 171.312 238.425 169.719C237.362 168.125 236.831 166.298 236.831 164.237M283.747 139.123H297.27H270.224H283.747ZM283.747 139.123V174.283M326.494 161.895H307.429M326.494 161.895L331.701 174.283L316.923 139.123M326.494 161.895L316.923 139.123M307.429 161.895L302.264 174.283L316.923 139.123M307.429 161.895L316.923 139.123M366.445 163.319C366.043 167.022 364.715 169.856 362.461 171.82C360.223 173.784 357.237 174.766 353.502 174.766C350.894 174.766 348.584 174.114 346.571 172.81C344.575 171.506 343.03 169.662 341.935 167.28C340.84 164.881 340.285 162.144 340.269 159.069V154.505C340.269 151.382 340.816 148.613 341.911 146.198C343.005 143.783 344.575 141.924 346.62 140.62C348.68 139.3 351.047 138.64 353.719 138.64C357.486 138.64 360.457 139.662 362.63 141.706C364.819 143.735 366.091 146.544 366.445 150.134M384.45 154.505L378.611 160.435M384.45 154.505L399.596 139.123L378.611 160.435M384.45 154.505L404.474 174.283M378.611 160.435V174.283V139.123M470.342 139.123L461.334 174.283H458.485L450.516 146.778L449.622 143.3L448.753 146.778L440.591 174.283H437.741L428.758 139.123M500.405 156.479H490.513H481.01M481.01 156.479V174.283M481.01 156.479V139.123M481.01 174.283H502.889M481.01 174.283V139.123M481.01 139.123H502.768M514.113 174.283V139.123M514.113 174.283H525.873C529.447 174.283 532.232 173.413 534.229 171.675C536.241 169.92 537.247 167.489 537.247 164.382C537.247 162.337 536.619 160.534 535.364 158.973C534.124 157.411 532.617 156.929 530.573 156.479M514.113 174.283V156.479M514.113 139.123H524.497C528.264 139.123 531.122 139.903 533.07 141.465C535.018 143.011 535.992 145.297 535.992 148.323C535.992 150.142 535.493 151.728 534.494 153.08C533.512 154.417 532.295 155.899 530.573 156.479M514.113 139.123V156.479M530.573 156.479H522.66H514.113M623.055 156.479H613.164H603.713M603.713 156.479V174.283H625.592M603.713 156.479V139.123H625.471M662.148 139.123L649.059 174.283H646.21L633.121 139.123M694.164 174.283H672.285V139.123H694.043M672.285 156.479H681.993H691.799M725.745 174.283H705.388V139.123M830.535 174.283H808.656V139.123H830.414M808.656 156.479H818.407H828.298M857.477 159.446H841.687V174.283V139.123H853.109C856.86 139.123 859.79 140.032 861.899 141.851C864.008 143.671 865.062 146.214 865.062 149.482C865.062 151.736 864.402 153.724 863.082 155.447C861.762 157.17 859.698 158.786 857.477 159.446ZM857.477 159.446L866.873 174.283M566.361 174.283V139.123H576.189C579.071 139.123 581.655 139.783 583.941 141.103C586.227 142.407 588.006 144.282 589.278 146.729C590.565 149.176 591.209 151.962 591.209 155.085V158.321C591.209 161.46 590.573 164.245 589.302 166.676C588.03 169.107 586.235 170.982 583.917 172.303C581.614 173.623 578.966 174.283 575.972 174.283H566.361ZM760.804 158.61C760.804 161.846 760.24 164.688 759.113 167.135C758.003 169.582 756.409 171.465 754.332 172.786C752.255 174.106 749.857 174.766 747.136 174.766C743.031 174.766 739.714 173.301 737.187 170.371C734.659 167.425 733.395 163.456 733.395 158.466V154.843C733.395 151.64 733.959 148.806 735.086 146.343C736.229 143.864 737.839 141.964 739.915 140.644C741.992 139.308 744.383 138.64 747.087 138.64C749.792 138.64 752.175 139.292 754.235 140.596C756.312 141.9 757.914 143.743 759.041 146.126C760.168 148.508 760.756 151.269 760.804 154.409V158.61ZM773.235 159.446V174.283V139.123H785.213C788.867 139.123 791.749 140.056 793.858 141.924C795.983 143.791 797.046 146.359 797.046 149.627C797.046 152.927 796.023 155.479 793.979 157.282C791.95 159.069 789.077 159.446 785.213 159.446H773.235Z" stroke="#F1F1F1" stroke-width="3" stroke-linecap="round" stroke-linejoin="round"/>
</g>
<g id="h2-neon-shadow" filter="url(#filter9_d)">
<path d="M109.208 156.479H89.9121M89.9121 156.479V174.283V139.123M89.9121 156.479V139.123M89.9121 139.123H111.694M146.898 139.123V163.126C146.881 165.493 146.358 167.553 145.328 169.308C144.298 171.063 142.841 172.415 140.957 173.365C139.09 174.299 136.94 174.766 134.509 174.766C130.807 174.766 127.836 173.76 125.599 171.747C123.377 169.719 122.226 166.917 122.145 163.343V139.123M180.483 174.283H160.126V139.123M211.509 174.283H191.152V139.123M261.825 149.144C261.825 147.164 261.318 145.369 260.303 143.759C259.289 142.149 257.856 140.894 256.005 139.992C254.17 139.09 252.085 138.64 249.751 138.64C246.305 138.64 243.472 139.485 241.25 141.175C239.045 142.85 237.942 145.031 237.942 147.719C237.942 150.488 239.133 152.726 241.516 154.433C243.19 155.64 245.706 155.489 249.168 155.984C252.63 156.479 255.623 156.98 257.576 157.468C259.554 157.962 260.216 158.653 261.038 159.94C261.859 161.228 262.042 163.835 262.042 165.589C262.042 168.358 260.931 170.58 258.71 172.254C256.504 173.929 253.59 174.766 249.968 174.766C247.489 174.766 245.211 174.323 243.134 173.438C241.073 172.552 239.504 171.312 238.425 169.719C237.362 168.125 236.831 166.298 236.831 164.237M283.747 139.123H297.27H270.224H283.747ZM283.747 139.123V174.283M326.494 161.895H307.429M326.494 161.895L331.701 174.283L316.923 139.123M326.494 161.895L316.923 139.123M307.429 161.895L302.264 174.283L316.923 139.123M307.429 161.895L316.923 139.123M366.445 163.319C366.043 167.022 364.715 169.856 362.461 171.82C360.223 173.784 357.237 174.766 353.502 174.766C350.894 174.766 348.584 174.114 346.571 172.81C344.575 171.506 343.03 169.662 341.935 167.28C340.84 164.881 340.285 162.144 340.269 159.069V154.505C340.269 151.382 340.816 148.613 341.911 146.198C343.005 143.783 344.575 141.924 346.62 140.62C348.68 139.3 351.047 138.64 353.719 138.64C357.486 138.64 360.457 139.662 362.63 141.706C364.819 143.735 366.091 146.544 366.445 150.134M384.45 154.505L378.611 160.435M384.45 154.505L399.596 139.123L378.611 160.435M384.45 154.505L404.474 174.283M378.611 160.435V174.283V139.123M470.342 139.123L461.334 174.283H458.485L450.516 146.778L449.622 143.3L448.753 146.778L440.591 174.283H437.741L428.758 139.123M500.405 156.479H490.513H481.01M481.01 156.479V174.283M481.01 156.479V139.123M481.01 174.283H502.889M481.01 174.283V139.123M481.01 139.123H502.768M514.113 174.283V139.123M514.113 174.283H525.873C529.447 174.283 532.232 173.413 534.229 171.675C536.241 169.92 537.247 167.489 537.247 164.382C537.247 162.337 536.619 160.534 535.364 158.973C534.124 157.411 532.617 156.929 530.573 156.479M514.113 174.283V156.479M514.113 139.123H524.497C528.264 139.123 531.122 139.903 533.07 141.465C535.018 143.011 535.992 145.297 535.992 148.323C535.992 150.142 535.493 151.728 534.494 153.08C533.512 154.417 532.295 155.899 530.573 156.479M514.113 139.123V156.479M530.573 156.479H522.66H514.113M623.055 156.479H613.164H603.713M603.713 156.479V174.283H625.592M603.713 156.479V139.123H625.471M662.148 139.123L649.059 174.283H646.21L633.121 139.123M694.164 174.283H672.285V139.123H694.043M672.285 156.479H681.993H691.799M725.745 174.283H705.388V139.123M830.535 174.283H808.656V139.123H830.414M808.656 156.479H818.407H828.298M857.477 159.446H841.687V174.283V139.123H853.109C856.86 139.123 859.79 140.032 861.899 141.851C864.008 143.671 865.062 146.214 865.062 149.482C865.062 151.736 864.402 153.724 863.082 155.447C861.762 157.17 859.698 158.786 857.477 159.446ZM857.477 159.446L866.873 174.283M566.361 174.283V139.123H576.189C579.071 139.123 581.655 139.783 583.941 141.103C586.227 142.407 588.006 144.282 589.278 146.729C590.565 149.176 591.209 151.962 591.209 155.085V158.321C591.209 161.46 590.573 164.245 589.302 166.676C588.03 169.107 586.235 170.982 583.917 172.303C581.614 173.623 578.966 174.283 575.972 174.283H566.361ZM760.804 158.61C760.804 161.846 760.24 164.688 759.113 167.135C758.003 169.582 756.409 171.465 754.332 172.786C752.255 174.106 749.857 174.766 747.136 174.766C743.031 174.766 739.714 173.301 737.187 170.371C734.659 167.425 733.395 163.456 733.395 158.466V154.843C733.395 151.64 733.959 148.806 735.086 146.343C736.229 143.864 737.839 141.964 739.915 140.644C741.992 139.308 744.383 138.64 747.087 138.64C749.792 138.64 752.175 139.292 754.235 140.596C756.312 141.9 757.914 143.743 759.041 146.126C760.168 148.508 760.756 151.269 760.804 154.409V158.61ZM773.235 159.446V174.283V139.123H785.213C788.867 139.123 791.749 140.056 793.858 141.924C795.983 143.791 797.046 146.359 797.046 149.627C797.046 152.927 796.023 155.479 793.979 157.282C791.95 159.069 789.077 159.446 785.213 159.446H773.235Z" stroke="#F1F1F1" stroke-width="3" stroke-linecap="round" stroke-linejoin="round"/>
</g>
<path id="h2-neon" d="M109.208 156.479H89.9121M89.9121 156.479V174.283V139.123M89.9121 156.479V139.123M89.9121 139.123H111.694M146.898 139.123V163.126C146.881 165.493 146.358 167.553 145.328 169.308C144.298 171.063 142.841 172.415 140.957 173.365C139.09 174.299 136.94 174.766 134.509 174.766C130.807 174.766 127.836 173.76 125.599 171.747C123.377 169.719 122.226 166.917 122.145 163.343V139.123M180.483 174.283H160.126V139.123M211.509 174.283H191.152V139.123M261.825 149.144C261.825 147.164 261.318 145.369 260.303 143.759C259.289 142.149 257.856 140.894 256.005 139.992C254.17 139.09 252.085 138.64 249.751 138.64C246.305 138.64 243.472 139.485 241.25 141.175C239.045 142.85 237.942 145.031 237.942 147.719C237.942 150.488 239.133 152.726 241.516 154.433C243.19 155.64 245.706 155.489 249.168 155.984C252.63 156.479 255.623 156.98 257.576 157.468C259.554 157.962 260.216 158.653 261.038 159.94C261.859 161.228 262.042 163.835 262.042 165.589C262.042 168.358 260.931 170.58 258.71 172.254C256.504 173.929 253.59 174.766 249.968 174.766C247.489 174.766 245.211 174.323 243.134 173.438C241.073 172.552 239.504 171.312 238.425 169.719C237.362 168.125 236.831 166.298 236.831 164.237M283.747 139.123H297.27H270.224H283.747ZM283.747 139.123V174.283M326.494 161.895H307.429M326.494 161.895L331.701 174.283L316.923 139.123M326.494 161.895L316.923 139.123M307.429 161.895L302.264 174.283L316.923 139.123M307.429 161.895L316.923 139.123M366.445 163.319C366.043 167.022 364.715 169.856 362.461 171.82C360.223 173.784 357.237 174.766 353.502 174.766C350.894 174.766 348.584 174.114 346.571 172.81C344.575 171.506 343.03 169.662 341.935 167.28C340.84 164.881 340.285 162.144 340.269 159.069V154.505C340.269 151.382 340.816 148.613 341.911 146.198C343.005 143.783 344.575 141.924 346.62 140.62C348.68 139.3 351.047 138.64 353.719 138.64C357.486 138.64 360.457 139.662 362.63 141.706C364.819 143.735 366.091 146.544 366.445 150.134M384.45 154.505L378.611 160.435M384.45 154.505L399.596 139.123L378.611 160.435M384.45 154.505L404.474 174.283M378.611 160.435V174.283V139.123M470.342 139.123L461.334 174.283H458.485L450.516 146.778L449.622 143.3L448.753 146.778L440.591 174.283H437.741L428.758 139.123M500.405 156.479H490.513H481.01M481.01 156.479V174.283M481.01 156.479V139.123M481.01 174.283H502.889M481.01 174.283V139.123M481.01 139.123H502.768M514.113 174.283V139.123M514.113 174.283H525.873C529.447 174.283 532.232 173.413 534.229 171.675C536.241 169.92 537.247 167.489 537.247 164.382C537.247 162.337 536.619 160.534 535.364 158.973C534.124 157.411 532.617 156.929 530.573 156.479M514.113 174.283V156.479M514.113 139.123H524.497C528.264 139.123 531.122 139.903 533.07 141.465C535.018 143.011 535.992 145.297 535.992 148.323C535.992 150.142 535.493 151.728 534.494 153.08C533.512 154.417 532.295 155.899 530.573 156.479M514.113 139.123V156.479M530.573 156.479H522.66H514.113M623.055 156.479H613.164H603.713M603.713 156.479V174.283H625.592M603.713 156.479V139.123H625.471M662.148 139.123L649.059 174.283H646.21L633.121 139.123M694.164 174.283H672.285V139.123H694.043M672.285 156.479H681.993H691.799M725.745 174.283H705.388V139.123M830.535 174.283H808.656V139.123H830.414M808.656 156.479H818.407H828.298M857.477 159.446H841.687V174.283V139.123H853.109C856.86 139.123 859.79 140.032 861.899 141.851C864.008 143.671 865.062 146.214 865.062 149.482C865.062 151.736 864.402 153.724 863.082 155.447C861.762 157.17 859.698 158.786 857.477 159.446ZM857.477 159.446L866.873 174.283M566.361 174.283V139.123H576.189C579.071 139.123 581.655 139.783 583.941 141.103C586.227 142.407 588.006 144.282 589.278 146.729C590.565 149.176 591.209 151.962 591.209 155.085V158.321C591.209 161.46 590.573 164.245 589.302 166.676C588.03 169.107 586.235 170.982 583.917 172.303C581.614 173.623 578.966 174.283 575.972 174.283H566.361ZM760.804 158.61C760.804 161.846 760.24 164.688 759.113 167.135C758.003 169.582 756.409 171.465 754.332 172.786C752.255 174.106 749.857 174.766 747.136 174.766C743.031 174.766 739.714 173.301 737.187 170.371C734.659 167.425 733.395 163.456 733.395 158.466V154.843C733.395 151.64 733.959 148.806 735.086 146.343C736.229 143.864 737.839 141.964 739.915 140.644C741.992 139.308 744.383 138.64 747.087 138.64C749.792 138.64 752.175 139.292 754.235 140.596C756.312 141.9 757.914 143.743 759.041 146.126C760.168 148.508 760.756 151.269 760.804 154.409V158.61ZM773.235 159.446V174.283V139.123H785.213C788.867 139.123 791.749 140.056 793.858 141.924C795.983 143.791 797.046 146.359 797.046 149.627C797.046 152.927 796.023 155.479 793.979 157.282C791.95 159.069 789.077 159.446 785.213 159.446H773.235Z" stroke="#F1F1F1" stroke-width="3" stroke-linecap="round" stroke-linejoin="round"/>
<path id="h2-neon-outline" d="M109.208 155.489H89.9121M89.9121 155.489V173.293V138.133M89.9121 155.489V138.133M89.9121 138.133H111.694M146.898 138.133V162.137C146.881 164.503 146.358 166.564 145.328 168.319C144.298 170.074 142.841 171.426 140.957 172.376C139.09 173.31 136.94 173.776 134.509 173.776C130.807 173.776 127.836 172.77 125.599 170.758C123.377 168.729 122.226 165.928 122.145 162.354V138.133M180.483 173.293H160.126V138.133M211.509 173.293H191.152V138.133M261.825 148.155C261.825 146.175 261.318 144.38 260.303 142.77C259.289 141.16 257.856 139.904 256.005 139.003C254.17 138.101 252.085 137.65 249.751 137.65C246.305 137.65 243.472 138.496 241.25 140.186C239.045 141.86 237.942 144.042 237.942 146.73C237.942 149.499 239.133 151.737 241.516 153.443C243.19 154.651 245.706 154.5 249.168 154.995C252.63 155.489 255.623 155.99 257.576 156.478C259.554 156.973 260.216 157.663 261.038 158.951C261.859 160.239 262.042 162.845 262.042 164.6C262.042 167.369 260.931 169.591 258.71 171.265C256.504 172.939 253.59 173.776 249.968 173.776C247.489 173.776 245.211 173.334 243.134 172.448C241.073 171.563 239.504 170.323 238.425 168.729C237.362 167.136 236.831 165.308 236.831 163.248M283.747 138.133H297.27H270.224H283.747ZM283.747 138.133V173.293M326.494 160.905H307.429M326.494 160.905L331.701 173.293L316.923 138.133M326.494 160.905L316.923 138.133M307.429 160.905L302.264 173.293L316.923 138.133M307.429 160.905L316.923 138.133M366.445 162.33C366.043 166.033 364.715 168.866 362.461 170.83C360.223 172.794 357.237 173.776 353.502 173.776C350.894 173.776 348.584 173.124 346.571 171.82C344.575 170.516 343.03 168.673 341.935 166.29C340.84 163.892 340.285 161.155 340.269 158.08V153.516C340.269 150.393 340.816 147.624 341.911 145.209C343.005 142.794 344.575 140.935 346.62 139.631C348.68 138.31 351.047 137.65 353.719 137.65C357.486 137.65 360.457 138.673 362.63 140.717C364.819 142.746 366.091 145.555 366.445 149.145M384.45 153.516L378.611 159.446M384.45 153.516L399.596 138.133L378.611 159.446M384.45 153.516L404.474 173.293M378.611 159.446V173.293V138.133M470.342 138.133L461.334 173.293H458.485L450.516 145.788L449.622 142.311L448.753 145.788L440.591 173.293H437.741L428.758 138.133M500.405 155.489H490.513H481.01M481.01 155.489V173.293M481.01 155.489V138.133M481.01 173.293H502.889M481.01 173.293V138.133M481.01 138.133H502.768M514.113 173.293V138.133M514.113 173.293H525.873C529.447 173.293 532.232 172.424 534.229 170.685C536.241 168.931 537.247 166.5 537.247 163.393C537.247 161.348 536.619 159.545 535.364 157.983C534.124 156.422 532.617 155.94 530.573 155.489M514.113 173.293V155.489M514.113 138.133H524.497C528.264 138.133 531.122 138.914 533.07 140.476C535.018 142.021 535.992 144.307 535.992 147.334C535.992 149.153 535.493 150.739 534.494 152.091C533.512 153.427 532.295 154.91 530.573 155.489M514.113 138.133V155.489M530.573 155.489H522.66H514.113M623.055 155.489H613.164H603.713M603.713 155.489V173.293H625.592M603.713 155.489V138.133H625.471M662.148 138.133L649.059 173.293H646.21L633.121 138.133M694.164 173.293H672.285V138.133H694.043M672.285 155.489H681.993H691.799M725.745 173.293H705.388V138.133M830.535 173.293H808.656V138.133H830.414M808.656 155.489H818.407H828.298M857.477 158.457H841.687V173.293V138.133H853.109C856.86 138.133 859.79 139.043 861.899 140.862C864.008 142.681 865.062 145.225 865.062 148.493C865.062 150.747 864.402 152.735 863.082 154.458C861.762 156.18 859.698 157.797 857.477 158.457ZM857.477 158.457L866.873 173.293M566.361 173.293V138.133H576.189C579.071 138.133 581.655 138.793 583.941 140.114C586.227 141.418 588.006 143.293 589.278 145.74C590.565 148.187 591.209 150.972 591.209 154.095V157.331C591.209 160.471 590.573 163.256 589.302 165.687C588.03 168.118 586.235 169.993 583.917 171.313C581.614 172.633 578.966 173.293 575.972 173.293H566.361ZM760.804 157.621C760.804 160.857 760.24 163.698 759.113 166.146C758.003 168.593 756.409 170.476 754.332 171.796C752.255 173.116 749.857 173.776 747.136 173.776C743.031 173.776 739.714 172.311 737.187 169.381C734.659 166.435 733.395 162.467 733.395 157.476V153.854C733.395 150.65 733.959 147.817 735.086 145.354C736.229 142.875 737.839 140.975 739.915 139.655C741.992 138.318 744.383 137.65 747.087 137.65C749.792 137.65 752.175 138.302 754.235 139.606C756.312 140.91 757.914 142.754 759.041 145.136C760.168 147.519 760.756 150.28 760.804 153.419V157.621ZM773.235 158.457V173.293V138.133H785.213C788.867 138.133 791.749 139.067 793.858 140.935C795.983 142.802 797.046 145.37 797.046 148.638C797.046 151.938 796.023 154.49 793.979 156.293C791.95 158.08 789.077 158.457 785.213 158.457H773.235Z" stroke="white" stroke-linecap="round" stroke-linejoin="round"/>
</g>
</g>
</g>
<defs>
<filter id="filter0_f" x="-70.7029" y="-70.7029" width="1098.41" height="262.406" filterUnits="userSpaceOnUse" color-interpolation-filters="sRGB">
<feFlood flood-opacity="0" result="BackgroundImageFix"/>
<feBlend mode="normal" in="SourceGraphic" in2="BackgroundImageFix" result="shape"/>
<feGaussianBlur stdDeviation="35.3514" result="effect1_foregroundBlur"/>
</filter>
<filter id="filter1_b" x="-4.68436" y="3.7131" width="968.771" height="119.147" filterUnits="userSpaceOnUse" color-interpolation-filters="sRGB">
<feFlood flood-opacity="0" result="BackgroundImageFix"/>
<feGaussianBlur in="BackgroundImage" stdDeviation="6.7123"/>
<feComposite in2="SourceAlpha" operator="in" result="effect1_backgroundBlur"/>
<feBlend mode="normal" in="SourceGraphic" in2="effect1_backgroundBlur" result="shape"/>
</filter>
<filter id="filter2_f" x="-4.68436" y="3.7131" width="968.771" height="119.147" filterUnits="userSpaceOnUse" color-interpolation-filters="sRGB">
<feFlood flood-opacity="0" result="BackgroundImageFix"/>
<feBlend mode="normal" in="SourceGraphic" in2="BackgroundImageFix" result="shape"/>
<feGaussianBlur stdDeviation="6.7123" result="effect1_foregroundBlur"/>
</filter>
<filter id="filter3_b" x="-4.68436" y="3.7131" width="968.771" height="119.147" filterUnits="userSpaceOnUse" color-interpolation-filters="sRGB">
<feFlood flood-opacity="0" result="BackgroundImageFix"/>
<feGaussianBlur in="BackgroundImage" stdDeviation="6.7123"/>
<feComposite in2="SourceAlpha" operator="in" result="effect1_backgroundBlur"/>
<feBlend mode="normal" in="SourceGraphic" in2="effect1_backgroundBlur" result="shape"/>
</filter>
<filter id="filter4_f" x="2.47542" y="10.8729" width="954.452" height="104.827" filterUnits="userSpaceOnUse" color-interpolation-filters="sRGB">
<feFlood flood-opacity="0" result="BackgroundImageFix"/>
<feBlend mode="normal" in="SourceGraphic" in2="BackgroundImageFix" result="shape"/>
<feGaussianBlur stdDeviation="3.13241" result="effect1_foregroundBlur"/>
</filter>
<filter id="filter5_d" x="4.89276" y="17.1377" width="949.617" height="102.558" filterUnits="userSpaceOnUse" color-interpolation-filters="sRGB">
<feFlood flood-opacity="0" result="BackgroundImageFix"/>
<feColorMatrix in="SourceAlpha" type="matrix" values="0 0 0 0 0 0 0 0 0 0 0 0 0 0 0 0 0 0 127 0"/>
<feOffset dy="6.41247"/>
<feGaussianBlur stdDeviation="1.92374"/>
<feColorMatrix type="matrix" values="0 0 0 0 0 0 0 0 0 0 0 0 0 0 0 0 0 0 0.6 0"/>
<feBlend mode="normal" in2="BackgroundImageFix" result="effect1_dropShadow"/>
<feBlend mode="normal" in="SourceGraphic" in2="effect1_dropShadow" result="shape"/>
</filter>
<filter id="filter6_f" x="-162.088" y="-98.3496" width="1287" height="511" filterUnits="userSpaceOnUse" color-interpolation-filters="sRGB">
<feFlood flood-opacity="0" result="BackgroundImageFix"/>
<feBlend mode="normal" in="SourceGraphic" in2="BackgroundImageFix" result="shape"/>
<feGaussianBlur stdDeviation="113.5" result="effect1_foregroundBlur"/>
</filter>
<filter id="filter7_f" x="73.4121" y="122.14" width="809.961" height="69.126" filterUnits="userSpaceOnUse" color-interpolation-filters="sRGB">
<feFlood flood-opacity="0" result="BackgroundImageFix"/>
<feBlend mode="normal" in="SourceGraphic" in2="BackgroundImageFix" result="shape"/>
<feGaussianBlur stdDeviation="7.5" result="effect1_foregroundBlur"/>
</filter>
<filter id="filter8_f" x="81.4121" y="130.14" width="793.961" height="53.126" filterUnits="userSpaceOnUse" color-interpolation-filters="sRGB">
<feFlood flood-opacity="0" result="BackgroundImageFix"/>
<feBlend mode="normal" in="SourceGraphic" in2="BackgroundImageFix" result="shape"/>
<feGaussianBlur stdDeviation="3.5" result="effect1_foregroundBlur"/>
</filter>
<filter id="filter9_d" x="85.4121" y="137.14" width="785.961" height="47.126" filterUnits="userSpaceOnUse" color-interpolation-filters="sRGB">
<feFlood flood-opacity="0" result="BackgroundImageFix"/>
<feColorMatrix in="SourceAlpha" type="matrix" values="0 0 0 0 0 0 0 0 0 0 0 0 0 0 0 0 0 0 127 0"/>
<feOffset dy="5"/>
<feGaussianBlur stdDeviation="1.5"/>
<feColorMatrix type="matrix" values="0 0 0 0 0 0 0 0 0 0 0 0 0 0 0 0 0 0 0.6 0"/>
<feBlend mode="normal" in2="BackgroundImageFix" result="effect1_dropShadow"/>
<feBlend mode="normal" in="SourceGraphic" in2="effect1_dropShadow" result="shape"/>
</filter>
<clipPath id="clip0">
<rect width="957" height="186" fill="white"/>
</clipPath>
</defs>
</svg>
