<svg width="650" height="150" viewBox="0 0 650 150" fill="none" xmlns="http://www.w3.org/2000/svg">
<g clip-path="url(#clip0)">
<rect width="650" height="150" fill="black"/>
<g filter="url(#filter0_f)">
<path d="M38.7643 116.042V37.9433C38.7643 34.7776 41.3306 32.2113 44.4963 32.2113H68.533C77.522 32.2113 85.4019 33.9578 92.1728 37.4507C99.0605 40.8272 104.314 45.7174 107.933 52.1211C111.668 58.4085 113.536 65.7437 113.536 74.1268C113.536 82.5099 111.668 89.9033 107.933 96.307C104.314 102.594 99.0605 107.485 92.1728 110.977C85.4019 114.354 77.522 116.042 68.533 116.042H58.075M350.743 81.1127C350.743 105.098 340.412 117.09 319.749 117.09C298.969 117.09 288.579 105.098 288.579 81.1127V18.732C288.579 15.5663 286.013 13 282.847 13H271.547C268.381 13 265.815 15.5663 265.815 18.732V81.9859C265.815 99.6836 270.543 113.306 279.999 122.854C289.455 132.285 302.646 137 319.574 137C336.501 137 349.634 132.285 358.973 122.854C368.429 113.306 373.157 99.6836 373.157 81.9859V18.732C373.157 15.5663 370.591 13 367.425 13H356.475C353.31 13 350.743 15.5663 350.743 18.732V38.4986V47.0563M626.696 33.2592C628.682 36.3401 630.199 39.694 631.246 43.3208M626.696 33.2592L631.246 43.3208M626.696 33.2592C625.673 31.672 624.539 30.1746 623.295 28.7668C619.427 24.3913 614.491 20.8822 608.485 18.2394C600.663 14.7465 591.441 13 580.817 13H536.118C532.952 13 530.386 15.5663 530.386 18.732V129.522C530.386 132.687 532.952 135.254 536.118 135.254H547.418C550.584 135.254 553.15 132.687 553.15 129.522V120.942M72.3973 40.8951L48.6193 65.5015C45.0377 69.2078 38.7654 66.6724 38.7654 61.5183V18.732C38.7654 15.5663 36.1991 13 33.0334 13H21.7331C18.5674 13 16.0011 15.5663 16.0011 18.732V129.522C16.0011 132.687 18.5674 135.254 21.7331 135.254H33.0334C36.1991 135.254 38.7654 132.687 38.7654 129.522V121.24V117.945M81.7733 31.1925L85.2894 27.554L97.6635 14.7488C98.7436 13.6312 100.231 13 101.785 13H111.647C116.672 13 119.265 19.0043 115.82 22.6618L76.8673 64.0226C74.9022 66.1092 74.7805 69.3266 76.5824 71.5558L120.525 125.918C123.555 129.667 120.887 135.254 116.068 135.254H104.115C102.428 135.254 100.826 134.51 99.7374 133.222L62.275 88.8997C60.0917 86.3167 56.1583 86.1757 53.7957 88.5957L40.3959 102.321C39.3506 103.392 38.7654 104.829 38.7654 106.326V108.239M153.619 113.665L154.995 110.441C155.897 108.33 157.971 106.961 160.267 106.961H214.006C216.291 106.961 218.357 108.317 219.266 110.414L228.531 131.8C229.439 133.897 231.506 135.254 233.791 135.254H244.956C249.121 135.254 251.895 130.952 250.178 127.158L200.032 16.3684C199.104 14.3176 197.061 13 194.81 13H179.796C177.543 13 175.498 14.3205 174.571 16.3746L124.584 127.164C122.873 130.958 125.647 135.254 129.809 135.254H140.614C142.91 135.254 144.984 133.884 145.886 131.773L148.439 125.793M198.683 62.4254L200.949 67.6648L206.777 81.1391C208.414 84.9235 205.639 89.1465 201.516 89.1465H172.885C168.768 89.1465 165.994 84.9363 167.617 81.1536L181.878 47.929C183.862 43.3078 190.41 43.2988 192.407 47.9145L192.518 48.1721M350.743 74.4761V79.7155V67.6648M405.038 38.4986V27.554V18.732C405.038 15.5663 407.605 13 410.77 13H455.47C466.093 13 475.316 14.7465 483.137 18.2394C491.076 21.7324 497.146 26.739 501.349 33.2592C505.551 39.7793 507.653 47.5221 507.653 56.4873C507.653 65.3362 505.551 73.0789 501.349 79.7155C497.146 86.2357 491.076 91.2423 483.137 94.7352C475.316 98.2282 466.093 99.9747 455.47 99.9747H433.534C430.369 99.9747 427.802 102.541 427.802 105.707V129.522C427.802 132.687 425.236 135.254 422.071 135.254H410.77C407.605 135.254 405.038 132.687 405.038 129.522V74.4761M405.038 48.1721V40.8951M470.021 78.3821C472.704 77.39 475.033 76.088 477.008 74.4761C482.145 70.2845 484.713 64.2883 484.713 56.4873C484.713 48.6864 482.145 42.6901 477.008 38.4986C471.872 34.307 464.342 32.2113 454.419 32.2113H433.534C430.369 32.2113 427.802 34.7776 427.802 37.9433V75.0314C427.802 78.1971 430.369 80.7634 433.534 80.7634H445.7H455.47M631.246 43.3208C632.415 47.3695 633 51.7583 633 56.4873C633 65.3362 630.899 73.0789 626.696 79.7155C622.493 86.2357 616.423 91.2423 608.485 94.7352C600.663 98.2282 591.441 99.9747 580.817 99.9747H558.783C555.672 99.9747 553.15 102.497 553.15 105.608V105.608V108.814M69.5837 13C82.6585 13 94.2742 15.5615 104.431 20.6845C114.587 25.6911 122.467 32.8516 128.07 42.1662C133.674 51.3643 136.476 62.0178 136.476 74.1268C136.476 86.2357 133.674 96.9474 128.07 106.262C122.467 115.46 114.587 122.621 104.431 127.744C94.2742 132.75 82.6585 135.254 69.5837 135.254H21.732C18.5663 135.254 16 132.687 16 129.522V18.732C16 15.5663 18.5663 13 21.732 13H42.7918H56.1877H69.5837ZM579.767 80.7634C589.689 80.7634 597.219 78.6676 602.356 74.4761C607.492 70.2845 610.061 64.2883 610.061 56.4873C610.061 48.6864 607.492 42.6901 602.356 38.4986C597.219 34.307 589.689 32.2113 579.767 32.2113H558.882C555.716 32.2113 553.15 34.7776 553.15 37.9433V75.0314C553.15 78.1971 555.716 80.7634 558.882 80.7634H579.767Z" stroke="#6DFC3C" stroke-width="9" stroke-linecap="round" stroke-linejoin="round"/>
</g>
<g filter="url(#filter1_f)">
<path d="M38.7643 116.042V37.9433C38.7643 34.7776 41.3306 32.2113 44.4963 32.2113H68.533C77.522 32.2113 85.4019 33.9578 92.1728 37.4507C99.0605 40.8272 104.314 45.7174 107.933 52.1211C111.668 58.4085 113.536 65.7437 113.536 74.1268C113.536 82.5099 111.668 89.9033 107.933 96.307C104.314 102.594 99.0605 107.485 92.1728 110.977C85.4019 114.354 77.522 116.042 68.533 116.042H58.075M350.743 81.1127C350.743 105.098 340.412 117.09 319.749 117.09C298.969 117.09 288.579 105.098 288.579 81.1127V18.732C288.579 15.5663 286.013 13 282.847 13H271.547C268.381 13 265.815 15.5663 265.815 18.732V81.9859C265.815 99.6836 270.543 113.306 279.999 122.854C289.455 132.285 302.646 137 319.574 137C336.501 137 349.634 132.285 358.973 122.854C368.429 113.306 373.157 99.6836 373.157 81.9859V18.732C373.157 15.5663 370.591 13 367.425 13H356.475C353.31 13 350.743 15.5663 350.743 18.732V38.4986V47.0563M626.696 33.2592C628.682 36.3401 630.199 39.694 631.246 43.3208M626.696 33.2592L631.246 43.3208M626.696 33.2592C625.673 31.672 624.539 30.1746 623.295 28.7668C619.427 24.3913 614.491 20.8822 608.485 18.2394C600.663 14.7465 591.441 13 580.817 13H536.118C532.952 13 530.386 15.5663 530.386 18.732V129.522C530.386 132.687 532.952 135.254 536.118 135.254H547.418C550.584 135.254 553.15 132.687 553.15 129.522V120.942M72.3973 40.8951L48.6193 65.5015C45.0377 69.2078 38.7654 66.6724 38.7654 61.5183V18.732C38.7654 15.5663 36.1991 13 33.0334 13H21.7331C18.5674 13 16.0011 15.5663 16.0011 18.732V129.522C16.0011 132.687 18.5674 135.254 21.7331 135.254H33.0334C36.1991 135.254 38.7654 132.687 38.7654 129.522V121.24V117.945M81.7733 31.1925L85.2894 27.554L97.6635 14.7488C98.7436 13.6312 100.231 13 101.785 13H111.647C116.672 13 119.265 19.0043 115.82 22.6618L76.8673 64.0226C74.9022 66.1092 74.7805 69.3266 76.5824 71.5558L120.525 125.918C123.555 129.667 120.887 135.254 116.068 135.254H104.115C102.428 135.254 100.826 134.51 99.7374 133.222L62.275 88.8997C60.0917 86.3167 56.1583 86.1757 53.7957 88.5957L40.3959 102.321C39.3506 103.392 38.7654 104.829 38.7654 106.326V108.239M153.619 113.665L154.995 110.441C155.897 108.33 157.971 106.961 160.267 106.961H214.006C216.291 106.961 218.357 108.317 219.266 110.414L228.531 131.8C229.439 133.897 231.506 135.254 233.791 135.254H244.956C249.121 135.254 251.895 130.952 250.178 127.158L200.032 16.3684C199.104 14.3176 197.061 13 194.81 13H179.796C177.543 13 175.498 14.3205 174.571 16.3746L124.584 127.164C122.873 130.958 125.647 135.254 129.809 135.254H140.614C142.91 135.254 144.984 133.884 145.886 131.773L148.439 125.793M198.683 62.4254L200.949 67.6648L206.777 81.1391C208.414 84.9235 205.639 89.1465 201.516 89.1465H172.885C168.768 89.1465 165.994 84.9363 167.617 81.1536L181.878 47.929C183.862 43.3078 190.41 43.2988 192.407 47.9145L192.518 48.1721M350.743 74.4761V79.7155V67.6648M405.038 38.4986V27.554V18.732C405.038 15.5663 407.605 13 410.77 13H455.47C466.093 13 475.316 14.7465 483.137 18.2394C491.076 21.7324 497.146 26.739 501.349 33.2592C505.551 39.7793 507.653 47.5221 507.653 56.4873C507.653 65.3362 505.551 73.0789 501.349 79.7155C497.146 86.2357 491.076 91.2423 483.137 94.7352C475.316 98.2282 466.093 99.9747 455.47 99.9747H433.534C430.369 99.9747 427.802 102.541 427.802 105.707V129.522C427.802 132.687 425.236 135.254 422.071 135.254H410.77C407.605 135.254 405.038 132.687 405.038 129.522V74.4761M405.038 48.1721V40.8951M470.021 78.3821C472.704 77.39 475.033 76.088 477.008 74.4761C482.145 70.2845 484.713 64.2883 484.713 56.4873C484.713 48.6864 482.145 42.6901 477.008 38.4986C471.872 34.307 464.342 32.2113 454.419 32.2113H433.534C430.369 32.2113 427.802 34.7776 427.802 37.9433V75.0314C427.802 78.1971 430.369 80.7634 433.534 80.7634H445.7H455.47M631.246 43.3208C632.415 47.3695 633 51.7583 633 56.4873C633 65.3362 630.899 73.0789 626.696 79.7155C622.493 86.2357 616.423 91.2423 608.485 94.7352C600.663 98.2282 591.441 99.9747 580.817 99.9747H558.783C555.672 99.9747 553.15 102.497 553.15 105.608V105.608V108.814M69.5837 13C82.6585 13 94.2742 15.5615 104.431 20.6845C114.587 25.6911 122.467 32.8516 128.07 42.1662C133.674 51.3643 136.476 62.0178 136.476 74.1268C136.476 86.2357 133.674 96.9474 128.07 106.262C122.467 115.46 114.587 122.621 104.431 127.744C94.2742 132.75 82.6585 135.254 69.5837 135.254H21.732C18.5663 135.254 16 132.687 16 129.522V18.732C16 15.5663 18.5663 13 21.732 13H42.7918H56.1877H69.5837ZM579.767 80.7634C589.689 80.7634 597.219 78.6676 602.356 74.4761C607.492 70.2845 610.061 64.2883 610.061 56.4873C610.061 48.6864 607.492 42.6901 602.356 38.4986C597.219 34.307 589.689 32.2113 579.767 32.2113H558.882C555.716 32.2113 553.15 34.7776 553.15 37.9433V75.0314C553.15 78.1971 555.716 80.7634 558.882 80.7634H579.767Z" stroke="#6DFC3C" stroke-width="9" stroke-linecap="round" stroke-linejoin="round"/>
</g>
<g filter="url(#filter2_d)">
<path d="M38.7643 116.042V37.9433C38.7643 34.7776 41.3306 32.2113 44.4963 32.2113H68.533C77.522 32.2113 85.4019 33.9578 92.1728 37.4507C99.0605 40.8272 104.314 45.7174 107.933 52.1211C111.668 58.4085 113.536 65.7437 113.536 74.1268C113.536 82.5099 111.668 89.9033 107.933 96.307C104.314 102.594 99.0605 107.485 92.1728 110.977C85.4019 114.354 77.522 116.042 68.533 116.042H58.075M350.743 81.1127C350.743 105.098 340.412 117.09 319.749 117.09C298.969 117.09 288.579 105.098 288.579 81.1127V18.732C288.579 15.5663 286.013 13 282.847 13H271.547C268.381 13 265.815 15.5663 265.815 18.732V81.9859C265.815 99.6836 270.543 113.306 279.999 122.854C289.455 132.285 302.646 137 319.574 137C336.501 137 349.634 132.285 358.973 122.854C368.429 113.306 373.157 99.6836 373.157 81.9859V18.732C373.157 15.5663 370.591 13 367.425 13H356.475C353.31 13 350.743 15.5663 350.743 18.732V38.4986V47.0563M626.696 33.2592C628.682 36.3401 630.199 39.694 631.246 43.3208M626.696 33.2592L631.246 43.3208M626.696 33.2592C625.673 31.672 624.539 30.1746 623.295 28.7668C619.427 24.3913 614.491 20.8822 608.485 18.2394C600.663 14.7465 591.441 13 580.817 13H536.118C532.952 13 530.386 15.5663 530.386 18.732V129.522C530.386 132.687 532.952 135.254 536.118 135.254H547.418C550.584 135.254 553.15 132.687 553.15 129.522V120.942M72.3973 40.8951L48.6193 65.5015C45.0377 69.2078 38.7654 66.6724 38.7654 61.5183V18.732C38.7654 15.5663 36.1991 13 33.0334 13H21.7331C18.5674 13 16.0011 15.5663 16.0011 18.732V129.522C16.0011 132.687 18.5674 135.254 21.7331 135.254H33.0334C36.1991 135.254 38.7654 132.687 38.7654 129.522V121.24V117.945M81.7733 31.1925L85.2894 27.554L97.6635 14.7488C98.7436 13.6312 100.231 13 101.785 13H111.647C116.672 13 119.265 19.0043 115.82 22.6618L76.8673 64.0226C74.9022 66.1092 74.7805 69.3266 76.5824 71.5558L120.525 125.918C123.555 129.667 120.887 135.254 116.068 135.254H104.115C102.428 135.254 100.826 134.51 99.7374 133.222L62.275 88.8997C60.0917 86.3167 56.1583 86.1757 53.7957 88.5957L40.3959 102.321C39.3506 103.392 38.7654 104.829 38.7654 106.326V108.239M153.619 113.665L154.995 110.441C155.897 108.33 157.971 106.961 160.267 106.961H214.006C216.291 106.961 218.357 108.317 219.266 110.414L228.531 131.8C229.439 133.897 231.506 135.254 233.791 135.254H244.956C249.121 135.254 251.895 130.952 250.178 127.158L200.032 16.3684C199.104 14.3176 197.061 13 194.81 13H179.796C177.543 13 175.498 14.3205 174.571 16.3746L124.584 127.164C122.873 130.958 125.647 135.254 129.809 135.254H140.614C142.91 135.254 144.984 133.884 145.886 131.773L148.439 125.793M198.683 62.4254L200.949 67.6648L206.777 81.1391C208.414 84.9235 205.639 89.1465 201.516 89.1465H172.885C168.768 89.1465 165.994 84.9363 167.617 81.1536L181.878 47.929C183.862 43.3078 190.41 43.2988 192.407 47.9145L192.518 48.1721M350.743 74.4761V79.7155V67.6648M405.038 38.4986V27.554V18.732C405.038 15.5663 407.605 13 410.77 13H455.47C466.093 13 475.316 14.7465 483.137 18.2394C491.076 21.7324 497.146 26.739 501.349 33.2592C505.551 39.7793 507.653 47.5221 507.653 56.4873C507.653 65.3362 505.551 73.0789 501.349 79.7155C497.146 86.2357 491.076 91.2423 483.137 94.7352C475.316 98.2282 466.093 99.9747 455.47 99.9747H433.534C430.369 99.9747 427.802 102.541 427.802 105.707V129.522C427.802 132.687 425.236 135.254 422.071 135.254H410.77C407.605 135.254 405.038 132.687 405.038 129.522V74.4761M405.038 48.1721V40.8951M470.021 78.3821C472.704 77.39 475.033 76.088 477.008 74.4761C482.145 70.2845 484.713 64.2883 484.713 56.4873C484.713 48.6864 482.145 42.6901 477.008 38.4986C471.872 34.307 464.342 32.2113 454.419 32.2113H433.534C430.369 32.2113 427.802 34.7776 427.802 37.9433V75.0314C427.802 78.1971 430.369 80.7634 433.534 80.7634H445.7H455.47M631.246 43.3208C632.415 47.3695 633 51.7583 633 56.4873C633 65.3362 630.899 73.0789 626.696 79.7155C622.493 86.2357 616.423 91.2423 608.485 94.7352C600.663 98.2282 591.441 99.9747 580.817 99.9747H558.783C555.672 99.9747 553.15 102.497 553.15 105.608V105.608V108.814M69.5837 13C82.6585 13 94.2742 15.5615 104.431 20.6845C114.587 25.6911 122.467 32.8516 128.07 42.1662C133.674 51.3643 136.476 62.0178 136.476 74.1268C136.476 86.2357 133.674 96.9474 128.07 106.262C122.467 115.46 114.587 122.621 104.431 127.744C94.2742 132.75 82.6585 135.254 69.5837 135.254H21.732C18.5663 135.254 16 132.687 16 129.522V18.732C16 15.5663 18.5663 13 21.732 13H42.7918H56.1877H69.5837ZM579.767 80.7634C589.689 80.7634 597.219 78.6676 602.356 74.4761C607.492 70.2845 610.061 64.2883 610.061 56.4873C610.061 48.6864 607.492 42.6901 602.356 38.4986C597.219 34.307 589.689 32.2113 579.767 32.2113H558.882C555.716 32.2113 553.15 34.7776 553.15 37.9433V75.0314C553.15 78.1971 555.716 80.7634 558.882 80.7634H579.767Z" stroke="#6DFC3C" stroke-width="9" stroke-linecap="round" stroke-linejoin="round"/>
</g>
<path d="M38.7643 116.042V37.9433C38.7643 34.7776 41.3306 32.2113 44.4963 32.2113H68.533C77.522 32.2113 85.4019 33.9578 92.1728 37.4507C99.0605 40.8272 104.314 45.7174 107.933 52.1211C111.668 58.4085 113.536 65.7437 113.536 74.1268C113.536 82.5099 111.668 89.9033 107.933 96.307C104.314 102.594 99.0605 107.485 92.1728 110.977C85.4019 114.354 77.522 116.042 68.533 116.042H58.075M350.743 81.1127C350.743 105.098 340.412 117.09 319.749 117.09C298.969 117.09 288.579 105.098 288.579 81.1127V18.732C288.579 15.5663 286.013 13 282.847 13H271.547C268.381 13 265.815 15.5663 265.815 18.732V81.9859C265.815 99.6836 270.543 113.306 279.999 122.854C289.455 132.285 302.646 137 319.574 137C336.501 137 349.634 132.285 358.973 122.854C368.429 113.306 373.157 99.6836 373.157 81.9859V18.732C373.157 15.5663 370.591 13 367.425 13H356.475C353.31 13 350.743 15.5663 350.743 18.732V38.4986V47.0563M626.696 33.2592C628.682 36.3401 630.199 39.694 631.246 43.3208M626.696 33.2592L631.246 43.3208M626.696 33.2592C625.673 31.672 624.539 30.1746 623.295 28.7668C619.427 24.3913 614.491 20.8822 608.485 18.2394C600.663 14.7465 591.441 13 580.817 13H536.118C532.952 13 530.386 15.5663 530.386 18.732V129.522C530.386 132.687 532.952 135.254 536.118 135.254H547.418C550.584 135.254 553.15 132.687 553.15 129.522V120.942M72.3973 40.8951L48.6193 65.5015C45.0377 69.2078 38.7654 66.6724 38.7654 61.5183V18.732C38.7654 15.5663 36.1991 13 33.0334 13H21.7331C18.5674 13 16.0011 15.5663 16.0011 18.732V129.522C16.0011 132.687 18.5674 135.254 21.7331 135.254H33.0334C36.1991 135.254 38.7654 132.687 38.7654 129.522V121.24V117.945M81.7733 31.1925L85.2894 27.554L97.6635 14.7488C98.7436 13.6312 100.231 13 101.785 13H111.647C116.672 13 119.265 19.0043 115.82 22.6618L76.8673 64.0226C74.9022 66.1092 74.7805 69.3266 76.5824 71.5558L120.525 125.918C123.555 129.667 120.887 135.254 116.068 135.254H104.115C102.428 135.254 100.826 134.51 99.7374 133.222L62.275 88.8997C60.0917 86.3167 56.1583 86.1757 53.7957 88.5957L40.3959 102.321C39.3506 103.392 38.7654 104.829 38.7654 106.326V108.239M153.619 113.665L154.995 110.441C155.897 108.33 157.971 106.961 160.267 106.961H214.006C216.291 106.961 218.357 108.317 219.266 110.414L228.531 131.8C229.439 133.897 231.506 135.254 233.791 135.254H244.956C249.121 135.254 251.895 130.952 250.178 127.158L200.032 16.3684C199.104 14.3176 197.061 13 194.81 13H179.796C177.543 13 175.498 14.3205 174.571 16.3746L124.584 127.164C122.873 130.958 125.647 135.254 129.809 135.254H140.614C142.91 135.254 144.984 133.884 145.886 131.773L148.439 125.793M198.683 62.4254L200.949 67.6648L206.777 81.1391C208.414 84.9235 205.639 89.1465 201.516 89.1465H172.885C168.768 89.1465 165.994 84.9363 167.617 81.1536L181.878 47.929C183.862 43.3078 190.41 43.2988 192.407 47.9145L192.518 48.1721M350.743 74.4761V79.7155V67.6648M405.038 38.4986V27.554V18.732C405.038 15.5663 407.605 13 410.77 13H455.47C466.093 13 475.316 14.7465 483.137 18.2394C491.076 21.7324 497.146 26.739 501.349 33.2592C505.551 39.7793 507.653 47.5221 507.653 56.4873C507.653 65.3362 505.551 73.0789 501.349 79.7155C497.146 86.2357 491.076 91.2423 483.137 94.7352C475.316 98.2282 466.093 99.9747 455.47 99.9747H433.534C430.369 99.9747 427.802 102.541 427.802 105.707V129.522C427.802 132.687 425.236 135.254 422.071 135.254H410.77C407.605 135.254 405.038 132.687 405.038 129.522V74.4761M405.038 48.1721V40.8951M470.021 78.3821C472.704 77.39 475.033 76.088 477.008 74.4761C482.145 70.2845 484.713 64.2883 484.713 56.4873C484.713 48.6864 482.145 42.6901 477.008 38.4986C471.872 34.307 464.342 32.2113 454.419 32.2113H433.534C430.369 32.2113 427.802 34.7776 427.802 37.9433V75.0314C427.802 78.1971 430.369 80.7634 433.534 80.7634H445.7H455.47M631.246 43.3208C632.415 47.3695 633 51.7583 633 56.4873C633 65.3362 630.899 73.0789 626.696 79.7155C622.493 86.2357 616.423 91.2423 608.485 94.7352C600.663 98.2282 591.441 99.9747 580.817 99.9747H558.783C555.672 99.9747 553.15 102.497 553.15 105.608V105.608V108.814M69.5837 13C82.6585 13 94.2742 15.5615 104.431 20.6845C114.587 25.6911 122.467 32.8516 128.07 42.1662C133.674 51.3643 136.476 62.0178 136.476 74.1268C136.476 86.2357 133.674 96.9474 128.07 106.262C122.467 115.46 114.587 122.621 104.431 127.744C94.2742 132.75 82.6585 135.254 69.5837 135.254H21.732C18.5663 135.254 16 132.687 16 129.522V18.732C16 15.5663 18.5663 13 21.732 13H42.7918H56.1877H69.5837ZM579.767 80.7634C589.689 80.7634 597.219 78.6676 602.356 74.4761C607.492 70.2845 610.061 64.2883 610.061 56.4873C610.061 48.6864 607.492 42.6901 602.356 38.4986C597.219 34.307 589.689 32.2113 579.767 32.2113H558.882C555.716 32.2113 553.15 34.7776 553.15 37.9433V75.0314C553.15 78.1971 555.716 80.7634 558.882 80.7634H579.767Z" stroke="#6DFC3C" stroke-width="9" stroke-linecap="round" stroke-linejoin="round"/>
<path d="M38.7643 115.042V36.9433C38.7643 33.7776 41.3306 31.2113 44.4963 31.2113H68.533C77.522 31.2113 85.4019 32.9578 92.1728 36.4507C99.0605 39.8272 104.314 44.7174 107.933 51.1211C111.668 57.4085 113.536 64.7437 113.536 73.1268C113.536 81.5099 111.668 88.9033 107.933 95.307C104.314 101.594 99.0605 106.485 92.1728 109.977C85.4019 113.354 77.522 115.042 68.533 115.042H58.075M350.743 80.1127C350.743 104.098 340.412 116.09 319.749 116.09C298.969 116.09 288.579 104.098 288.579 80.1127V17.732C288.579 14.5663 286.013 12 282.847 12H271.547C268.381 12 265.815 14.5663 265.815 17.732V80.9859C265.815 98.6836 270.543 112.306 279.999 121.854C289.455 131.285 302.646 136 319.574 136C336.501 136 349.634 131.285 358.973 121.854C368.429 112.306 373.157 98.6836 373.157 80.9859V17.732C373.157 14.5663 370.591 12 367.425 12H356.475C353.31 12 350.743 14.5663 350.743 17.732V37.4986V46.0563M626.696 32.2592C628.682 35.3401 630.199 38.694 631.246 42.3208M626.696 32.2592L631.246 42.3208M626.696 32.2592C625.673 30.672 624.539 29.1746 623.295 27.7668C619.427 23.3913 614.491 19.8822 608.485 17.2394C600.663 13.7465 591.441 12 580.817 12H536.118C532.952 12 530.386 14.5663 530.386 17.732V128.522C530.386 131.687 532.952 134.254 536.118 134.254H547.418C550.584 134.254 553.15 131.687 553.15 128.522V119.942M72.3973 39.8951L48.6193 64.5015C45.0377 68.2078 38.7654 65.6724 38.7654 60.5183V17.732C38.7654 14.5663 36.1991 12 33.0334 12H21.7331C18.5674 12 16.0011 14.5663 16.0011 17.732V128.522C16.0011 131.687 18.5674 134.254 21.7331 134.254H33.0334C36.1991 134.254 38.7654 131.687 38.7654 128.522V120.24V116.945M81.7733 30.1925L85.2894 26.554L97.6635 13.7488C98.7436 12.6312 100.231 12 101.785 12H111.647C116.672 12 119.265 18.0043 115.82 21.6618L76.8673 63.0226C74.9022 65.1092 74.7805 68.3266 76.5824 70.5558L120.525 124.918C123.555 128.667 120.887 134.254 116.068 134.254H104.115C102.428 134.254 100.826 133.51 99.7374 132.222L62.275 87.8997C60.0917 85.3167 56.1583 85.1757 53.7957 87.5957L40.3959 101.321C39.3506 102.392 38.7654 103.829 38.7654 105.326V107.239M153.619 112.665L154.995 109.441C155.897 107.33 157.971 105.961 160.267 105.961H214.006C216.291 105.961 218.357 107.317 219.266 109.414L228.531 130.8C229.439 132.897 231.506 134.254 233.791 134.254H244.956C249.121 134.254 251.895 129.952 250.178 126.158L200.032 15.3684C199.104 13.3176 197.061 12 194.81 12H179.796C177.543 12 175.498 13.3205 174.571 15.3746L124.584 126.164C122.873 129.958 125.647 134.254 129.809 134.254H140.614C142.91 134.254 144.984 132.884 145.886 130.773L148.439 124.793M198.683 61.4254L200.949 66.6648L206.777 80.1391C208.414 83.9235 205.639 88.1465 201.516 88.1465H172.885C168.768 88.1465 165.994 83.9363 167.617 80.1536L181.878 46.929C183.862 42.3078 190.41 42.2988 192.407 46.9145L192.518 47.1721M350.743 73.4761V78.7155V66.6648M405.038 37.4986V26.554V17.732C405.038 14.5663 407.605 12 410.77 12H455.47C466.093 12 475.316 13.7465 483.137 17.2394C491.076 20.7324 497.146 25.739 501.349 32.2592C505.551 38.7793 507.653 46.5221 507.653 55.4873C507.653 64.3362 505.551 72.0789 501.349 78.7155C497.146 85.2357 491.076 90.2423 483.137 93.7352C475.316 97.2282 466.093 98.9747 455.47 98.9747H433.534C430.369 98.9747 427.802 101.541 427.802 104.707V128.522C427.802 131.687 425.236 134.254 422.071 134.254H410.77C407.605 134.254 405.038 131.687 405.038 128.522V73.4761M405.038 47.1721V39.8951M470.021 77.3821C472.704 76.39 475.033 75.088 477.008 73.4761C482.145 69.2845 484.713 63.2883 484.713 55.4873C484.713 47.6864 482.145 41.6901 477.008 37.4986C471.872 33.307 464.342 31.2113 454.419 31.2113H433.534C430.369 31.2113 427.802 33.7776 427.802 36.9433V74.0314C427.802 77.1971 430.369 79.7634 433.534 79.7634H445.7H455.47M631.246 42.3208C632.415 46.3695 633 50.7583 633 55.4873C633 64.3362 630.899 72.0789 626.696 78.7155C622.493 85.2357 616.423 90.2423 608.485 93.7352C600.663 97.2282 591.441 98.9747 580.817 98.9747H558.783C555.672 98.9747 553.15 101.497 553.15 104.608V104.608V107.814M69.5837 12C82.6585 12 94.2742 14.5615 104.431 19.6845C114.587 24.6911 122.467 31.8516 128.07 41.1662C133.674 50.3643 136.476 61.0178 136.476 73.1268C136.476 85.2357 133.674 95.9474 128.07 105.262C122.467 114.46 114.587 121.621 104.431 126.744C94.2742 131.75 82.6585 134.254 69.5837 134.254H21.732C18.5663 134.254 16 131.687 16 128.522V17.732C16 14.5663 18.5663 12 21.732 12H42.7918H56.1877H69.5837ZM579.767 79.7634C589.689 79.7634 597.219 77.6676 602.356 73.4761C607.492 69.2845 610.061 63.2883 610.061 55.4873C610.061 47.6864 607.492 41.6901 602.356 37.4986C597.219 33.307 589.689 31.2113 579.767 31.2113H558.882C555.716 31.2113 553.15 33.7776 553.15 36.9433V74.0314C553.15 77.1971 555.716 79.7634 558.882 79.7634H579.767Z" stroke="#B6FE9E" stroke-width="6" stroke-linecap="round" stroke-linejoin="round"/>
</g>
<defs>
<filter id="filter0_f" x="-2" y="-5" width="653" height="160" filterUnits="userSpaceOnUse" color-interpolation-filters="sRGB">
<feFlood flood-opacity="0" result="BackgroundImageFix"/>
<feBlend mode="normal" in="SourceGraphic" in2="BackgroundImageFix" result="shape"/>
<feGaussianBlur stdDeviation="7.5" result="effect1_foregroundBlur"/>
</filter>
<filter id="filter1_f" x="6" y="3" width="637" height="144" filterUnits="userSpaceOnUse" color-interpolation-filters="sRGB">
<feFlood flood-opacity="0" result="BackgroundImageFix"/>
<feBlend mode="normal" in="SourceGraphic" in2="BackgroundImageFix" result="shape"/>
<feGaussianBlur stdDeviation="3.5" result="effect1_foregroundBlur"/>
</filter>
<filter id="filter2_d" x="10" y="10" width="629" height="138" filterUnits="userSpaceOnUse" color-interpolation-filters="sRGB">
<feFlood flood-opacity="0" result="BackgroundImageFix"/>
<feColorMatrix in="SourceAlpha" type="matrix" values="0 0 0 0 0 0 0 0 0 0 0 0 0 0 0 0 0 0 127 0"/>
<feOffset dy="5"/>
<feGaussianBlur stdDeviation="1.5"/>
<feColorMatrix type="matrix" values="0 0 0 0 0 0 0 0 0 0 0 0 0 0 0 0 0 0 0.6 0"/>
<feBlend mode="normal" in2="BackgroundImageFix" result="effect1_dropShadow"/>
<feBlend mode="normal" in="SourceGraphic" in2="effect1_dropShadow" result="shape"/>
</filter>
<clipPath id="clip0">
<rect width="650" height="150" fill="white"/>
</clipPath>
</defs>
</svg>
