<svg width="1600" height="1175" viewBox="0 0 1600 1175" fill="none" xmlns="http://www.w3.org/2000/svg">
<g id="about-svg-final" clip-path="url(#clip0)">
<g id="side-circles-final">
<g id="side-circles-overlay" filter="url(#filter0_f)">
<path d="M834.773 667.035C805.378 661.685 783.174 636.747 783.246 606.845C783.328 573.101 811.746 545.815 846.721 545.9C881.696 545.984 909.983 573.407 909.902 607.151C909.831 636.191 888.773 660.448 860.61 666.593M886.255 617.751C881.723 636.73 865.021 650.654 845.368 650.302C822.545 649.893 804.387 630.385 804.811 606.729C805.234 583.074 824.079 564.228 846.902 564.637C865.677 564.973 881.295 578.234 886.009 596.097M839.112 629.227C829.393 626.192 822.364 617.388 822.363 607C822.362 594.098 833.201 583.637 846.574 583.636C859.947 583.635 870.789 594.093 870.79 606.995C870.791 617.011 864.258 625.556 855.078 628.878M838.61 611.182C840.176 614.276 843.361 616.33 846.948 616.184C851.906 615.983 855.756 611.654 855.547 606.514C855.338 601.375 851.15 597.373 846.191 597.574C843.049 597.702 840.351 599.488 838.85 602.087M910.152 607.178H1119.58M1057.16 726.126C1052.87 704.59 1034.27 688.58 1012.29 689.001C987.496 689.476 967.794 710.696 968.286 736.397C968.779 762.099 989.279 782.548 1014.08 782.073C1035.42 781.664 1052.98 765.89 1057.15 745.118M982.809 742.571C985.89 756.578 997.981 767.03 1012.43 767.03C1029.2 767.03 1042.8 752.933 1042.8 735.544C1042.8 718.154 1029.2 704.058 1012.43 704.058C998.626 704.058 986.974 713.597 983.275 726.662M1018.46 752.254C1025.59 749.966 1030.7 743.454 1030.64 735.819C1030.57 726.337 1022.54 718.713 1012.71 718.79C1002.88 718.868 994.974 726.618 995.049 736.1C995.107 743.462 999.959 749.704 1006.72 752.091M1018.4 738.466C1017.34 740.784 1015.06 742.388 1012.42 742.388C1008.78 742.388 1005.82 739.324 1005.82 735.543C1005.82 731.763 1008.78 728.699 1012.42 728.699C1014.74 728.699 1016.77 729.93 1017.95 731.794M1013.59 687.894L1014.13 609.971" stroke="#6DFC3C" stroke-width="5" stroke-linecap="round" stroke-linejoin="round"/>
</g>
<g id="side-circles-blur-15" filter="url(#filter1_f)">
<path d="M834.773 667.035C805.378 661.685 783.174 636.747 783.246 606.845C783.328 573.101 811.746 545.815 846.721 545.9C881.696 545.984 909.983 573.407 909.902 607.151C909.831 636.191 888.773 660.448 860.61 666.593M886.255 617.751C881.723 636.73 865.021 650.654 845.368 650.302C822.545 649.893 804.387 630.385 804.811 606.729C805.234 583.074 824.079 564.228 846.902 564.637C865.677 564.973 881.295 578.234 886.009 596.097M839.112 629.227C829.393 626.192 822.364 617.388 822.363 607C822.362 594.098 833.201 583.637 846.574 583.636C859.947 583.635 870.789 594.093 870.79 606.995C870.791 617.011 864.258 625.556 855.078 628.878M838.61 611.182C840.176 614.276 843.361 616.33 846.948 616.184C851.906 615.983 855.756 611.654 855.547 606.514C855.338 601.375 851.15 597.373 846.191 597.574C843.049 597.702 840.351 599.488 838.85 602.087M910.152 607.178H1119.58M1057.16 726.126C1052.87 704.59 1034.27 688.58 1012.29 689.001C987.496 689.476 967.794 710.696 968.286 736.397C968.779 762.099 989.279 782.548 1014.08 782.073C1035.42 781.664 1052.98 765.89 1057.15 745.118M982.809 742.571C985.89 756.578 997.981 767.03 1012.43 767.03C1029.2 767.03 1042.8 752.933 1042.8 735.544C1042.8 718.154 1029.2 704.058 1012.43 704.058C998.626 704.058 986.974 713.597 983.275 726.662M1018.46 752.254C1025.59 749.966 1030.7 743.454 1030.64 735.819C1030.57 726.337 1022.54 718.713 1012.71 718.79C1002.88 718.868 994.974 726.618 995.049 736.1C995.107 743.462 999.959 749.704 1006.72 752.091M1018.4 738.466C1017.34 740.784 1015.06 742.388 1012.42 742.388C1008.78 742.388 1005.82 739.324 1005.82 735.543C1005.82 731.763 1008.78 728.699 1012.42 728.699C1014.74 728.699 1016.77 729.93 1017.95 731.794M1013.59 687.894L1014.13 609.971" stroke="#6DFC3C" stroke-width="4" stroke-linecap="round" stroke-linejoin="round"/>
</g>
<g id="side-circles-blur-7" filter="url(#filter2_f)">
<path d="M834.773 667.035C805.378 661.685 783.174 636.747 783.246 606.845C783.328 573.101 811.746 545.815 846.721 545.9C881.696 545.984 909.983 573.407 909.902 607.151C909.831 636.191 888.773 660.448 860.61 666.593M886.255 617.751C881.723 636.73 865.021 650.654 845.368 650.302C822.545 649.893 804.387 630.385 804.811 606.729C805.234 583.074 824.079 564.228 846.902 564.637C865.677 564.973 881.295 578.234 886.009 596.097M839.112 629.227C829.393 626.192 822.364 617.388 822.363 607C822.362 594.098 833.201 583.637 846.574 583.636C859.947 583.635 870.789 594.093 870.79 606.995C870.791 617.011 864.258 625.556 855.078 628.878M838.61 611.182C840.176 614.276 843.361 616.33 846.948 616.184C851.906 615.983 855.756 611.654 855.547 606.514C855.338 601.375 851.15 597.373 846.191 597.574C843.049 597.702 840.351 599.488 838.85 602.087M910.152 607.178H1119.58M1057.16 726.126C1052.87 704.59 1034.27 688.58 1012.29 689.001C987.496 689.476 967.794 710.696 968.286 736.397C968.779 762.099 989.279 782.548 1014.08 782.073C1035.42 781.664 1052.98 765.89 1057.15 745.118M982.809 742.571C985.89 756.578 997.981 767.03 1012.43 767.03C1029.2 767.03 1042.8 752.933 1042.8 735.544C1042.8 718.154 1029.2 704.058 1012.43 704.058C998.626 704.058 986.974 713.597 983.275 726.662M1018.46 752.254C1025.59 749.966 1030.7 743.454 1030.64 735.819C1030.57 726.337 1022.54 718.713 1012.71 718.79C1002.88 718.868 994.974 726.618 995.049 736.1C995.107 743.462 999.959 749.704 1006.72 752.091M1018.4 738.466C1017.34 740.784 1015.06 742.388 1012.42 742.388C1008.78 742.388 1005.82 739.324 1005.82 735.543C1005.82 731.763 1008.78 728.699 1012.42 728.699C1014.74 728.699 1016.77 729.93 1017.95 731.794M1013.59 687.894L1014.13 609.971" stroke="#6DFC3C" stroke-width="4" stroke-linecap="round" stroke-linejoin="round"/>
</g>
<g id="side-circles-shadow" filter="url(#filter3_d)">
<path d="M834.773 667.035C805.378 661.685 783.174 636.747 783.246 606.845C783.328 573.101 811.746 545.815 846.721 545.9C881.696 545.984 909.983 573.407 909.902 607.151C909.831 636.191 888.773 660.448 860.61 666.593M886.255 617.751C881.723 636.73 865.021 650.654 845.368 650.302C822.545 649.893 804.387 630.385 804.811 606.729C805.234 583.074 824.079 564.228 846.902 564.637C865.677 564.973 881.295 578.234 886.009 596.097M839.112 629.227C829.393 626.192 822.364 617.388 822.363 607C822.362 594.098 833.201 583.637 846.574 583.636C859.947 583.635 870.789 594.093 870.79 606.995C870.791 617.011 864.258 625.556 855.078 628.878M838.61 611.182C840.176 614.276 843.361 616.33 846.948 616.184C851.906 615.983 855.756 611.654 855.547 606.514C855.338 601.375 851.15 597.373 846.191 597.574C843.049 597.702 840.351 599.488 838.85 602.087M910.152 607.178H1119.58M1057.16 726.126C1052.87 704.59 1034.27 688.58 1012.29 689.001C987.496 689.476 967.794 710.696 968.286 736.397C968.779 762.099 989.279 782.548 1014.08 782.073C1035.42 781.664 1052.98 765.89 1057.15 745.118M982.809 742.571C985.89 756.578 997.981 767.03 1012.43 767.03C1029.2 767.03 1042.8 752.933 1042.8 735.544C1042.8 718.154 1029.2 704.058 1012.43 704.058C998.626 704.058 986.974 713.597 983.275 726.662M1018.46 752.254C1025.59 749.966 1030.7 743.454 1030.64 735.819C1030.57 726.337 1022.54 718.713 1012.71 718.79C1002.88 718.868 994.974 726.618 995.049 736.1C995.107 743.462 999.959 749.704 1006.72 752.091M1018.4 738.466C1017.34 740.784 1015.06 742.388 1012.42 742.388C1008.78 742.388 1005.82 739.324 1005.82 735.543C1005.82 731.763 1008.78 728.699 1012.42 728.699C1014.74 728.699 1016.77 729.93 1017.95 731.794M1013.59 687.894L1014.13 609.971" stroke="#6DFC3C" stroke-width="4" stroke-linecap="round" stroke-linejoin="round"/>
</g>
<path id="side-circles" d="M834.773 667.035C805.378 661.685 783.174 636.747 783.246 606.845C783.328 573.101 811.746 545.815 846.721 545.9C881.696 545.984 909.983 573.407 909.902 607.151C909.831 636.191 888.773 660.448 860.61 666.593M886.255 617.751C881.723 636.73 865.021 650.654 845.368 650.302C822.545 649.893 804.387 630.385 804.811 606.729C805.234 583.074 824.079 564.228 846.902 564.637C865.677 564.973 881.295 578.234 886.009 596.097M839.112 629.227C829.393 626.192 822.364 617.388 822.363 607C822.362 594.098 833.201 583.637 846.574 583.636C859.947 583.635 870.789 594.093 870.79 606.995C870.791 617.011 864.258 625.556 855.078 628.878M838.61 611.182C840.176 614.276 843.361 616.33 846.948 616.184C851.906 615.983 855.756 611.654 855.547 606.514C855.338 601.375 851.15 597.373 846.191 597.574C843.049 597.702 840.351 599.488 838.85 602.087M910.152 607.178H1119.58M1057.16 726.126C1052.87 704.59 1034.27 688.58 1012.29 689.001C987.496 689.476 967.794 710.696 968.286 736.397C968.779 762.099 989.279 782.548 1014.08 782.073C1035.42 781.664 1052.98 765.89 1057.15 745.118M982.809 742.571C985.89 756.578 997.981 767.03 1012.43 767.03C1029.2 767.03 1042.8 752.933 1042.8 735.544C1042.8 718.154 1029.2 704.058 1012.43 704.058C998.626 704.058 986.974 713.597 983.275 726.662M1018.46 752.254C1025.59 749.966 1030.7 743.454 1030.64 735.819C1030.57 726.337 1022.54 718.713 1012.71 718.79C1002.88 718.868 994.974 726.618 995.049 736.1C995.107 743.462 999.959 749.704 1006.72 752.091M1018.4 738.466C1017.34 740.784 1015.06 742.388 1012.42 742.388C1008.78 742.388 1005.82 739.324 1005.82 735.543C1005.82 731.763 1008.78 728.699 1012.42 728.699C1014.74 728.699 1016.77 729.93 1017.95 731.794M1013.59 687.894L1014.13 609.971" stroke="#6DFC3C" stroke-width="4" stroke-linecap="round" stroke-linejoin="round"/>
<path id="side-circles-outline" d="M834.773 665.638C805.378 660.289 783.174 635.35 783.246 605.448C783.328 571.705 811.746 544.419 846.721 544.503C881.696 544.588 909.983 572.011 909.902 605.754C909.831 634.794 888.773 659.052 860.61 665.196M886.255 616.355C881.723 635.333 865.021 649.257 845.368 648.905C822.545 648.497 804.387 628.989 804.811 605.333C805.234 581.677 824.079 562.832 846.902 563.24C865.677 563.577 881.295 576.838 886.009 594.7M839.112 627.831C829.393 624.795 822.364 615.991 822.363 605.603C822.362 592.701 833.201 582.241 846.574 582.24C859.947 582.238 870.789 592.696 870.79 605.598C870.791 615.615 864.258 624.159 855.078 627.481M838.61 609.786C840.176 612.879 843.361 614.934 846.948 614.788C851.906 614.587 855.756 610.257 855.547 605.118C855.338 599.979 851.15 595.976 846.191 596.178C843.049 596.305 840.351 598.091 838.85 600.691M910.152 605.782H1119.58M1057.16 724.729C1052.87 703.194 1034.27 687.183 1012.29 687.605C987.496 688.08 967.794 709.3 968.286 735.001C968.779 760.702 989.279 781.152 1014.08 780.677C1035.42 780.268 1052.98 764.494 1057.15 743.722M982.809 741.175C985.89 755.181 997.981 765.633 1012.43 765.633C1029.2 765.633 1042.8 751.537 1042.8 734.147C1042.8 716.758 1029.2 702.661 1012.43 702.661C998.626 702.661 986.974 712.201 983.275 725.265M1018.46 750.857C1025.59 748.569 1030.7 742.058 1030.64 734.423C1030.57 724.94 1022.54 717.316 1012.71 717.394C1002.88 717.472 994.974 725.222 995.049 734.704C995.107 742.066 999.959 748.307 1006.72 750.694M1018.4 737.069C1017.34 739.388 1015.06 740.992 1012.42 740.992C1008.78 740.992 1005.82 737.927 1005.82 734.147C1005.82 730.367 1008.78 727.302 1012.42 727.302C1014.74 727.302 1016.77 728.533 1017.95 730.398M1013.59 686.498L1014.13 608.574" stroke="#B6FE9E" stroke-width="2" stroke-linecap="round" stroke-linejoin="round"/>
</g>
<g id="about-outline-final">
<g id="full-frame-overlay" filter="url(#filter4_f)">
<path d="M287.609 903.284H15.3578C9.18915 903.284 4.18848 898.126 4.18848 891.762V328.419C4.18848 322.055 9.18914 316.897 15.3578 316.897H1584.64C1590.81 316.897 1595.81 322.055 1595.81 328.419V891.762C1595.81 898.126 1590.81 903.284 1584.64 903.284H335.079M266.164 104.831C258.442 143.565 224.988 172.362 185.466 171.605C140.867 170.75 105.43 132.583 106.316 86.3565C107.202 40.1298 144.075 3.34845 188.674 4.20307C227.057 4.93857 258.653 33.31 266.151 70.671M132.437 75.2518C137.977 50.0598 159.725 31.2604 185.708 31.2604C215.884 31.2604 240.346 56.6152 240.346 87.8919C240.346 119.169 215.884 144.523 185.708 144.523C160.885 144.523 139.928 127.365 133.275 103.867M176.583 118.026C163.736 114.012 154.445 102.373 154.445 88.64C154.445 71.5842 168.776 57.7578 186.454 57.7578C204.132 57.7578 218.463 71.5842 218.463 88.64C218.463 101.881 209.826 113.176 197.691 117.566M196.449 82.6366C194.547 78.4664 190.451 75.5815 185.705 75.5815C179.145 75.5815 173.827 81.0934 173.827 87.8927C173.827 94.692 179.145 100.204 185.705 100.204C189.863 100.204 193.522 97.9896 195.644 94.6365M185.293 172.366L185.693 315.396M465.928 60.2825C498.905 66.3576 523.765 94.4002 523.612 127.959C523.439 165.83 491.478 196.385 452.225 196.206C412.972 196.027 381.292 165.181 381.465 127.31C381.614 94.7179 405.307 67.5441 436.93 60.7166M407.679 116.793C412.383 95.405 430.846 79.4445 452.906 79.4445C478.525 79.4445 499.293 100.97 499.293 127.524C499.293 154.078 478.525 175.604 452.906 175.604C431.831 175.604 414.039 161.036 408.39 141.087M477.277 136.72C473.703 147.575 463.702 155.31 452.045 155.132C437.566 154.911 426.015 142.566 426.244 127.559C426.474 112.552 438.397 100.566 452.875 100.788C464.115 100.959 473.591 108.438 477.161 118.797M458.455 136.626C461.908 134.833 464.178 131.236 463.973 127.212C463.689 121.65 458.786 117.379 453.021 117.672C447.256 117.966 442.812 122.713 443.096 128.275C443.275 131.8 445.311 134.807 448.245 136.462M453.002 197.141L453.823 316.132M723.39 184.034C718.44 208.864 696.995 227.323 671.661 226.838C643.071 226.29 620.356 201.824 620.923 172.191C621.491 142.559 645.128 118.981 673.717 119.529C698.321 120 718.576 138.187 723.382 162.137M682.602 138.062C699.441 142.29 711.656 157.294 711.141 174.775C710.542 195.076 692.998 211.029 671.956 210.409C650.915 209.788 634.343 192.827 634.942 172.526C635.434 155.826 647.394 142.068 663.335 138.058M666.198 192.074C657.962 189.501 652.007 182.04 652.007 173.237C652.007 162.304 661.194 153.441 672.526 153.441C683.858 153.441 693.044 162.304 693.044 173.237C693.044 181.725 687.508 188.965 679.728 191.779M665.942 176.926C667.312 179.526 670.039 181.222 673.076 181.049C677.274 180.809 680.476 177.087 680.228 172.736C679.979 168.385 676.374 165.051 672.176 165.291C669.515 165.443 667.255 166.994 666.019 169.217M672.445 227.328L673.065 317.171M732.043 1112.24C738.525 1145.43 767.069 1170.19 800.905 1169.67C839.087 1169.09 869.549 1136.53 868.944 1096.96C868.338 1057.38 836.894 1025.77 798.712 1026.36C765.851 1026.86 738.709 1051.04 732.167 1083M846.619 1087.36C841.959 1065.78 823.405 1049.61 801.161 1049.53C775.329 1049.43 754.304 1071.05 754.201 1097.83C754.097 1124.6 774.955 1146.39 800.787 1146.49C822.037 1146.57 840.034 1131.95 845.807 1111.86M808.685 1123.84C819.697 1120.44 827.689 1110.51 827.734 1098.75C827.79 1084.15 815.568 1072.27 800.434 1072.21C785.301 1072.15 772.987 1083.94 772.931 1098.54C772.887 1109.88 780.244 1119.57 790.618 1123.37M791.796 1093.47C793.439 1089.91 796.955 1087.45 801.017 1087.47C806.633 1087.49 811.167 1092.23 811.145 1098.05C811.122 1103.87 806.552 1108.57 800.936 1108.55C797.376 1108.53 794.251 1106.63 792.446 1103.75M800.368 1025.95L801.196 905.971M1554.13 789.392V372.871H1121.17V863.854H1554.13V829.183" stroke="#6DFC3C" stroke-width="5" stroke-linecap="round" stroke-linejoin="round"/>
</g>
<g id="full-frame-blur-15" filter="url(#filter5_f)">
<path d="M287.609 903.284H15.3578C9.18915 903.284 4.18848 898.126 4.18848 891.762V328.419C4.18848 322.055 9.18914 316.897 15.3578 316.897H1584.64C1590.81 316.897 1595.81 322.055 1595.81 328.419V891.762C1595.81 898.126 1590.81 903.284 1584.64 903.284H335.079M266.164 104.831C258.442 143.565 224.988 172.362 185.466 171.605C140.867 170.75 105.43 132.583 106.316 86.3565C107.202 40.1298 144.075 3.34845 188.674 4.20307C227.057 4.93857 258.653 33.31 266.151 70.671M132.437 75.2518C137.977 50.0598 159.725 31.2604 185.708 31.2604C215.884 31.2604 240.346 56.6152 240.346 87.8919C240.346 119.169 215.884 144.523 185.708 144.523C160.885 144.523 139.928 127.365 133.275 103.867M176.583 118.026C163.736 114.012 154.445 102.373 154.445 88.64C154.445 71.5842 168.776 57.7578 186.454 57.7578C204.132 57.7578 218.463 71.5842 218.463 88.64C218.463 101.881 209.826 113.176 197.691 117.566M196.449 82.6366C194.547 78.4664 190.451 75.5815 185.705 75.5815C179.145 75.5815 173.827 81.0934 173.827 87.8927C173.827 94.692 179.145 100.204 185.705 100.204C189.863 100.204 193.522 97.9896 195.644 94.6365M185.293 172.366L185.693 315.396M465.928 60.2825C498.905 66.3576 523.765 94.4002 523.612 127.959C523.439 165.83 491.478 196.385 452.225 196.206C412.972 196.027 381.292 165.181 381.465 127.31C381.614 94.7179 405.307 67.5441 436.93 60.7166M407.679 116.793C412.383 95.405 430.846 79.4445 452.906 79.4445C478.525 79.4445 499.293 100.97 499.293 127.524C499.293 154.078 478.525 175.604 452.906 175.604C431.831 175.604 414.039 161.036 408.39 141.087M477.277 136.72C473.703 147.575 463.702 155.31 452.045 155.132C437.566 154.911 426.015 142.566 426.244 127.559C426.474 112.552 438.397 100.566 452.875 100.788C464.115 100.959 473.591 108.438 477.161 118.797M458.455 136.626C461.908 134.833 464.178 131.236 463.973 127.212C463.689 121.65 458.786 117.379 453.021 117.672C447.256 117.966 442.812 122.713 443.096 128.275C443.275 131.8 445.311 134.807 448.245 136.462M453.002 197.141L453.823 316.132M723.39 184.034C718.44 208.864 696.995 227.323 671.661 226.838C643.071 226.29 620.356 201.824 620.923 172.191C621.491 142.559 645.128 118.981 673.717 119.529C698.321 120 718.576 138.187 723.382 162.137M682.602 138.062C699.441 142.29 711.656 157.294 711.141 174.775C710.542 195.076 692.998 211.029 671.956 210.409C650.915 209.788 634.343 192.827 634.942 172.526C635.434 155.826 647.394 142.068 663.335 138.058M666.198 192.074C657.962 189.501 652.007 182.04 652.007 173.237C652.007 162.304 661.194 153.441 672.526 153.441C683.858 153.441 693.044 162.304 693.044 173.237C693.044 181.725 687.508 188.965 679.728 191.779M665.942 176.926C667.312 179.526 670.039 181.222 673.076 181.049C677.274 180.809 680.476 177.087 680.228 172.736C679.979 168.385 676.374 165.051 672.176 165.291C669.515 165.443 667.255 166.994 666.019 169.217M672.445 227.328L673.065 317.171M732.043 1112.24C738.525 1145.43 767.069 1170.19 800.905 1169.67C839.087 1169.09 869.549 1136.53 868.944 1096.96C868.338 1057.38 836.894 1025.77 798.712 1026.36C765.851 1026.86 738.709 1051.04 732.167 1083M846.619 1087.36C841.959 1065.78 823.405 1049.61 801.161 1049.53C775.329 1049.43 754.304 1071.05 754.201 1097.83C754.097 1124.6 774.955 1146.39 800.787 1146.49C822.037 1146.57 840.034 1131.95 845.807 1111.86M808.685 1123.84C819.697 1120.44 827.689 1110.51 827.734 1098.75C827.79 1084.15 815.568 1072.27 800.434 1072.21C785.301 1072.15 772.987 1083.94 772.931 1098.54C772.887 1109.88 780.244 1119.57 790.618 1123.37M791.796 1093.47C793.439 1089.91 796.955 1087.45 801.017 1087.47C806.633 1087.49 811.167 1092.23 811.145 1098.05C811.122 1103.87 806.552 1108.57 800.936 1108.55C797.376 1108.53 794.251 1106.63 792.446 1103.75M800.368 1025.95L801.196 905.971M1554.13 789.392V372.871H1121.17V863.854H1554.13V829.183" stroke="#6DFC3C" stroke-width="4" stroke-linecap="round" stroke-linejoin="round"/>
</g>
<g id="full-frame-blur-7" filter="url(#filter6_f)">
<path d="M287.609 903.284H15.3578C9.18915 903.284 4.18848 898.126 4.18848 891.762V328.419C4.18848 322.055 9.18914 316.897 15.3578 316.897H1584.64C1590.81 316.897 1595.81 322.055 1595.81 328.419V891.762C1595.81 898.126 1590.81 903.284 1584.64 903.284H335.079M266.164 104.831C258.442 143.565 224.988 172.362 185.466 171.605C140.867 170.75 105.43 132.583 106.316 86.3565C107.202 40.1298 144.075 3.34845 188.674 4.20307C227.057 4.93857 258.653 33.31 266.151 70.671M132.437 75.2518C137.977 50.0598 159.725 31.2604 185.708 31.2604C215.884 31.2604 240.346 56.6152 240.346 87.8919C240.346 119.169 215.884 144.523 185.708 144.523C160.885 144.523 139.928 127.365 133.275 103.867M176.583 118.026C163.736 114.012 154.445 102.373 154.445 88.64C154.445 71.5842 168.776 57.7578 186.454 57.7578C204.132 57.7578 218.463 71.5842 218.463 88.64C218.463 101.881 209.826 113.176 197.691 117.566M196.449 82.6366C194.547 78.4664 190.451 75.5815 185.705 75.5815C179.145 75.5815 173.827 81.0934 173.827 87.8927C173.827 94.692 179.145 100.204 185.705 100.204C189.863 100.204 193.522 97.9896 195.644 94.6365M185.293 172.366L185.693 315.396M465.928 60.2825C498.905 66.3576 523.765 94.4002 523.612 127.959C523.439 165.83 491.478 196.385 452.225 196.206C412.972 196.027 381.292 165.181 381.465 127.31C381.614 94.7179 405.307 67.5441 436.93 60.7166M407.679 116.793C412.383 95.405 430.846 79.4445 452.906 79.4445C478.525 79.4445 499.293 100.97 499.293 127.524C499.293 154.078 478.525 175.604 452.906 175.604C431.831 175.604 414.039 161.036 408.39 141.087M477.277 136.72C473.703 147.575 463.702 155.31 452.045 155.132C437.566 154.911 426.015 142.566 426.244 127.559C426.474 112.552 438.397 100.566 452.875 100.788C464.115 100.959 473.591 108.438 477.161 118.797M458.455 136.626C461.908 134.833 464.178 131.236 463.973 127.212C463.689 121.65 458.786 117.379 453.021 117.672C447.256 117.966 442.812 122.713 443.096 128.275C443.275 131.8 445.311 134.807 448.245 136.462M453.002 197.141L453.823 316.132M723.39 184.034C718.44 208.864 696.995 227.323 671.661 226.838C643.071 226.29 620.356 201.824 620.923 172.191C621.491 142.559 645.128 118.981 673.717 119.529C698.321 120 718.576 138.187 723.382 162.137M682.602 138.062C699.441 142.29 711.656 157.294 711.141 174.775C710.542 195.076 692.998 211.029 671.956 210.409C650.915 209.788 634.343 192.827 634.942 172.526C635.434 155.826 647.394 142.068 663.335 138.058M666.198 192.074C657.962 189.501 652.007 182.04 652.007 173.237C652.007 162.304 661.194 153.441 672.526 153.441C683.858 153.441 693.044 162.304 693.044 173.237C693.044 181.725 687.508 188.965 679.728 191.779M665.942 176.926C667.312 179.526 670.039 181.222 673.076 181.049C677.274 180.809 680.476 177.087 680.228 172.736C679.979 168.385 676.374 165.051 672.176 165.291C669.515 165.443 667.255 166.994 666.019 169.217M672.445 227.328L673.065 317.171M732.043 1112.24C738.525 1145.43 767.069 1170.19 800.905 1169.67C839.087 1169.09 869.549 1136.53 868.944 1096.96C868.338 1057.38 836.894 1025.77 798.712 1026.36C765.851 1026.86 738.709 1051.04 732.167 1083M846.619 1087.36C841.959 1065.78 823.405 1049.61 801.161 1049.53C775.329 1049.43 754.304 1071.05 754.201 1097.83C754.097 1124.6 774.955 1146.39 800.787 1146.49C822.037 1146.57 840.034 1131.95 845.807 1111.86M808.685 1123.84C819.697 1120.44 827.689 1110.51 827.734 1098.75C827.79 1084.15 815.568 1072.27 800.434 1072.21C785.301 1072.15 772.987 1083.94 772.931 1098.54C772.887 1109.88 780.244 1119.57 790.618 1123.37M791.796 1093.47C793.439 1089.91 796.955 1087.45 801.017 1087.47C806.633 1087.49 811.167 1092.23 811.145 1098.05C811.122 1103.87 806.552 1108.57 800.936 1108.55C797.376 1108.53 794.251 1106.63 792.446 1103.75M800.368 1025.95L801.196 905.971M1554.13 789.392V372.871H1121.17V863.854H1554.13V829.183" stroke="#6DFC3C" stroke-width="4" stroke-linecap="round" stroke-linejoin="round"/>
</g>
<g id="full-frame-shadow" filter="url(#filter7_d)">
<path d="M287.609 903.284H15.3578C9.18915 903.284 4.18848 898.126 4.18848 891.762V328.419C4.18848 322.055 9.18914 316.897 15.3578 316.897H1584.64C1590.81 316.897 1595.81 322.055 1595.81 328.419V891.762C1595.81 898.126 1590.81 903.284 1584.64 903.284H335.079M266.164 104.831C258.442 143.565 224.988 172.362 185.466 171.605C140.867 170.75 105.43 132.583 106.316 86.3565C107.202 40.1298 144.075 3.34845 188.674 4.20307C227.057 4.93857 258.653 33.31 266.151 70.671M132.437 75.2518C137.977 50.0598 159.725 31.2604 185.708 31.2604C215.884 31.2604 240.346 56.6152 240.346 87.8919C240.346 119.169 215.884 144.523 185.708 144.523C160.885 144.523 139.928 127.365 133.275 103.867M176.583 118.026C163.736 114.012 154.445 102.373 154.445 88.64C154.445 71.5842 168.776 57.7578 186.454 57.7578C204.132 57.7578 218.463 71.5842 218.463 88.64C218.463 101.881 209.826 113.176 197.691 117.566M196.449 82.6366C194.547 78.4664 190.451 75.5815 185.705 75.5815C179.145 75.5815 173.827 81.0934 173.827 87.8927C173.827 94.692 179.145 100.204 185.705 100.204C189.863 100.204 193.522 97.9896 195.644 94.6365M185.293 172.366L185.693 315.396M465.928 60.2825C498.905 66.3576 523.765 94.4002 523.612 127.959C523.439 165.83 491.478 196.385 452.225 196.206C412.972 196.027 381.292 165.181 381.465 127.31C381.614 94.7179 405.307 67.5441 436.93 60.7166M407.679 116.793C412.383 95.405 430.846 79.4445 452.906 79.4445C478.525 79.4445 499.293 100.97 499.293 127.524C499.293 154.078 478.525 175.604 452.906 175.604C431.831 175.604 414.039 161.036 408.39 141.087M477.277 136.72C473.703 147.575 463.702 155.31 452.045 155.132C437.566 154.911 426.015 142.566 426.244 127.559C426.474 112.552 438.397 100.566 452.875 100.788C464.115 100.959 473.591 108.438 477.161 118.797M458.455 136.626C461.908 134.833 464.178 131.236 463.973 127.212C463.689 121.65 458.786 117.379 453.021 117.672C447.256 117.966 442.812 122.713 443.096 128.275C443.275 131.8 445.311 134.807 448.245 136.462M453.002 197.141L453.823 316.132M723.39 184.034C718.44 208.864 696.995 227.323 671.661 226.838C643.071 226.29 620.356 201.824 620.923 172.191C621.491 142.559 645.128 118.981 673.717 119.529C698.321 120 718.576 138.187 723.382 162.137M682.602 138.062C699.441 142.29 711.656 157.294 711.141 174.775C710.542 195.076 692.998 211.029 671.956 210.409C650.915 209.788 634.343 192.827 634.942 172.526C635.434 155.826 647.394 142.068 663.335 138.058M666.198 192.074C657.962 189.501 652.007 182.04 652.007 173.237C652.007 162.304 661.194 153.441 672.526 153.441C683.858 153.441 693.044 162.304 693.044 173.237C693.044 181.725 687.508 188.965 679.728 191.779M665.942 176.926C667.312 179.526 670.039 181.222 673.076 181.049C677.274 180.809 680.476 177.087 680.228 172.736C679.979 168.385 676.374 165.051 672.176 165.291C669.515 165.443 667.255 166.994 666.019 169.217M672.445 227.328L673.065 317.171M732.043 1112.24C738.525 1145.43 767.069 1170.19 800.905 1169.67C839.087 1169.09 869.549 1136.53 868.944 1096.96C868.338 1057.38 836.894 1025.77 798.712 1026.36C765.851 1026.86 738.709 1051.04 732.167 1083M846.619 1087.36C841.959 1065.78 823.405 1049.61 801.161 1049.53C775.329 1049.43 754.304 1071.05 754.201 1097.83C754.097 1124.6 774.955 1146.39 800.787 1146.49C822.037 1146.57 840.034 1131.95 845.807 1111.86M808.685 1123.84C819.697 1120.44 827.689 1110.51 827.734 1098.75C827.79 1084.15 815.568 1072.27 800.434 1072.21C785.301 1072.15 772.987 1083.94 772.931 1098.54C772.887 1109.88 780.244 1119.57 790.618 1123.37M791.796 1093.47C793.439 1089.91 796.955 1087.45 801.017 1087.47C806.633 1087.49 811.167 1092.23 811.145 1098.05C811.122 1103.87 806.552 1108.57 800.936 1108.55C797.376 1108.53 794.251 1106.63 792.446 1103.75M800.368 1025.95L801.196 905.971M1554.13 789.392V372.871H1121.17V863.854H1554.13V829.183" stroke="#6DFC3C" stroke-width="4" stroke-linecap="round" stroke-linejoin="round"/>
</g>
<path id="full-frame" d="M287.609 903.284H15.3578C9.18915 903.284 4.18848 898.126 4.18848 891.762V328.419C4.18848 322.055 9.18914 316.897 15.3578 316.897H1584.64C1590.81 316.897 1595.81 322.055 1595.81 328.419V891.762C1595.81 898.126 1590.81 903.284 1584.64 903.284H335.079M266.164 104.831C258.442 143.565 224.988 172.362 185.466 171.605C140.867 170.75 105.43 132.583 106.316 86.3565C107.202 40.1298 144.075 3.34845 188.674 4.20307C227.057 4.93857 258.653 33.31 266.151 70.671M132.437 75.2518C137.977 50.0598 159.725 31.2604 185.708 31.2604C215.884 31.2604 240.346 56.6152 240.346 87.8919C240.346 119.169 215.884 144.523 185.708 144.523C160.885 144.523 139.928 127.365 133.275 103.867M176.583 118.026C163.736 114.012 154.445 102.373 154.445 88.64C154.445 71.5842 168.776 57.7578 186.454 57.7578C204.132 57.7578 218.463 71.5842 218.463 88.64C218.463 101.881 209.826 113.176 197.691 117.566M196.449 82.6366C194.547 78.4664 190.451 75.5815 185.705 75.5815C179.145 75.5815 173.827 81.0934 173.827 87.8927C173.827 94.692 179.145 100.204 185.705 100.204C189.863 100.204 193.522 97.9896 195.644 94.6365M185.293 172.366L185.693 315.396M465.928 60.2825C498.905 66.3576 523.765 94.4002 523.612 127.959C523.439 165.83 491.478 196.385 452.225 196.206C412.972 196.027 381.292 165.181 381.465 127.31C381.614 94.7179 405.307 67.5441 436.93 60.7166M407.679 116.793C412.383 95.405 430.846 79.4445 452.906 79.4445C478.525 79.4445 499.293 100.97 499.293 127.524C499.293 154.078 478.525 175.604 452.906 175.604C431.831 175.604 414.039 161.036 408.39 141.087M477.277 136.72C473.703 147.575 463.702 155.31 452.045 155.132C437.566 154.911 426.015 142.566 426.244 127.559C426.474 112.552 438.397 100.566 452.875 100.788C464.115 100.959 473.591 108.438 477.161 118.797M458.455 136.626C461.908 134.833 464.178 131.236 463.973 127.212C463.689 121.65 458.786 117.379 453.021 117.672C447.256 117.966 442.812 122.713 443.096 128.275C443.275 131.8 445.311 134.807 448.245 136.462M453.002 197.141L453.823 316.132M723.39 184.034C718.44 208.864 696.995 227.323 671.661 226.838C643.071 226.29 620.356 201.824 620.923 172.191C621.491 142.559 645.128 118.981 673.717 119.529C698.321 120 718.576 138.187 723.382 162.137M682.602 138.062C699.441 142.29 711.656 157.294 711.141 174.775C710.542 195.076 692.998 211.029 671.956 210.409C650.915 209.788 634.343 192.827 634.942 172.526C635.434 155.826 647.394 142.068 663.335 138.058M666.198 192.074C657.962 189.501 652.007 182.04 652.007 173.237C652.007 162.304 661.194 153.441 672.526 153.441C683.858 153.441 693.044 162.304 693.044 173.237C693.044 181.725 687.508 188.965 679.728 191.779M665.942 176.926C667.312 179.526 670.039 181.222 673.076 181.049C677.274 180.809 680.476 177.087 680.228 172.736C679.979 168.385 676.374 165.051 672.176 165.291C669.515 165.443 667.255 166.994 666.019 169.217M672.445 227.328L673.065 317.171M732.043 1112.24C738.525 1145.43 767.069 1170.19 800.905 1169.67C839.087 1169.09 869.549 1136.53 868.944 1096.96C868.338 1057.38 836.894 1025.77 798.712 1026.36C765.851 1026.86 738.709 1051.04 732.167 1083M846.619 1087.36C841.959 1065.78 823.405 1049.61 801.161 1049.53C775.329 1049.43 754.304 1071.05 754.201 1097.83C754.097 1124.6 774.955 1146.39 800.787 1146.49C822.037 1146.57 840.034 1131.95 845.807 1111.86M808.685 1123.84C819.697 1120.44 827.689 1110.51 827.734 1098.75C827.79 1084.15 815.568 1072.27 800.434 1072.21C785.301 1072.15 772.987 1083.94 772.931 1098.54C772.887 1109.88 780.244 1119.57 790.618 1123.37M791.796 1093.47C793.439 1089.91 796.955 1087.45 801.017 1087.47C806.633 1087.49 811.167 1092.23 811.145 1098.05C811.122 1103.87 806.552 1108.57 800.936 1108.55C797.376 1108.53 794.251 1106.63 792.446 1103.75M800.368 1025.95L801.196 905.971M1554.13 789.392V372.871H1121.17V863.854H1554.13V829.183" stroke="#6DFC3C" stroke-width="4" stroke-linecap="round" stroke-linejoin="round"/>
<path id="about-outline" d="M287.609 901.888H15.3578C9.18915 901.888 4.18848 896.729 4.18848 890.366V327.022C4.18848 320.659 9.18914 315.5 15.3578 315.5H1584.64C1590.81 315.5 1595.81 320.659 1595.81 327.022V890.366C1595.81 896.729 1590.81 901.888 1584.64 901.888H335.079M266.164 103.435C258.442 142.169 224.988 170.966 185.466 170.208C140.867 169.354 105.43 131.187 106.316 84.96C107.202 38.7333 144.075 1.95197 188.674 2.80659C227.057 3.54209 258.653 31.9136 266.151 69.2745M132.437 73.8553C137.977 48.6634 159.725 29.8639 185.708 29.8639C215.884 29.8639 240.346 55.2187 240.346 86.4955C240.346 117.772 215.884 143.127 185.708 143.127C160.885 143.127 139.928 125.969 133.275 102.471M176.583 116.629C163.736 112.615 154.445 100.976 154.445 87.2435C154.445 70.1877 168.776 56.3613 186.454 56.3613C204.132 56.3613 218.463 70.1877 218.463 87.2435C218.463 100.485 209.826 111.779 197.691 116.169M196.449 81.2401C194.547 77.0699 190.451 74.185 185.705 74.185C179.145 74.185 173.827 79.6969 173.827 86.4962C173.827 93.2955 179.145 98.8074 185.705 98.8074C189.863 98.8074 193.522 96.5931 195.644 93.24M185.293 170.969L185.693 313.999M465.928 58.8861C498.905 64.9611 523.765 93.0038 523.612 126.563C523.439 164.434 491.478 194.989 452.225 194.809C412.972 194.63 381.292 163.785 381.465 125.914C381.614 93.3215 405.307 66.1477 436.93 59.3201M407.679 115.396C412.383 94.0085 430.846 78.048 452.906 78.048C478.525 78.048 499.293 99.5739 499.293 126.128C499.293 152.681 478.525 174.207 452.906 174.207C431.831 174.207 414.039 159.64 408.39 139.69M477.277 135.324C473.703 146.178 463.702 153.914 452.045 153.736C437.566 153.514 426.015 141.169 426.244 126.163C426.474 111.156 438.397 99.1698 452.875 99.3911C464.115 99.5628 473.591 107.042 477.161 117.4M458.455 135.23C461.908 133.437 464.178 129.839 463.973 125.815C463.689 120.253 458.786 115.982 453.021 116.276C447.256 116.569 442.812 121.316 443.096 126.879C443.275 130.404 445.311 133.411 448.245 135.065M453.002 195.745L453.823 314.735M723.39 182.638C718.44 207.467 696.995 225.927 671.661 225.441C643.071 224.893 620.356 200.427 620.923 170.795C621.491 141.162 645.128 117.585 673.717 118.132C698.321 118.604 718.576 136.791 723.382 160.74M682.602 136.666C699.441 140.894 711.656 155.897 711.141 173.378C710.542 193.679 692.998 209.633 671.956 209.012C650.915 208.391 634.343 191.431 634.942 171.13C635.434 154.429 647.394 140.671 663.335 136.661M666.198 190.678C657.962 188.105 652.007 180.644 652.007 171.841C652.007 160.908 661.194 152.044 672.526 152.044C683.858 152.044 693.044 160.908 693.044 171.841C693.044 180.329 687.508 187.569 679.728 190.383M665.942 175.53C667.312 178.129 670.039 179.826 673.076 179.652C677.274 179.413 680.476 175.691 680.228 171.34C679.979 166.988 676.374 163.655 672.176 163.895C669.515 164.046 667.255 165.597 666.019 167.821M672.445 225.931L673.065 315.774M732.043 1110.85C738.525 1144.03 767.069 1168.79 800.905 1168.28C839.087 1167.69 869.549 1135.14 868.944 1095.56C868.338 1055.98 836.894 1024.38 798.712 1024.96C765.851 1025.46 738.709 1049.65 732.167 1081.6M846.619 1085.97C841.959 1064.38 823.405 1048.22 801.161 1048.13C775.329 1048.03 754.304 1069.66 754.201 1096.43C754.097 1123.21 774.955 1144.99 800.787 1145.09C822.037 1145.17 840.034 1130.56 845.807 1110.46M808.685 1122.44C819.697 1119.04 827.689 1109.11 827.734 1097.36C827.79 1082.76 815.568 1070.87 800.434 1070.81C785.301 1070.75 772.987 1082.54 772.931 1097.14C772.887 1108.48 780.244 1118.18 790.618 1121.98M791.796 1092.08C793.439 1088.51 796.955 1086.06 801.017 1086.07C806.633 1086.1 811.167 1090.83 811.145 1096.65C811.122 1102.47 806.552 1107.17 800.936 1107.15C797.376 1107.14 794.251 1105.23 792.446 1102.35M800.368 1024.56L801.196 904.575M1554.13 787.996V371.474H1121.17V862.457H1554.13V827.786" stroke="#B6FE9E" stroke-width="2" stroke-linecap="round" stroke-linejoin="round"/>
</g>
</g>
<defs>
<filter id="filter0_f" x="600.746" y="363.399" width="701.33" height="601.182" filterUnits="userSpaceOnUse" color-interpolation-filters="sRGB">
<feFlood flood-opacity="0" result="BackgroundImageFix"/>
<feBlend mode="normal" in="SourceGraphic" in2="BackgroundImageFix" result="shape"/>
<feGaussianBlur stdDeviation="90" result="effect1_foregroundBlur"/>
</filter>
<filter id="filter1_f" x="766.246" y="528.899" width="370.33" height="270.182" filterUnits="userSpaceOnUse" color-interpolation-filters="sRGB">
<feFlood flood-opacity="0" result="BackgroundImageFix"/>
<feBlend mode="normal" in="SourceGraphic" in2="BackgroundImageFix" result="shape"/>
<feGaussianBlur stdDeviation="7.5" result="effect1_foregroundBlur"/>
</filter>
<filter id="filter2_f" x="774.246" y="536.899" width="354.33" height="254.182" filterUnits="userSpaceOnUse" color-interpolation-filters="sRGB">
<feFlood flood-opacity="0" result="BackgroundImageFix"/>
<feBlend mode="normal" in="SourceGraphic" in2="BackgroundImageFix" result="shape"/>
<feGaussianBlur stdDeviation="3.5" result="effect1_foregroundBlur"/>
</filter>
<filter id="filter3_d" x="778.246" y="543.899" width="346.33" height="248.182" filterUnits="userSpaceOnUse" color-interpolation-filters="sRGB">
<feFlood flood-opacity="0" result="BackgroundImageFix"/>
<feColorMatrix in="SourceAlpha" type="matrix" values="0 0 0 0 0 0 0 0 0 0 0 0 0 0 0 0 0 0 127 0"/>
<feOffset dy="5"/>
<feGaussianBlur stdDeviation="1.5"/>
<feColorMatrix type="matrix" values="0 0 0 0 0 0 0 0 0 0 0 0 0 0 0 0 0 0 0.6 0"/>
<feBlend mode="normal" in2="BackgroundImageFix" result="effect1_dropShadow"/>
<feBlend mode="normal" in="SourceGraphic" in2="effect1_dropShadow" result="shape"/>
</filter>
<filter id="filter4_f" x="-178.312" y="-178.312" width="1956.62" height="1530.49" filterUnits="userSpaceOnUse" color-interpolation-filters="sRGB">
<feFlood flood-opacity="0" result="BackgroundImageFix"/>
<feBlend mode="normal" in="SourceGraphic" in2="BackgroundImageFix" result="shape"/>
<feGaussianBlur stdDeviation="90" result="effect1_foregroundBlur"/>
</filter>
<filter id="filter5_f" x="-12.8115" y="-12.8115" width="1625.62" height="1199.49" filterUnits="userSpaceOnUse" color-interpolation-filters="sRGB">
<feFlood flood-opacity="0" result="BackgroundImageFix"/>
<feBlend mode="normal" in="SourceGraphic" in2="BackgroundImageFix" result="shape"/>
<feGaussianBlur stdDeviation="7.5" result="effect1_foregroundBlur"/>
</filter>
<filter id="filter6_f" x="-4.81152" y="-4.81152" width="1609.62" height="1183.49" filterUnits="userSpaceOnUse" color-interpolation-filters="sRGB">
<feFlood flood-opacity="0" result="BackgroundImageFix"/>
<feBlend mode="normal" in="SourceGraphic" in2="BackgroundImageFix" result="shape"/>
<feGaussianBlur stdDeviation="3.5" result="effect1_foregroundBlur"/>
</filter>
<filter id="filter7_d" x="-0.811523" y="2.18848" width="1601.62" height="1177.49" filterUnits="userSpaceOnUse" color-interpolation-filters="sRGB">
<feFlood flood-opacity="0" result="BackgroundImageFix"/>
<feColorMatrix in="SourceAlpha" type="matrix" values="0 0 0 0 0 0 0 0 0 0 0 0 0 0 0 0 0 0 127 0"/>
<feOffset dy="5"/>
<feGaussianBlur stdDeviation="1.5"/>
<feColorMatrix type="matrix" values="0 0 0 0 0 0 0 0 0 0 0 0 0 0 0 0 0 0 0.6 0"/>
<feBlend mode="normal" in2="BackgroundImageFix" result="effect1_dropShadow"/>
<feBlend mode="normal" in="SourceGraphic" in2="effect1_dropShadow" result="shape"/>
</filter>
<clipPath id="clip0">
<rect width="1600" height="1174.17" fill="white"/>
</clipPath>
</defs>
</svg>
