<svg width="800" height="602" viewBox="0 0 800 602" fill="none" xmlns="http://www.w3.org/2000/svg">
<g id="project3-svg" clip-path="url(#clip0)">
<g id="Group 109">
<g id="project3-final">
<g id="project3-overlay" filter="url(#filter0_f)">
<path d="M692 80.0001H783C787.418 80.0001 791 83.5818 791 88.0001V492C791 496.418 787.418 500 783 500H239C234.581 500 231 496.418 231 492V88.0001C231 83.5818 234.581 80.0001 239 80.0001H658M136.331 360.445C154.273 364.244 167.46 379.936 166.89 398.282C166.248 418.985 148.331 435.229 126.872 434.563C105.413 433.897 88.5383 416.574 89.1808 395.87C89.7339 378.052 103.081 363.538 120.47 360.262M121.86 422.374C110.194 419.662 101.585 409.461 101.728 397.396C101.894 383.385 113.801 372.167 128.324 372.339C142.846 372.511 154.484 384.009 154.318 398.02C154.181 409.546 146.099 419.182 135.151 422.142M141.964 402.111C140.03 408.054 134.574 412.304 128.198 412.228C120.279 412.134 113.938 405.404 114.035 397.196C114.133 388.988 120.631 382.41 128.551 382.504C134.699 382.577 139.896 386.649 141.867 392.308M125.642 392.692C123.695 393.552 122.333 395.438 122.307 397.642C122.271 400.688 124.801 403.187 127.958 403.225C131.115 403.262 133.703 400.823 133.739 397.778C133.762 395.847 132.754 394.136 131.209 393.132M168 397L230.999 396.998M671.299 556.577C668.376 539.704 654.06 526.832 636.735 526.693C617.185 526.536 601.205 542.653 601.044 562.691C600.883 582.73 616.602 599.102 636.152 599.259C652.978 599.395 667.158 587.476 670.887 571.378M630.525 539.122C619.477 541.52 611.21 551.028 611.178 562.416C611.14 575.642 622.223 586.395 635.931 586.434C649.64 586.473 660.783 575.783 660.82 562.557C660.851 551.677 653.357 542.471 643.066 539.525M622.723 567.782C624.419 573.433 629.475 577.561 635.493 577.628C642.968 577.712 649.098 571.499 649.185 563.751C649.271 556.003 643.281 549.655 635.806 549.571C630.003 549.507 625.011 553.237 623.027 558.534M640.749 565.748C639.811 567.524 637.945 568.682 635.868 568.561C632.998 568.394 630.812 565.846 630.985 562.871C631.159 559.896 633.626 557.62 636.496 557.787C638.316 557.893 639.86 558.956 640.703 560.477M636 523L636.027 500M749.747 35.1118C750.454 36.4523 751.86 37.3272 753.426 37.2378C755.591 37.1142 757.243 35.1949 757.114 32.9508C756.986 30.7068 755.127 28.9879 752.962 29.1114C751.59 29.1898 750.424 29.9896 749.787 31.1362M779.372 38.777C776.819 51.5816 765.76 61.1011 752.695 60.8508C737.952 60.5683 726.237 47.9512 726.53 32.6697C726.823 17.3882 739.012 5.22914 753.755 5.51166C766.444 5.7548 776.889 15.1338 779.368 27.4844M758.338 15.0691C767.022 17.2494 773.321 24.9869 773.055 34.0017C772.746 44.471 763.699 52.6984 752.848 52.3782C741.997 52.058 733.451 43.3114 733.759 32.8422C734.014 24.2299 740.181 17.1347 748.402 15.0669M749.879 42.9233C745.632 41.5963 742.561 37.7487 742.561 33.209C742.561 27.5707 747.298 23 753.142 23C758.986 23 763.724 27.5707 763.724 33.209C763.724 37.5862 760.868 41.32 756.857 42.7712M753.013 63.0002L753 80.0011" stroke="#6DFC3C" stroke-width="5" stroke-linecap="round" stroke-linejoin="round"/>
</g>
<g id="project3-blur-15" filter="url(#filter1_f)">
<path d="M692 80.0001H783C787.418 80.0001 791 83.5818 791 88.0001V492C791 496.418 787.418 500 783 500H239C234.581 500 231 496.418 231 492V88.0001C231 83.5818 234.581 80.0001 239 80.0001H658M136.331 360.445C154.273 364.244 167.46 379.936 166.89 398.282C166.248 418.985 148.331 435.229 126.872 434.563C105.413 433.897 88.5383 416.574 89.1808 395.87C89.7339 378.052 103.081 363.538 120.47 360.262M121.86 422.374C110.194 419.662 101.585 409.461 101.728 397.396C101.894 383.385 113.801 372.167 128.324 372.339C142.846 372.511 154.484 384.009 154.318 398.02C154.181 409.546 146.099 419.182 135.151 422.142M141.964 402.111C140.03 408.054 134.574 412.304 128.198 412.228C120.279 412.134 113.938 405.404 114.035 397.196C114.133 388.988 120.631 382.41 128.551 382.504C134.699 382.577 139.896 386.649 141.867 392.308M125.642 392.692C123.695 393.552 122.333 395.438 122.307 397.642C122.271 400.688 124.801 403.187 127.958 403.225C131.115 403.262 133.703 400.823 133.739 397.778C133.762 395.847 132.754 394.136 131.209 393.132M168 397L230.999 396.998M671.299 556.577C668.376 539.704 654.06 526.832 636.735 526.693C617.185 526.536 601.205 542.653 601.044 562.691C600.883 582.73 616.602 599.102 636.152 599.259C652.978 599.395 667.158 587.476 670.887 571.378M630.525 539.122C619.477 541.52 611.21 551.028 611.178 562.416C611.14 575.642 622.223 586.395 635.931 586.434C649.64 586.473 660.783 575.783 660.82 562.557C660.851 551.677 653.357 542.471 643.066 539.525M622.723 567.782C624.419 573.433 629.475 577.561 635.493 577.628C642.968 577.712 649.098 571.499 649.185 563.751C649.271 556.003 643.281 549.655 635.806 549.571C630.003 549.507 625.011 553.237 623.027 558.534M640.749 565.748C639.811 567.524 637.945 568.682 635.868 568.561C632.998 568.394 630.812 565.846 630.985 562.871C631.159 559.896 633.626 557.62 636.496 557.787C638.316 557.893 639.86 558.956 640.703 560.477M636 523L636.027 500M749.747 35.1118C750.454 36.4523 751.86 37.3272 753.426 37.2378C755.591 37.1142 757.243 35.1949 757.114 32.9508C756.986 30.7068 755.127 28.9879 752.962 29.1114C751.59 29.1898 750.424 29.9896 749.787 31.1362M779.372 38.777C776.819 51.5816 765.76 61.1011 752.695 60.8508C737.952 60.5683 726.237 47.9512 726.53 32.6697C726.823 17.3882 739.012 5.22914 753.755 5.51166C766.444 5.7548 776.889 15.1338 779.368 27.4844M758.338 15.0691C767.022 17.2494 773.321 24.9869 773.055 34.0017C772.746 44.471 763.699 52.6984 752.848 52.3782C741.997 52.058 733.451 43.3114 733.759 32.8422C734.014 24.2299 740.181 17.1347 748.402 15.0669M749.879 42.9233C745.632 41.5963 742.561 37.7487 742.561 33.209C742.561 27.5707 747.298 23 753.142 23C758.986 23 763.724 27.5707 763.724 33.209C763.724 37.5862 760.868 41.32 756.857 42.7712M753.013 63.0002L753 80.0011" stroke="#6DFC3C" stroke-width="4" stroke-linecap="round" stroke-linejoin="round"/>
</g>
<g id="project3-blur-7" filter="url(#filter2_f)">
<path d="M692 80.0001H783C787.418 80.0001 791 83.5818 791 88.0001V492C791 496.418 787.418 500 783 500H239C234.581 500 231 496.418 231 492V88.0001C231 83.5818 234.581 80.0001 239 80.0001H658M136.331 360.445C154.273 364.244 167.46 379.936 166.89 398.282C166.248 418.985 148.331 435.229 126.872 434.563C105.413 433.897 88.5383 416.574 89.1808 395.87C89.7339 378.052 103.081 363.538 120.47 360.262M121.86 422.374C110.194 419.662 101.585 409.461 101.728 397.396C101.894 383.385 113.801 372.167 128.324 372.339C142.846 372.511 154.484 384.009 154.318 398.02C154.181 409.546 146.099 419.182 135.151 422.142M141.964 402.111C140.03 408.054 134.574 412.304 128.198 412.228C120.279 412.134 113.938 405.404 114.035 397.196C114.133 388.988 120.631 382.41 128.551 382.504C134.699 382.577 139.896 386.649 141.867 392.308M125.642 392.692C123.695 393.552 122.333 395.438 122.307 397.642C122.271 400.688 124.801 403.187 127.958 403.225C131.115 403.262 133.703 400.823 133.739 397.778C133.762 395.847 132.754 394.136 131.209 393.132M168 397L230.999 396.998M671.299 556.577C668.376 539.704 654.06 526.832 636.735 526.693C617.185 526.536 601.205 542.653 601.044 562.691C600.883 582.73 616.602 599.102 636.152 599.259C652.978 599.395 667.158 587.476 670.887 571.378M630.525 539.122C619.477 541.52 611.21 551.028 611.178 562.416C611.14 575.642 622.223 586.395 635.931 586.434C649.64 586.473 660.783 575.783 660.82 562.557C660.851 551.677 653.357 542.471 643.066 539.525M622.723 567.782C624.419 573.433 629.475 577.561 635.493 577.628C642.968 577.712 649.098 571.499 649.185 563.751C649.271 556.003 643.281 549.655 635.806 549.571C630.003 549.507 625.011 553.237 623.027 558.534M640.749 565.748C639.811 567.524 637.945 568.682 635.868 568.561C632.998 568.394 630.812 565.846 630.985 562.871C631.159 559.896 633.626 557.62 636.496 557.787C638.316 557.893 639.86 558.956 640.703 560.477M636 523L636.027 500M749.747 35.1118C750.454 36.4523 751.86 37.3272 753.426 37.2378C755.591 37.1142 757.243 35.1949 757.114 32.9508C756.986 30.7068 755.127 28.9879 752.962 29.1114C751.59 29.1898 750.424 29.9896 749.787 31.1362M779.372 38.777C776.819 51.5816 765.76 61.1011 752.695 60.8508C737.952 60.5683 726.237 47.9512 726.53 32.6697C726.823 17.3882 739.012 5.22914 753.755 5.51166C766.444 5.7548 776.889 15.1338 779.368 27.4844M758.338 15.0691C767.022 17.2494 773.321 24.9869 773.055 34.0017C772.746 44.471 763.699 52.6984 752.848 52.3782C741.997 52.058 733.451 43.3114 733.759 32.8422C734.014 24.2299 740.181 17.1347 748.402 15.0669M749.879 42.9233C745.632 41.5963 742.561 37.7487 742.561 33.209C742.561 27.5707 747.298 23 753.142 23C758.986 23 763.724 27.5707 763.724 33.209C763.724 37.5862 760.868 41.32 756.857 42.7712M753.013 63.0002L753 80.0011" stroke="#6DFC3C" stroke-width="4" stroke-linecap="round" stroke-linejoin="round"/>
</g>
<g id="project3-shadow" filter="url(#filter3_d)">
<path d="M692 80.0001H783C787.418 80.0001 791 83.5818 791 88.0001V492C791 496.418 787.418 500 783 500H239C234.581 500 231 496.418 231 492V88.0001C231 83.5818 234.581 80.0001 239 80.0001H658M136.331 360.445C154.273 364.244 167.46 379.936 166.89 398.282C166.248 418.985 148.331 435.229 126.872 434.563C105.413 433.897 88.5383 416.574 89.1808 395.87C89.7339 378.052 103.081 363.538 120.47 360.262M121.86 422.374C110.194 419.662 101.585 409.461 101.728 397.396C101.894 383.385 113.801 372.167 128.324 372.339C142.846 372.511 154.484 384.009 154.318 398.02C154.181 409.546 146.099 419.182 135.151 422.142M141.964 402.111C140.03 408.054 134.574 412.304 128.198 412.228C120.279 412.134 113.938 405.404 114.035 397.196C114.133 388.988 120.631 382.41 128.551 382.504C134.699 382.577 139.896 386.649 141.867 392.308M125.642 392.692C123.695 393.552 122.333 395.438 122.307 397.642C122.271 400.688 124.801 403.187 127.958 403.225C131.115 403.262 133.703 400.823 133.739 397.778C133.762 395.847 132.754 394.136 131.209 393.132M168 397L230.999 396.998M671.299 556.577C668.376 539.704 654.06 526.832 636.735 526.693C617.185 526.536 601.205 542.653 601.044 562.691C600.883 582.73 616.602 599.102 636.152 599.259C652.978 599.395 667.158 587.476 670.887 571.378M630.525 539.122C619.477 541.52 611.21 551.028 611.178 562.416C611.14 575.642 622.223 586.395 635.931 586.434C649.64 586.473 660.783 575.783 660.82 562.557C660.851 551.677 653.357 542.471 643.066 539.525M622.723 567.782C624.419 573.433 629.475 577.561 635.493 577.628C642.968 577.712 649.098 571.499 649.185 563.751C649.271 556.003 643.281 549.655 635.806 549.571C630.003 549.507 625.011 553.237 623.027 558.534M640.749 565.748C639.811 567.524 637.945 568.682 635.868 568.561C632.998 568.394 630.812 565.846 630.985 562.871C631.159 559.896 633.626 557.62 636.496 557.787C638.316 557.893 639.86 558.956 640.703 560.477M636 523L636.027 500M749.747 35.1118C750.454 36.4523 751.86 37.3272 753.426 37.2378C755.591 37.1142 757.243 35.1949 757.114 32.9508C756.986 30.7068 755.127 28.9879 752.962 29.1114C751.59 29.1898 750.424 29.9896 749.787 31.1362M779.372 38.777C776.819 51.5816 765.76 61.1011 752.695 60.8508C737.952 60.5683 726.237 47.9512 726.53 32.6697C726.823 17.3882 739.012 5.22914 753.755 5.51166C766.444 5.7548 776.889 15.1338 779.368 27.4844M758.338 15.0691C767.022 17.2494 773.321 24.9869 773.055 34.0017C772.746 44.471 763.699 52.6984 752.848 52.3782C741.997 52.058 733.451 43.3114 733.759 32.8422C734.014 24.2299 740.181 17.1347 748.402 15.0669M749.879 42.9233C745.632 41.5963 742.561 37.7487 742.561 33.209C742.561 27.5707 747.298 23 753.142 23C758.986 23 763.724 27.5707 763.724 33.209C763.724 37.5862 760.868 41.32 756.857 42.7712M753.013 63.0002L753 80.0011" stroke="#6DFC3C" stroke-width="4" stroke-linecap="round" stroke-linejoin="round"/>
</g>
<path id="project3" d="M692 80.0001H783C787.418 80.0001 791 83.5818 791 88.0001V492C791 496.418 787.418 500 783 500H239C234.581 500 231 496.418 231 492V88.0001C231 83.5818 234.581 80.0001 239 80.0001H658M136.331 360.445C154.273 364.244 167.46 379.936 166.89 398.282C166.248 418.985 148.331 435.229 126.872 434.563C105.413 433.897 88.5383 416.574 89.1808 395.87C89.7339 378.052 103.081 363.538 120.47 360.262M121.86 422.374C110.194 419.662 101.585 409.461 101.728 397.396C101.894 383.385 113.801 372.167 128.324 372.339C142.846 372.511 154.484 384.009 154.318 398.02C154.181 409.546 146.099 419.182 135.151 422.142M141.964 402.111C140.03 408.054 134.574 412.304 128.198 412.228C120.279 412.134 113.938 405.404 114.035 397.196C114.133 388.988 120.631 382.41 128.551 382.504C134.699 382.577 139.896 386.649 141.867 392.308M125.642 392.692C123.695 393.552 122.333 395.438 122.307 397.642C122.271 400.688 124.801 403.187 127.958 403.225C131.115 403.262 133.703 400.823 133.739 397.778C133.762 395.847 132.754 394.136 131.209 393.132M168 397L230.999 396.998M671.299 556.577C668.376 539.704 654.06 526.832 636.735 526.693C617.185 526.536 601.205 542.653 601.044 562.691C600.883 582.73 616.602 599.102 636.152 599.259C652.978 599.395 667.158 587.476 670.887 571.378M630.525 539.122C619.477 541.52 611.21 551.028 611.178 562.416C611.14 575.642 622.223 586.395 635.931 586.434C649.64 586.473 660.783 575.783 660.82 562.557C660.851 551.677 653.357 542.471 643.066 539.525M622.723 567.782C624.419 573.433 629.475 577.561 635.493 577.628C642.968 577.712 649.098 571.499 649.185 563.751C649.271 556.003 643.281 549.655 635.806 549.571C630.003 549.507 625.011 553.237 623.027 558.534M640.749 565.748C639.811 567.524 637.945 568.682 635.868 568.561C632.998 568.394 630.812 565.846 630.985 562.871C631.159 559.896 633.626 557.62 636.496 557.787C638.316 557.893 639.86 558.956 640.703 560.477M636 523L636.027 500M749.747 35.1118C750.454 36.4523 751.86 37.3272 753.426 37.2378C755.591 37.1142 757.243 35.1949 757.114 32.9508C756.986 30.7068 755.127 28.9879 752.962 29.1114C751.59 29.1898 750.424 29.9896 749.787 31.1362M779.372 38.777C776.819 51.5816 765.76 61.1011 752.695 60.8508C737.952 60.5683 726.237 47.9512 726.53 32.6697C726.823 17.3882 739.012 5.22914 753.755 5.51166C766.444 5.7548 776.889 15.1338 779.368 27.4844M758.338 15.0691C767.022 17.2494 773.321 24.9869 773.055 34.0017C772.746 44.471 763.699 52.6984 752.848 52.3782C741.997 52.058 733.451 43.3114 733.759 32.8422C734.014 24.2299 740.181 17.1347 748.402 15.0669M749.879 42.9233C745.632 41.5963 742.561 37.7487 742.561 33.209C742.561 27.5707 747.298 23 753.142 23C758.986 23 763.724 27.5707 763.724 33.209C763.724 37.5862 760.868 41.32 756.857 42.7712M753.013 63.0002L753 80.0011" stroke="#6DFC3C" stroke-width="4" stroke-linecap="round" stroke-linejoin="round"/>
<path id="project3-outline" d="M692 79.0001H783C787.418 79.0001 791 82.5818 791 87.0001V491C791 495.418 787.418 499 783 499H239C234.581 499 231 495.418 231 491V87.0001C231 82.5818 234.581 79.0001 239 79.0001H658M136.331 359.445C154.273 363.244 167.46 378.936 166.89 397.282C166.248 417.985 148.331 434.229 126.872 433.563C105.413 432.897 88.5383 415.574 89.1808 394.87C89.7339 377.052 103.081 362.538 120.47 359.262M121.86 421.374C110.194 418.662 101.585 408.461 101.728 396.396C101.894 382.385 113.801 371.167 128.324 371.339C142.846 371.511 154.484 383.009 154.318 397.02C154.181 408.546 146.099 418.182 135.151 421.142M141.964 401.111C140.03 407.054 134.574 411.304 128.198 411.228C120.279 411.134 113.938 404.404 114.035 396.196C114.133 387.988 120.631 381.41 128.551 381.504C134.699 381.577 139.896 385.649 141.867 391.308M125.642 391.692C123.695 392.552 122.333 394.438 122.307 396.642C122.271 399.688 124.801 402.187 127.958 402.225C131.115 402.262 133.703 399.823 133.739 396.778C133.762 394.847 132.754 393.136 131.209 392.132M168 396L230.999 395.998M671.299 555.577C668.376 538.704 654.06 525.832 636.735 525.693C617.185 525.536 601.205 541.653 601.044 561.691C600.883 581.73 616.602 598.102 636.152 598.259C652.978 598.395 667.158 586.476 670.887 570.378M630.525 538.122C619.477 540.52 611.21 550.028 611.178 561.416C611.14 574.642 622.223 585.395 635.931 585.434C649.64 585.473 660.783 574.783 660.82 561.557C660.851 550.677 653.357 541.471 643.066 538.525M622.723 566.782C624.419 572.433 629.475 576.561 635.493 576.628C642.968 576.712 649.098 570.499 649.185 562.751C649.271 555.003 643.281 548.655 635.806 548.571C630.003 548.507 625.011 552.237 623.027 557.534M640.749 564.748C639.811 566.524 637.945 567.682 635.868 567.561C632.998 567.394 630.812 564.846 630.985 561.871C631.159 558.896 633.626 556.62 636.496 556.787C638.316 556.893 639.86 557.956 640.703 559.477M636 522L636.027 499M749.747 34.1118C750.454 35.4523 751.86 36.3272 753.426 36.2378C755.591 36.1142 757.243 34.1949 757.114 31.9508C756.986 29.7068 755.127 27.9879 752.962 28.1114C751.59 28.1898 750.424 28.9896 749.787 30.1362M779.372 37.777C776.819 50.5816 765.76 60.1011 752.695 59.8508C737.952 59.5683 726.237 46.9512 726.53 31.6697C726.823 16.3882 739.012 4.22914 753.755 4.51166C766.444 4.7548 776.889 14.1338 779.368 26.4844M758.338 14.0691C767.022 16.2494 773.321 23.9869 773.055 33.0017C772.746 43.471 763.699 51.6984 752.848 51.3782C741.997 51.058 733.451 42.3114 733.759 31.8422C734.014 23.2299 740.181 16.1347 748.402 14.0669M749.879 41.9233C745.632 40.5963 742.561 36.7487 742.561 32.209C742.561 26.5707 747.298 22 753.142 22C758.986 22 763.724 26.5707 763.724 32.209C763.724 36.5862 760.868 40.32 756.857 41.7712M753.013 62.0002L753 79.0011" stroke="#B6FE9E" stroke-width="2" stroke-linecap="round" stroke-linejoin="round"/>
</g>
</g>
</g>
<defs>
<filter id="filter0_f" x="-93.3369" y="-176.993" width="1066.84" height="958.754" filterUnits="userSpaceOnUse" color-interpolation-filters="sRGB">
<feFlood flood-opacity="0" result="BackgroundImageFix"/>
<feBlend mode="normal" in="SourceGraphic" in2="BackgroundImageFix" result="shape"/>
<feGaussianBlur stdDeviation="90" result="effect1_foregroundBlur"/>
</filter>
<filter id="filter1_f" x="72.1631" y="-11.4932" width="735.837" height="627.754" filterUnits="userSpaceOnUse" color-interpolation-filters="sRGB">
<feFlood flood-opacity="0" result="BackgroundImageFix"/>
<feBlend mode="normal" in="SourceGraphic" in2="BackgroundImageFix" result="shape"/>
<feGaussianBlur stdDeviation="7.5" result="effect1_foregroundBlur"/>
</filter>
<filter id="filter2_f" x="80.1631" y="-3.49316" width="719.837" height="611.754" filterUnits="userSpaceOnUse" color-interpolation-filters="sRGB">
<feFlood flood-opacity="0" result="BackgroundImageFix"/>
<feBlend mode="normal" in="SourceGraphic" in2="BackgroundImageFix" result="shape"/>
<feGaussianBlur stdDeviation="3.5" result="effect1_foregroundBlur"/>
</filter>
<filter id="filter3_d" x="84.1631" y="3.50684" width="711.837" height="605.754" filterUnits="userSpaceOnUse" color-interpolation-filters="sRGB">
<feFlood flood-opacity="0" result="BackgroundImageFix"/>
<feColorMatrix in="SourceAlpha" type="matrix" values="0 0 0 0 0 0 0 0 0 0 0 0 0 0 0 0 0 0 127 0"/>
<feOffset dy="5"/>
<feGaussianBlur stdDeviation="1.5"/>
<feColorMatrix type="matrix" values="0 0 0 0 0 0 0 0 0 0 0 0 0 0 0 0 0 0 0.6 0"/>
<feBlend mode="normal" in2="BackgroundImageFix" result="effect1_dropShadow"/>
<feBlend mode="normal" in="SourceGraphic" in2="effect1_dropShadow" result="shape"/>
</filter>
<clipPath id="clip0">
<rect width="800" height="602" fill="white"/>
</clipPath>
</defs>
</svg>
