<svg width="800" height="600" viewBox="0 0 800 600" fill="none" xmlns="http://www.w3.org/2000/svg">
<g clip-path="url(#clip0)">
<g filter="url(#filter0_f)">
<path d="M465.997 500H556.997C561.415 500 564.997 496.418 564.997 492V88.0001C564.997 83.5818 561.415 80.0001 556.997 80.0001H12.9971C8.5788 80.0001 4.99707 83.5818 4.99707 88.0001V492C4.99707 496.418 8.5788 500 12.9971 500H431.997M688.145 429.34C703.721 432.71 715.139 446.536 714.602 462.675C713.996 480.887 698.396 495.148 679.758 494.528C661.119 493.908 646.501 478.641 647.107 460.429C647.628 444.755 659.256 432.008 674.368 429.154M703.776 468.022C701.321 478.283 692.092 485.848 681.181 485.712C668.509 485.554 658.366 475.069 658.526 462.293C658.686 449.517 669.087 439.289 681.759 439.447C692.183 439.577 700.896 446.696 703.57 456.329M677.388 473.937C672.149 472.269 668.38 467.494 668.41 461.884C668.448 454.917 674.332 449.301 681.554 449.34C688.775 449.379 694.599 455.059 694.561 462.026C694.532 467.435 690.979 472.03 686.012 473.796M677.46 464.473C678.268 466.162 679.962 467.311 681.9 467.276C684.579 467.227 686.711 464.937 686.661 462.16C686.611 459.383 684.398 457.171 681.719 457.219C680.021 457.249 678.542 458.181 677.7 459.566M646 462H565M156.748 33.1118C157.454 34.4523 158.86 35.3272 160.426 35.2378C162.591 35.1142 164.243 33.1949 164.115 30.9508C163.986 28.7068 162.128 26.9879 159.963 27.1114C158.59 27.1898 157.424 27.9896 156.787 29.1362M186.372 36.777C183.819 49.5816 172.76 59.1011 159.695 58.8508C144.952 58.5683 133.237 45.9512 133.53 30.6697C133.823 15.3882 146.012 3.22914 160.756 3.51166C173.444 3.7548 183.889 13.1338 186.368 25.4844M165.338 13.0691C174.022 15.2494 180.322 22.9869 180.055 32.0017C179.747 42.471 170.699 50.6984 159.848 50.3782C148.997 50.058 140.451 41.3114 140.76 30.8422C141.014 22.2299 147.181 15.1347 155.402 13.0669M156.879 40.9233C152.632 39.5963 149.561 35.7487 149.561 31.209C149.561 25.5707 154.298 21 160.142 21C165.986 21 170.724 25.5707 170.724 31.209C170.724 35.5862 167.869 39.32 163.857 40.7712M160.014 61.0002L160 78.0011M274.823 570.911C277.707 585.673 290.404 596.688 305.455 596.457C322.44 596.198 335.99 581.716 335.721 564.111C335.451 546.507 321.464 532.446 304.48 532.706C289.862 532.93 277.789 543.687 274.879 557.903M300.471 544.019C290.871 546.101 283.689 554.363 283.661 564.257C283.628 575.748 293.257 585.091 305.167 585.124C317.078 585.158 326.759 575.87 326.792 564.379C326.819 554.927 320.307 546.928 311.366 544.369M316.705 560.907C315.214 556.003 310.809 552.432 305.58 552.391C299.085 552.342 293.778 557.758 293.727 564.49C293.675 571.222 298.898 576.719 305.393 576.769C310.435 576.808 314.761 573.552 316.468 568.944M303.617 568.847C302.044 568.091 300.976 566.51 301.012 564.703C301.061 562.206 303.2 560.223 305.789 560.274C308.377 560.325 310.436 562.391 310.386 564.889C310.355 566.472 309.484 567.848 308.192 568.631M305.027 532.372V500" stroke="#6DFC3C" stroke-width="5" stroke-linecap="round" stroke-linejoin="round"/>
</g>
<g filter="url(#filter1_f)">
<path d="M465.997 500H556.997C561.415 500 564.997 496.418 564.997 492V88.0001C564.997 83.5818 561.415 80.0001 556.997 80.0001H12.9971C8.5788 80.0001 4.99707 83.5818 4.99707 88.0001V492C4.99707 496.418 8.5788 500 12.9971 500H431.997M688.145 429.34C703.721 432.71 715.139 446.536 714.602 462.675C713.996 480.887 698.396 495.148 679.758 494.528C661.119 493.908 646.501 478.641 647.107 460.429C647.628 444.755 659.256 432.008 674.368 429.154M703.776 468.022C701.321 478.283 692.092 485.848 681.181 485.712C668.509 485.554 658.366 475.069 658.526 462.293C658.686 449.517 669.087 439.289 681.759 439.447C692.183 439.577 700.896 446.696 703.57 456.329M677.388 473.937C672.149 472.269 668.38 467.494 668.41 461.884C668.448 454.917 674.332 449.301 681.554 449.34C688.775 449.379 694.599 455.059 694.561 462.026C694.532 467.435 690.979 472.03 686.012 473.796M677.46 464.473C678.268 466.162 679.962 467.311 681.9 467.276C684.579 467.227 686.711 464.937 686.661 462.16C686.611 459.383 684.398 457.171 681.719 457.219C680.021 457.249 678.542 458.181 677.7 459.566M646 462H565M156.748 33.1118C157.454 34.4523 158.86 35.3272 160.426 35.2378C162.591 35.1142 164.243 33.1949 164.115 30.9508C163.986 28.7068 162.128 26.9879 159.963 27.1114C158.59 27.1898 157.424 27.9896 156.787 29.1362M186.372 36.777C183.819 49.5816 172.76 59.1011 159.695 58.8508C144.952 58.5683 133.237 45.9512 133.53 30.6697C133.823 15.3882 146.012 3.22914 160.756 3.51166C173.444 3.7548 183.889 13.1338 186.368 25.4844M165.338 13.0691C174.022 15.2494 180.322 22.9869 180.055 32.0017C179.747 42.471 170.699 50.6984 159.848 50.3782C148.997 50.058 140.451 41.3114 140.76 30.8422C141.014 22.2299 147.181 15.1347 155.402 13.0669M156.879 40.9233C152.632 39.5963 149.561 35.7487 149.561 31.209C149.561 25.5707 154.298 21 160.142 21C165.986 21 170.724 25.5707 170.724 31.209C170.724 35.5862 167.869 39.32 163.857 40.7712M160.014 61.0002L160 78.0011M274.823 570.911C277.707 585.673 290.404 596.688 305.455 596.457C322.44 596.198 335.99 581.716 335.721 564.111C335.451 546.507 321.464 532.446 304.48 532.706C289.862 532.93 277.789 543.687 274.879 557.903M300.471 544.019C290.871 546.101 283.689 554.363 283.661 564.257C283.628 575.748 293.257 585.091 305.167 585.124C317.078 585.158 326.759 575.87 326.792 564.379C326.819 554.927 320.307 546.928 311.366 544.369M316.705 560.907C315.214 556.003 310.809 552.432 305.58 552.391C299.085 552.342 293.778 557.758 293.727 564.49C293.675 571.222 298.898 576.719 305.393 576.769C310.435 576.808 314.761 573.552 316.468 568.944M303.617 568.847C302.044 568.091 300.976 566.51 301.012 564.703C301.061 562.206 303.2 560.223 305.789 560.274C308.377 560.325 310.436 562.391 310.386 564.889C310.355 566.472 309.484 567.848 308.192 568.631M305.027 532.372V500" stroke="#6DFC3C" stroke-width="4" stroke-linecap="round" stroke-linejoin="round"/>
</g>
<g filter="url(#filter2_f)">
<path d="M465.997 500H556.997C561.415 500 564.997 496.418 564.997 492V88.0001C564.997 83.5818 561.415 80.0001 556.997 80.0001H12.9971C8.5788 80.0001 4.99707 83.5818 4.99707 88.0001V492C4.99707 496.418 8.5788 500 12.9971 500H431.997M688.145 429.34C703.721 432.71 715.139 446.536 714.602 462.675C713.996 480.887 698.396 495.148 679.758 494.528C661.119 493.908 646.501 478.641 647.107 460.429C647.628 444.755 659.256 432.008 674.368 429.154M703.776 468.022C701.321 478.283 692.092 485.848 681.181 485.712C668.509 485.554 658.366 475.069 658.526 462.293C658.686 449.517 669.087 439.289 681.759 439.447C692.183 439.577 700.896 446.696 703.57 456.329M677.388 473.937C672.149 472.269 668.38 467.494 668.41 461.884C668.448 454.917 674.332 449.301 681.554 449.34C688.775 449.379 694.599 455.059 694.561 462.026C694.532 467.435 690.979 472.03 686.012 473.796M677.46 464.473C678.268 466.162 679.962 467.311 681.9 467.276C684.579 467.227 686.711 464.937 686.661 462.16C686.611 459.383 684.398 457.171 681.719 457.219C680.021 457.249 678.542 458.181 677.7 459.566M646 462H565M156.748 33.1118C157.454 34.4523 158.86 35.3272 160.426 35.2378C162.591 35.1142 164.243 33.1949 164.115 30.9508C163.986 28.7068 162.128 26.9879 159.963 27.1114C158.59 27.1898 157.424 27.9896 156.787 29.1362M186.372 36.777C183.819 49.5816 172.76 59.1011 159.695 58.8508C144.952 58.5683 133.237 45.9512 133.53 30.6697C133.823 15.3882 146.012 3.22914 160.756 3.51166C173.444 3.7548 183.889 13.1338 186.368 25.4844M165.338 13.0691C174.022 15.2494 180.322 22.9869 180.055 32.0017C179.747 42.471 170.699 50.6984 159.848 50.3782C148.997 50.058 140.451 41.3114 140.76 30.8422C141.014 22.2299 147.181 15.1347 155.402 13.0669M156.879 40.9233C152.632 39.5963 149.561 35.7487 149.561 31.209C149.561 25.5707 154.298 21 160.142 21C165.986 21 170.724 25.5707 170.724 31.209C170.724 35.5862 167.869 39.32 163.857 40.7712M160.014 61.0002L160 78.0011M274.823 570.911C277.707 585.673 290.404 596.688 305.455 596.457C322.44 596.198 335.99 581.716 335.721 564.111C335.451 546.507 321.464 532.446 304.48 532.706C289.862 532.93 277.789 543.687 274.879 557.903M300.471 544.019C290.871 546.101 283.689 554.363 283.661 564.257C283.628 575.748 293.257 585.091 305.167 585.124C317.078 585.158 326.759 575.87 326.792 564.379C326.819 554.927 320.307 546.928 311.366 544.369M316.705 560.907C315.214 556.003 310.809 552.432 305.58 552.391C299.085 552.342 293.778 557.758 293.727 564.49C293.675 571.222 298.898 576.719 305.393 576.769C310.435 576.808 314.761 573.552 316.468 568.944M303.617 568.847C302.044 568.091 300.976 566.51 301.012 564.703C301.061 562.206 303.2 560.223 305.789 560.274C308.377 560.325 310.436 562.391 310.386 564.889C310.355 566.472 309.484 567.848 308.192 568.631M305.027 532.372V500" stroke="#6DFC3C" stroke-width="4" stroke-linecap="round" stroke-linejoin="round"/>
</g>
<g filter="url(#filter3_d)">
<path d="M465.997 500H556.997C561.415 500 564.997 496.418 564.997 492V88.0001C564.997 83.5818 561.415 80.0001 556.997 80.0001H12.9971C8.5788 80.0001 4.99707 83.5818 4.99707 88.0001V492C4.99707 496.418 8.5788 500 12.9971 500H431.997M688.145 429.34C703.721 432.71 715.139 446.536 714.602 462.675C713.996 480.887 698.396 495.148 679.758 494.528C661.119 493.908 646.501 478.641 647.107 460.429C647.628 444.755 659.256 432.008 674.368 429.154M703.776 468.022C701.321 478.283 692.092 485.848 681.181 485.712C668.509 485.554 658.366 475.069 658.526 462.293C658.686 449.517 669.087 439.289 681.759 439.447C692.183 439.577 700.896 446.696 703.57 456.329M677.388 473.937C672.149 472.269 668.38 467.494 668.41 461.884C668.448 454.917 674.332 449.301 681.554 449.34C688.775 449.379 694.599 455.059 694.561 462.026C694.532 467.435 690.979 472.03 686.012 473.796M677.46 464.473C678.268 466.162 679.962 467.311 681.9 467.276C684.579 467.227 686.711 464.937 686.661 462.16C686.611 459.383 684.398 457.171 681.719 457.219C680.021 457.249 678.542 458.181 677.7 459.566M646 462H565M156.748 33.1118C157.454 34.4523 158.86 35.3272 160.426 35.2378C162.591 35.1142 164.243 33.1949 164.115 30.9508C163.986 28.7068 162.128 26.9879 159.963 27.1114C158.59 27.1898 157.424 27.9896 156.787 29.1362M186.372 36.777C183.819 49.5816 172.76 59.1011 159.695 58.8508C144.952 58.5683 133.237 45.9512 133.53 30.6697C133.823 15.3882 146.012 3.22914 160.756 3.51166C173.444 3.7548 183.889 13.1338 186.368 25.4844M165.338 13.0691C174.022 15.2494 180.322 22.9869 180.055 32.0017C179.747 42.471 170.699 50.6984 159.848 50.3782C148.997 50.058 140.451 41.3114 140.76 30.8422C141.014 22.2299 147.181 15.1347 155.402 13.0669M156.879 40.9233C152.632 39.5963 149.561 35.7487 149.561 31.209C149.561 25.5707 154.298 21 160.142 21C165.986 21 170.724 25.5707 170.724 31.209C170.724 35.5862 167.869 39.32 163.857 40.7712M160.014 61.0002L160 78.0011M274.823 570.911C277.707 585.673 290.404 596.688 305.455 596.457C322.44 596.198 335.99 581.716 335.721 564.111C335.451 546.507 321.464 532.446 304.48 532.706C289.862 532.93 277.789 543.687 274.879 557.903M300.471 544.019C290.871 546.101 283.689 554.363 283.661 564.257C283.628 575.748 293.257 585.091 305.167 585.124C317.078 585.158 326.759 575.87 326.792 564.379C326.819 554.927 320.307 546.928 311.366 544.369M316.705 560.907C315.214 556.003 310.809 552.432 305.58 552.391C299.085 552.342 293.778 557.758 293.727 564.49C293.675 571.222 298.898 576.719 305.393 576.769C310.435 576.808 314.761 573.552 316.468 568.944M303.617 568.847C302.044 568.091 300.976 566.51 301.012 564.703C301.061 562.206 303.2 560.223 305.789 560.274C308.377 560.325 310.436 562.391 310.386 564.889C310.355 566.472 309.484 567.848 308.192 568.631M305.027 532.372V500" stroke="#6DFC3C" stroke-width="4" stroke-linecap="round" stroke-linejoin="round"/>
</g>
<path d="M465.997 500H556.997C561.415 500 564.997 496.418 564.997 492V88.0001C564.997 83.5818 561.415 80.0001 556.997 80.0001H12.9971C8.5788 80.0001 4.99707 83.5818 4.99707 88.0001V492C4.99707 496.418 8.5788 500 12.9971 500H431.997M688.145 429.34C703.721 432.71 715.139 446.536 714.602 462.675C713.996 480.887 698.396 495.148 679.758 494.528C661.119 493.908 646.501 478.641 647.107 460.429C647.628 444.755 659.256 432.008 674.368 429.154M703.776 468.022C701.321 478.283 692.092 485.848 681.181 485.712C668.509 485.554 658.366 475.069 658.526 462.293C658.686 449.517 669.087 439.289 681.759 439.447C692.183 439.577 700.896 446.696 703.57 456.329M677.388 473.937C672.149 472.269 668.38 467.494 668.41 461.884C668.448 454.917 674.332 449.301 681.554 449.34C688.775 449.379 694.599 455.059 694.561 462.026C694.532 467.435 690.979 472.03 686.012 473.796M677.46 464.473C678.268 466.162 679.962 467.311 681.9 467.276C684.579 467.227 686.711 464.937 686.661 462.16C686.611 459.383 684.398 457.171 681.719 457.219C680.021 457.249 678.542 458.181 677.7 459.566M646 462H565M156.748 33.1118C157.454 34.4523 158.86 35.3272 160.426 35.2378C162.591 35.1142 164.243 33.1949 164.115 30.9508C163.986 28.7068 162.128 26.9879 159.963 27.1114C158.59 27.1898 157.424 27.9896 156.787 29.1362M186.372 36.777C183.819 49.5816 172.76 59.1011 159.695 58.8508C144.952 58.5683 133.237 45.9512 133.53 30.6697C133.823 15.3882 146.012 3.22914 160.756 3.51166C173.444 3.7548 183.889 13.1338 186.368 25.4844M165.338 13.0691C174.022 15.2494 180.322 22.9869 180.055 32.0017C179.747 42.471 170.699 50.6984 159.848 50.3782C148.997 50.058 140.451 41.3114 140.76 30.8422C141.014 22.2299 147.181 15.1347 155.402 13.0669M156.879 40.9233C152.632 39.5963 149.561 35.7487 149.561 31.209C149.561 25.5707 154.298 21 160.142 21C165.986 21 170.724 25.5707 170.724 31.209C170.724 35.5862 167.869 39.32 163.857 40.7712M160.014 61.0002L160 78.0011M274.823 570.911C277.707 585.673 290.404 596.688 305.455 596.457C322.44 596.198 335.99 581.716 335.721 564.111C335.451 546.507 321.464 532.446 304.48 532.706C289.862 532.93 277.789 543.687 274.879 557.903M300.471 544.019C290.871 546.101 283.689 554.363 283.661 564.257C283.628 575.748 293.257 585.091 305.167 585.124C317.078 585.158 326.759 575.87 326.792 564.379C326.819 554.927 320.307 546.928 311.366 544.369M316.705 560.907C315.214 556.003 310.809 552.432 305.58 552.391C299.085 552.342 293.778 557.758 293.727 564.49C293.675 571.222 298.898 576.719 305.393 576.769C310.435 576.808 314.761 573.552 316.468 568.944M303.617 568.847C302.044 568.091 300.976 566.51 301.012 564.703C301.061 562.206 303.2 560.223 305.789 560.274C308.377 560.325 310.436 562.391 310.386 564.889C310.355 566.472 309.484 567.848 308.192 568.631M305.027 532.372V500" stroke="#6DFC3C" stroke-width="4" stroke-linecap="round" stroke-linejoin="round"/>
<path d="M465.997 499H556.997C561.415 499 564.997 495.418 564.997 491V87.0001C564.997 82.5818 561.415 79.0001 556.997 79.0001H12.9971C8.5788 79.0001 4.99707 82.5818 4.99707 87.0001V491C4.99707 495.418 8.5788 499 12.9971 499H431.997M688.145 428.34C703.721 431.71 715.139 445.536 714.602 461.675C713.996 479.887 698.396 494.148 679.758 493.528C661.119 492.908 646.501 477.641 647.107 459.429C647.628 443.755 659.256 431.008 674.368 428.154M703.776 467.022C701.321 477.283 692.092 484.848 681.181 484.712C668.509 484.554 658.366 474.069 658.526 461.293C658.686 448.517 669.087 438.289 681.759 438.447C692.183 438.577 700.896 445.696 703.57 455.329M677.388 472.937C672.149 471.269 668.38 466.494 668.41 460.884C668.448 453.917 674.332 448.301 681.554 448.34C688.775 448.379 694.599 454.059 694.561 461.026C694.532 466.435 690.979 471.03 686.012 472.796M677.46 463.473C678.268 465.162 679.962 466.311 681.9 466.276C684.579 466.227 686.711 463.937 686.661 461.16C686.611 458.383 684.398 456.171 681.719 456.219C680.021 456.249 678.542 457.181 677.7 458.566M646 461H565M156.748 32.1118C157.454 33.4523 158.86 34.3272 160.426 34.2378C162.591 34.1142 164.243 32.1949 164.115 29.9508C163.986 27.7068 162.128 25.9879 159.963 26.1114C158.59 26.1898 157.424 26.9896 156.787 28.1362M186.372 35.777C183.819 48.5816 172.76 58.1011 159.695 57.8508C144.952 57.5683 133.237 44.9512 133.53 29.6697C133.823 14.3882 146.012 2.22914 160.756 2.51166C173.444 2.7548 183.889 12.1338 186.368 24.4844M165.338 12.0691C174.022 14.2494 180.322 21.9869 180.055 31.0017C179.747 41.471 170.699 49.6984 159.848 49.3782C148.997 49.058 140.451 40.3114 140.76 29.8422C141.014 21.2299 147.181 14.1347 155.402 12.0669M156.879 39.9233C152.632 38.5963 149.561 34.7487 149.561 30.209C149.561 24.5707 154.298 20 160.142 20C165.986 20 170.724 24.5707 170.724 30.209C170.724 34.5862 167.869 38.32 163.857 39.7712M160.014 60.0002L160 77.0011M274.823 569.911C277.707 584.673 290.404 595.688 305.455 595.457C322.44 595.198 335.99 580.716 335.721 563.111C335.451 545.507 321.464 531.446 304.48 531.706C289.862 531.93 277.789 542.687 274.879 556.903M300.471 543.019C290.871 545.101 283.689 553.363 283.661 563.257C283.628 574.748 293.257 584.091 305.167 584.124C317.078 584.158 326.759 574.87 326.792 563.379C326.819 553.927 320.307 545.928 311.366 543.369M316.705 559.907C315.214 555.003 310.809 551.432 305.58 551.391C299.085 551.342 293.778 556.758 293.727 563.49C293.675 570.222 298.898 575.719 305.393 575.769C310.435 575.808 314.761 572.552 316.468 567.944M303.617 567.847C302.044 567.091 300.976 565.51 301.012 563.703C301.061 561.206 303.2 559.223 305.789 559.274C308.377 559.325 310.436 561.391 310.386 563.889C310.355 565.472 309.484 566.848 308.192 567.631M305.027 531.372V499" stroke="#B6FE9E" stroke-width="2" stroke-linecap="round" stroke-linejoin="round"/>
</g>
<defs>
<filter id="filter0_f" x="-177.503" y="-178.993" width="1074.62" height="957.954" filterUnits="userSpaceOnUse" color-interpolation-filters="sRGB">
<feFlood flood-opacity="0" result="BackgroundImageFix"/>
<feBlend mode="normal" in="SourceGraphic" in2="BackgroundImageFix" result="shape"/>
<feGaussianBlur stdDeviation="90" result="effect1_foregroundBlur"/>
</filter>
<filter id="filter1_f" x="-12.0029" y="-13.4932" width="743.624" height="626.954" filterUnits="userSpaceOnUse" color-interpolation-filters="sRGB">
<feFlood flood-opacity="0" result="BackgroundImageFix"/>
<feBlend mode="normal" in="SourceGraphic" in2="BackgroundImageFix" result="shape"/>
<feGaussianBlur stdDeviation="7.5" result="effect1_foregroundBlur"/>
</filter>
<filter id="filter2_f" x="-4.00293" y="-5.49316" width="727.624" height="610.954" filterUnits="userSpaceOnUse" color-interpolation-filters="sRGB">
<feFlood flood-opacity="0" result="BackgroundImageFix"/>
<feBlend mode="normal" in="SourceGraphic" in2="BackgroundImageFix" result="shape"/>
<feGaussianBlur stdDeviation="3.5" result="effect1_foregroundBlur"/>
</filter>
<filter id="filter3_d" x="-0.00292969" y="1.50684" width="719.624" height="604.954" filterUnits="userSpaceOnUse" color-interpolation-filters="sRGB">
<feFlood flood-opacity="0" result="BackgroundImageFix"/>
<feColorMatrix in="SourceAlpha" type="matrix" values="0 0 0 0 0 0 0 0 0 0 0 0 0 0 0 0 0 0 127 0"/>
<feOffset dy="5"/>
<feGaussianBlur stdDeviation="1.5"/>
<feColorMatrix type="matrix" values="0 0 0 0 0 0 0 0 0 0 0 0 0 0 0 0 0 0 0.6 0"/>
<feBlend mode="normal" in2="BackgroundImageFix" result="effect1_dropShadow"/>
<feBlend mode="normal" in="SourceGraphic" in2="effect1_dropShadow" result="shape"/>
</filter>
<clipPath id="clip0">
<rect width="800" height="600" fill="white"/>
</clipPath>
</defs>
</svg>
