<svg width="800" height="600" viewBox="0 0 800 600" fill="none" xmlns="http://www.w3.org/2000/svg">
<g clip-path="url(#clip0)">
<g filter="url(#filter0_f)">
<path d="M74.0401 164.07C93.0099 160.288 107.113 143.904 106.742 124.549C106.323 102.707 87.6315 85.3517 64.9922 85.7855C42.353 86.2193 24.3396 104.278 24.7581 126.12C25.1183 144.918 39.0131 160.392 57.3104 164.064M59.5545 98.5777C47.2169 101.291 38.0099 111.942 38.0099 124.667C38.0099 139.445 50.4273 151.426 65.7449 151.426C81.0625 151.426 93.4798 139.445 93.4798 124.667C93.4798 112.51 85.0767 102.247 73.5686 98.9881M80.502 120.198C78.536 113.906 72.8359 109.356 66.1104 109.356C57.7574 109.356 50.986 116.375 50.986 125.033C50.986 133.69 57.7574 140.709 66.1104 140.709C72.5952 140.709 78.1267 136.479 80.2767 130.535M63.1706 129.927C61.1282 128.996 59.7154 126.99 59.7154 124.666C59.7154 121.453 62.4148 118.848 65.7447 118.848C69.0746 118.848 71.774 121.453 71.774 124.666C71.774 126.702 70.6896 128.494 69.0475 129.533M106.998 125.5H235.002M81.8923 221.479C84.777 235.551 97.0009 245.958 111.373 245.605C127.592 245.206 140.405 231.255 139.992 214.445C139.578 197.634 126.095 184.33 109.877 184.728C95.9185 185.071 84.4829 195.452 81.8296 209.055M105.894 195.631C96.7727 197.824 90.0906 205.865 90.2744 215.314C90.488 226.287 99.8808 235.002 111.254 234.781C122.627 234.56 131.674 225.485 131.46 214.512C131.285 205.486 124.897 197.987 116.305 195.733M114.498 226.101C119.163 224.616 122.519 220.364 122.492 215.37C122.458 209.167 117.219 204.166 110.79 204.201C104.36 204.236 99.1753 209.293 99.2089 215.496C99.235 220.312 102.399 224.403 106.821 225.975M113.346 211.096C114.844 211.828 115.854 213.344 115.809 215.07C115.746 217.455 113.691 219.336 111.219 219.271C108.747 219.206 106.794 217.22 106.857 214.835C106.897 213.323 107.737 212.014 108.976 211.274M141.883 215.455L235 214.933M433.738 555.854C436.321 569.076 447.694 578.942 461.175 578.736C476.388 578.503 488.526 565.532 488.285 549.763C488.043 533.995 475.515 521.4 460.301 521.633C447.208 521.833 436.394 531.469 433.787 544.202M479.389 545.941C477.532 537.341 470.139 530.9 461.276 530.866C450.984 530.826 442.607 539.442 442.565 550.11C442.524 560.778 450.835 569.459 461.127 569.499C469.594 569.531 476.765 563.706 479.065 555.7M464.275 560.472C468.662 559.12 471.846 555.162 471.865 550.478C471.887 544.661 467.017 539.926 460.987 539.902C454.957 539.879 450.051 544.576 450.029 550.394C450.011 554.91 452.942 558.774 457.076 560.287M457.546 548.375C458.2 546.955 459.601 545.977 461.219 545.983C463.457 545.991 465.264 547.879 465.255 550.198C465.246 552.517 463.425 554.39 461.187 554.381C459.769 554.376 458.524 553.616 457.804 552.469M461 521L460.995 500M235 426V88C235 83.5817 238.582 80 243 80H787C791.419 80 795 83.5817 795 88V492C795 496.418 791.419 500 787 500H243C238.582 500 235 496.418 235 492V460" stroke="#6DFC3C" stroke-width="5" stroke-linecap="round" stroke-linejoin="round"/>
</g>
<g filter="url(#filter1_f)">
<path d="M74.0401 164.07C93.0099 160.288 107.113 143.904 106.742 124.549C106.323 102.707 87.6315 85.3517 64.9922 85.7855C42.353 86.2193 24.3396 104.278 24.7581 126.12C25.1183 144.918 39.0131 160.392 57.3104 164.064M59.5545 98.5777C47.2169 101.291 38.0099 111.942 38.0099 124.667C38.0099 139.445 50.4273 151.426 65.7449 151.426C81.0625 151.426 93.4798 139.445 93.4798 124.667C93.4798 112.51 85.0767 102.247 73.5686 98.9881M80.502 120.198C78.536 113.906 72.8359 109.356 66.1104 109.356C57.7574 109.356 50.986 116.375 50.986 125.033C50.986 133.69 57.7574 140.709 66.1104 140.709C72.5952 140.709 78.1267 136.479 80.2767 130.535M63.1706 129.927C61.1282 128.996 59.7154 126.99 59.7154 124.666C59.7154 121.453 62.4148 118.848 65.7447 118.848C69.0746 118.848 71.774 121.453 71.774 124.666C71.774 126.702 70.6896 128.494 69.0475 129.533M106.998 125.5H235.002M81.8923 221.479C84.777 235.551 97.0009 245.958 111.373 245.605C127.592 245.206 140.405 231.255 139.992 214.445C139.578 197.634 126.095 184.33 109.877 184.728C95.9185 185.071 84.4829 195.452 81.8296 209.055M105.894 195.631C96.7727 197.824 90.0906 205.865 90.2744 215.314C90.488 226.287 99.8808 235.002 111.254 234.781C122.627 234.56 131.674 225.485 131.46 214.512C131.285 205.486 124.897 197.987 116.305 195.733M114.498 226.101C119.163 224.616 122.519 220.364 122.492 215.37C122.458 209.167 117.219 204.166 110.79 204.201C104.36 204.236 99.1753 209.293 99.2089 215.496C99.235 220.312 102.399 224.403 106.821 225.975M113.346 211.096C114.844 211.828 115.854 213.344 115.809 215.07C115.746 217.455 113.691 219.336 111.219 219.271C108.747 219.206 106.794 217.22 106.857 214.835C106.897 213.323 107.737 212.014 108.976 211.274M141.883 215.455L235 214.933M433.738 555.854C436.321 569.076 447.694 578.942 461.175 578.736C476.388 578.503 488.526 565.532 488.285 549.763C488.043 533.995 475.515 521.4 460.301 521.633C447.208 521.833 436.394 531.469 433.787 544.202M479.389 545.941C477.532 537.341 470.139 530.9 461.276 530.866C450.984 530.826 442.607 539.442 442.565 550.11C442.524 560.778 450.835 569.459 461.127 569.499C469.594 569.531 476.765 563.706 479.065 555.7M464.275 560.472C468.662 559.12 471.846 555.162 471.865 550.478C471.887 544.661 467.017 539.926 460.987 539.902C454.957 539.879 450.051 544.576 450.029 550.394C450.011 554.91 452.942 558.774 457.076 560.287M457.546 548.375C458.2 546.955 459.601 545.977 461.219 545.983C463.457 545.991 465.264 547.879 465.255 550.198C465.246 552.517 463.425 554.39 461.187 554.381C459.769 554.376 458.524 553.616 457.804 552.469M461 521L460.995 500M235 426V88C235 83.5817 238.582 80 243 80H787C791.419 80 795 83.5817 795 88V492C795 496.418 791.419 500 787 500H243C238.582 500 235 496.418 235 492V460" stroke="#6DFC3C" stroke-width="4" stroke-linecap="round" stroke-linejoin="round"/>
</g>
<g filter="url(#filter2_f)">
<path d="M74.0401 164.07C93.0099 160.288 107.113 143.904 106.742 124.549C106.323 102.707 87.6315 85.3517 64.9922 85.7855C42.353 86.2193 24.3396 104.278 24.7581 126.12C25.1183 144.918 39.0131 160.392 57.3104 164.064M59.5545 98.5777C47.2169 101.291 38.0099 111.942 38.0099 124.667C38.0099 139.445 50.4273 151.426 65.7449 151.426C81.0625 151.426 93.4798 139.445 93.4798 124.667C93.4798 112.51 85.0767 102.247 73.5686 98.9881M80.502 120.198C78.536 113.906 72.8359 109.356 66.1104 109.356C57.7574 109.356 50.986 116.375 50.986 125.033C50.986 133.69 57.7574 140.709 66.1104 140.709C72.5952 140.709 78.1267 136.479 80.2767 130.535M63.1706 129.927C61.1282 128.996 59.7154 126.99 59.7154 124.666C59.7154 121.453 62.4148 118.848 65.7447 118.848C69.0746 118.848 71.774 121.453 71.774 124.666C71.774 126.702 70.6896 128.494 69.0475 129.533M106.998 125.5H235.002M81.8923 221.479C84.777 235.551 97.0009 245.958 111.373 245.605C127.592 245.206 140.405 231.255 139.992 214.445C139.578 197.634 126.095 184.33 109.877 184.728C95.9185 185.071 84.4829 195.452 81.8296 209.055M105.894 195.631C96.7727 197.824 90.0906 205.865 90.2744 215.314C90.488 226.287 99.8808 235.002 111.254 234.781C122.627 234.56 131.674 225.485 131.46 214.512C131.285 205.486 124.897 197.987 116.305 195.733M114.498 226.101C119.163 224.616 122.519 220.364 122.492 215.37C122.458 209.167 117.219 204.166 110.79 204.201C104.36 204.236 99.1753 209.293 99.2089 215.496C99.235 220.312 102.399 224.403 106.821 225.975M113.346 211.096C114.844 211.828 115.854 213.344 115.809 215.07C115.746 217.455 113.691 219.336 111.219 219.271C108.747 219.206 106.794 217.22 106.857 214.835C106.897 213.323 107.737 212.014 108.976 211.274M141.883 215.455L235 214.933M433.738 555.854C436.321 569.076 447.694 578.942 461.175 578.736C476.388 578.503 488.526 565.532 488.285 549.763C488.043 533.995 475.515 521.4 460.301 521.633C447.208 521.833 436.394 531.469 433.787 544.202M479.389 545.941C477.532 537.341 470.139 530.9 461.276 530.866C450.984 530.826 442.607 539.442 442.565 550.11C442.524 560.778 450.835 569.459 461.127 569.499C469.594 569.531 476.765 563.706 479.065 555.7M464.275 560.472C468.662 559.12 471.846 555.162 471.865 550.478C471.887 544.661 467.017 539.926 460.987 539.902C454.957 539.879 450.051 544.576 450.029 550.394C450.011 554.91 452.942 558.774 457.076 560.287M457.546 548.375C458.2 546.955 459.601 545.977 461.219 545.983C463.457 545.991 465.264 547.879 465.255 550.198C465.246 552.517 463.425 554.39 461.187 554.381C459.769 554.376 458.524 553.616 457.804 552.469M461 521L460.995 500M235 426V88C235 83.5817 238.582 80 243 80H787C791.419 80 795 83.5817 795 88V492C795 496.418 791.419 500 787 500H243C238.582 500 235 496.418 235 492V460" stroke="#6DFC3C" stroke-width="4" stroke-linecap="round" stroke-linejoin="round"/>
</g>
<g filter="url(#filter3_d)">
<path d="M74.0401 164.07C93.0099 160.288 107.113 143.904 106.742 124.549C106.323 102.707 87.6315 85.3517 64.9922 85.7855C42.353 86.2193 24.3396 104.278 24.7581 126.12C25.1183 144.918 39.0131 160.392 57.3104 164.064M59.5545 98.5777C47.2169 101.291 38.0099 111.942 38.0099 124.667C38.0099 139.445 50.4273 151.426 65.7449 151.426C81.0625 151.426 93.4798 139.445 93.4798 124.667C93.4798 112.51 85.0767 102.247 73.5686 98.9881M80.502 120.198C78.536 113.906 72.8359 109.356 66.1104 109.356C57.7574 109.356 50.986 116.375 50.986 125.033C50.986 133.69 57.7574 140.709 66.1104 140.709C72.5952 140.709 78.1267 136.479 80.2767 130.535M63.1706 129.927C61.1282 128.996 59.7154 126.99 59.7154 124.666C59.7154 121.453 62.4148 118.848 65.7447 118.848C69.0746 118.848 71.774 121.453 71.774 124.666C71.774 126.702 70.6896 128.494 69.0475 129.533M106.998 125.5H235.002M81.8923 221.479C84.777 235.551 97.0009 245.958 111.373 245.605C127.592 245.206 140.405 231.255 139.992 214.445C139.578 197.634 126.095 184.33 109.877 184.728C95.9185 185.071 84.4829 195.452 81.8296 209.055M105.894 195.631C96.7727 197.824 90.0906 205.865 90.2744 215.314C90.488 226.287 99.8808 235.002 111.254 234.781C122.627 234.56 131.674 225.485 131.46 214.512C131.285 205.486 124.897 197.987 116.305 195.733M114.498 226.101C119.163 224.616 122.519 220.364 122.492 215.37C122.458 209.167 117.219 204.166 110.79 204.201C104.36 204.236 99.1753 209.293 99.2089 215.496C99.235 220.312 102.399 224.403 106.821 225.975M113.346 211.096C114.844 211.828 115.854 213.344 115.809 215.07C115.746 217.455 113.691 219.336 111.219 219.271C108.747 219.206 106.794 217.22 106.857 214.835C106.897 213.323 107.737 212.014 108.976 211.274M141.883 215.455L235 214.933M433.738 555.854C436.321 569.076 447.694 578.942 461.175 578.736C476.388 578.503 488.526 565.532 488.285 549.763C488.043 533.995 475.515 521.4 460.301 521.633C447.208 521.833 436.394 531.469 433.787 544.202M479.389 545.941C477.532 537.341 470.139 530.9 461.276 530.866C450.984 530.826 442.607 539.442 442.565 550.11C442.524 560.778 450.835 569.459 461.127 569.499C469.594 569.531 476.765 563.706 479.065 555.7M464.275 560.472C468.662 559.12 471.846 555.162 471.865 550.478C471.887 544.661 467.017 539.926 460.987 539.902C454.957 539.879 450.051 544.576 450.029 550.394C450.011 554.91 452.942 558.774 457.076 560.287M457.546 548.375C458.2 546.955 459.601 545.977 461.219 545.983C463.457 545.991 465.264 547.879 465.255 550.198C465.246 552.517 463.425 554.39 461.187 554.381C459.769 554.376 458.524 553.616 457.804 552.469M461 521L460.995 500M235 426V88C235 83.5817 238.582 80 243 80H787C791.419 80 795 83.5817 795 88V492C795 496.418 791.419 500 787 500H243C238.582 500 235 496.418 235 492V460" stroke="#6DFC3C" stroke-width="4" stroke-linecap="round" stroke-linejoin="round"/>
</g>
<path d="M74.0401 164.07C93.0099 160.288 107.113 143.904 106.742 124.549C106.323 102.707 87.6315 85.3517 64.9922 85.7855C42.353 86.2193 24.3396 104.278 24.7581 126.12C25.1183 144.918 39.0131 160.392 57.3104 164.064M59.5545 98.5777C47.2169 101.291 38.0099 111.942 38.0099 124.667C38.0099 139.445 50.4273 151.426 65.7449 151.426C81.0625 151.426 93.4798 139.445 93.4798 124.667C93.4798 112.51 85.0767 102.247 73.5686 98.9881M80.502 120.198C78.536 113.906 72.8359 109.356 66.1104 109.356C57.7574 109.356 50.986 116.375 50.986 125.033C50.986 133.69 57.7574 140.709 66.1104 140.709C72.5952 140.709 78.1267 136.479 80.2767 130.535M63.1706 129.927C61.1282 128.996 59.7154 126.99 59.7154 124.666C59.7154 121.453 62.4148 118.848 65.7447 118.848C69.0746 118.848 71.774 121.453 71.774 124.666C71.774 126.702 70.6896 128.494 69.0475 129.533M106.998 125.5H235.002M81.8923 221.479C84.777 235.551 97.0009 245.958 111.373 245.605C127.592 245.206 140.405 231.255 139.992 214.445C139.578 197.634 126.095 184.33 109.877 184.728C95.9185 185.071 84.4829 195.452 81.8296 209.055M105.894 195.631C96.7727 197.824 90.0906 205.865 90.2744 215.314C90.488 226.287 99.8808 235.002 111.254 234.781C122.627 234.56 131.674 225.485 131.46 214.512C131.285 205.486 124.897 197.987 116.305 195.733M114.498 226.101C119.163 224.616 122.519 220.364 122.492 215.37C122.458 209.167 117.219 204.166 110.79 204.201C104.36 204.236 99.1753 209.293 99.2089 215.496C99.235 220.312 102.399 224.403 106.821 225.975M113.346 211.096C114.844 211.828 115.854 213.344 115.809 215.07C115.746 217.455 113.691 219.336 111.219 219.271C108.747 219.206 106.794 217.22 106.857 214.835C106.897 213.323 107.737 212.014 108.976 211.274M141.883 215.455L235 214.933M433.738 555.854C436.321 569.076 447.694 578.942 461.175 578.736C476.388 578.503 488.526 565.532 488.285 549.763C488.043 533.995 475.515 521.4 460.301 521.633C447.208 521.833 436.394 531.469 433.787 544.202M479.389 545.941C477.532 537.341 470.139 530.9 461.276 530.866C450.984 530.826 442.607 539.442 442.565 550.11C442.524 560.778 450.835 569.459 461.127 569.499C469.594 569.531 476.765 563.706 479.065 555.7M464.275 560.472C468.662 559.12 471.846 555.162 471.865 550.478C471.887 544.661 467.017 539.926 460.987 539.902C454.957 539.879 450.051 544.576 450.029 550.394C450.011 554.91 452.942 558.774 457.076 560.287M457.546 548.375C458.2 546.955 459.601 545.977 461.219 545.983C463.457 545.991 465.264 547.879 465.255 550.198C465.246 552.517 463.425 554.39 461.187 554.381C459.769 554.376 458.524 553.616 457.804 552.469M461 521L460.995 500M235 426V88C235 83.5817 238.582 80 243 80H787C791.419 80 795 83.5817 795 88V492C795 496.418 791.419 500 787 500H243C238.582 500 235 496.418 235 492V460" stroke="#6DFC3C" stroke-width="4" stroke-linecap="round" stroke-linejoin="round"/>
<path d="M74.0401 163.07C93.0099 159.288 107.113 142.904 106.742 123.549C106.323 101.707 87.6315 84.3517 64.9922 84.7855C42.353 85.2193 24.3396 103.278 24.7581 125.12C25.1183 143.918 39.0131 159.392 57.3104 163.064M59.5545 97.5777C47.2169 100.291 38.0099 110.942 38.0099 123.667C38.0099 138.445 50.4273 150.426 65.7449 150.426C81.0625 150.426 93.4798 138.445 93.4798 123.667C93.4798 111.51 85.0767 101.247 73.5686 97.9881M80.502 119.198C78.536 112.906 72.8359 108.356 66.1104 108.356C57.7574 108.356 50.986 115.375 50.986 124.033C50.986 132.69 57.7574 139.709 66.1104 139.709C72.5952 139.709 78.1267 135.479 80.2767 129.535M63.1706 128.927C61.1282 127.996 59.7154 125.99 59.7154 123.666C59.7154 120.453 62.4148 117.848 65.7447 117.848C69.0746 117.848 71.774 120.453 71.774 123.666C71.774 125.702 70.6896 127.494 69.0475 128.533M106.998 124.5H235.002M81.8923 220.479C84.777 234.551 97.0009 244.958 111.373 244.605C127.592 244.206 140.405 230.255 139.992 213.445C139.578 196.634 126.095 183.33 109.877 183.728C95.9185 184.071 84.4829 194.452 81.8296 208.055M105.894 194.631C96.7727 196.824 90.0906 204.865 90.2744 214.314C90.488 225.287 99.8808 234.002 111.254 233.781C122.627 233.56 131.674 224.485 131.46 213.512C131.285 204.486 124.897 196.987 116.305 194.733M114.498 225.101C119.163 223.616 122.519 219.364 122.492 214.37C122.458 208.167 117.219 203.166 110.79 203.201C104.36 203.236 99.1753 208.293 99.2089 214.496C99.235 219.312 102.399 223.403 106.821 224.975M113.346 210.096C114.844 210.828 115.854 212.344 115.809 214.07C115.746 216.455 113.691 218.336 111.219 218.271C108.747 218.206 106.794 216.22 106.857 213.835C106.897 212.323 107.737 211.014 108.976 210.274M141.883 214.455L235 213.933M433.738 554.854C436.321 568.076 447.694 577.942 461.175 577.736C476.388 577.503 488.526 564.532 488.285 548.763C488.043 532.995 475.515 520.4 460.301 520.633C447.208 520.833 436.394 530.469 433.787 543.202M479.389 544.941C477.532 536.341 470.139 529.9 461.276 529.866C450.984 529.826 442.607 538.442 442.565 549.11C442.524 559.778 450.835 568.459 461.127 568.499C469.594 568.531 476.765 562.706 479.065 554.7M464.275 559.472C468.662 558.12 471.846 554.162 471.865 549.478C471.887 543.661 467.017 538.926 460.987 538.902C454.957 538.879 450.051 543.576 450.029 549.394C450.011 553.91 452.942 557.774 457.076 559.287M457.546 547.375C458.2 545.955 459.601 544.977 461.219 544.983C463.457 544.991 465.264 546.879 465.255 549.198C465.246 551.517 463.425 553.39 461.187 553.381C459.769 553.376 458.524 552.616 457.804 551.469M461 520L460.995 499M235 425V87C235 82.5817 238.582 79 243 79H787C791.419 79 795 82.5817 795 87V491C795 495.418 791.419 499 787 499H243C238.582 499 235 495.418 235 491V459" stroke="#B6FE9E" stroke-width="2" stroke-linecap="round" stroke-linejoin="round"/>
</g>
<defs>
<filter id="filter0_f" x="-157.749" y="-102.5" width="1135.25" height="863.739" filterUnits="userSpaceOnUse" color-interpolation-filters="sRGB">
<feFlood flood-opacity="0" result="BackgroundImageFix"/>
<feBlend mode="normal" in="SourceGraphic" in2="BackgroundImageFix" result="shape"/>
<feGaussianBlur stdDeviation="90" result="effect1_foregroundBlur"/>
</filter>
<filter id="filter1_f" x="7.75098" y="63" width="804.249" height="532.739" filterUnits="userSpaceOnUse" color-interpolation-filters="sRGB">
<feFlood flood-opacity="0" result="BackgroundImageFix"/>
<feBlend mode="normal" in="SourceGraphic" in2="BackgroundImageFix" result="shape"/>
<feGaussianBlur stdDeviation="7.5" result="effect1_foregroundBlur"/>
</filter>
<filter id="filter2_f" x="15.751" y="71" width="788.249" height="516.739" filterUnits="userSpaceOnUse" color-interpolation-filters="sRGB">
<feFlood flood-opacity="0" result="BackgroundImageFix"/>
<feBlend mode="normal" in="SourceGraphic" in2="BackgroundImageFix" result="shape"/>
<feGaussianBlur stdDeviation="3.5" result="effect1_foregroundBlur"/>
</filter>
<filter id="filter3_d" x="19.751" y="78" width="780.249" height="510.739" filterUnits="userSpaceOnUse" color-interpolation-filters="sRGB">
<feFlood flood-opacity="0" result="BackgroundImageFix"/>
<feColorMatrix in="SourceAlpha" type="matrix" values="0 0 0 0 0 0 0 0 0 0 0 0 0 0 0 0 0 0 127 0"/>
<feOffset dy="5"/>
<feGaussianBlur stdDeviation="1.5"/>
<feColorMatrix type="matrix" values="0 0 0 0 0 0 0 0 0 0 0 0 0 0 0 0 0 0 0.6 0"/>
<feBlend mode="normal" in2="BackgroundImageFix" result="effect1_dropShadow"/>
<feBlend mode="normal" in="SourceGraphic" in2="effect1_dropShadow" result="shape"/>
</filter>
<clipPath id="clip0">
<rect width="800" height="600" fill="white"/>
</clipPath>
</defs>
</svg>
